%TF.GenerationSoftware,KiCad,Pcbnew,10.0.4*%
%TF.CreationDate,2026-06-30T00:08:09-07:00*%
%TF.ProjectId,retroslop,72657472-6f73-46c6-9f70-2e6b69636164,rev?*%
%TF.SameCoordinates,Original*%
%TF.FileFunction,Paste,Top*%
%TF.FilePolarity,Positive*%
%FSLAX46Y46*%
G04 Gerber Fmt 4.6, Leading zero omitted, Abs format (unit mm)*
G04 Created by KiCad (PCBNEW 10.0.4) date 2026-06-30 00:08:09*
%MOMM*%
%LPD*%
G01*
G04 APERTURE LIST*
G04 Aperture macros list*
%AMRoundRect*
0 Rectangle with rounded corners*
0 $1 Rounding radius*
0 $2 $3 $4 $5 $6 $7 $8 $9 X,Y pos of 4 corners*
0 Add a 4 corners polygon primitive as box body*
4,1,4,$2,$3,$4,$5,$6,$7,$8,$9,$2,$3,0*
0 Add four circle primitives for the rounded corners*
1,1,$1+$1,$2,$3*
1,1,$1+$1,$4,$5*
1,1,$1+$1,$6,$7*
1,1,$1+$1,$8,$9*
0 Add four rect primitives between the rounded corners*
20,1,$1+$1,$2,$3,$4,$5,0*
20,1,$1+$1,$4,$5,$6,$7,0*
20,1,$1+$1,$6,$7,$8,$9,0*
20,1,$1+$1,$8,$9,$2,$3,0*%
G04 Aperture macros list end*
%ADD10RoundRect,0.250000X-0.412500X-1.100000X0.412500X-1.100000X0.412500X1.100000X-0.412500X1.100000X0*%
%ADD11RoundRect,0.250000X0.412500X1.100000X-0.412500X1.100000X-0.412500X-1.100000X0.412500X-1.100000X0*%
%ADD12RoundRect,0.250000X-0.400000X-0.625000X0.400000X-0.625000X0.400000X0.625000X-0.400000X0.625000X0*%
%ADD13R,0.900000X1.400000*%
G04 APERTURE END LIST*
D10*
%TO.C,C98*%
X64387500Y-220400000D03*
X67512500Y-220400000D03*
%TD*%
%TO.C,C97*%
X69625000Y-220450000D03*
X72750000Y-220450000D03*
%TD*%
%TO.C,C96*%
X64125000Y-241200000D03*
X67250000Y-241200000D03*
%TD*%
%TO.C,C88*%
X121775000Y-220600000D03*
X124900000Y-220600000D03*
%TD*%
%TO.C,C87*%
X121325000Y-241200000D03*
X124450000Y-241200000D03*
%TD*%
%TO.C,C92*%
X72762500Y-241250000D03*
X69637500Y-241250000D03*
%TD*%
D11*
%TO.C,C29*%
X226575000Y-242700000D03*
X229700000Y-242700000D03*
%TD*%
D12*
%TO.C,R31*%
X241437500Y-194370000D03*
X244537500Y-194370000D03*
%TD*%
%TO.C,R18*%
X241437500Y-187750000D03*
X244537500Y-187750000D03*
%TD*%
D11*
%TO.C,C63*%
X266412500Y-254900000D03*
X263287500Y-254900000D03*
%TD*%
D10*
%TO.C,C55*%
X225712500Y-235800000D03*
X228837500Y-235800000D03*
%TD*%
%TO.C,C42*%
X225712500Y-218800000D03*
X228837500Y-218800000D03*
%TD*%
%TO.C,C62*%
X226425000Y-251850000D03*
X229550000Y-251850000D03*
%TD*%
%TO.C,C79*%
X232225000Y-247800000D03*
X235350000Y-247800000D03*
%TD*%
D12*
%TO.C,R39*%
X232587500Y-220700000D03*
X235687500Y-220700000D03*
%TD*%
D10*
%TO.C,C76*%
X232225000Y-235050000D03*
X235350000Y-235050000D03*
%TD*%
D12*
%TO.C,R36*%
X217942500Y-192450000D03*
X221042500Y-192450000D03*
%TD*%
D13*
%TO.C,C14*%
X174360000Y-147470000D03*
X178260000Y-147470000D03*
%TD*%
D10*
%TO.C,C80*%
X232225000Y-252050000D03*
X235350000Y-252050000D03*
%TD*%
%TO.C,C45*%
X225712500Y-231550000D03*
X228837500Y-231550000D03*
%TD*%
%TO.C,C43*%
X225712500Y-223050000D03*
X228837500Y-223050000D03*
%TD*%
%TO.C,C77*%
X232225000Y-239300000D03*
X235350000Y-239300000D03*
%TD*%
%TO.C,C61*%
X226425000Y-247600000D03*
X229550000Y-247600000D03*
%TD*%
D12*
%TO.C,R40*%
X232587500Y-224010000D03*
X235687500Y-224010000D03*
%TD*%
%TO.C,R38*%
X232587500Y-217390000D03*
X235687500Y-217390000D03*
%TD*%
%TO.C,R32*%
X240450000Y-199750000D03*
X243550000Y-199750000D03*
%TD*%
D10*
%TO.C,C78*%
X232225000Y-243550000D03*
X235350000Y-243550000D03*
%TD*%
%TO.C,C41*%
X225712500Y-214550000D03*
X228837500Y-214550000D03*
%TD*%
D12*
%TO.C,R37*%
X232287500Y-229450000D03*
X235387500Y-229450000D03*
%TD*%
D10*
%TO.C,C44*%
X225712500Y-227300000D03*
X228837500Y-227300000D03*
%TD*%
M02*
