%TF.GenerationSoftware,KiCad,Pcbnew,10.0.4*%
%TF.CreationDate,2026-06-30T00:08:12-07:00*%
%TF.ProjectId,retroslop,72657472-6f73-46c6-9f70-2e6b69636164,rev?*%
%TF.SameCoordinates,Original*%
%TF.FileFunction,Drillmap*%
%TF.FilePolarity,Positive*%
%FSLAX45Y45*%
G04 Gerber Fmt 4.5, Leading zero omitted, Abs format (unit mm)*
G04 Created by KiCad (PCBNEW 10.0.4) date 2026-06-30 00:08:12*
%MOMM*%
%LPD*%
G01*
G04 APERTURE LIST*
%ADD10C,0.050000*%
%ADD11C,0.200000*%
%ADD12C,0.400000*%
G04 APERTURE END LIST*
D10*
X2400000Y-1616000D02*
X26784000Y-1616000D01*
X26784000Y-26000000D01*
X2400000Y-26000000D01*
X2400000Y-1616000D01*
D11*
D12*
X3216000Y-17164000D02*
X3616000Y-17564000D01*
X3616000Y-17164000D02*
X3216000Y-17564000D01*
X3216000Y-22371000D02*
X3616000Y-22771000D01*
X3616000Y-22371000D02*
X3216000Y-22771000D01*
X5502000Y-2051000D02*
X5902000Y-2451000D01*
X5902000Y-2051000D02*
X5502000Y-2451000D01*
X18710000Y-2051000D02*
X19110000Y-2451000D01*
X19110000Y-2051000D02*
X18710000Y-2451000D01*
X18710000Y-17799000D02*
X19110000Y-18199000D01*
X19110000Y-17799000D02*
X18710000Y-18199000D01*
X18710000Y-22371000D02*
X19110000Y-22771000D01*
X19110000Y-22371000D02*
X18710000Y-22771000D01*
X18710000Y-24403000D02*
X19110000Y-24803000D01*
X19110000Y-24403000D02*
X18710000Y-24803000D01*
X25949000Y-2051000D02*
X26349000Y-2451000D01*
X26349000Y-2051000D02*
X25949000Y-2451000D01*
X25949000Y-17799000D02*
X26349000Y-18199000D01*
X26349000Y-17799000D02*
X25949000Y-18199000D01*
D11*
X2658277Y-26313984D02*
X2658277Y-26113984D01*
X2658277Y-26113984D02*
X2705896Y-26113984D01*
X2705896Y-26113984D02*
X2734467Y-26123508D01*
X2734467Y-26123508D02*
X2753515Y-26142555D01*
X2753515Y-26142555D02*
X2763039Y-26161603D01*
X2763039Y-26161603D02*
X2772563Y-26199698D01*
X2772563Y-26199698D02*
X2772563Y-26228269D01*
X2772563Y-26228269D02*
X2763039Y-26266365D01*
X2763039Y-26266365D02*
X2753515Y-26285412D01*
X2753515Y-26285412D02*
X2734467Y-26304460D01*
X2734467Y-26304460D02*
X2705896Y-26313984D01*
X2705896Y-26313984D02*
X2658277Y-26313984D01*
X2858277Y-26313984D02*
X2858277Y-26180650D01*
X2858277Y-26218746D02*
X2867801Y-26199698D01*
X2867801Y-26199698D02*
X2877324Y-26190174D01*
X2877324Y-26190174D02*
X2896372Y-26180650D01*
X2896372Y-26180650D02*
X2915420Y-26180650D01*
X2982086Y-26313984D02*
X2982086Y-26180650D01*
X2982086Y-26113984D02*
X2972562Y-26123508D01*
X2972562Y-26123508D02*
X2982086Y-26133031D01*
X2982086Y-26133031D02*
X2991610Y-26123508D01*
X2991610Y-26123508D02*
X2982086Y-26113984D01*
X2982086Y-26113984D02*
X2982086Y-26133031D01*
X3105896Y-26313984D02*
X3086848Y-26304460D01*
X3086848Y-26304460D02*
X3077324Y-26285412D01*
X3077324Y-26285412D02*
X3077324Y-26113984D01*
X3210658Y-26313984D02*
X3191610Y-26304460D01*
X3191610Y-26304460D02*
X3182086Y-26285412D01*
X3182086Y-26285412D02*
X3182086Y-26113984D01*
X3439229Y-26313984D02*
X3439229Y-26113984D01*
X3439229Y-26113984D02*
X3505896Y-26256841D01*
X3505896Y-26256841D02*
X3572562Y-26113984D01*
X3572562Y-26113984D02*
X3572562Y-26313984D01*
X3753515Y-26313984D02*
X3753515Y-26209222D01*
X3753515Y-26209222D02*
X3743991Y-26190174D01*
X3743991Y-26190174D02*
X3724943Y-26180650D01*
X3724943Y-26180650D02*
X3686848Y-26180650D01*
X3686848Y-26180650D02*
X3667801Y-26190174D01*
X3753515Y-26304460D02*
X3734467Y-26313984D01*
X3734467Y-26313984D02*
X3686848Y-26313984D01*
X3686848Y-26313984D02*
X3667801Y-26304460D01*
X3667801Y-26304460D02*
X3658277Y-26285412D01*
X3658277Y-26285412D02*
X3658277Y-26266365D01*
X3658277Y-26266365D02*
X3667801Y-26247317D01*
X3667801Y-26247317D02*
X3686848Y-26237793D01*
X3686848Y-26237793D02*
X3734467Y-26237793D01*
X3734467Y-26237793D02*
X3753515Y-26228269D01*
X3848753Y-26180650D02*
X3848753Y-26380650D01*
X3848753Y-26190174D02*
X3867801Y-26180650D01*
X3867801Y-26180650D02*
X3905896Y-26180650D01*
X3905896Y-26180650D02*
X3924943Y-26190174D01*
X3924943Y-26190174D02*
X3934467Y-26199698D01*
X3934467Y-26199698D02*
X3943991Y-26218746D01*
X3943991Y-26218746D02*
X3943991Y-26275888D01*
X3943991Y-26275888D02*
X3934467Y-26294936D01*
X3934467Y-26294936D02*
X3924943Y-26304460D01*
X3924943Y-26304460D02*
X3905896Y-26313984D01*
X3905896Y-26313984D02*
X3867801Y-26313984D01*
X3867801Y-26313984D02*
X3848753Y-26304460D01*
X4029705Y-26294936D02*
X4039229Y-26304460D01*
X4039229Y-26304460D02*
X4029705Y-26313984D01*
X4029705Y-26313984D02*
X4020182Y-26304460D01*
X4020182Y-26304460D02*
X4029705Y-26294936D01*
X4029705Y-26294936D02*
X4029705Y-26313984D01*
X4029705Y-26190174D02*
X4039229Y-26199698D01*
X4039229Y-26199698D02*
X4029705Y-26209222D01*
X4029705Y-26209222D02*
X4020182Y-26199698D01*
X4020182Y-26199698D02*
X4029705Y-26190174D01*
X4029705Y-26190174D02*
X4029705Y-26209222D01*
X2197500Y-26542500D02*
X2397500Y-26742500D01*
X2397500Y-26542500D02*
X2197500Y-26742500D01*
X2743991Y-26600650D02*
X2743991Y-26733984D01*
X2696372Y-26524460D02*
X2648753Y-26667317D01*
X2648753Y-26667317D02*
X2772563Y-26667317D01*
X2848753Y-26714936D02*
X2858277Y-26724460D01*
X2858277Y-26724460D02*
X2848753Y-26733984D01*
X2848753Y-26733984D02*
X2839229Y-26724460D01*
X2839229Y-26724460D02*
X2848753Y-26714936D01*
X2848753Y-26714936D02*
X2848753Y-26733984D01*
X2982086Y-26533984D02*
X3001134Y-26533984D01*
X3001134Y-26533984D02*
X3020182Y-26543508D01*
X3020182Y-26543508D02*
X3029705Y-26553031D01*
X3029705Y-26553031D02*
X3039229Y-26572079D01*
X3039229Y-26572079D02*
X3048753Y-26610174D01*
X3048753Y-26610174D02*
X3048753Y-26657793D01*
X3048753Y-26657793D02*
X3039229Y-26695888D01*
X3039229Y-26695888D02*
X3029705Y-26714936D01*
X3029705Y-26714936D02*
X3020182Y-26724460D01*
X3020182Y-26724460D02*
X3001134Y-26733984D01*
X3001134Y-26733984D02*
X2982086Y-26733984D01*
X2982086Y-26733984D02*
X2963039Y-26724460D01*
X2963039Y-26724460D02*
X2953515Y-26714936D01*
X2953515Y-26714936D02*
X2943991Y-26695888D01*
X2943991Y-26695888D02*
X2934467Y-26657793D01*
X2934467Y-26657793D02*
X2934467Y-26610174D01*
X2934467Y-26610174D02*
X2943991Y-26572079D01*
X2943991Y-26572079D02*
X2953515Y-26553031D01*
X2953515Y-26553031D02*
X2963039Y-26543508D01*
X2963039Y-26543508D02*
X2982086Y-26533984D01*
X3172562Y-26533984D02*
X3191610Y-26533984D01*
X3191610Y-26533984D02*
X3210658Y-26543508D01*
X3210658Y-26543508D02*
X3220182Y-26553031D01*
X3220182Y-26553031D02*
X3229705Y-26572079D01*
X3229705Y-26572079D02*
X3239229Y-26610174D01*
X3239229Y-26610174D02*
X3239229Y-26657793D01*
X3239229Y-26657793D02*
X3229705Y-26695888D01*
X3229705Y-26695888D02*
X3220182Y-26714936D01*
X3220182Y-26714936D02*
X3210658Y-26724460D01*
X3210658Y-26724460D02*
X3191610Y-26733984D01*
X3191610Y-26733984D02*
X3172562Y-26733984D01*
X3172562Y-26733984D02*
X3153515Y-26724460D01*
X3153515Y-26724460D02*
X3143991Y-26714936D01*
X3143991Y-26714936D02*
X3134467Y-26695888D01*
X3134467Y-26695888D02*
X3124943Y-26657793D01*
X3124943Y-26657793D02*
X3124943Y-26610174D01*
X3124943Y-26610174D02*
X3134467Y-26572079D01*
X3134467Y-26572079D02*
X3143991Y-26553031D01*
X3143991Y-26553031D02*
X3153515Y-26543508D01*
X3153515Y-26543508D02*
X3172562Y-26533984D01*
X3363039Y-26533984D02*
X3382086Y-26533984D01*
X3382086Y-26533984D02*
X3401134Y-26543508D01*
X3401134Y-26543508D02*
X3410658Y-26553031D01*
X3410658Y-26553031D02*
X3420182Y-26572079D01*
X3420182Y-26572079D02*
X3429705Y-26610174D01*
X3429705Y-26610174D02*
X3429705Y-26657793D01*
X3429705Y-26657793D02*
X3420182Y-26695888D01*
X3420182Y-26695888D02*
X3410658Y-26714936D01*
X3410658Y-26714936D02*
X3401134Y-26724460D01*
X3401134Y-26724460D02*
X3382086Y-26733984D01*
X3382086Y-26733984D02*
X3363039Y-26733984D01*
X3363039Y-26733984D02*
X3343991Y-26724460D01*
X3343991Y-26724460D02*
X3334467Y-26714936D01*
X3334467Y-26714936D02*
X3324943Y-26695888D01*
X3324943Y-26695888D02*
X3315420Y-26657793D01*
X3315420Y-26657793D02*
X3315420Y-26610174D01*
X3315420Y-26610174D02*
X3324943Y-26572079D01*
X3324943Y-26572079D02*
X3334467Y-26553031D01*
X3334467Y-26553031D02*
X3343991Y-26543508D01*
X3343991Y-26543508D02*
X3363039Y-26533984D01*
X3515420Y-26733984D02*
X3515420Y-26600650D01*
X3515420Y-26619698D02*
X3524943Y-26610174D01*
X3524943Y-26610174D02*
X3543991Y-26600650D01*
X3543991Y-26600650D02*
X3572563Y-26600650D01*
X3572563Y-26600650D02*
X3591610Y-26610174D01*
X3591610Y-26610174D02*
X3601134Y-26629222D01*
X3601134Y-26629222D02*
X3601134Y-26733984D01*
X3601134Y-26629222D02*
X3610658Y-26610174D01*
X3610658Y-26610174D02*
X3629705Y-26600650D01*
X3629705Y-26600650D02*
X3658277Y-26600650D01*
X3658277Y-26600650D02*
X3677324Y-26610174D01*
X3677324Y-26610174D02*
X3686848Y-26629222D01*
X3686848Y-26629222D02*
X3686848Y-26733984D01*
X3782086Y-26733984D02*
X3782086Y-26600650D01*
X3782086Y-26619698D02*
X3791610Y-26610174D01*
X3791610Y-26610174D02*
X3810658Y-26600650D01*
X3810658Y-26600650D02*
X3839229Y-26600650D01*
X3839229Y-26600650D02*
X3858277Y-26610174D01*
X3858277Y-26610174D02*
X3867801Y-26629222D01*
X3867801Y-26629222D02*
X3867801Y-26733984D01*
X3867801Y-26629222D02*
X3877324Y-26610174D01*
X3877324Y-26610174D02*
X3896372Y-26600650D01*
X3896372Y-26600650D02*
X3924943Y-26600650D01*
X3924943Y-26600650D02*
X3943991Y-26610174D01*
X3943991Y-26610174D02*
X3953515Y-26629222D01*
X3953515Y-26629222D02*
X3953515Y-26733984D01*
X4343991Y-26524460D02*
X4172563Y-26781603D01*
X4601134Y-26533984D02*
X4620182Y-26533984D01*
X4620182Y-26533984D02*
X4639229Y-26543508D01*
X4639229Y-26543508D02*
X4648753Y-26553031D01*
X4648753Y-26553031D02*
X4658277Y-26572079D01*
X4658277Y-26572079D02*
X4667801Y-26610174D01*
X4667801Y-26610174D02*
X4667801Y-26657793D01*
X4667801Y-26657793D02*
X4658277Y-26695888D01*
X4658277Y-26695888D02*
X4648753Y-26714936D01*
X4648753Y-26714936D02*
X4639229Y-26724460D01*
X4639229Y-26724460D02*
X4620182Y-26733984D01*
X4620182Y-26733984D02*
X4601134Y-26733984D01*
X4601134Y-26733984D02*
X4582087Y-26724460D01*
X4582087Y-26724460D02*
X4572563Y-26714936D01*
X4572563Y-26714936D02*
X4563039Y-26695888D01*
X4563039Y-26695888D02*
X4553515Y-26657793D01*
X4553515Y-26657793D02*
X4553515Y-26610174D01*
X4553515Y-26610174D02*
X4563039Y-26572079D01*
X4563039Y-26572079D02*
X4572563Y-26553031D01*
X4572563Y-26553031D02*
X4582087Y-26543508D01*
X4582087Y-26543508D02*
X4601134Y-26533984D01*
X4753515Y-26714936D02*
X4763039Y-26724460D01*
X4763039Y-26724460D02*
X4753515Y-26733984D01*
X4753515Y-26733984D02*
X4743991Y-26724460D01*
X4743991Y-26724460D02*
X4753515Y-26714936D01*
X4753515Y-26714936D02*
X4753515Y-26733984D01*
X4953515Y-26733984D02*
X4839229Y-26733984D01*
X4896372Y-26733984D02*
X4896372Y-26533984D01*
X4896372Y-26533984D02*
X4877325Y-26562555D01*
X4877325Y-26562555D02*
X4858277Y-26581603D01*
X4858277Y-26581603D02*
X4839229Y-26591127D01*
X5134468Y-26533984D02*
X5039229Y-26533984D01*
X5039229Y-26533984D02*
X5029706Y-26629222D01*
X5029706Y-26629222D02*
X5039229Y-26619698D01*
X5039229Y-26619698D02*
X5058277Y-26610174D01*
X5058277Y-26610174D02*
X5105896Y-26610174D01*
X5105896Y-26610174D02*
X5124944Y-26619698D01*
X5124944Y-26619698D02*
X5134468Y-26629222D01*
X5134468Y-26629222D02*
X5143991Y-26648269D01*
X5143991Y-26648269D02*
X5143991Y-26695888D01*
X5143991Y-26695888D02*
X5134468Y-26714936D01*
X5134468Y-26714936D02*
X5124944Y-26724460D01*
X5124944Y-26724460D02*
X5105896Y-26733984D01*
X5105896Y-26733984D02*
X5058277Y-26733984D01*
X5058277Y-26733984D02*
X5039229Y-26724460D01*
X5039229Y-26724460D02*
X5029706Y-26714936D01*
X5210658Y-26533984D02*
X5343991Y-26533984D01*
X5343991Y-26533984D02*
X5258277Y-26733984D01*
X5515420Y-26533984D02*
X5420182Y-26533984D01*
X5420182Y-26533984D02*
X5410658Y-26629222D01*
X5410658Y-26629222D02*
X5420182Y-26619698D01*
X5420182Y-26619698D02*
X5439229Y-26610174D01*
X5439229Y-26610174D02*
X5486849Y-26610174D01*
X5486849Y-26610174D02*
X5505896Y-26619698D01*
X5505896Y-26619698D02*
X5515420Y-26629222D01*
X5515420Y-26629222D02*
X5524944Y-26648269D01*
X5524944Y-26648269D02*
X5524944Y-26695888D01*
X5524944Y-26695888D02*
X5515420Y-26714936D01*
X5515420Y-26714936D02*
X5505896Y-26724460D01*
X5505896Y-26724460D02*
X5486849Y-26733984D01*
X5486849Y-26733984D02*
X5439229Y-26733984D01*
X5439229Y-26733984D02*
X5420182Y-26724460D01*
X5420182Y-26724460D02*
X5410658Y-26714936D01*
X5601134Y-26533984D02*
X5601134Y-26572079D01*
X5677325Y-26533984D02*
X5677325Y-26572079D01*
X5972563Y-26810174D02*
X5963039Y-26800650D01*
X5963039Y-26800650D02*
X5943991Y-26772079D01*
X5943991Y-26772079D02*
X5934468Y-26753031D01*
X5934468Y-26753031D02*
X5924944Y-26724460D01*
X5924944Y-26724460D02*
X5915420Y-26676841D01*
X5915420Y-26676841D02*
X5915420Y-26638746D01*
X5915420Y-26638746D02*
X5924944Y-26591127D01*
X5924944Y-26591127D02*
X5934468Y-26562555D01*
X5934468Y-26562555D02*
X5943991Y-26543508D01*
X5943991Y-26543508D02*
X5963039Y-26514936D01*
X5963039Y-26514936D02*
X5972563Y-26505412D01*
X6058277Y-26733984D02*
X6096372Y-26733984D01*
X6096372Y-26733984D02*
X6115420Y-26724460D01*
X6115420Y-26724460D02*
X6124944Y-26714936D01*
X6124944Y-26714936D02*
X6143991Y-26686365D01*
X6143991Y-26686365D02*
X6153515Y-26648269D01*
X6153515Y-26648269D02*
X6153515Y-26572079D01*
X6153515Y-26572079D02*
X6143991Y-26553031D01*
X6143991Y-26553031D02*
X6134468Y-26543508D01*
X6134468Y-26543508D02*
X6115420Y-26533984D01*
X6115420Y-26533984D02*
X6077325Y-26533984D01*
X6077325Y-26533984D02*
X6058277Y-26543508D01*
X6058277Y-26543508D02*
X6048753Y-26553031D01*
X6048753Y-26553031D02*
X6039229Y-26572079D01*
X6039229Y-26572079D02*
X6039229Y-26619698D01*
X6039229Y-26619698D02*
X6048753Y-26638746D01*
X6048753Y-26638746D02*
X6058277Y-26648269D01*
X6058277Y-26648269D02*
X6077325Y-26657793D01*
X6077325Y-26657793D02*
X6115420Y-26657793D01*
X6115420Y-26657793D02*
X6134468Y-26648269D01*
X6134468Y-26648269D02*
X6143991Y-26638746D01*
X6143991Y-26638746D02*
X6153515Y-26619698D01*
X6391610Y-26733984D02*
X6391610Y-26533984D01*
X6477325Y-26733984D02*
X6477325Y-26629222D01*
X6477325Y-26629222D02*
X6467801Y-26610174D01*
X6467801Y-26610174D02*
X6448753Y-26600650D01*
X6448753Y-26600650D02*
X6420182Y-26600650D01*
X6420182Y-26600650D02*
X6401134Y-26610174D01*
X6401134Y-26610174D02*
X6391610Y-26619698D01*
X6601134Y-26733984D02*
X6582087Y-26724460D01*
X6582087Y-26724460D02*
X6572563Y-26714936D01*
X6572563Y-26714936D02*
X6563039Y-26695888D01*
X6563039Y-26695888D02*
X6563039Y-26638746D01*
X6563039Y-26638746D02*
X6572563Y-26619698D01*
X6572563Y-26619698D02*
X6582087Y-26610174D01*
X6582087Y-26610174D02*
X6601134Y-26600650D01*
X6601134Y-26600650D02*
X6629706Y-26600650D01*
X6629706Y-26600650D02*
X6648753Y-26610174D01*
X6648753Y-26610174D02*
X6658277Y-26619698D01*
X6658277Y-26619698D02*
X6667801Y-26638746D01*
X6667801Y-26638746D02*
X6667801Y-26695888D01*
X6667801Y-26695888D02*
X6658277Y-26714936D01*
X6658277Y-26714936D02*
X6648753Y-26724460D01*
X6648753Y-26724460D02*
X6629706Y-26733984D01*
X6629706Y-26733984D02*
X6601134Y-26733984D01*
X6782087Y-26733984D02*
X6763039Y-26724460D01*
X6763039Y-26724460D02*
X6753515Y-26705412D01*
X6753515Y-26705412D02*
X6753515Y-26533984D01*
X6934468Y-26724460D02*
X6915420Y-26733984D01*
X6915420Y-26733984D02*
X6877325Y-26733984D01*
X6877325Y-26733984D02*
X6858277Y-26724460D01*
X6858277Y-26724460D02*
X6848753Y-26705412D01*
X6848753Y-26705412D02*
X6848753Y-26629222D01*
X6848753Y-26629222D02*
X6858277Y-26610174D01*
X6858277Y-26610174D02*
X6877325Y-26600650D01*
X6877325Y-26600650D02*
X6915420Y-26600650D01*
X6915420Y-26600650D02*
X6934468Y-26610174D01*
X6934468Y-26610174D02*
X6943991Y-26629222D01*
X6943991Y-26629222D02*
X6943991Y-26648269D01*
X6943991Y-26648269D02*
X6848753Y-26667317D01*
X7020182Y-26724460D02*
X7039230Y-26733984D01*
X7039230Y-26733984D02*
X7077325Y-26733984D01*
X7077325Y-26733984D02*
X7096372Y-26724460D01*
X7096372Y-26724460D02*
X7105896Y-26705412D01*
X7105896Y-26705412D02*
X7105896Y-26695888D01*
X7105896Y-26695888D02*
X7096372Y-26676841D01*
X7096372Y-26676841D02*
X7077325Y-26667317D01*
X7077325Y-26667317D02*
X7048753Y-26667317D01*
X7048753Y-26667317D02*
X7029706Y-26657793D01*
X7029706Y-26657793D02*
X7020182Y-26638746D01*
X7020182Y-26638746D02*
X7020182Y-26629222D01*
X7020182Y-26629222D02*
X7029706Y-26610174D01*
X7029706Y-26610174D02*
X7048753Y-26600650D01*
X7048753Y-26600650D02*
X7077325Y-26600650D01*
X7077325Y-26600650D02*
X7096372Y-26610174D01*
X7172563Y-26810174D02*
X7182087Y-26800650D01*
X7182087Y-26800650D02*
X7201134Y-26772079D01*
X7201134Y-26772079D02*
X7210658Y-26753031D01*
X7210658Y-26753031D02*
X7220182Y-26724460D01*
X7220182Y-26724460D02*
X7229706Y-26676841D01*
X7229706Y-26676841D02*
X7229706Y-26638746D01*
X7229706Y-26638746D02*
X7220182Y-26591127D01*
X7220182Y-26591127D02*
X7210658Y-26562555D01*
X7210658Y-26562555D02*
X7201134Y-26543508D01*
X7201134Y-26543508D02*
X7182087Y-26514936D01*
X7182087Y-26514936D02*
X7172563Y-26505412D01*
X7534468Y-26810174D02*
X7524944Y-26800650D01*
X7524944Y-26800650D02*
X7505896Y-26772079D01*
X7505896Y-26772079D02*
X7496372Y-26753031D01*
X7496372Y-26753031D02*
X7486849Y-26724460D01*
X7486849Y-26724460D02*
X7477325Y-26676841D01*
X7477325Y-26676841D02*
X7477325Y-26638746D01*
X7477325Y-26638746D02*
X7486849Y-26591127D01*
X7486849Y-26591127D02*
X7496372Y-26562555D01*
X7496372Y-26562555D02*
X7505896Y-26543508D01*
X7505896Y-26543508D02*
X7524944Y-26514936D01*
X7524944Y-26514936D02*
X7534468Y-26505412D01*
X7610658Y-26600650D02*
X7610658Y-26733984D01*
X7610658Y-26619698D02*
X7620182Y-26610174D01*
X7620182Y-26610174D02*
X7639230Y-26600650D01*
X7639230Y-26600650D02*
X7667801Y-26600650D01*
X7667801Y-26600650D02*
X7686849Y-26610174D01*
X7686849Y-26610174D02*
X7696372Y-26629222D01*
X7696372Y-26629222D02*
X7696372Y-26733984D01*
X7820182Y-26733984D02*
X7801134Y-26724460D01*
X7801134Y-26724460D02*
X7791611Y-26714936D01*
X7791611Y-26714936D02*
X7782087Y-26695888D01*
X7782087Y-26695888D02*
X7782087Y-26638746D01*
X7782087Y-26638746D02*
X7791611Y-26619698D01*
X7791611Y-26619698D02*
X7801134Y-26610174D01*
X7801134Y-26610174D02*
X7820182Y-26600650D01*
X7820182Y-26600650D02*
X7848753Y-26600650D01*
X7848753Y-26600650D02*
X7867801Y-26610174D01*
X7867801Y-26610174D02*
X7877325Y-26619698D01*
X7877325Y-26619698D02*
X7886849Y-26638746D01*
X7886849Y-26638746D02*
X7886849Y-26695888D01*
X7886849Y-26695888D02*
X7877325Y-26714936D01*
X7877325Y-26714936D02*
X7867801Y-26724460D01*
X7867801Y-26724460D02*
X7848753Y-26733984D01*
X7848753Y-26733984D02*
X7820182Y-26733984D01*
X7943992Y-26600650D02*
X8020182Y-26600650D01*
X7972563Y-26533984D02*
X7972563Y-26705412D01*
X7972563Y-26705412D02*
X7982087Y-26724460D01*
X7982087Y-26724460D02*
X8001134Y-26733984D01*
X8001134Y-26733984D02*
X8020182Y-26733984D01*
X8239230Y-26600650D02*
X8239230Y-26800650D01*
X8239230Y-26610174D02*
X8258277Y-26600650D01*
X8258277Y-26600650D02*
X8296373Y-26600650D01*
X8296373Y-26600650D02*
X8315420Y-26610174D01*
X8315420Y-26610174D02*
X8324944Y-26619698D01*
X8324944Y-26619698D02*
X8334468Y-26638746D01*
X8334468Y-26638746D02*
X8334468Y-26695888D01*
X8334468Y-26695888D02*
X8324944Y-26714936D01*
X8324944Y-26714936D02*
X8315420Y-26724460D01*
X8315420Y-26724460D02*
X8296373Y-26733984D01*
X8296373Y-26733984D02*
X8258277Y-26733984D01*
X8258277Y-26733984D02*
X8239230Y-26724460D01*
X8448754Y-26733984D02*
X8429706Y-26724460D01*
X8429706Y-26724460D02*
X8420182Y-26705412D01*
X8420182Y-26705412D02*
X8420182Y-26533984D01*
X8610658Y-26733984D02*
X8610658Y-26629222D01*
X8610658Y-26629222D02*
X8601135Y-26610174D01*
X8601135Y-26610174D02*
X8582087Y-26600650D01*
X8582087Y-26600650D02*
X8543992Y-26600650D01*
X8543992Y-26600650D02*
X8524944Y-26610174D01*
X8610658Y-26724460D02*
X8591611Y-26733984D01*
X8591611Y-26733984D02*
X8543992Y-26733984D01*
X8543992Y-26733984D02*
X8524944Y-26724460D01*
X8524944Y-26724460D02*
X8515420Y-26705412D01*
X8515420Y-26705412D02*
X8515420Y-26686365D01*
X8515420Y-26686365D02*
X8524944Y-26667317D01*
X8524944Y-26667317D02*
X8543992Y-26657793D01*
X8543992Y-26657793D02*
X8591611Y-26657793D01*
X8591611Y-26657793D02*
X8610658Y-26648269D01*
X8677325Y-26600650D02*
X8753515Y-26600650D01*
X8705896Y-26533984D02*
X8705896Y-26705412D01*
X8705896Y-26705412D02*
X8715420Y-26724460D01*
X8715420Y-26724460D02*
X8734468Y-26733984D01*
X8734468Y-26733984D02*
X8753515Y-26733984D01*
X8896373Y-26724460D02*
X8877325Y-26733984D01*
X8877325Y-26733984D02*
X8839230Y-26733984D01*
X8839230Y-26733984D02*
X8820182Y-26724460D01*
X8820182Y-26724460D02*
X8810658Y-26705412D01*
X8810658Y-26705412D02*
X8810658Y-26629222D01*
X8810658Y-26629222D02*
X8820182Y-26610174D01*
X8820182Y-26610174D02*
X8839230Y-26600650D01*
X8839230Y-26600650D02*
X8877325Y-26600650D01*
X8877325Y-26600650D02*
X8896373Y-26610174D01*
X8896373Y-26610174D02*
X8905896Y-26629222D01*
X8905896Y-26629222D02*
X8905896Y-26648269D01*
X8905896Y-26648269D02*
X8810658Y-26667317D01*
X9077325Y-26733984D02*
X9077325Y-26533984D01*
X9077325Y-26724460D02*
X9058277Y-26733984D01*
X9058277Y-26733984D02*
X9020182Y-26733984D01*
X9020182Y-26733984D02*
X9001135Y-26724460D01*
X9001135Y-26724460D02*
X8991611Y-26714936D01*
X8991611Y-26714936D02*
X8982087Y-26695888D01*
X8982087Y-26695888D02*
X8982087Y-26638746D01*
X8982087Y-26638746D02*
X8991611Y-26619698D01*
X8991611Y-26619698D02*
X9001135Y-26610174D01*
X9001135Y-26610174D02*
X9020182Y-26600650D01*
X9020182Y-26600650D02*
X9058277Y-26600650D01*
X9058277Y-26600650D02*
X9077325Y-26610174D01*
X9153516Y-26810174D02*
X9163039Y-26800650D01*
X9163039Y-26800650D02*
X9182087Y-26772079D01*
X9182087Y-26772079D02*
X9191611Y-26753031D01*
X9191611Y-26753031D02*
X9201135Y-26724460D01*
X9201135Y-26724460D02*
X9210658Y-26676841D01*
X9210658Y-26676841D02*
X9210658Y-26638746D01*
X9210658Y-26638746D02*
X9201135Y-26591127D01*
X9201135Y-26591127D02*
X9191611Y-26562555D01*
X9191611Y-26562555D02*
X9182087Y-26543508D01*
X9182087Y-26543508D02*
X9163039Y-26514936D01*
X9163039Y-26514936D02*
X9153516Y-26505412D01*
M02*
