%TF.GenerationSoftware,KiCad,Pcbnew,10.0.4*%
%TF.CreationDate,2026-06-30T00:08:08-07:00*%
%TF.ProjectId,retroslop,72657472-6f73-46c6-9f70-2e6b69636164,rev?*%
%TF.SameCoordinates,Original*%
%TF.FileFunction,Copper,L6,Bot*%
%TF.FilePolarity,Positive*%
%FSLAX46Y46*%
G04 Gerber Fmt 4.6, Leading zero omitted, Abs format (unit mm)*
G04 Created by KiCad (PCBNEW 10.0.4) date 2026-06-30 00:08:08*
%MOMM*%
%LPD*%
G01*
G04 APERTURE LIST*
G04 Aperture macros list*
%AMRoundRect*
0 Rectangle with rounded corners*
0 $1 Rounding radius*
0 $2 $3 $4 $5 $6 $7 $8 $9 X,Y pos of 4 corners*
0 Add a 4 corners polygon primitive as box body*
4,1,4,$2,$3,$4,$5,$6,$7,$8,$9,$2,$3,0*
0 Add four circle primitives for the rounded corners*
1,1,$1+$1,$2,$3*
1,1,$1+$1,$4,$5*
1,1,$1+$1,$6,$7*
1,1,$1+$1,$8,$9*
0 Add four rect primitives between the rounded corners*
20,1,$1+$1,$2,$3,$4,$5,0*
20,1,$1+$1,$4,$5,$6,$7,0*
20,1,$1+$1,$6,$7,$8,$9,0*
20,1,$1+$1,$8,$9,$2,$3,0*%
G04 Aperture macros list end*
%TA.AperFunction,ComponentPad*%
%ADD10C,1.600000*%
%TD*%
%TA.AperFunction,ComponentPad*%
%ADD11RoundRect,0.250000X0.550000X-0.550000X0.550000X0.550000X-0.550000X0.550000X-0.550000X-0.550000X0*%
%TD*%
%TA.AperFunction,ComponentPad*%
%ADD12C,1.500000*%
%TD*%
%TA.AperFunction,ComponentPad*%
%ADD13C,1.950000*%
%TD*%
%TA.AperFunction,ComponentPad*%
%ADD14R,1.500000X1.500000*%
%TD*%
%TA.AperFunction,SMDPad,CuDef*%
%ADD15RoundRect,0.250000X0.412500X1.100000X-0.412500X1.100000X-0.412500X-1.100000X0.412500X-1.100000X0*%
%TD*%
%TA.AperFunction,ComponentPad*%
%ADD16C,3.000000*%
%TD*%
%TA.AperFunction,ComponentPad*%
%ADD17R,1.800000X2.600000*%
%TD*%
%TA.AperFunction,ComponentPad*%
%ADD18O,1.800000X2.600000*%
%TD*%
%TA.AperFunction,SMDPad,CuDef*%
%ADD19RoundRect,0.250000X0.412500X0.650000X-0.412500X0.650000X-0.412500X-0.650000X0.412500X-0.650000X0*%
%TD*%
%TA.AperFunction,ComponentPad*%
%ADD20R,1.650000X1.650000*%
%TD*%
%TA.AperFunction,ComponentPad*%
%ADD21C,1.650000*%
%TD*%
%TA.AperFunction,ComponentPad*%
%ADD22C,3.450000*%
%TD*%
%TA.AperFunction,ComponentPad*%
%ADD23R,1.700000X1.700000*%
%TD*%
%TA.AperFunction,ComponentPad*%
%ADD24C,1.700000*%
%TD*%
%TA.AperFunction,ComponentPad*%
%ADD25C,1.550000*%
%TD*%
%TA.AperFunction,ComponentPad*%
%ADD26C,5.000000*%
%TD*%
%TA.AperFunction,ComponentPad*%
%ADD27RoundRect,0.250000X-0.550000X0.550000X-0.550000X-0.550000X0.550000X-0.550000X0.550000X0.550000X0*%
%TD*%
%TA.AperFunction,ComponentPad*%
%ADD28R,1.130000X1.130000*%
%TD*%
%TA.AperFunction,ComponentPad*%
%ADD29C,1.130000*%
%TD*%
%TA.AperFunction,ComponentPad*%
%ADD30R,1.800000X1.800000*%
%TD*%
%TA.AperFunction,ComponentPad*%
%ADD31C,1.800000*%
%TD*%
%TA.AperFunction,ComponentPad*%
%ADD32R,1.500000X1.050000*%
%TD*%
%TA.AperFunction,ComponentPad*%
%ADD33O,1.500000X1.050000*%
%TD*%
%TA.AperFunction,ComponentPad*%
%ADD34R,1.440000X2.000000*%
%TD*%
%TA.AperFunction,ComponentPad*%
%ADD35O,1.440000X2.000000*%
%TD*%
%TA.AperFunction,ComponentPad*%
%ADD36R,1.638000X1.638000*%
%TD*%
%TA.AperFunction,ComponentPad*%
%ADD37C,1.638000*%
%TD*%
%TA.AperFunction,ComponentPad*%
%ADD38R,1.750000X1.750000*%
%TD*%
%TA.AperFunction,ComponentPad*%
%ADD39C,1.750000*%
%TD*%
%TA.AperFunction,ComponentPad*%
%ADD40R,1.635000X1.635000*%
%TD*%
%TA.AperFunction,ComponentPad*%
%ADD41C,1.635000*%
%TD*%
%TA.AperFunction,SMDPad,CuDef*%
%ADD42RoundRect,0.250000X-0.412500X-1.100000X0.412500X-1.100000X0.412500X1.100000X-0.412500X1.100000X0*%
%TD*%
%TA.AperFunction,SMDPad,CuDef*%
%ADD43RoundRect,0.250000X0.400000X0.625000X-0.400000X0.625000X-0.400000X-0.625000X0.400000X-0.625000X0*%
%TD*%
%TA.AperFunction,SMDPad,CuDef*%
%ADD44RoundRect,0.250000X-0.650000X0.412500X-0.650000X-0.412500X0.650000X-0.412500X0.650000X0.412500X0*%
%TD*%
%TA.AperFunction,SMDPad,CuDef*%
%ADD45RoundRect,0.250000X-1.100000X0.412500X-1.100000X-0.412500X1.100000X-0.412500X1.100000X0.412500X0*%
%TD*%
%TA.AperFunction,SMDPad,CuDef*%
%ADD46RoundRect,0.250000X0.650000X-0.412500X0.650000X0.412500X-0.650000X0.412500X-0.650000X-0.412500X0*%
%TD*%
%TA.AperFunction,SMDPad,CuDef*%
%ADD47RoundRect,0.250000X0.625000X-0.400000X0.625000X0.400000X-0.625000X0.400000X-0.625000X-0.400000X0*%
%TD*%
%TA.AperFunction,SMDPad,CuDef*%
%ADD48RoundRect,0.250000X-0.400000X-0.625000X0.400000X-0.625000X0.400000X0.625000X-0.400000X0.625000X0*%
%TD*%
%TA.AperFunction,SMDPad,CuDef*%
%ADD49RoundRect,0.250000X-0.625000X0.400000X-0.625000X-0.400000X0.625000X-0.400000X0.625000X0.400000X0*%
%TD*%
%TA.AperFunction,ViaPad*%
%ADD50C,0.600000*%
%TD*%
%TA.AperFunction,Conductor*%
%ADD51C,0.400000*%
%TD*%
%TA.AperFunction,Conductor*%
%ADD52C,0.200000*%
%TD*%
%TA.AperFunction,Conductor*%
%ADD53C,1.000000*%
%TD*%
G04 APERTURE END LIST*
D10*
%TO.P,U30,16,VCC_16*%
%TO.N,+5V*%
X202910000Y-148885000D03*
%TO.P,U30,15,D1_15*%
%TO.N,/Bus Driver/XD0*%
X205450000Y-148885000D03*
%TO.P,U30,14,Wa_14*%
%TO.N,/Bus Driver/XA0*%
X207990000Y-148885000D03*
%TO.P,U30,13,Wb_13*%
%TO.N,/Bus Driver/XA1*%
X210530000Y-148885000D03*
%TO.P,U30,12,~{Ew}_12*%
%TO.N,Net-(U30-~{Ew})*%
X213070000Y-148885000D03*
%TO.P,U30,11,~{Er}_11*%
%TO.N,/Bus Driver/~{DMA AEN}*%
X215610000Y-148885000D03*
%TO.P,U30,10,Q1_10*%
%TO.N,/Bus Driver/A16*%
X218150000Y-148885000D03*
%TO.P,U30,9,Q2_9*%
%TO.N,/Bus Driver/A17*%
X220690000Y-148885000D03*
%TO.P,U30,8,GND_8*%
%TO.N,GND*%
X220690000Y-156505000D03*
%TO.P,U30,7,Q3_7*%
%TO.N,/Bus Driver/A18*%
X218150000Y-156505000D03*
%TO.P,U30,6,Q4_6*%
%TO.N,/Bus Driver/A19*%
X215610000Y-156505000D03*
%TO.P,U30,5,Ra_5*%
%TO.N,/DMA/~{DACK3}*%
X213070000Y-156505000D03*
%TO.P,U30,4,Rb_4*%
%TO.N,/DMA/~{DACK2}*%
X210530000Y-156505000D03*
%TO.P,U30,3,D4_3*%
%TO.N,/Bus Driver/XD3*%
X207990000Y-156505000D03*
%TO.P,U30,2,D3_2*%
%TO.N,/Bus Driver/XD2*%
X205450000Y-156505000D03*
D11*
%TO.P,U30,1,D2_1*%
%TO.N,/Bus Driver/XD1*%
X202910000Y-156505000D03*
%TD*%
D10*
%TO.P,U28,20,VCC_20*%
%TO.N,+5V*%
X53550000Y-172180000D03*
%TO.P,U28,19,CE_19*%
%TO.N,GND*%
X56090000Y-172180000D03*
%TO.P,U28,18,B0_18*%
%TO.N,/~{XMEMW}*%
X58630000Y-172180000D03*
%TO.P,U28,17,B1_17*%
%TO.N,/~{XMEMR}*%
X61170000Y-172180000D03*
%TO.P,U28,16,B2_16*%
%TO.N,/~{XIOW}*%
X63710000Y-172180000D03*
%TO.P,U28,15,B3_15*%
%TO.N,/~{XIOR}*%
X66250000Y-172180000D03*
%TO.P,U28,14,B4_14*%
%TO.N,unconnected-(U28-B4-Pad14)*%
X68790000Y-172180000D03*
%TO.P,U28,13,B5_13*%
%TO.N,unconnected-(U28-B5-Pad13)*%
X71330000Y-172180000D03*
%TO.P,U28,12,B6_12*%
%TO.N,unconnected-(U28-B6-Pad12)*%
X73870000Y-172180000D03*
%TO.P,U28,11,B7_11*%
%TO.N,unconnected-(U28-B7-Pad11)*%
X76410000Y-172180000D03*
%TO.P,U28,10,GND_10*%
%TO.N,GND*%
X76410000Y-179800000D03*
%TO.P,U28,9,A7_9*%
%TO.N,unconnected-(U28-A7-Pad9)*%
X73870000Y-179800000D03*
%TO.P,U28,8,A6_8*%
%TO.N,unconnected-(U28-A6-Pad8)*%
X71330000Y-179800000D03*
%TO.P,U28,7,A5_7*%
%TO.N,unconnected-(U28-A5-Pad7)*%
X68790000Y-179800000D03*
%TO.P,U28,6,A4_6*%
%TO.N,unconnected-(U28-A4-Pad6)*%
X66250000Y-179800000D03*
%TO.P,U28,5,A3_5*%
%TO.N,/~{IOR}*%
X63710000Y-179800000D03*
%TO.P,U28,4,A2_4*%
%TO.N,/~{IOW}*%
X61170000Y-179800000D03*
%TO.P,U28,3,A1_3*%
%TO.N,/~{MEMR}*%
X58630000Y-179800000D03*
%TO.P,U28,2,A0_2*%
%TO.N,/~{MEMW}*%
X56090000Y-179800000D03*
D11*
%TO.P,U28,1,A->B_1*%
%TO.N,/Bus Driver/~{DMA AEN}*%
X53550000Y-179800000D03*
%TD*%
D10*
%TO.P,U41,16,VCC_16*%
%TO.N,+5V*%
X96960000Y-56750000D03*
%TO.P,U41,15,Q3_15*%
%TO.N,unconnected-(U41-Q3-Pad15)*%
X99500000Y-56750000D03*
%TO.P,U41,14,~{Q3}_14*%
%TO.N,unconnected-(U41-~{Q3}-Pad14)*%
X102040000Y-56750000D03*
%TO.P,U41,13,D3_13*%
%TO.N,GND*%
X104580000Y-56750000D03*
%TO.P,U41,12,D2_12*%
X107120000Y-56750000D03*
%TO.P,U41,11,~{Q2}_11*%
%TO.N,unconnected-(U41-~{Q2}-Pad11)*%
X109660000Y-56750000D03*
%TO.P,U41,10,Q2_10*%
%TO.N,unconnected-(U41-Q2-Pad10)*%
X112200000Y-56750000D03*
%TO.P,U41,9,Cp_9*%
%TO.N,PCLK*%
X114740000Y-56750000D03*
%TO.P,U41,8,GND_8*%
%TO.N,GND*%
X114740000Y-64370000D03*
%TO.P,U41,7,Q1_7*%
%TO.N,unconnected-(U41-Q1-Pad7)*%
X112200000Y-64370000D03*
%TO.P,U41,6,~{Q1}_6*%
%TO.N,unconnected-(U41-~{Q1}-Pad6)*%
X109660000Y-64370000D03*
%TO.P,U41,5,D1_5*%
%TO.N,GND*%
X107120000Y-64370000D03*
%TO.P,U41,4,D0_4*%
%TO.N,Net-(U41-D0)*%
X104580000Y-64370000D03*
%TO.P,U41,3,~{Q0}_3*%
X102040000Y-64370000D03*
%TO.P,U41,2,Q0_2*%
%TO.N,Net-(U33-CLK0)*%
X99500000Y-64370000D03*
D11*
%TO.P,U41,1,~{Mr}_1*%
%TO.N,/Wait State Generator/~{RESET}*%
X96960000Y-64370000D03*
%TD*%
D12*
%TO.P,VR1,3,CW_3*%
%TO.N,+5V*%
X86862500Y-23350000D03*
D13*
%TO.P,VR1,2,WIPER_2*%
%TO.N,Net-(DS2-VO)*%
X89862500Y-20850000D03*
D14*
%TO.P,VR1,1,CCW_1*%
%TO.N,GND*%
X86862500Y-18350000D03*
%TD*%
D15*
%TO.P,C32,2*%
%TO.N,GND*%
X234187500Y-210850000D03*
%TO.P,C32,1*%
%TO.N,+5V*%
X237312500Y-210850000D03*
%TD*%
D12*
%TO.P,S2,4,COM_2_4*%
%TO.N,unconnected-(S2-COM_2-Pad4)*%
X45950000Y-121550000D03*
%TO.P,S2,3,COM_1_3*%
%TO.N,GND*%
X39450000Y-121550000D03*
%TO.P,S2,2,NO_2_2*%
%TO.N,unconnected-(S2-NO_2-Pad2)*%
X45950000Y-117050000D03*
D14*
%TO.P,S2,1,NO_1_1*%
%TO.N,Net-(IC1-N.C._(~{RCLR)})*%
X39450000Y-117050000D03*
%TD*%
D16*
%TO.P,DS2,*%
%TO.N,*%
X96390900Y-19750000D03*
X96390900Y-50750700D03*
X171389480Y-50750700D03*
X171390000Y-19750000D03*
D17*
%TO.P,DS2,1,VSS_1*%
%TO.N,GND*%
X101890000Y-19750000D03*
D18*
%TO.P,DS2,2,VDD_2*%
%TO.N,+5V*%
X104430000Y-19750000D03*
%TO.P,DS2,3,VO_3*%
%TO.N,Net-(DS2-VO)*%
X106970000Y-19750000D03*
%TO.P,DS2,4,RS_4*%
%TO.N,/Pinout/PC3*%
X109510000Y-19750000D03*
%TO.P,DS2,5,R/W_5*%
%TO.N,/Pinout/PC2*%
X112050000Y-19750000D03*
%TO.P,DS2,6,E_6*%
%TO.N,/Pinout/PC1*%
X114590000Y-19750000D03*
%TO.P,DS2,7,D0_7*%
%TO.N,/Pinout/PA0*%
X117130000Y-19750000D03*
%TO.P,DS2,8,D1_8*%
%TO.N,/Pinout/PA1*%
X119670000Y-19750000D03*
%TO.P,DS2,9,D2_9*%
%TO.N,/Pinout/PA2*%
X122210000Y-19750000D03*
%TO.P,DS2,10,D3_10*%
%TO.N,/Pinout/PA3*%
X124750000Y-19750000D03*
%TO.P,DS2,11,D4_11*%
%TO.N,/Pinout/PA4*%
X127290000Y-19750000D03*
%TO.P,DS2,12,D5_12*%
%TO.N,/Pinout/PA5*%
X129830000Y-19750000D03*
%TO.P,DS2,13,D6_13*%
%TO.N,/Pinout/PA6*%
X132370000Y-19750000D03*
%TO.P,DS2,14,D7_14*%
%TO.N,/Pinout/PA7*%
X134910000Y-19750000D03*
%TO.P,DS2,15,LED(+)_15*%
%TO.N,Net-(DS2-LED(+))*%
X137450000Y-19750000D03*
%TO.P,DS2,16,LED(-)_16*%
%TO.N,GND*%
X139990000Y-19750000D03*
%TD*%
D19*
%TO.P,C11,2*%
%TO.N,GND*%
X240000000Y-48000000D03*
%TO.P,C11,1*%
%TO.N,/POWER/PWR GOOD*%
X243125000Y-48000000D03*
%TD*%
D10*
%TO.P,U16,28,VCC_28*%
%TO.N,+5V*%
X192270000Y-95640000D03*
%TO.P,U16,27,A0_27*%
%TO.N,/Bus Driver/XA0*%
X194810000Y-95640000D03*
%TO.P,U16,26,~{INTA}_26*%
%TO.N,Net-(U16-~{INTA})*%
X197350000Y-95640000D03*
%TO.P,U16,25,IR7_25*%
%TO.N,/Processor And Control/IRQ7*%
X199890000Y-95640000D03*
%TO.P,U16,24,IR6_24*%
%TO.N,/Processor And Control/IRQ6*%
X202430000Y-95640000D03*
%TO.P,U16,23,IR5_23*%
%TO.N,/Processor And Control/IRQ5*%
X204970000Y-95640000D03*
%TO.P,U16,22,IR4_22*%
%TO.N,/Processor And Control/IRQ4*%
X207510000Y-95640000D03*
%TO.P,U16,21,IR3_21*%
%TO.N,/Processor And Control/IRQ3*%
X210050000Y-95640000D03*
%TO.P,U16,20,IR2_20*%
%TO.N,/Processor And Control/IRQ2*%
X212590000Y-95640000D03*
%TO.P,U16,19,IR1_19*%
%TO.N,/Processor And Control/IRQ1*%
X215130000Y-95640000D03*
%TO.P,U16,18,IR0_18*%
%TO.N,/Processor And Control/IRQ0*%
X217670000Y-95640000D03*
%TO.P,U16,17,INT_17*%
%TO.N,Net-(U14-INTR)*%
X220210000Y-95640000D03*
%TO.P,U16,16,~{SP}/~{EN}_16*%
%TO.N,Net-(U16-~{SP}{slash}~{EN})*%
X222750000Y-95640000D03*
%TO.P,U16,15,CAS2_15*%
%TO.N,unconnected-(U16-CAS2-Pad15)*%
X225290000Y-95640000D03*
%TO.P,U16,14,GND_14*%
%TO.N,GND*%
X225290000Y-110880000D03*
%TO.P,U16,13,CAS1_13*%
%TO.N,unconnected-(U16-CAS1-Pad13)*%
X222750000Y-110880000D03*
%TO.P,U16,12,CAS0_12*%
%TO.N,unconnected-(U16-CAS0-Pad12)*%
X220210000Y-110880000D03*
%TO.P,U16,11,D0_11*%
%TO.N,/Processor And Control/AX0*%
X217670000Y-110880000D03*
%TO.P,U16,10,D1_10*%
%TO.N,/Processor And Control/AX1*%
X215130000Y-110880000D03*
%TO.P,U16,9,D2_9*%
%TO.N,/Processor And Control/AX2*%
X212590000Y-110880000D03*
%TO.P,U16,8,D3_8*%
%TO.N,/Processor And Control/AX3*%
X210050000Y-110880000D03*
%TO.P,U16,7,D4_7*%
%TO.N,/Processor And Control/AX4*%
X207510000Y-110880000D03*
%TO.P,U16,6,D5_6*%
%TO.N,/Processor And Control/AX5*%
X204970000Y-110880000D03*
%TO.P,U16,5,D6_5*%
%TO.N,/Processor And Control/AX6*%
X202430000Y-110880000D03*
%TO.P,U16,4,D7_4*%
%TO.N,/Processor And Control/AX7*%
X199890000Y-110880000D03*
%TO.P,U16,3,~{RD}_3*%
%TO.N,/~{XIOR}*%
X197350000Y-110880000D03*
%TO.P,U16,2,~{WR}_2*%
%TO.N,/~{XIOW}*%
X194810000Y-110880000D03*
D11*
%TO.P,U16,1,~{CS}_1*%
%TO.N,/Device Decoder/~{PIC CS}*%
X192270000Y-110880000D03*
%TD*%
D20*
%TO.P,J10,A1,A1_A1*%
%TO.N,/Keyboard/MOUSE DATA*%
X31550000Y-138800000D03*
D21*
%TO.P,J10,A2,A2_A2*%
%TO.N,unconnected-(J10-PadA2)*%
X31550000Y-136200000D03*
%TO.P,J10,A3,A3_A3*%
%TO.N,GND*%
X31550000Y-140900000D03*
%TO.P,J10,A5,A5_A5*%
%TO.N,+5V*%
X31550000Y-134100000D03*
%TO.P,J10,A6,A6_A6*%
%TO.N,/Keyboard/MOUSE CLOCK*%
X34050000Y-140900000D03*
%TO.P,J10,A8,A8_A8*%
%TO.N,unconnected-(J10-PadA8)*%
X34050000Y-134100000D03*
%TO.P,J10,B1,B1_B1*%
%TO.N,/Keyboard/KEYBOARD DATA*%
X38550000Y-138800000D03*
%TO.P,J10,B2,B2_B2*%
%TO.N,unconnected-(J10-PadB2)*%
X38550000Y-136200000D03*
%TO.P,J10,B3,B3_B3*%
%TO.N,GND*%
X38550000Y-140900000D03*
%TO.P,J10,B5,B5_B5*%
%TO.N,+5V*%
X38550000Y-134100000D03*
%TO.P,J10,B6,B6_B6*%
%TO.N,/Keyboard/KEYBOARD CLOCK*%
X41050000Y-140900000D03*
%TO.P,J10,B8,B8_B8*%
%TO.N,unconnected-(J10-PadB8)*%
X41050000Y-134100000D03*
D22*
%TO.P,J10,MH1,MH1_MH1*%
%TO.N,GND*%
X27750000Y-137500000D03*
%TO.P,J10,MH2,MH2_MH2*%
X28550000Y-144250000D03*
%TO.P,J10,MH3,MH3_MH3*%
X28550000Y-130750000D03*
%TO.P,J10,MH4,MH4_MH4*%
X38550000Y-144250000D03*
%TO.P,J10,MH5,MH5_MH5*%
X38550000Y-130750000D03*
%TD*%
D23*
%TO.P,J7,1,Pin_1_1*%
%TO.N,GND*%
X30540000Y-23000000D03*
D24*
%TO.P,J7,2,Pin_2_2*%
%TO.N,+5V*%
X28000000Y-23000000D03*
%TO.P,J7,3,Pin_3_3*%
%TO.N,/Pinout/PA0*%
X30540000Y-25540000D03*
%TO.P,J7,4,Pin_4_4*%
%TO.N,/Pinout/PA4*%
X28000000Y-25540000D03*
%TO.P,J7,5,Pin_5_5*%
%TO.N,/Pinout/PA1*%
X30540000Y-28080000D03*
%TO.P,J7,6,Pin_6_6*%
%TO.N,/Pinout/PA5*%
X28000000Y-28080000D03*
%TO.P,J7,7,Pin_7_7*%
%TO.N,/Pinout/PA2*%
X30540000Y-30620000D03*
%TO.P,J7,8,Pin_8_8*%
%TO.N,/Pinout/PA6*%
X28000000Y-30620000D03*
%TO.P,J7,9,Pin_9_9*%
%TO.N,/Pinout/PA3*%
X30540000Y-33160000D03*
%TO.P,J7,10,Pin_10_10*%
%TO.N,/Pinout/PA7*%
X28000000Y-33160000D03*
%TO.P,J7,11,Pin_11_11*%
%TO.N,/Pinout/PB0*%
X30540000Y-35700000D03*
%TO.P,J7,12,Pin_12_12*%
%TO.N,/Pinout/PB4*%
X28000000Y-35700000D03*
%TO.P,J7,13,Pin_13_13*%
%TO.N,/Pinout/PB1*%
X30540000Y-38240000D03*
%TO.P,J7,14,Pin_14_14*%
%TO.N,/Pinout/PB5*%
X28000000Y-38240000D03*
%TO.P,J7,15,Pin_15_15*%
%TO.N,/Pinout/PB2*%
X30540000Y-40780000D03*
%TO.P,J7,16,Pin_16_16*%
%TO.N,/Pinout/PB6*%
X28000000Y-40780000D03*
%TO.P,J7,17,Pin_17_17*%
%TO.N,/Pinout/PB3*%
X30540000Y-43320000D03*
%TO.P,J7,18,Pin_18_18*%
%TO.N,/Pinout/PB7*%
X28000000Y-43320000D03*
%TO.P,J7,19,Pin_19_19*%
%TO.N,/Pinout/PC0*%
X30540000Y-45860000D03*
%TO.P,J7,20,Pin_20_20*%
%TO.N,/Pinout/PC4*%
X28000000Y-45860000D03*
%TO.P,J7,21,Pin_21_21*%
%TO.N,/Pinout/PC1*%
X30540000Y-48400000D03*
%TO.P,J7,22,Pin_22_22*%
%TO.N,/Pinout/PC5*%
X28000000Y-48400000D03*
%TO.P,J7,23,Pin_23_23*%
%TO.N,/Pinout/PC2*%
X30540000Y-50940000D03*
%TO.P,J7,24,Pin_24_24*%
%TO.N,/Pinout/PC6*%
X28000000Y-50940000D03*
%TO.P,J7,25,Pin_25_25*%
%TO.N,/Pinout/PC3*%
X30540000Y-53480000D03*
%TO.P,J7,26,Pin_26_26*%
%TO.N,/Pinout/PC7*%
X28000000Y-53480000D03*
%TO.P,J7,27,Pin_27_27*%
%TO.N,/Pinout/PIT OUT*%
X30540000Y-56020000D03*
%TO.P,J7,28,Pin_28_28*%
%TO.N,/Pinout/PIT GATE*%
X28000000Y-56020000D03*
%TD*%
D11*
%TO.P,U56,1,OEa_1*%
%TO.N,/Wait State Generator/AEN*%
X103570000Y-149055000D03*
D10*
%TO.P,U56,2,I0a_2*%
%TO.N,/Bus Driver/A0*%
X106110000Y-149055000D03*
%TO.P,U56,3,O3b_3*%
%TO.N,/Bus Driver/XA7*%
X108650000Y-149055000D03*
%TO.P,U56,4,I1a_4*%
%TO.N,/Bus Driver/A1*%
X111190000Y-149055000D03*
%TO.P,U56,5,O2b_5*%
%TO.N,/Bus Driver/XA6*%
X113730000Y-149055000D03*
%TO.P,U56,6,I2a_6*%
%TO.N,/Bus Driver/A2*%
X116270000Y-149055000D03*
%TO.P,U56,7,O1b_7*%
%TO.N,/Bus Driver/XA5*%
X118810000Y-149055000D03*
%TO.P,U56,8,I3a_8*%
%TO.N,/Bus Driver/A3*%
X121350000Y-149055000D03*
%TO.P,U56,9,O0b_9*%
%TO.N,/Bus Driver/XA4*%
X123890000Y-149055000D03*
%TO.P,U56,10,GND_10*%
%TO.N,GND*%
X126430000Y-149055000D03*
%TO.P,U56,11,I0b_11*%
%TO.N,/Bus Driver/A4*%
X126430000Y-141435000D03*
%TO.P,U56,12,O3a_12*%
%TO.N,/Bus Driver/XA3*%
X123890000Y-141435000D03*
%TO.P,U56,13,I1b_13*%
%TO.N,/Bus Driver/A5*%
X121350000Y-141435000D03*
%TO.P,U56,14,O2a_14*%
%TO.N,/Bus Driver/XA2*%
X118810000Y-141435000D03*
%TO.P,U56,15,I2b_15*%
%TO.N,/Bus Driver/A6*%
X116270000Y-141435000D03*
%TO.P,U56,16,O1a_16*%
%TO.N,/Bus Driver/XA1*%
X113730000Y-141435000D03*
%TO.P,U56,17,I3b_17*%
%TO.N,/Bus Driver/A7*%
X111190000Y-141435000D03*
%TO.P,U56,18,O0a_18*%
%TO.N,/Bus Driver/XA0*%
X108650000Y-141435000D03*
%TO.P,U56,19,OEb_19*%
%TO.N,/Wait State Generator/AEN*%
X106110000Y-141435000D03*
%TO.P,U56,20,VCC_20*%
%TO.N,+5V*%
X103570000Y-141435000D03*
%TD*%
D11*
%TO.P,U32,1,~{Mr}_1*%
%TO.N,/Wait State Generator/~{RESET}*%
X211130000Y-63420000D03*
D10*
%TO.P,U32,2,Q0_2*%
%TO.N,/Wait State Generator/AEN*%
X213670000Y-63420000D03*
%TO.P,U32,3,~{Q0}_3*%
%TO.N,/Device Decoder/~{AEN}*%
X216210000Y-63420000D03*
%TO.P,U32,4,D0_4*%
%TO.N,/Wait State Generator/HOLDA*%
X218750000Y-63420000D03*
%TO.P,U32,5,D1_5*%
%TO.N,/Wait State Generator/AEN*%
X221290000Y-63420000D03*
%TO.P,U32,6,~{Q1}_6*%
%TO.N,/Processor And Control/~{DMA WAIT}*%
X223830000Y-63420000D03*
%TO.P,U32,7,Q1_7*%
%TO.N,/Wait State Generator/DMA WAIT*%
X226370000Y-63420000D03*
%TO.P,U32,8,GND_8*%
%TO.N,GND*%
X228910000Y-63420000D03*
%TO.P,U32,9,Cp_9*%
%TO.N,CLK*%
X228910000Y-55800000D03*
%TO.P,U32,10,Q2_10*%
%TO.N,/Wait State Generator/~{RDY}{slash}WAIT DLY*%
X226370000Y-55800000D03*
%TO.P,U32,11,~{Q2}_11*%
%TO.N,/Wait State Generator/RDY{slash}~{WAIT} DLY*%
X223830000Y-55800000D03*
%TO.P,U32,12,D2_12*%
%TO.N,/Wait State Generator/~{RDY}{slash}WAIT*%
X221290000Y-55800000D03*
%TO.P,U32,13,D3_13*%
%TO.N,Net-(U32-D3)*%
X218750000Y-55800000D03*
%TO.P,U32,14,~{Q3}_14*%
%TO.N,Net-(U10B-D)*%
X216210000Y-55800000D03*
%TO.P,U32,15,Q3_15*%
%TO.N,unconnected-(U32-Q3-Pad15)*%
X213670000Y-55800000D03*
%TO.P,U32,16,VCC_16*%
%TO.N,+5V*%
X211130000Y-55800000D03*
%TD*%
D11*
%TO.P,U35,1,OE_1*%
%TO.N,/Bus Driver/~{DMA AEN}*%
X196940000Y-251900000D03*
D10*
%TO.P,U35,2,O0_2*%
%TO.N,/Bus Driver/A8*%
X199480000Y-251900000D03*
%TO.P,U35,3,D0_3*%
%TO.N,/Bus Driver/XD0*%
X202020000Y-251900000D03*
%TO.P,U35,4,D1_4*%
%TO.N,/Bus Driver/XD1*%
X204560000Y-251900000D03*
%TO.P,U35,5,O1_5*%
%TO.N,/Bus Driver/A9*%
X207100000Y-251900000D03*
%TO.P,U35,6,O2_6*%
%TO.N,/Bus Driver/A10*%
X209640000Y-251900000D03*
%TO.P,U35,7,D2_7*%
%TO.N,/Bus Driver/XD2*%
X212180000Y-251900000D03*
%TO.P,U35,8,D3_8*%
%TO.N,/Bus Driver/XD3*%
X214720000Y-251900000D03*
%TO.P,U35,9,O3_9*%
%TO.N,/Bus Driver/A11*%
X217260000Y-251900000D03*
%TO.P,U35,10,GND_10*%
%TO.N,GND*%
X219800000Y-251900000D03*
%TO.P,U35,11,LE_11*%
%TO.N,Net-(U25-ADSTB)*%
X219800000Y-244280000D03*
%TO.P,U35,12,O4_12*%
%TO.N,/Bus Driver/A12*%
X217260000Y-244280000D03*
%TO.P,U35,13,D4_13*%
%TO.N,/Bus Driver/XD4*%
X214720000Y-244280000D03*
%TO.P,U35,14,D5_14*%
%TO.N,/Bus Driver/XD5*%
X212180000Y-244280000D03*
%TO.P,U35,15,O5_15*%
%TO.N,/Bus Driver/A13*%
X209640000Y-244280000D03*
%TO.P,U35,16,O6_16*%
%TO.N,/Bus Driver/A14*%
X207100000Y-244280000D03*
%TO.P,U35,17,D6_17*%
%TO.N,/Bus Driver/XD6*%
X204560000Y-244280000D03*
%TO.P,U35,18,D7_18*%
%TO.N,/Bus Driver/XD7*%
X202020000Y-244280000D03*
%TO.P,U35,19,O7_19*%
%TO.N,/Bus Driver/A15*%
X199480000Y-244280000D03*
%TO.P,U35,20,VCC_20*%
%TO.N,+5V*%
X196940000Y-244280000D03*
%TD*%
D11*
%TO.P,U9,1,A->B_1*%
%TO.N,/~{XMEMR}*%
X140700000Y-183650000D03*
D10*
%TO.P,U9,2,A0_2*%
%TO.N,/Bus Driver/D0*%
X143240000Y-183650000D03*
%TO.P,U9,3,A1_3*%
%TO.N,/Bus Driver/D1*%
X145780000Y-183650000D03*
%TO.P,U9,4,A2_4*%
%TO.N,/Bus Driver/D2*%
X148320000Y-183650000D03*
%TO.P,U9,5,A3_5*%
%TO.N,/Bus Driver/D3*%
X150860000Y-183650000D03*
%TO.P,U9,6,A4_6*%
%TO.N,/Bus Driver/D4*%
X153400000Y-183650000D03*
%TO.P,U9,7,A5_7*%
%TO.N,/Bus Driver/D5*%
X155940000Y-183650000D03*
%TO.P,U9,8,A6_8*%
%TO.N,/Bus Driver/D6*%
X158480000Y-183650000D03*
%TO.P,U9,9,A7_9*%
%TO.N,/Bus Driver/D7*%
X161020000Y-183650000D03*
%TO.P,U9,10,GND_10*%
%TO.N,GND*%
X163560000Y-183650000D03*
%TO.P,U9,11,B7_11*%
%TO.N,/RAM and ROM/MD7*%
X163560000Y-176030000D03*
%TO.P,U9,12,B6_12*%
%TO.N,/RAM and ROM/MD6*%
X161020000Y-176030000D03*
%TO.P,U9,13,B5_13*%
%TO.N,/RAM and ROM/MD5*%
X158480000Y-176030000D03*
%TO.P,U9,14,B4_14*%
%TO.N,/RAM and ROM/MD4*%
X155940000Y-176030000D03*
%TO.P,U9,15,B3_15*%
%TO.N,/RAM and ROM/MD3*%
X153400000Y-176030000D03*
%TO.P,U9,16,B2_16*%
%TO.N,/RAM and ROM/MD2*%
X150860000Y-176030000D03*
%TO.P,U9,17,B1_17*%
%TO.N,/RAM and ROM/MD1*%
X148320000Y-176030000D03*
%TO.P,U9,18,B0_18*%
%TO.N,/RAM and ROM/MD0*%
X145780000Y-176030000D03*
%TO.P,U9,19,CE_19*%
%TO.N,/Device Decoder/~{MEM_ADDR_SEL}*%
X143240000Y-176030000D03*
%TO.P,U9,20,VCC_20*%
%TO.N,+5V*%
X140700000Y-176030000D03*
%TD*%
D25*
%TO.P,J5,1,1_1*%
%TO.N,unconnected-(J5-Pad1)*%
X30600000Y-97615000D03*
%TO.P,J5,2,2_2*%
%TO.N,/UART/RXD*%
X30600000Y-100385000D03*
%TO.P,J5,3,3_3*%
%TO.N,/UART/TXD*%
X30600000Y-103155000D03*
%TO.P,J5,4,4_4*%
%TO.N,unconnected-(J5-Pad4)*%
X30600000Y-105925000D03*
%TO.P,J5,5,5_5*%
%TO.N,GND*%
X30600000Y-108695000D03*
%TO.P,J5,6,6_6*%
%TO.N,unconnected-(J5-Pad6)*%
X27760000Y-99000000D03*
%TO.P,J5,7,7_7*%
%TO.N,/UART/RTS*%
X27760000Y-101770000D03*
%TO.P,J5,8,8_8*%
%TO.N,/UART/CTS*%
X27760000Y-104540000D03*
%TO.P,J5,9,9_9*%
%TO.N,unconnected-(J5-Pad9)*%
X27760000Y-107310000D03*
D26*
%TO.P,J5,MH1,MH1_MH1*%
%TO.N,GND*%
X29180000Y-90660000D03*
%TO.P,J5,MH2,MH2_MH2*%
X29180000Y-115650000D03*
%TD*%
D11*
%TO.P,U11,1,TEST0_1*%
%TO.N,/Keyboard/KEYBOARD CLOCK*%
X40760000Y-169740000D03*
D10*
%TO.P,U11,2,XTAL_1_2*%
%TO.N,GND*%
X43300000Y-169740000D03*
%TO.P,U11,3,XTAL_2_3*%
%TO.N,CLK*%
X45840000Y-169740000D03*
%TO.P,U11,4,~{RESET}_4*%
%TO.N,/Wait State Generator/~{RESET}*%
X48380000Y-169740000D03*
%TO.P,U11,5,TH_SS_5*%
%TO.N,+5V*%
X50920000Y-169740000D03*
%TO.P,U11,6,~{CS}_6*%
%TO.N,/~{CS2}*%
X53460000Y-169740000D03*
%TO.P,U11,7,TL_EA_7*%
%TO.N,GND*%
X56000000Y-169740000D03*
%TO.P,U11,8,~{RD}_8*%
%TO.N,/~{XIOR}*%
X58540000Y-169740000D03*
%TO.P,U11,9,A0_9*%
%TO.N,/Bus Driver/XA0*%
X61080000Y-169740000D03*
%TO.P,U11,10,~{WR}_10*%
%TO.N,/~{XIOW}*%
X63620000Y-169740000D03*
%TO.P,U11,11,SYNC_11*%
%TO.N,unconnected-(U11-SYNC-Pad11)*%
X66160000Y-169740000D03*
%TO.P,U11,12,D0_12*%
%TO.N,/Bus Driver/XD0*%
X68700000Y-169740000D03*
%TO.P,U11,13,D1_13*%
%TO.N,/Bus Driver/XD1*%
X71240000Y-169740000D03*
%TO.P,U11,14,D2_14*%
%TO.N,/Bus Driver/XD2*%
X73780000Y-169740000D03*
%TO.P,U11,15,D3_15*%
%TO.N,/Bus Driver/XD3*%
X76320000Y-169740000D03*
%TO.P,U11,16,D4_16*%
%TO.N,/Bus Driver/XD4*%
X78860000Y-169740000D03*
%TO.P,U11,17,D5_17*%
%TO.N,/Bus Driver/XD5*%
X81400000Y-169740000D03*
%TO.P,U11,18,D6_18*%
%TO.N,/Bus Driver/XD6*%
X83940000Y-169740000D03*
%TO.P,U11,19,D7_19*%
%TO.N,/Bus Driver/XD7*%
X86480000Y-169740000D03*
%TO.P,U11,20,GND_20*%
%TO.N,GND*%
X89020000Y-169740000D03*
%TO.P,U11,21,P20_21*%
%TO.N,unconnected-(U11-P20-Pad21)*%
X89020000Y-154500000D03*
%TO.P,U11,22,P21_22*%
%TO.N,unconnected-(U11-P21-Pad22)*%
X86480000Y-154500000D03*
%TO.P,U11,23,P22_23*%
%TO.N,Net-(U11-P22)*%
X83940000Y-154500000D03*
%TO.P,U11,24,P23_24*%
%TO.N,Net-(U11-P23)*%
X81400000Y-154500000D03*
%TO.P,U11,25,TH_PROG_25*%
%TO.N,+5V*%
X78860000Y-154500000D03*
%TO.P,U11,26,TH_SSPP_26*%
X76320000Y-154500000D03*
%TO.P,U11,27,P10_27*%
%TO.N,/Keyboard/KEYBOARD DATA*%
X73780000Y-154500000D03*
%TO.P,U11,28,P11_28*%
%TO.N,/Keyboard/MOUSE DATA*%
X71240000Y-154500000D03*
%TO.P,U11,29,P12_29*%
%TO.N,unconnected-(U11-P12-Pad29)*%
X68700000Y-154500000D03*
%TO.P,U11,30,P13_30*%
%TO.N,unconnected-(U11-P13-Pad30)*%
X66160000Y-154500000D03*
%TO.P,U11,31,P14_31*%
%TO.N,unconnected-(U11-P14-Pad31)*%
X63620000Y-154500000D03*
%TO.P,U11,32,P15_32*%
%TO.N,unconnected-(U11-P15-Pad32)*%
X61080000Y-154500000D03*
%TO.P,U11,33,P16_33*%
%TO.N,unconnected-(U11-P16-Pad33)*%
X58540000Y-154500000D03*
%TO.P,U11,34,P17_34*%
%TO.N,unconnected-(U11-P17-Pad34)*%
X56000000Y-154500000D03*
%TO.P,U11,35,P24_35*%
%TO.N,/Processor And Control/IRQ1*%
X53460000Y-154500000D03*
%TO.P,U11,36,P25_36*%
%TO.N,/Processor And Control/IRQ7*%
X50920000Y-154500000D03*
%TO.P,U11,37,P26_37*%
%TO.N,Net-(U11-P26)*%
X48380000Y-154500000D03*
%TO.P,U11,38,P27_38*%
%TO.N,Net-(U11-P27)*%
X45840000Y-154500000D03*
%TO.P,U11,39,TEST1_39*%
%TO.N,/Keyboard/MOUSE CLOCK*%
X43300000Y-154500000D03*
%TO.P,U11,40,VCC_40*%
%TO.N,+5V*%
X40760000Y-154500000D03*
%TD*%
D27*
%TO.P,U7,1,A18_1*%
%TO.N,/Bus Driver/A18*%
X181270000Y-218750000D03*
D10*
%TO.P,U7,2,A16_2*%
%TO.N,/Bus Driver/A16*%
X178730000Y-218750000D03*
%TO.P,U7,3,A14_3*%
%TO.N,/Bus Driver/A14*%
X176190000Y-218750000D03*
%TO.P,U7,4,A12_4*%
%TO.N,/Bus Driver/A12*%
X173650000Y-218750000D03*
%TO.P,U7,5,A7_5*%
%TO.N,/Bus Driver/A7*%
X171110000Y-218750000D03*
%TO.P,U7,6,A6_6*%
%TO.N,/Bus Driver/A6*%
X168570000Y-218750000D03*
%TO.P,U7,7,A5_7*%
%TO.N,/Bus Driver/A5*%
X166030000Y-218750000D03*
%TO.P,U7,8,A4_8*%
%TO.N,/Bus Driver/A4*%
X163490000Y-218750000D03*
%TO.P,U7,9,A3_9*%
%TO.N,/Bus Driver/A3*%
X160950000Y-218750000D03*
%TO.P,U7,10,A2_10*%
%TO.N,/Bus Driver/A2*%
X158410000Y-218750000D03*
%TO.P,U7,11,A1_11*%
%TO.N,/Bus Driver/A1*%
X155870000Y-218750000D03*
%TO.P,U7,12,A0_12*%
%TO.N,/Bus Driver/A0*%
X153330000Y-218750000D03*
%TO.P,U7,13,DQ0_13*%
%TO.N,/RAM and ROM/MD0*%
X150790000Y-218750000D03*
%TO.P,U7,14,DQ1_14*%
%TO.N,/RAM and ROM/MD1*%
X148250000Y-218750000D03*
%TO.P,U7,15,DQ2_15*%
%TO.N,/RAM and ROM/MD2*%
X145710000Y-218750000D03*
%TO.P,U7,16,VSS_16*%
%TO.N,GND*%
X143170000Y-218750000D03*
%TO.P,U7,17,DQ3_17*%
%TO.N,/RAM and ROM/MD3*%
X143170000Y-233990000D03*
%TO.P,U7,18,DQ4_18*%
%TO.N,/RAM and ROM/MD4*%
X145710000Y-233990000D03*
%TO.P,U7,19,DQ5_19*%
%TO.N,/RAM and ROM/MD5*%
X148250000Y-233990000D03*
%TO.P,U7,20,DQ6_20*%
%TO.N,/RAM and ROM/MD6*%
X150790000Y-233990000D03*
%TO.P,U7,21,DQ7_21*%
%TO.N,/RAM and ROM/MD7*%
X153330000Y-233990000D03*
%TO.P,U7,22,CE#_22*%
%TO.N,/Device Decoder/~{RAM_CS}*%
X155870000Y-233990000D03*
%TO.P,U7,23,A10_23*%
%TO.N,/Bus Driver/A10*%
X158410000Y-233990000D03*
%TO.P,U7,24,OE#_24*%
%TO.N,/~{XMEMR}*%
X160950000Y-233990000D03*
%TO.P,U7,25,A11_25*%
%TO.N,/Bus Driver/A11*%
X163490000Y-233990000D03*
%TO.P,U7,26,A9_26*%
%TO.N,/Bus Driver/A9*%
X166030000Y-233990000D03*
%TO.P,U7,27,A8_27*%
%TO.N,/Bus Driver/A8*%
X168570000Y-233990000D03*
%TO.P,U7,28,A13_28*%
%TO.N,/Bus Driver/A13*%
X171110000Y-233990000D03*
%TO.P,U7,29,WE#_29*%
%TO.N,/~{XMEMW}*%
X173650000Y-233990000D03*
%TO.P,U7,30,A17_30*%
%TO.N,/Bus Driver/A17*%
X176190000Y-233990000D03*
%TO.P,U7,31,A15_31*%
%TO.N,/Bus Driver/A15*%
X178730000Y-233990000D03*
%TO.P,U7,32,VCC_32*%
%TO.N,+5V*%
X181270000Y-233990000D03*
%TD*%
D11*
%TO.P,U48,1,OEa_1*%
%TO.N,GND*%
X210320000Y-181060000D03*
D10*
%TO.P,U48,2,I0a_2*%
%TO.N,/Bus Driver/A8*%
X212860000Y-181060000D03*
%TO.P,U48,3,O3b_3*%
%TO.N,unconnected-(U48-O3b-Pad3)*%
X215400000Y-181060000D03*
%TO.P,U48,4,I1a_4*%
%TO.N,/Bus Driver/A9*%
X217940000Y-181060000D03*
%TO.P,U48,5,O2b_5*%
%TO.N,unconnected-(U48-O2b-Pad5)*%
X220480000Y-181060000D03*
%TO.P,U48,6,I2a_6*%
%TO.N,CLK88*%
X223020000Y-181060000D03*
%TO.P,U48,7,O1b_7*%
%TO.N,unconnected-(U48-O1b-Pad7)*%
X225560000Y-181060000D03*
%TO.P,U48,8,I3a_8*%
%TO.N,/Wait State Generator/AEN*%
X228100000Y-181060000D03*
%TO.P,U48,9,O0b_9*%
%TO.N,/Bus Driver/RESET*%
X230640000Y-181060000D03*
%TO.P,U48,10,GND_10*%
%TO.N,GND*%
X233180000Y-181060000D03*
%TO.P,U48,11,I0b_11*%
%TO.N,/Bus Driver/RESET BRD*%
X233180000Y-173440000D03*
%TO.P,U48,12,O3a_12*%
%TO.N,/Bus Driver/AEN*%
X230640000Y-173440000D03*
%TO.P,U48,13,I1b_13*%
%TO.N,GND*%
X228100000Y-173440000D03*
%TO.P,U48,14,O2a_14*%
%TO.N,CLK*%
X225560000Y-173440000D03*
%TO.P,U48,15,I2b_15*%
%TO.N,GND*%
X223020000Y-173440000D03*
%TO.P,U48,16,O1a_16*%
%TO.N,/Bus Driver/XA9*%
X220480000Y-173440000D03*
%TO.P,U48,17,I3b_17*%
%TO.N,GND*%
X217940000Y-173440000D03*
%TO.P,U48,18,O0a_18*%
%TO.N,/Bus Driver/XA8*%
X215400000Y-173440000D03*
%TO.P,U48,19,OEb_19*%
%TO.N,GND*%
X212860000Y-173440000D03*
%TO.P,U48,20,VCC_20*%
%TO.N,+5V*%
X210320000Y-173440000D03*
%TD*%
D11*
%TO.P,U2,1*%
%TO.N,/Processor And Control/NMI*%
X211130000Y-52350000D03*
D10*
%TO.P,U2,2*%
%TO.N,Net-(U1-Pad8)*%
X213670000Y-52350000D03*
%TO.P,U2,3*%
%TO.N,/Flag Registers/ALLOW NMI*%
X216210000Y-52350000D03*
%TO.P,U2,4*%
%TO.N,/RTC/RTC DIR*%
X218750000Y-52350000D03*
%TO.P,U2,5*%
%TO.N,/~{XIOR}*%
X221290000Y-52350000D03*
%TO.P,U2,6*%
%TO.N,/~{CS7}*%
X223830000Y-52350000D03*
%TO.P,U2,7,GND_7*%
%TO.N,GND*%
X226370000Y-52350000D03*
%TO.P,U2,8*%
X226370000Y-44730000D03*
%TO.P,U2,9*%
X223830000Y-44730000D03*
%TO.P,U2,10*%
%TO.N,unconnected-(U2-Pad10)*%
X221290000Y-44730000D03*
%TO.P,U2,11*%
%TO.N,/Wait State Generator/~{RDY}{slash}WAIT*%
X218750000Y-44730000D03*
%TO.P,U2,12*%
%TO.N,/Wait State Generator/~{RDY}{slash}WAIT DLY*%
X216210000Y-44730000D03*
%TO.P,U2,13*%
%TO.N,/DMA/RDY TO DMA*%
X213670000Y-44730000D03*
%TO.P,U2,14,VCC_14*%
%TO.N,+5V*%
X211130000Y-44730000D03*
%TD*%
D11*
%TO.P,U15,1,GND_1*%
%TO.N,GND*%
X132895000Y-110880000D03*
D10*
%TO.P,U15,2,AD14_2*%
%TO.N,/Processor And Control/AX14*%
X135435000Y-110880000D03*
%TO.P,U15,3,AD13_3*%
%TO.N,/Processor And Control/AX13*%
X137975000Y-110880000D03*
%TO.P,U15,4,AD12_4*%
%TO.N,/Processor And Control/AX12*%
X140515000Y-110880000D03*
%TO.P,U15,5,AD11_5*%
%TO.N,/Processor And Control/AX11*%
X143055000Y-110880000D03*
%TO.P,U15,6,AD10_6*%
%TO.N,/Processor And Control/AX10*%
X145595000Y-110880000D03*
%TO.P,U15,7,AD9_7*%
%TO.N,/Processor And Control/AX9*%
X148135000Y-110880000D03*
%TO.P,U15,8,AD8_8*%
%TO.N,/Processor And Control/AX8*%
X150675000Y-110880000D03*
%TO.P,U15,9,AD7_9*%
%TO.N,/Processor And Control/AX7*%
X153215000Y-110880000D03*
%TO.P,U15,10,AD6_10*%
%TO.N,/Processor And Control/AX6*%
X155755000Y-110880000D03*
%TO.P,U15,11,AD5_11*%
%TO.N,/Processor And Control/AX5*%
X158295000Y-110880000D03*
%TO.P,U15,12,AD4_12*%
%TO.N,/Processor And Control/AX4*%
X160835000Y-110880000D03*
%TO.P,U15,13,AD3_13*%
%TO.N,/Processor And Control/AX3*%
X163375000Y-110880000D03*
%TO.P,U15,14,AD2_14*%
%TO.N,/Processor And Control/AX2*%
X165915000Y-110880000D03*
%TO.P,U15,15,AD1_15*%
%TO.N,/Processor And Control/AX1*%
X168455000Y-110880000D03*
%TO.P,U15,16,AD0_16*%
%TO.N,/Processor And Control/AX0*%
X170995000Y-110880000D03*
%TO.P,U15,17,NC_17*%
%TO.N,unconnected-(U15-NC-Pad17)*%
X173535000Y-110880000D03*
%TO.P,U15,18,NC_18*%
%TO.N,unconnected-(U15-NC-Pad18)*%
X176075000Y-110880000D03*
%TO.P,U15,19,CLK_19*%
%TO.N,CLK88*%
X178615000Y-110880000D03*
%TO.P,U15,20,GND_20*%
%TO.N,GND*%
X181155000Y-110880000D03*
%TO.P,U15,21,RESET_21*%
%TO.N,/Bus Driver/RESET BRD*%
X181155000Y-95640000D03*
%TO.P,U15,22,READY_22*%
%TO.N,Net-(U13-READY)*%
X178615000Y-95640000D03*
%TO.P,U15,23,BUSY_23*%
%TO.N,Net-(U14-~{TEST})*%
X176075000Y-95640000D03*
%TO.P,U15,24,QS1_24*%
%TO.N,/Processor And Control/QS1*%
X173535000Y-95640000D03*
%TO.P,U15,25,QS0_25*%
%TO.N,/Processor And Control/QSO*%
X170995000Y-95640000D03*
%TO.P,U15,26,~{S0}_26*%
%TO.N,/Processor And Control/~{S0}*%
X168455000Y-95640000D03*
%TO.P,U15,27,~{S1}_27*%
%TO.N,/Processor And Control/~{S1}*%
X165915000Y-95640000D03*
%TO.P,U15,28,~{S2}_28*%
%TO.N,/Processor And Control/~{S2}*%
X163375000Y-95640000D03*
%TO.P,U15,29,NC_29*%
%TO.N,unconnected-(U15-NC-Pad29)*%
X160835000Y-95640000D03*
%TO.P,U15,30,NC_30*%
%TO.N,unconnected-(U15-NC-Pad30)*%
X158295000Y-95640000D03*
%TO.P,U15,31,~{RQ}/~{GT0}_31*%
%TO.N,Net-(U14-~{RQ}{slash}~{GT1})*%
X155755000Y-95640000D03*
%TO.P,U15,32,INT_32*%
%TO.N,/Processor And Control/FPU IRQ*%
X153215000Y-95640000D03*
%TO.P,U15,33,~{RQ}/~{GT1}_33*%
%TO.N,+5V*%
X150675000Y-95640000D03*
%TO.P,U15,34,~{BHE}/S7_34*%
X148135000Y-95640000D03*
%TO.P,U15,35,A19/S6_35*%
%TO.N,/Processor And Control/AX19*%
X145595000Y-95640000D03*
%TO.P,U15,36,A18/S5_36*%
%TO.N,/Processor And Control/AX18*%
X143055000Y-95640000D03*
%TO.P,U15,37,A17/S4_37*%
%TO.N,/Processor And Control/AX17*%
X140515000Y-95640000D03*
%TO.P,U15,38,A16/S3_38*%
%TO.N,/Processor And Control/AX16*%
X137975000Y-95640000D03*
%TO.P,U15,39,AD15_39*%
%TO.N,/Processor And Control/AX15*%
X135435000Y-95640000D03*
%TO.P,U15,40,VCC_40*%
%TO.N,+5V*%
X132895000Y-95640000D03*
%TD*%
D23*
%TO.P,J12,1,Pin_1_1*%
%TO.N,+5V*%
X240850000Y-32900000D03*
D24*
%TO.P,J12,2,Pin_2_2*%
%TO.N,Net-(J12-Pin_2)*%
X240850000Y-30360000D03*
%TD*%
D11*
%TO.P,U46,1*%
%TO.N,Net-(U11-P22)*%
X55580000Y-151605000D03*
D10*
%TO.P,U46,2*%
%TO.N,/Keyboard/MOUSE DATA*%
X58120000Y-151605000D03*
%TO.P,U46,3*%
%TO.N,Net-(U11-P23)*%
X60660000Y-151605000D03*
%TO.P,U46,4*%
%TO.N,/Keyboard/MOUSE CLOCK*%
X63200000Y-151605000D03*
%TO.P,U46,5*%
%TO.N,Net-(U11-P26)*%
X65740000Y-151605000D03*
%TO.P,U46,6*%
%TO.N,/Keyboard/KEYBOARD CLOCK*%
X68280000Y-151605000D03*
%TO.P,U46,7,GND_7*%
%TO.N,GND*%
X70820000Y-151605000D03*
%TO.P,U46,8*%
%TO.N,/Keyboard/KEYBOARD DATA*%
X70820000Y-143985000D03*
%TO.P,U46,9*%
%TO.N,Net-(U11-P27)*%
X68280000Y-143985000D03*
%TO.P,U46,10*%
%TO.N,unconnected-(U46-Pad10)*%
X65740000Y-143985000D03*
%TO.P,U46,11*%
%TO.N,GND*%
X63200000Y-143985000D03*
%TO.P,U46,12*%
%TO.N,unconnected-(U46-Pad12)*%
X60660000Y-143985000D03*
%TO.P,U46,13*%
%TO.N,GND*%
X58120000Y-143985000D03*
%TO.P,U46,14,VCC_14*%
%TO.N,+5V*%
X55580000Y-143985000D03*
%TD*%
D11*
%TO.P,U6,1,A0_1*%
%TO.N,/Bus Driver/A17*%
X237060000Y-155180000D03*
D10*
%TO.P,U6,2,A1_2*%
%TO.N,/Bus Driver/A18*%
X239600000Y-155180000D03*
%TO.P,U6,3,A2_3*%
%TO.N,/Bus Driver/A19*%
X242140000Y-155180000D03*
%TO.P,U6,4,E1_4*%
%TO.N,GND*%
X244680000Y-155180000D03*
%TO.P,U6,5,E2_5*%
X247220000Y-155180000D03*
%TO.P,U6,6,E3_6*%
%TO.N,+5V*%
X249760000Y-155180000D03*
%TO.P,U6,7,O7_7*%
%TO.N,Net-(U6-O7)*%
X252300000Y-155180000D03*
%TO.P,U6,8,GND_8*%
%TO.N,GND*%
X254840000Y-155180000D03*
%TO.P,U6,9,O6_9*%
%TO.N,Net-(U6-O6)*%
X254840000Y-147560000D03*
%TO.P,U6,10,O5_10*%
%TO.N,Net-(U6-O5)*%
X252300000Y-147560000D03*
%TO.P,U6,11,O4_11*%
%TO.N,Net-(U6-O4)*%
X249760000Y-147560000D03*
%TO.P,U6,12,O3_12*%
%TO.N,/Device Decoder/~{RAM_BANK_CS}*%
X247220000Y-147560000D03*
%TO.P,U6,13,O2_13*%
%TO.N,unconnected-(U6-O2-Pad13)*%
X244680000Y-147560000D03*
%TO.P,U6,14,O1_14*%
%TO.N,unconnected-(U6-O1-Pad14)*%
X242140000Y-147560000D03*
%TO.P,U6,15,O0_15*%
%TO.N,/Device Decoder/~{ROM_CS}*%
X239600000Y-147560000D03*
%TO.P,U6,16,VCC_16*%
%TO.N,+5V*%
X237060000Y-147560000D03*
%TD*%
D11*
%TO.P,U29,1*%
%TO.N,/~{XIOR}*%
X249140000Y-125870000D03*
D10*
%TO.P,U29,2*%
%TO.N,/~{XIOW}*%
X251680000Y-125870000D03*
%TO.P,U29,3,NC_3*%
%TO.N,unconnected-(U29C-NC-Pad3)*%
X254220000Y-125870000D03*
%TO.P,U29,4*%
%TO.N,Net-(U29-Pad4)*%
X256760000Y-125870000D03*
%TO.P,U29,5*%
X259300000Y-125870000D03*
%TO.P,U29,6*%
%TO.N,Net-(U10A-C)*%
X261840000Y-125870000D03*
%TO.P,U29,7,GND_7*%
%TO.N,GND*%
X264380000Y-125870000D03*
%TO.P,U29,8*%
%TO.N,Net-(U22-Pad9)*%
X264380000Y-118250000D03*
%TO.P,U29,9*%
%TO.N,Net-(U6-O7)*%
X261840000Y-118250000D03*
%TO.P,U29,10*%
%TO.N,Net-(U6-O6)*%
X259300000Y-118250000D03*
%TO.P,U29,11,NC_11*%
%TO.N,unconnected-(U29C-NC-Pad11)*%
X256760000Y-118250000D03*
%TO.P,U29,12*%
%TO.N,Net-(U6-O5)*%
X254220000Y-118250000D03*
%TO.P,U29,13*%
%TO.N,Net-(U6-O4)*%
X251680000Y-118250000D03*
%TO.P,U29,14,VCC_14*%
%TO.N,+5V*%
X249140000Y-118250000D03*
%TD*%
D11*
%TO.P,U34,1*%
%TO.N,/DMA/DACK[3]*%
X250850000Y-210650000D03*
D10*
%TO.P,U34,2*%
%TO.N,/DMA/DACK[1]*%
X253390000Y-210650000D03*
%TO.P,U34,3*%
%TO.N,Net-(U30-Ra)*%
X255930000Y-210650000D03*
%TO.P,U34,4*%
%TO.N,/DMA/DACK[3]*%
X258470000Y-210650000D03*
%TO.P,U34,5*%
%TO.N,/DMA/DACK[2]*%
X261010000Y-210650000D03*
%TO.P,U34,6*%
%TO.N,Net-(U30-Rb)*%
X263550000Y-210650000D03*
%TO.P,U34,7,GND_7*%
%TO.N,GND*%
X266090000Y-210650000D03*
%TO.P,U34,8*%
%TO.N,Net-(U30-~{Ew})*%
X266090000Y-203030000D03*
%TO.P,U34,9*%
%TO.N,/~{XIOW}*%
X263550000Y-203030000D03*
%TO.P,U34,10*%
%TO.N,/~{CS4}*%
X261010000Y-203030000D03*
%TO.P,U34,11*%
%TO.N,Net-(U27-A->B)*%
X258470000Y-203030000D03*
%TO.P,U34,12*%
%TO.N,/~{XIOR}*%
X255930000Y-203030000D03*
%TO.P,U34,13*%
%TO.N,/Bus Driver/XA9*%
X253390000Y-203030000D03*
%TO.P,U34,14,VCC_14*%
%TO.N,VCC*%
X250850000Y-203030000D03*
%TD*%
D11*
%TO.P,U37,1*%
%TO.N,Net-(IC1-~{IRQ})*%
X248900000Y-104280000D03*
D10*
%TO.P,U37,2*%
%TO.N,/Processor And Control/IRQ6*%
X251440000Y-104280000D03*
%TO.P,U37,3*%
%TO.N,/Bus Driver/RESET BRD*%
X253980000Y-104280000D03*
%TO.P,U37,4*%
%TO.N,/Wait State Generator/~{RESET}*%
X256520000Y-104280000D03*
%TO.P,U37,5*%
%TO.N,/RTC/ADDR EN*%
X259060000Y-104280000D03*
%TO.P,U37,6*%
%TO.N,/RTC/DATA EN*%
X261600000Y-104280000D03*
%TO.P,U37,7,GND_7*%
%TO.N,GND*%
X264140000Y-104280000D03*
%TO.P,U37,8*%
%TO.N,Net-(U37-Pad8)*%
X264140000Y-96660000D03*
%TO.P,U37,9*%
%TO.N,/~{XMEMR}*%
X261600000Y-96660000D03*
%TO.P,U37,10*%
%TO.N,/Wait State Generator/~{ENABLE IO CK}*%
X259060000Y-96660000D03*
%TO.P,U37,11*%
%TO.N,/Flag Registers/ENABLE IO CK*%
X256520000Y-96660000D03*
%TO.P,U37,12*%
%TO.N,/Wait State Generator/~{CLK}*%
X253980000Y-96660000D03*
%TO.P,U37,13*%
%TO.N,CLK88*%
X251440000Y-96660000D03*
%TO.P,U37,14,VCC_14*%
%TO.N,+5V*%
X248900000Y-96660000D03*
%TD*%
D11*
%TO.P,U47,1,A->B_1*%
%TO.N,/RTC/RTC DIR*%
X63970000Y-107680000D03*
D10*
%TO.P,U47,2,A0_2*%
%TO.N,/RTC/AD0*%
X66510000Y-107680000D03*
%TO.P,U47,3,A1_3*%
%TO.N,/RTC/AD1*%
X69050000Y-107680000D03*
%TO.P,U47,4,A2_4*%
%TO.N,/RTC/AD2*%
X71590000Y-107680000D03*
%TO.P,U47,5,A3_5*%
%TO.N,/RTC/AD3*%
X74130000Y-107680000D03*
%TO.P,U47,6,A4_6*%
%TO.N,/RTC/AD4*%
X76670000Y-107680000D03*
%TO.P,U47,7,A5_7*%
%TO.N,/RTC/AD5*%
X79210000Y-107680000D03*
%TO.P,U47,8,A6_8*%
%TO.N,/RTC/AD6*%
X81750000Y-107680000D03*
%TO.P,U47,9,A7_9*%
%TO.N,/RTC/AD7*%
X84290000Y-107680000D03*
%TO.P,U47,10,GND_10*%
%TO.N,GND*%
X86830000Y-107680000D03*
%TO.P,U47,11,B7_11*%
%TO.N,/Bus Driver/XD7*%
X86830000Y-100060000D03*
%TO.P,U47,12,B6_12*%
%TO.N,/Bus Driver/XD6*%
X84290000Y-100060000D03*
%TO.P,U47,13,B5_13*%
%TO.N,/Bus Driver/XD5*%
X81750000Y-100060000D03*
%TO.P,U47,14,B4_14*%
%TO.N,/Bus Driver/XD4*%
X79210000Y-100060000D03*
%TO.P,U47,15,B3_15*%
%TO.N,/Bus Driver/XD3*%
X76670000Y-100060000D03*
%TO.P,U47,16,B2_16*%
%TO.N,/Bus Driver/XD2*%
X74130000Y-100060000D03*
%TO.P,U47,17,B1_17*%
%TO.N,/Bus Driver/XD1*%
X71590000Y-100060000D03*
%TO.P,U47,18,B0_18*%
%TO.N,/Bus Driver/XD0*%
X69050000Y-100060000D03*
%TO.P,U47,19,CE_19*%
%TO.N,/RTC/DATA EN*%
X66510000Y-100060000D03*
%TO.P,U47,20,VCC_20*%
%TO.N,+5V*%
X63970000Y-100060000D03*
%TD*%
D11*
%TO.P,U27,1,A->B_1*%
%TO.N,Net-(U27-A->B)*%
X140680000Y-159060000D03*
D10*
%TO.P,U27,2,A0_2*%
%TO.N,/Bus Driver/D0*%
X143220000Y-159060000D03*
%TO.P,U27,3,A1_3*%
%TO.N,/Bus Driver/D1*%
X145760000Y-159060000D03*
%TO.P,U27,4,A2_4*%
%TO.N,/Bus Driver/D2*%
X148300000Y-159060000D03*
%TO.P,U27,5,A3_5*%
%TO.N,/Bus Driver/D3*%
X150840000Y-159060000D03*
%TO.P,U27,6,A4_6*%
%TO.N,/Bus Driver/D4*%
X153380000Y-159060000D03*
%TO.P,U27,7,A5_7*%
%TO.N,/Bus Driver/D5*%
X155920000Y-159060000D03*
%TO.P,U27,8,A6_8*%
%TO.N,/Bus Driver/D6*%
X158460000Y-159060000D03*
%TO.P,U27,9,A7_9*%
%TO.N,/Bus Driver/D7*%
X161000000Y-159060000D03*
%TO.P,U27,10,GND_10*%
%TO.N,GND*%
X163540000Y-159060000D03*
%TO.P,U27,11,B7_11*%
%TO.N,/Bus Driver/XD7*%
X163540000Y-151440000D03*
%TO.P,U27,12,B6_12*%
%TO.N,/Bus Driver/XD6*%
X161000000Y-151440000D03*
%TO.P,U27,13,B5_13*%
%TO.N,/Bus Driver/XD5*%
X158460000Y-151440000D03*
%TO.P,U27,14,B4_14*%
%TO.N,/Bus Driver/XD4*%
X155920000Y-151440000D03*
%TO.P,U27,15,B3_15*%
%TO.N,/Bus Driver/XD3*%
X153380000Y-151440000D03*
%TO.P,U27,16,B2_16*%
%TO.N,/Bus Driver/XD2*%
X150840000Y-151440000D03*
%TO.P,U27,17,B1_17*%
%TO.N,/Bus Driver/XD1*%
X148300000Y-151440000D03*
%TO.P,U27,18,B0_18*%
%TO.N,/Bus Driver/XD0*%
X145760000Y-151440000D03*
%TO.P,U27,19,CE_19*%
%TO.N,/Wait State Generator/AEN*%
X143220000Y-151440000D03*
%TO.P,U27,20,VCC_20*%
%TO.N,+5V*%
X140680000Y-151440000D03*
%TD*%
D11*
%TO.P,U36,1,1A_1*%
%TO.N,unconnected-(U36-1A-Pad1)*%
X200770000Y-221770000D03*
D10*
%TO.P,U36,2,~{1Y}_2*%
%TO.N,unconnected-(U36-~{1Y}-Pad2)*%
X203310000Y-221770000D03*
%TO.P,U36,3,2A_3*%
%TO.N,unconnected-(U36-2A-Pad3)*%
X205850000Y-221770000D03*
%TO.P,U36,4,2Y_4*%
%TO.N,unconnected-(U36-2Y-Pad4)*%
X208390000Y-221770000D03*
%TO.P,U36,5,3A_5*%
%TO.N,unconnected-(U36-3A-Pad5)*%
X210930000Y-221770000D03*
%TO.P,U36,6,3B_6*%
%TO.N,unconnected-(U36-3B-Pad6)*%
X213470000Y-221770000D03*
%TO.P,U36,7,~{3Y}_7*%
%TO.N,unconnected-(U36-~{3Y}-Pad7)*%
X216010000Y-221770000D03*
%TO.P,U36,8,GND_8*%
%TO.N,GND*%
X218550000Y-221770000D03*
%TO.P,U36,9,~{4Y}_9*%
%TO.N,unconnected-(U36-~{4Y}-Pad9)*%
X218550000Y-214150000D03*
%TO.P,U36,10,4A_10*%
%TO.N,unconnected-(U36-4A-Pad10)*%
X216010000Y-214150000D03*
%TO.P,U36,11,4B_11*%
%TO.N,unconnected-(U36-4B-Pad11)*%
X213470000Y-214150000D03*
%TO.P,U36,12,5Y_12*%
%TO.N,unconnected-(U36-5Y-Pad12)*%
X210930000Y-214150000D03*
%TO.P,U36,13,5A_13*%
%TO.N,unconnected-(U36-5A-Pad13)*%
X208390000Y-214150000D03*
%TO.P,U36,14,~{6Y}_14*%
%TO.N,unconnected-(U36-~{6Y}-Pad14)*%
X205850000Y-214150000D03*
%TO.P,U36,15,6A_15*%
%TO.N,unconnected-(U36-6A-Pad15)*%
X203310000Y-214150000D03*
%TO.P,U36,16,VCC_16*%
%TO.N,+5V*%
X200770000Y-214150000D03*
%TD*%
D11*
%TO.P,U21,1,A->B_1*%
%TO.N,Net-(U21-A->B)*%
X140680000Y-171060000D03*
D10*
%TO.P,U21,2,A0_2*%
%TO.N,/Processor And Control/AX0*%
X143220000Y-171060000D03*
%TO.P,U21,3,A1_3*%
%TO.N,/Processor And Control/AX1*%
X145760000Y-171060000D03*
%TO.P,U21,4,A2_4*%
%TO.N,/Processor And Control/AX2*%
X148300000Y-171060000D03*
%TO.P,U21,5,A3_5*%
%TO.N,/Processor And Control/AX3*%
X150840000Y-171060000D03*
%TO.P,U21,6,A4_6*%
%TO.N,/Processor And Control/AX4*%
X153380000Y-171060000D03*
%TO.P,U21,7,A5_7*%
%TO.N,/Processor And Control/AX5*%
X155920000Y-171060000D03*
%TO.P,U21,8,A6_8*%
%TO.N,/Processor And Control/AX6*%
X158460000Y-171060000D03*
%TO.P,U21,9,A7_9*%
%TO.N,/Processor And Control/AX7*%
X161000000Y-171060000D03*
%TO.P,U21,10,GND_10*%
%TO.N,GND*%
X163540000Y-171060000D03*
%TO.P,U21,11,B7_11*%
%TO.N,/Bus Driver/D7*%
X163540000Y-163440000D03*
%TO.P,U21,12,B6_12*%
%TO.N,/Bus Driver/D6*%
X161000000Y-163440000D03*
%TO.P,U21,13,B5_13*%
%TO.N,/Bus Driver/D5*%
X158460000Y-163440000D03*
%TO.P,U21,14,B4_14*%
%TO.N,/Bus Driver/D4*%
X155920000Y-163440000D03*
%TO.P,U21,15,B3_15*%
%TO.N,/Bus Driver/D3*%
X153380000Y-163440000D03*
%TO.P,U21,16,B2_16*%
%TO.N,/Bus Driver/D2*%
X150840000Y-163440000D03*
%TO.P,U21,17,B1_17*%
%TO.N,/Bus Driver/D1*%
X148300000Y-163440000D03*
%TO.P,U21,18,B0_18*%
%TO.N,/Bus Driver/D0*%
X145760000Y-163440000D03*
%TO.P,U21,19,CE_19*%
%TO.N,Net-(U21-CE)*%
X143220000Y-163440000D03*
%TO.P,U21,20,VCC_20*%
%TO.N,+5V*%
X140680000Y-163440000D03*
%TD*%
D11*
%TO.P,U22,1*%
%TO.N,/Wait State Generator/~{RESET}*%
X248490000Y-114995000D03*
D10*
%TO.P,U22,2*%
%TO.N,Net-(D2-K)*%
X251030000Y-114995000D03*
%TO.P,U22,3*%
%TO.N,Net-(U25-HRQ)*%
X253570000Y-114995000D03*
%TO.P,U22,4*%
%TO.N,/DMA/~{HRQ DMA}*%
X256110000Y-114995000D03*
%TO.P,U22,5*%
%TO.N,Net-(U25-~{EOP})*%
X258650000Y-114995000D03*
%TO.P,U22,6*%
%TO.N,/DMA/Terminal Count*%
X261190000Y-114995000D03*
%TO.P,U22,7,GND_7*%
%TO.N,GND*%
X263730000Y-114995000D03*
%TO.P,U22,8*%
%TO.N,/Device Decoder/~{RAM_CS}*%
X263730000Y-107375000D03*
%TO.P,U22,9*%
%TO.N,Net-(U22-Pad9)*%
X261190000Y-107375000D03*
%TO.P,U22,10*%
%TO.N,/Device Decoder/~{MEM_ADDR_SEL}*%
X258650000Y-107375000D03*
%TO.P,U22,11*%
%TO.N,Net-(U22-Pad11)*%
X256110000Y-107375000D03*
%TO.P,U22,12*%
%TO.N,unconnected-(U22-Pad12)*%
X253570000Y-107375000D03*
%TO.P,U22,13*%
%TO.N,GND*%
X251030000Y-107375000D03*
%TO.P,U22,14,VCC_14*%
%TO.N,+5V*%
X248490000Y-107375000D03*
%TD*%
D11*
%TO.P,U4,1*%
%TO.N,Net-(U37-Pad8)*%
X183560000Y-46870000D03*
D10*
%TO.P,U4,2*%
%TO.N,/Wait State Generator/AEN*%
X186100000Y-46870000D03*
%TO.P,U4,3*%
%TO.N,Net-(U29-Pad4)*%
X188640000Y-46870000D03*
%TO.P,U4,4*%
%TO.N,/Wait State Generator/~{HRQ I{slash}O CH}*%
X191180000Y-46870000D03*
%TO.P,U4,5*%
%TO.N,/DMA/~{HRQ DMA}*%
X193720000Y-46870000D03*
%TO.P,U4,6*%
%TO.N,Net-(U10B-~{R})*%
X196260000Y-46870000D03*
%TO.P,U4,7,GND_7*%
%TO.N,GND*%
X198800000Y-46870000D03*
%TO.P,U4,8*%
%TO.N,/Bus Driver/~{DMA AEN}*%
X198800000Y-39250000D03*
%TO.P,U4,9*%
%TO.N,/Wait State Generator/AEN*%
X196260000Y-39250000D03*
%TO.P,U4,10*%
%TO.N,/Wait State Generator/DMA WAIT*%
X193720000Y-39250000D03*
%TO.P,U4,11*%
%TO.N,Net-(Q1-B)*%
X191180000Y-39250000D03*
%TO.P,U4,12*%
%TO.N,/Flag Registers/SPKR EN*%
X188640000Y-39250000D03*
%TO.P,U4,13*%
%TO.N,/Flag Registers/SPKR GATE*%
X186100000Y-39250000D03*
%TO.P,U4,14,VCC_14*%
%TO.N,+5V*%
X183560000Y-39250000D03*
%TD*%
D11*
%TO.P,D1,1,K_1*%
%TO.N,Net-(D1-K)*%
X72810000Y-58320000D03*
D10*
%TO.P,D1,2,A_2*%
%TO.N,Net-(D1-A)*%
X72810000Y-50700000D03*
%TD*%
D28*
%TO.P,IC1,1,MOT_1*%
%TO.N,unconnected-(IC1-MOT-Pad1)*%
X55830000Y-140246000D03*
D29*
%TO.P,IC1,2,N.C._1_2*%
%TO.N,unconnected-(IC1-N.C._1-Pad2)*%
X58370000Y-140246000D03*
%TO.P,IC1,3,N.C._2_3*%
%TO.N,unconnected-(IC1-N.C._2-Pad3)*%
X60910000Y-140246000D03*
%TO.P,IC1,4,AD0_4*%
%TO.N,/RTC/AD0*%
X63450000Y-140246000D03*
%TO.P,IC1,5,AD1_5*%
%TO.N,/RTC/AD1*%
X65990000Y-140246000D03*
%TO.P,IC1,6,AD2_6*%
%TO.N,/RTC/AD2*%
X68530000Y-140246000D03*
%TO.P,IC1,7,AD3_7*%
%TO.N,/RTC/AD3*%
X71070000Y-140246000D03*
%TO.P,IC1,8,AD4_8*%
%TO.N,/RTC/AD4*%
X73610000Y-140246000D03*
%TO.P,IC1,9,AD5_9*%
%TO.N,/RTC/AD5*%
X76150000Y-140246000D03*
%TO.P,IC1,10,AD6_10*%
%TO.N,/RTC/AD6*%
X78690000Y-140246000D03*
%TO.P,IC1,11,AD7_11*%
%TO.N,/RTC/AD7*%
X81230000Y-140246000D03*
%TO.P,IC1,12,GND_12*%
%TO.N,GND*%
X83770000Y-140246000D03*
%TO.P,IC1,13,~{CS}_13*%
%TO.N,/~{CS7}*%
X83770000Y-124750000D03*
%TO.P,IC1,14,AS_14*%
%TO.N,/RTC/AS*%
X81230000Y-124750000D03*
%TO.P,IC1,15,R/~{W}_15*%
%TO.N,/~{XIOW}*%
X78690000Y-124750000D03*
%TO.P,IC1,16,N.C._3_16*%
%TO.N,unconnected-(IC1-N.C._3-Pad16)*%
X76150000Y-124750000D03*
%TO.P,IC1,17,DS_17*%
%TO.N,/~{XIOR}*%
X73610000Y-124750000D03*
%TO.P,IC1,18,~{RESET}_18*%
%TO.N,+5V*%
X71070000Y-124750000D03*
%TO.P,IC1,19,~{IRQ}_19*%
%TO.N,Net-(IC1-~{IRQ})*%
X68530000Y-124750000D03*
%TO.P,IC1,20,N.C._4_20*%
%TO.N,unconnected-(IC1-N.C._4-Pad20)*%
X65990000Y-124750000D03*
%TO.P,IC1,21,N.C._(~{RCLR)}_21*%
%TO.N,Net-(IC1-N.C._(~{RCLR)})*%
X63450000Y-124750000D03*
%TO.P,IC1,22,N.C._5_22*%
%TO.N,unconnected-(IC1-N.C._5-Pad22)*%
X60910000Y-124750000D03*
%TO.P,IC1,23,SQW_23*%
%TO.N,unconnected-(IC1-SQW-Pad23)*%
X58370000Y-124750000D03*
%TO.P,IC1,24,VCC_24*%
%TO.N,+5V*%
X55830000Y-124750000D03*
%TD*%
D11*
%TO.P,U5,1,A0_1*%
%TO.N,/Bus Driver/XA5*%
X133170000Y-80250000D03*
D10*
%TO.P,U5,2,A1_2*%
%TO.N,/Bus Driver/XA6*%
X135710000Y-80250000D03*
%TO.P,U5,3,A2_3*%
%TO.N,/Bus Driver/XA7*%
X138250000Y-80250000D03*
%TO.P,U5,4,E1_4*%
%TO.N,/Bus Driver/XA9*%
X140790000Y-80250000D03*
%TO.P,U5,5,E2_5*%
%TO.N,/Bus Driver/XA8*%
X143330000Y-80250000D03*
%TO.P,U5,6,E3_6*%
%TO.N,/Device Decoder/~{AEN}*%
X145870000Y-80250000D03*
%TO.P,U5,7,O7_7*%
%TO.N,/~{CS6}*%
X148410000Y-80250000D03*
%TO.P,U5,8,GND_8*%
%TO.N,GND*%
X150950000Y-80250000D03*
%TO.P,U5,9,O6_9*%
%TO.N,/~{CS5}*%
X150950000Y-72630000D03*
%TO.P,U5,10,O5_10*%
%TO.N,/~{CS4}*%
X148410000Y-72630000D03*
%TO.P,U5,11,O4_11*%
%TO.N,/~{CS3}*%
X145870000Y-72630000D03*
%TO.P,U5,12,O3_12*%
%TO.N,/~{CS2}*%
X143330000Y-72630000D03*
%TO.P,U5,13,O2_13*%
%TO.N,/~{CS1}*%
X140790000Y-72630000D03*
%TO.P,U5,14,O1_14*%
%TO.N,/Device Decoder/~{PIC CS}*%
X138250000Y-72630000D03*
%TO.P,U5,15,O0_15*%
%TO.N,/~{CS0}*%
X135710000Y-72630000D03*
%TO.P,U5,16,VCC_16*%
%TO.N,+5V*%
X133170000Y-72630000D03*
%TD*%
D30*
%TO.P,D2,1,K_1*%
%TO.N,Net-(D2-K)*%
X212197500Y-192450000D03*
D31*
%TO.P,D2,2,A_2*%
%TO.N,Net-(D2-A)*%
X214737500Y-192450000D03*
%TD*%
D32*
%TO.P,Q1,1,E_1*%
%TO.N,GND*%
X72670000Y-66280000D03*
D33*
%TO.P,Q1,2,B_2*%
%TO.N,Net-(Q1-B)*%
X72670000Y-65010000D03*
%TO.P,Q1,3,C_3*%
%TO.N,Net-(D1-K)*%
X72670000Y-63740000D03*
%TD*%
D11*
%TO.P,U19,1,OE_1*%
%TO.N,/Wait State Generator/AEN*%
X103570000Y-172357500D03*
D10*
%TO.P,U19,2,O0_2*%
%TO.N,/Bus Driver/A8*%
X106110000Y-172357500D03*
%TO.P,U19,3,D0_3*%
%TO.N,/Processor And Control/AX8*%
X108650000Y-172357500D03*
%TO.P,U19,4,D1_4*%
%TO.N,/Processor And Control/AX9*%
X111190000Y-172357500D03*
%TO.P,U19,5,O1_5*%
%TO.N,/Bus Driver/A9*%
X113730000Y-172357500D03*
%TO.P,U19,6,O2_6*%
%TO.N,/Bus Driver/A10*%
X116270000Y-172357500D03*
%TO.P,U19,7,D2_7*%
%TO.N,/Processor And Control/AX10*%
X118810000Y-172357500D03*
%TO.P,U19,8,D3_8*%
%TO.N,/Processor And Control/AX11*%
X121350000Y-172357500D03*
%TO.P,U19,9,O3_9*%
%TO.N,/Bus Driver/A11*%
X123890000Y-172357500D03*
%TO.P,U19,10,GND_10*%
%TO.N,GND*%
X126430000Y-172357500D03*
%TO.P,U19,11,LE_11*%
%TO.N,/RTC/AS*%
X126430000Y-164737500D03*
%TO.P,U19,12,O4_12*%
%TO.N,/Bus Driver/A12*%
X123890000Y-164737500D03*
%TO.P,U19,13,D4_13*%
%TO.N,/Processor And Control/AX12*%
X121350000Y-164737500D03*
%TO.P,U19,14,D5_14*%
%TO.N,/Processor And Control/AX13*%
X118810000Y-164737500D03*
%TO.P,U19,15,O5_15*%
%TO.N,/Bus Driver/A13*%
X116270000Y-164737500D03*
%TO.P,U19,16,O6_16*%
%TO.N,/Bus Driver/A14*%
X113730000Y-164737500D03*
%TO.P,U19,17,D6_17*%
%TO.N,/Processor And Control/AX14*%
X111190000Y-164737500D03*
%TO.P,U19,18,D7_18*%
%TO.N,/Processor And Control/AX15*%
X108650000Y-164737500D03*
%TO.P,U19,19,O7_19*%
%TO.N,/Bus Driver/A15*%
X106110000Y-164737500D03*
%TO.P,U19,20,VCC_20*%
%TO.N,+5V*%
X103570000Y-164737500D03*
%TD*%
D34*
%TO.P,U26,1,NC_1*%
%TO.N,unconnected-(U26-NC-Pad1)*%
X181320000Y-195250000D03*
D35*
%TO.P,U26,2,A16_2*%
%TO.N,/Bus Driver/A16*%
X178780000Y-195250000D03*
%TO.P,U26,3,A15_3*%
%TO.N,/Bus Driver/A15*%
X176240000Y-195250000D03*
%TO.P,U26,4,A12_4*%
%TO.N,/Bus Driver/A12*%
X173700000Y-195250000D03*
%TO.P,U26,5,A7_5*%
%TO.N,/Bus Driver/A7*%
X171160000Y-195250000D03*
%TO.P,U26,6,A6_6*%
%TO.N,/Bus Driver/A6*%
X168620000Y-195250000D03*
%TO.P,U26,7,A5_7*%
%TO.N,/Bus Driver/A5*%
X166080000Y-195250000D03*
%TO.P,U26,8,A4_8*%
%TO.N,/Bus Driver/A4*%
X163540000Y-195250000D03*
%TO.P,U26,9,A3_9*%
%TO.N,/Bus Driver/A3*%
X161000000Y-195250000D03*
%TO.P,U26,10,A2_10*%
%TO.N,/Bus Driver/A2*%
X158460000Y-195250000D03*
%TO.P,U26,11,A1_11*%
%TO.N,/Bus Driver/A1*%
X155920000Y-195250000D03*
%TO.P,U26,12,A0_12*%
%TO.N,/Bus Driver/A0*%
X153380000Y-195250000D03*
%TO.P,U26,13,D0_13*%
%TO.N,/RAM and ROM/MD0*%
X150840000Y-195250000D03*
%TO.P,U26,14,D1_14*%
%TO.N,/RAM and ROM/MD1*%
X148300000Y-195250000D03*
%TO.P,U26,15,D2_15*%
%TO.N,/RAM and ROM/MD2*%
X145760000Y-195250000D03*
%TO.P,U26,16,GND_16*%
%TO.N,GND*%
X143220000Y-195250000D03*
%TO.P,U26,17,D3_17*%
%TO.N,/RAM and ROM/MD3*%
X143220000Y-210490000D03*
%TO.P,U26,18,D4_18*%
%TO.N,/RAM and ROM/MD4*%
X145760000Y-210490000D03*
%TO.P,U26,19,D5_19*%
%TO.N,/RAM and ROM/MD5*%
X148300000Y-210490000D03*
%TO.P,U26,20,D6_20*%
%TO.N,/RAM and ROM/MD6*%
X150840000Y-210490000D03*
%TO.P,U26,21,D7_21*%
%TO.N,/RAM and ROM/MD7*%
X153380000Y-210490000D03*
%TO.P,U26,22,CE_22*%
%TO.N,/Device Decoder/~{ROM_CS}*%
X155920000Y-210490000D03*
%TO.P,U26,23,A10_23*%
%TO.N,/Bus Driver/A10*%
X158460000Y-210490000D03*
%TO.P,U26,24,OE_24*%
%TO.N,/~{XMEMR}*%
X161000000Y-210490000D03*
%TO.P,U26,25,A11_25*%
%TO.N,/Bus Driver/A11*%
X163540000Y-210490000D03*
%TO.P,U26,26,A9_26*%
%TO.N,/Bus Driver/A9*%
X166080000Y-210490000D03*
%TO.P,U26,27,A8_27*%
%TO.N,/Bus Driver/A8*%
X168620000Y-210490000D03*
%TO.P,U26,28,A13_28*%
%TO.N,/Bus Driver/A13*%
X171160000Y-210490000D03*
%TO.P,U26,29,A14_29*%
%TO.N,/Bus Driver/A14*%
X173700000Y-210490000D03*
%TO.P,U26,30,NC_30*%
%TO.N,unconnected-(U26-NC-Pad30)*%
X176240000Y-210490000D03*
%TO.P,U26,31,PGM_31*%
%TO.N,+5V*%
X178780000Y-210490000D03*
%TO.P,U26,32,VCC_32*%
X181320000Y-210490000D03*
%TD*%
D11*
%TO.P,U40,1,PA3_1*%
%TO.N,/Pinout/PA3*%
X39000000Y-45240000D03*
D10*
%TO.P,U40,2,PA2_2*%
%TO.N,/Pinout/PA2*%
X41540000Y-45240000D03*
%TO.P,U40,3,PA1_3*%
%TO.N,/Pinout/PA1*%
X44080000Y-45240000D03*
%TO.P,U40,4,PA0_4*%
%TO.N,/Pinout/PA0*%
X46620000Y-45240000D03*
%TO.P,U40,5,~{RD}_5*%
%TO.N,/~{XIOW}*%
X49160000Y-45240000D03*
%TO.P,U40,6,~{CS}_6*%
%TO.N,/~{CS5}*%
X51700000Y-45240000D03*
%TO.P,U40,7,GND_7*%
%TO.N,GND*%
X54240000Y-45240000D03*
%TO.P,U40,8,A1_8*%
%TO.N,/Bus Driver/XA1*%
X56780000Y-45240000D03*
%TO.P,U40,9,A0_9*%
%TO.N,/Bus Driver/XA0*%
X59320000Y-45240000D03*
%TO.P,U40,10,PC7_10*%
%TO.N,/Pinout/PC7*%
X61860000Y-45240000D03*
%TO.P,U40,11,PC6_11*%
%TO.N,/Pinout/PC6*%
X64400000Y-45240000D03*
%TO.P,U40,12,PC5_12*%
%TO.N,/Pinout/PC5*%
X66940000Y-45240000D03*
%TO.P,U40,13,PC4_13*%
%TO.N,/Pinout/PC4*%
X69480000Y-45240000D03*
%TO.P,U40,14,PC0_14*%
%TO.N,/Pinout/PC0*%
X72020000Y-45240000D03*
%TO.P,U40,15,PC1_15*%
%TO.N,/Pinout/PC1*%
X74560000Y-45240000D03*
%TO.P,U40,16,PC2_16*%
%TO.N,/Pinout/PC2*%
X77100000Y-45240000D03*
%TO.P,U40,17,PC3_17*%
%TO.N,/Pinout/PC3*%
X79640000Y-45240000D03*
%TO.P,U40,18,PB0_18*%
%TO.N,/Pinout/PB0*%
X82180000Y-45240000D03*
%TO.P,U40,19,PB1_19*%
%TO.N,/Pinout/PB1*%
X84720000Y-45240000D03*
%TO.P,U40,20,PB2_20*%
%TO.N,/Pinout/PB2*%
X87260000Y-45240000D03*
%TO.P,U40,21,PB3_21*%
%TO.N,/Pinout/PB3*%
X87260000Y-30000000D03*
%TO.P,U40,22,PB4_22*%
%TO.N,/Pinout/PB4*%
X84720000Y-30000000D03*
%TO.P,U40,23,PB5_23*%
%TO.N,/Pinout/PB5*%
X82180000Y-30000000D03*
%TO.P,U40,24,PB6_24*%
%TO.N,/Pinout/PB6*%
X79640000Y-30000000D03*
%TO.P,U40,25,PB7_25*%
%TO.N,/Pinout/PB7*%
X77100000Y-30000000D03*
%TO.P,U40,26,VCC_26*%
%TO.N,+5V*%
X74560000Y-30000000D03*
%TO.P,U40,27,D7_27*%
%TO.N,/Bus Driver/XD7*%
X72020000Y-30000000D03*
%TO.P,U40,28,D6_28*%
%TO.N,/Bus Driver/XD6*%
X69480000Y-30000000D03*
%TO.P,U40,29,D5_29*%
%TO.N,/Bus Driver/XD5*%
X66940000Y-30000000D03*
%TO.P,U40,30,D4_30*%
%TO.N,/Bus Driver/XD4*%
X64400000Y-30000000D03*
%TO.P,U40,31,D3_31*%
%TO.N,/Bus Driver/XD3*%
X61860000Y-30000000D03*
%TO.P,U40,32,D2_32*%
%TO.N,/Bus Driver/XD2*%
X59320000Y-30000000D03*
%TO.P,U40,33,D1_33*%
%TO.N,/Bus Driver/XD1*%
X56780000Y-30000000D03*
%TO.P,U40,34,D0_34*%
%TO.N,/Bus Driver/XD0*%
X54240000Y-30000000D03*
%TO.P,U40,35,RESET_35*%
%TO.N,/Bus Driver/RESET*%
X51700000Y-30000000D03*
%TO.P,U40,36,~{WR}_36*%
%TO.N,/~{XIOR}*%
X49160000Y-30000000D03*
%TO.P,U40,37,PA7_37*%
%TO.N,/Pinout/PA7*%
X46620000Y-30000000D03*
%TO.P,U40,38,PA6_38*%
%TO.N,/Pinout/PA6*%
X44080000Y-30000000D03*
%TO.P,U40,39,PA5_39*%
%TO.N,/Pinout/PA5*%
X41540000Y-30000000D03*
%TO.P,U40,40,PA4_40*%
%TO.N,/Pinout/PA4*%
X39000000Y-30000000D03*
%TD*%
D11*
%TO.P,U23,1,IOB_1*%
%TO.N,GND*%
X103550000Y-134200000D03*
D10*
%TO.P,U23,2,CLK_2*%
%TO.N,CLK*%
X106090000Y-134200000D03*
%TO.P,U23,3,~{S1}_3*%
%TO.N,/Processor And Control/~{S1}*%
X108630000Y-134200000D03*
%TO.P,U23,4,DT/~{R}_4*%
%TO.N,Net-(U21-A->B)*%
X111170000Y-134200000D03*
%TO.P,U23,5,ALE_5*%
%TO.N,/RTC/AS*%
X113710000Y-134200000D03*
%TO.P,U23,6,~{AEN}_6*%
%TO.N,/Wait State Generator/AEN*%
X116250000Y-134200000D03*
%TO.P,U23,7,~{MRDC}_7*%
%TO.N,/~{MEMR}*%
X118790000Y-134200000D03*
%TO.P,U23,8,~{AMWC}_8*%
%TO.N,/~{MEMW}*%
X121330000Y-134200000D03*
%TO.P,U23,9,~{MWTC}_9*%
%TO.N,unconnected-(U23-~{MWTC}-Pad9)*%
X123870000Y-134200000D03*
%TO.P,U23,10,GND_10*%
%TO.N,GND*%
X126410000Y-134200000D03*
%TO.P,U23,11,~{IOWC}_11*%
%TO.N,unconnected-(U23-~{IOWC}-Pad11)*%
X126410000Y-126580000D03*
%TO.P,U23,12,~{AIOWC}_12*%
%TO.N,/~{IOW}*%
X123870000Y-126580000D03*
%TO.P,U23,13,~{IORC}_13*%
%TO.N,/~{IOR}*%
X121330000Y-126580000D03*
%TO.P,U23,14,~{INTA}_14*%
%TO.N,Net-(U16-~{INTA})*%
X118790000Y-126580000D03*
%TO.P,U23,15,CEN_15*%
%TO.N,/Device Decoder/~{AEN}*%
X116250000Y-126580000D03*
%TO.P,U23,16,DEN_16*%
%TO.N,/RTC/ADDR EN*%
X113710000Y-126580000D03*
%TO.P,U23,17,MCE/~{PDEN}_17*%
%TO.N,unconnected-(U23-MCE{slash}~{PDEN}-Pad17)*%
X111170000Y-126580000D03*
%TO.P,U23,18,~{S2}_18*%
%TO.N,/Processor And Control/~{S2}*%
X108630000Y-126580000D03*
%TO.P,U23,19,~{S0}_19*%
%TO.N,/Processor And Control/~{S0}*%
X106090000Y-126580000D03*
%TO.P,U23,20,VCC_20*%
%TO.N,+5V*%
X103550000Y-126580000D03*
%TD*%
D11*
%TO.P,U3,1*%
%TO.N,/Wait State Generator/~{S0}*%
X211130000Y-74170000D03*
D10*
%TO.P,U3,2*%
%TO.N,/Wait State Generator/~{S1}*%
X213670000Y-74170000D03*
%TO.P,U3,3*%
%TO.N,/Wait State Generator/~{S2}*%
X216210000Y-74170000D03*
%TO.P,U3,4*%
%TO.N,/Processor And Control/~{LOCK}*%
X218750000Y-74170000D03*
%TO.P,U3,5*%
%TO.N,Net-(U10B-~{R})*%
X221290000Y-74170000D03*
%TO.P,U3,6*%
%TO.N,+5V*%
X223830000Y-74170000D03*
%TO.P,U3,7,GND_7*%
%TO.N,GND*%
X226370000Y-74170000D03*
%TO.P,U3,8*%
%TO.N,Net-(U32-D3)*%
X226370000Y-66550000D03*
%TO.P,U3,9,NC_9*%
%TO.N,unconnected-(U3B-NC-Pad9)*%
X223830000Y-66550000D03*
%TO.P,U3,10,NC_10*%
%TO.N,unconnected-(U3B-NC-Pad10)*%
X221290000Y-66550000D03*
%TO.P,U3,11*%
%TO.N,+5V*%
X218750000Y-66550000D03*
%TO.P,U3,12*%
X216210000Y-66550000D03*
%TO.P,U3,13,NC_13*%
%TO.N,unconnected-(U3B-NC-Pad13)*%
X213670000Y-66550000D03*
%TO.P,U3,14,VCC_14*%
%TO.N,+5V*%
X211130000Y-66550000D03*
%TD*%
D27*
%TO.P,U12,1,A18_1*%
%TO.N,/Flag Registers/BA1*%
X181250000Y-240000000D03*
D10*
%TO.P,U12,2,A16_2*%
%TO.N,/Bus Driver/A16*%
X178710000Y-240000000D03*
%TO.P,U12,3,A14_3*%
%TO.N,/Bus Driver/A14*%
X176170000Y-240000000D03*
%TO.P,U12,4,A12_4*%
%TO.N,/Bus Driver/A12*%
X173630000Y-240000000D03*
%TO.P,U12,5,A7_5*%
%TO.N,/Bus Driver/A7*%
X171090000Y-240000000D03*
%TO.P,U12,6,A6_6*%
%TO.N,/Bus Driver/A6*%
X168550000Y-240000000D03*
%TO.P,U12,7,A5_7*%
%TO.N,/Bus Driver/A5*%
X166010000Y-240000000D03*
%TO.P,U12,8,A4_8*%
%TO.N,/Bus Driver/A4*%
X163470000Y-240000000D03*
%TO.P,U12,9,A3_9*%
%TO.N,/Bus Driver/A3*%
X160930000Y-240000000D03*
%TO.P,U12,10,A2_10*%
%TO.N,/Bus Driver/A2*%
X158390000Y-240000000D03*
%TO.P,U12,11,A1_11*%
%TO.N,/Bus Driver/A1*%
X155850000Y-240000000D03*
%TO.P,U12,12,A0_12*%
%TO.N,/Bus Driver/A0*%
X153310000Y-240000000D03*
%TO.P,U12,13,DQ0_13*%
%TO.N,/RAM and ROM/MD0*%
X150770000Y-240000000D03*
%TO.P,U12,14,DQ1_14*%
%TO.N,/RAM and ROM/MD1*%
X148230000Y-240000000D03*
%TO.P,U12,15,DQ2_15*%
%TO.N,/RAM and ROM/MD2*%
X145690000Y-240000000D03*
%TO.P,U12,16,VSS_16*%
%TO.N,GND*%
X143150000Y-240000000D03*
%TO.P,U12,17,DQ3_17*%
%TO.N,/RAM and ROM/MD3*%
X143150000Y-255240000D03*
%TO.P,U12,18,DQ4_18*%
%TO.N,/RAM and ROM/MD4*%
X145690000Y-255240000D03*
%TO.P,U12,19,DQ5_19*%
%TO.N,/RAM and ROM/MD5*%
X148230000Y-255240000D03*
%TO.P,U12,20,DQ6_20*%
%TO.N,/RAM and ROM/MD6*%
X150770000Y-255240000D03*
%TO.P,U12,21,DQ7_21*%
%TO.N,/RAM and ROM/MD7*%
X153310000Y-255240000D03*
%TO.P,U12,22,CE#_22*%
%TO.N,/Device Decoder/~{RAM_BANK_CS}*%
X155850000Y-255240000D03*
%TO.P,U12,23,A10_23*%
%TO.N,/Bus Driver/A10*%
X158390000Y-255240000D03*
%TO.P,U12,24,OE#_24*%
%TO.N,/~{XMEMR}*%
X160930000Y-255240000D03*
%TO.P,U12,25,A11_25*%
%TO.N,/Bus Driver/A11*%
X163470000Y-255240000D03*
%TO.P,U12,26,A9_26*%
%TO.N,/Bus Driver/A9*%
X166010000Y-255240000D03*
%TO.P,U12,27,A8_27*%
%TO.N,/Bus Driver/A8*%
X168550000Y-255240000D03*
%TO.P,U12,28,A13_28*%
%TO.N,/Bus Driver/A13*%
X171090000Y-255240000D03*
%TO.P,U12,29,WE#_29*%
%TO.N,/~{XMEMW}*%
X173630000Y-255240000D03*
%TO.P,U12,30,A17_30*%
%TO.N,/Flag Registers/BA0*%
X176170000Y-255240000D03*
%TO.P,U12,31,A15_31*%
%TO.N,/Bus Driver/A15*%
X178710000Y-255240000D03*
%TO.P,U12,32,VCC_32*%
%TO.N,+5V*%
X181250000Y-255240000D03*
%TD*%
D36*
%TO.P,J2,1,GND_1*%
%TO.N,GND*%
X49400000Y-235570000D03*
D37*
%TO.P,J2,2,RESET_2*%
%TO.N,/Bus Driver/RESET*%
X51940000Y-235570000D03*
%TO.P,J2,3,VCC_3*%
%TO.N,+5V*%
X54480000Y-235570000D03*
%TO.P,J2,4,IRQ2_4*%
%TO.N,/Processor And Control/IRQ2*%
X57020000Y-235570000D03*
%TO.P,J2,5,-5V_5*%
%TO.N,unconnected-(J2--5V-Pad5)*%
X59560000Y-235570000D03*
%TO.P,J2,6,DRQ2_6*%
%TO.N,/DMA/DRQ2*%
X62100000Y-235570000D03*
%TO.P,J2,7,-12V_7*%
%TO.N,-12V*%
X64640000Y-235570000D03*
%TO.P,J2,8,UNUSED_8*%
%TO.N,/ISA BUS/~{HRQ I{slash}O CH}*%
X67180000Y-235570000D03*
%TO.P,J2,9,+12V_9*%
%TO.N,+12V*%
X69720000Y-235570000D03*
%TO.P,J2,10,GND_10*%
%TO.N,GND*%
X72260000Y-235570000D03*
%TO.P,J2,11,~{SMEMW}_11*%
%TO.N,/~{MEMW}*%
X74800000Y-235570000D03*
%TO.P,J2,12,~{SMEMR}_12*%
%TO.N,/~{MEMR}*%
X77340000Y-235570000D03*
%TO.P,J2,13,~{IOW}_13*%
%TO.N,/~{IOW}*%
X79880000Y-235570000D03*
%TO.P,J2,14,~{IOR}_14*%
%TO.N,/~{IOR}*%
X82420000Y-235570000D03*
%TO.P,J2,15,~{DACK3}_15*%
%TO.N,/ISA BUS/~{DACK3}*%
X84960000Y-235570000D03*
%TO.P,J2,16,DRQ3_16*%
%TO.N,/DMA/DRQ3*%
X87500000Y-235570000D03*
%TO.P,J2,17,~{DACK1}_17*%
%TO.N,/ISA BUS/~{DACK1}*%
X90040000Y-235570000D03*
%TO.P,J2,18,DRQ1_18*%
%TO.N,/DMA/DRQ1*%
X92580000Y-235570000D03*
%TO.P,J2,19,~{DACK0}_19*%
%TO.N,/ISA BUS/~{DACK0}*%
X95120000Y-235570000D03*
%TO.P,J2,20,CLK_20*%
%TO.N,CLK*%
X97660000Y-235570000D03*
%TO.P,J2,21,IRQ7_21*%
%TO.N,/Processor And Control/IRQ7*%
X100200000Y-235570000D03*
%TO.P,J2,22,IRQ6_22*%
%TO.N,/Processor And Control/IRQ6*%
X102740000Y-235570000D03*
%TO.P,J2,23,IRQ5_23*%
%TO.N,/Processor And Control/IRQ5*%
X105280000Y-235570000D03*
%TO.P,J2,24,IRQ4_24*%
%TO.N,/Processor And Control/IRQ4*%
X107820000Y-235570000D03*
%TO.P,J2,25,IRQ3_25*%
%TO.N,/Processor And Control/IRQ3*%
X110360000Y-235570000D03*
%TO.P,J2,26,~{DACK2}_26*%
%TO.N,/ISA BUS/~{DACK2}*%
X112900000Y-235570000D03*
%TO.P,J2,27,TC_27*%
%TO.N,/DMA/Terminal Count*%
X115440000Y-235570000D03*
%TO.P,J2,28,ALE_28*%
%TO.N,/RTC/AS*%
X117980000Y-235570000D03*
%TO.P,J2,29,VCC_29*%
%TO.N,+5V*%
X120520000Y-235570000D03*
%TO.P,J2,30,OSC_30*%
%TO.N,OSC*%
X123060000Y-235570000D03*
%TO.P,J2,31,GND_31*%
%TO.N,GND*%
X125600000Y-235570000D03*
%TO.P,J2,32,IO_32*%
%TO.N,/ISA BUS/~{I{slash}O CH CK}*%
X49400000Y-230718000D03*
%TO.P,J2,33,DB7_33*%
%TO.N,/Bus Driver/D7*%
X51940000Y-230718000D03*
%TO.P,J2,34,DB6_34*%
%TO.N,/Bus Driver/D6*%
X54480000Y-230718000D03*
%TO.P,J2,35,DB5_35*%
%TO.N,/Bus Driver/D5*%
X57020000Y-230718000D03*
%TO.P,J2,36,DB4_36*%
%TO.N,/Bus Driver/D4*%
X59560000Y-230718000D03*
%TO.P,J2,37,DB3_37*%
%TO.N,/Bus Driver/D3*%
X62100000Y-230718000D03*
%TO.P,J2,38,DB2_38*%
%TO.N,/Bus Driver/D2*%
X64640000Y-230718000D03*
%TO.P,J2,39,DB1_39*%
%TO.N,/Bus Driver/D1*%
X67180000Y-230718000D03*
%TO.P,J2,40,DB0_40*%
%TO.N,/Bus Driver/D0*%
X69720000Y-230718000D03*
%TO.P,J2,41,IO_READY_41*%
%TO.N,/ISA BUS/I{slash}O CH RDY*%
X72260000Y-230718000D03*
%TO.P,J2,42,AEN_42*%
%TO.N,/Bus Driver/AEN*%
X74800000Y-230718000D03*
%TO.P,J2,43,BA19_43*%
%TO.N,/Bus Driver/A19*%
X77340000Y-230718000D03*
%TO.P,J2,44,BA18_44*%
%TO.N,/Bus Driver/A18*%
X79880000Y-230718000D03*
%TO.P,J2,45,BA17_45*%
%TO.N,/Bus Driver/A17*%
X82420000Y-230718000D03*
%TO.P,J2,46,BA16_46*%
%TO.N,/Bus Driver/A16*%
X84960000Y-230718000D03*
%TO.P,J2,47,BA15_47*%
%TO.N,/Bus Driver/A15*%
X87500000Y-230718000D03*
%TO.P,J2,48,BA14_48*%
%TO.N,/Bus Driver/A14*%
X90040000Y-230718000D03*
%TO.P,J2,49,BA13_49*%
%TO.N,/Bus Driver/A13*%
X92580000Y-230718000D03*
%TO.P,J2,50,BA12_50*%
%TO.N,/Bus Driver/A12*%
X95120000Y-230718000D03*
%TO.P,J2,51,BA11_51*%
%TO.N,/Bus Driver/A11*%
X97660000Y-230718000D03*
%TO.P,J2,52,BA10_52*%
%TO.N,/Bus Driver/A10*%
X100200000Y-230718000D03*
%TO.P,J2,53,BA09_53*%
%TO.N,/Bus Driver/A9*%
X102740000Y-230718000D03*
%TO.P,J2,54,BA08_54*%
%TO.N,/Bus Driver/A8*%
X105280000Y-230718000D03*
%TO.P,J2,55,BA07_55*%
%TO.N,/Bus Driver/A7*%
X107820000Y-230718000D03*
%TO.P,J2,56,BA06_56*%
%TO.N,/Bus Driver/A6*%
X110360000Y-230718000D03*
%TO.P,J2,57,BA05_57*%
%TO.N,/Bus Driver/A5*%
X112900000Y-230718000D03*
%TO.P,J2,58,BA04_58*%
%TO.N,/Bus Driver/A4*%
X115440000Y-230718000D03*
%TO.P,J2,59,BA03_59*%
%TO.N,/Bus Driver/A3*%
X117980000Y-230718000D03*
%TO.P,J2,60,BA02_60*%
%TO.N,/Bus Driver/A2*%
X120520000Y-230718000D03*
%TO.P,J2,61,BA01_61*%
%TO.N,/Bus Driver/A1*%
X123060000Y-230718000D03*
%TO.P,J2,62,BA00_62*%
%TO.N,/Bus Driver/A0*%
X125600000Y-230718000D03*
%TD*%
D11*
%TO.P,U43,1,C1+_1*%
%TO.N,Net-(U43-C1+)*%
X38760000Y-107550000D03*
D10*
%TO.P,U43,2,VS+_2*%
%TO.N,Net-(U43-VS+)*%
X41300000Y-107550000D03*
%TO.P,U43,3,C1-_3*%
%TO.N,Net-(U43-C1-)*%
X43840000Y-107550000D03*
%TO.P,U43,4,C2+_4*%
%TO.N,Net-(U43-C2+)*%
X46380000Y-107550000D03*
%TO.P,U43,5,C2-_5*%
%TO.N,Net-(U43-C2-)*%
X48920000Y-107550000D03*
%TO.P,U43,6,VS-_6*%
%TO.N,Net-(U43-VS-)*%
X51460000Y-107550000D03*
%TO.P,U43,7,T2OUT_7*%
%TO.N,/UART/RTS*%
X54000000Y-107550000D03*
%TO.P,U43,8,R2IN_8*%
%TO.N,/UART/CTS*%
X56540000Y-107550000D03*
%TO.P,U43,9,R2OUT_9*%
%TO.N,Net-(U42-~{CTS})*%
X56540000Y-99930000D03*
%TO.P,U43,10,T2IN_10*%
%TO.N,Net-(U42-~{RTS})*%
X54000000Y-99930000D03*
%TO.P,U43,11,T1IN_11*%
%TO.N,Net-(U42-SOUT)*%
X51460000Y-99930000D03*
%TO.P,U43,12,R1OUT_12*%
%TO.N,Net-(U42-SIN)*%
X48920000Y-99930000D03*
%TO.P,U43,13,R1IN_13*%
%TO.N,/UART/TXD*%
X46380000Y-99930000D03*
%TO.P,U43,14,T1OUT_14*%
%TO.N,/UART/RXD*%
X43840000Y-99930000D03*
%TO.P,U43,15,GND_15*%
%TO.N,GND*%
X41300000Y-99930000D03*
%TO.P,U43,16,VCC_16*%
%TO.N,+5V*%
X38760000Y-99930000D03*
%TD*%
D11*
%TO.P,U14,1,GND_1*%
%TO.N,GND*%
X133000000Y-138250000D03*
D10*
%TO.P,U14,2,A14_2*%
%TO.N,/Processor And Control/AX14*%
X135540000Y-138250000D03*
%TO.P,U14,3,A13_3*%
%TO.N,/Processor And Control/AX13*%
X138080000Y-138250000D03*
%TO.P,U14,4,A12_4*%
%TO.N,/Processor And Control/AX12*%
X140620000Y-138250000D03*
%TO.P,U14,5,A11_5*%
%TO.N,/Processor And Control/AX11*%
X143160000Y-138250000D03*
%TO.P,U14,6,A10_6*%
%TO.N,/Processor And Control/AX10*%
X145700000Y-138250000D03*
%TO.P,U14,7,A9_7*%
%TO.N,/Processor And Control/AX9*%
X148240000Y-138250000D03*
%TO.P,U14,8,A8_8*%
%TO.N,/Processor And Control/AX8*%
X150780000Y-138250000D03*
%TO.P,U14,9,AD7_9*%
%TO.N,/Processor And Control/AX7*%
X153320000Y-138250000D03*
%TO.P,U14,10,AD6_10*%
%TO.N,/Processor And Control/AX6*%
X155860000Y-138250000D03*
%TO.P,U14,11,AD5_11*%
%TO.N,/Processor And Control/AX5*%
X158400000Y-138250000D03*
%TO.P,U14,12,AD4_12*%
%TO.N,/Processor And Control/AX4*%
X160940000Y-138250000D03*
%TO.P,U14,13,AD3_13*%
%TO.N,/Processor And Control/AX3*%
X163480000Y-138250000D03*
%TO.P,U14,14,AD2_14*%
%TO.N,/Processor And Control/AX2*%
X166020000Y-138250000D03*
%TO.P,U14,15,AD1_15*%
%TO.N,/Processor And Control/AX1*%
X168560000Y-138250000D03*
%TO.P,U14,16,AD0_16*%
%TO.N,/Processor And Control/AX0*%
X171100000Y-138250000D03*
%TO.P,U14,17,NMI_17*%
%TO.N,/Processor And Control/NMI*%
X173640000Y-138250000D03*
%TO.P,U14,18,INTR_18*%
%TO.N,Net-(U14-INTR)*%
X176180000Y-138250000D03*
%TO.P,U14,19,CLK_19*%
%TO.N,CLK88*%
X178720000Y-138250000D03*
%TO.P,U14,20,GND_20*%
%TO.N,GND*%
X181260000Y-138250000D03*
%TO.P,U14,21,RESET_21*%
%TO.N,/Bus Driver/RESET BRD*%
X181260000Y-123010000D03*
%TO.P,U14,22,READY_22*%
%TO.N,Net-(U13-READY)*%
X178720000Y-123010000D03*
%TO.P,U14,23,~{TEST}_23*%
%TO.N,Net-(U14-~{TEST})*%
X176180000Y-123010000D03*
%TO.P,U14,24,QS1_24*%
%TO.N,/Processor And Control/QS1*%
X173640000Y-123010000D03*
%TO.P,U14,25,QS0_25*%
%TO.N,/Processor And Control/QSO*%
X171100000Y-123010000D03*
%TO.P,U14,26,~{S0}_26*%
%TO.N,/Processor And Control/~{S0}*%
X168560000Y-123010000D03*
%TO.P,U14,27,~{S1}_27*%
%TO.N,/Processor And Control/~{S1}*%
X166020000Y-123010000D03*
%TO.P,U14,28,~{S2}_28*%
%TO.N,/Processor And Control/~{S2}*%
X163480000Y-123010000D03*
%TO.P,U14,29,~{LOCK}_29*%
%TO.N,/Processor And Control/~{LOCK}*%
X160940000Y-123010000D03*
%TO.P,U14,30,~{RQ}/~{GT1}_30*%
%TO.N,Net-(U14-~{RQ}{slash}~{GT1})*%
X158400000Y-123010000D03*
%TO.P,U14,31,~{RQ}/~{GT0}_31*%
%TO.N,+5V*%
X155860000Y-123010000D03*
%TO.P,U14,32,~{RD}_32*%
%TO.N,unconnected-(U14-~{RD}-Pad32)*%
X153320000Y-123010000D03*
%TO.P,U14,33,MN/~{MX}_33*%
%TO.N,GND*%
X150780000Y-123010000D03*
%TO.P,U14,34,HIGH_34*%
%TO.N,unconnected-(U14-HIGH-Pad34)*%
X148240000Y-123010000D03*
%TO.P,U14,35,A19/S6_35*%
%TO.N,/Processor And Control/AX19*%
X145700000Y-123010000D03*
%TO.P,U14,36,A18/S5_36*%
%TO.N,/Processor And Control/AX18*%
X143160000Y-123010000D03*
%TO.P,U14,37,A17/S4_37*%
%TO.N,/Processor And Control/AX17*%
X140620000Y-123010000D03*
%TO.P,U14,38,A16/S3_38*%
%TO.N,/Processor And Control/AX16*%
X138080000Y-123010000D03*
%TO.P,U14,39,A15_39*%
%TO.N,/Processor And Control/AX15*%
X135540000Y-123010000D03*
%TO.P,U14,40,VCC_40*%
%TO.N,+5V*%
X133000000Y-123010000D03*
%TD*%
D11*
%TO.P,U31,1,OEa_1*%
%TO.N,/Bus Driver/~{DMA AEN}*%
X198730000Y-236895000D03*
D10*
%TO.P,U31,2,I0a_2*%
%TO.N,/Bus Driver/XA0*%
X201270000Y-236895000D03*
%TO.P,U31,3,O3b_3*%
%TO.N,/Bus Driver/A7*%
X203810000Y-236895000D03*
%TO.P,U31,4,I1a_4*%
%TO.N,/Bus Driver/XA1*%
X206350000Y-236895000D03*
%TO.P,U31,5,O2b_5*%
%TO.N,/Bus Driver/A6*%
X208890000Y-236895000D03*
%TO.P,U31,6,I2a_6*%
%TO.N,/Bus Driver/XA2*%
X211430000Y-236895000D03*
%TO.P,U31,7,O1b_7*%
%TO.N,/Bus Driver/A5*%
X213970000Y-236895000D03*
%TO.P,U31,8,I3a_8*%
%TO.N,/Bus Driver/XA3*%
X216510000Y-236895000D03*
%TO.P,U31,9,O0b_9*%
%TO.N,/Bus Driver/A4*%
X219050000Y-236895000D03*
%TO.P,U31,10,GND_10*%
%TO.N,GND*%
X221590000Y-236895000D03*
%TO.P,U31,11,I0b_11*%
%TO.N,/DMA/DA4*%
X221590000Y-229275000D03*
%TO.P,U31,12,O3a_12*%
%TO.N,/Bus Driver/A3*%
X219050000Y-229275000D03*
%TO.P,U31,13,I1b_13*%
%TO.N,/DMA/DA5*%
X216510000Y-229275000D03*
%TO.P,U31,14,O2a_14*%
%TO.N,/Bus Driver/A2*%
X213970000Y-229275000D03*
%TO.P,U31,15,I2b_15*%
%TO.N,/DMA/DA6*%
X211430000Y-229275000D03*
%TO.P,U31,16,O1a_16*%
%TO.N,/Bus Driver/A1*%
X208890000Y-229275000D03*
%TO.P,U31,17,I3b_17*%
%TO.N,/DMA/DA7*%
X206350000Y-229275000D03*
%TO.P,U31,18,O0a_18*%
%TO.N,/Bus Driver/A0*%
X203810000Y-229275000D03*
%TO.P,U31,19,OEb_19*%
%TO.N,/Bus Driver/~{DMA AEN}*%
X201270000Y-229275000D03*
%TO.P,U31,20,VCC_20*%
%TO.N,+5V*%
X198730000Y-229275000D03*
%TD*%
D11*
%TO.P,U33,1,D7_1*%
%TO.N,/Bus Driver/XD7*%
X39000000Y-66240000D03*
D10*
%TO.P,U33,2,D6_2*%
%TO.N,/Bus Driver/XD6*%
X41540000Y-66240000D03*
%TO.P,U33,3,D5_3*%
%TO.N,/Bus Driver/XD5*%
X44080000Y-66240000D03*
%TO.P,U33,4,D4_4*%
%TO.N,/Bus Driver/XD4*%
X46620000Y-66240000D03*
%TO.P,U33,5,D3_5*%
%TO.N,/Bus Driver/XD3*%
X49160000Y-66240000D03*
%TO.P,U33,6,D2_6*%
%TO.N,/Bus Driver/XD2*%
X51700000Y-66240000D03*
%TO.P,U33,7,D1_7*%
%TO.N,/Bus Driver/XD1*%
X54240000Y-66240000D03*
%TO.P,U33,8,D0_8*%
%TO.N,/Bus Driver/XD0*%
X56780000Y-66240000D03*
%TO.P,U33,9,CLK0_9*%
%TO.N,Net-(U33-CLK0)*%
X59320000Y-66240000D03*
%TO.P,U33,10,OUT0_10*%
%TO.N,/Processor And Control/IRQ0*%
X61860000Y-66240000D03*
%TO.P,U33,11,G0_11*%
%TO.N,+5V*%
X64400000Y-66240000D03*
%TO.P,U33,12,GND_12*%
%TO.N,GND*%
X66940000Y-66240000D03*
%TO.P,U33,13,OUT1_13*%
%TO.N,/Pinout/PIT OUT*%
X66940000Y-51000000D03*
%TO.P,U33,14,G1_14*%
%TO.N,/Pinout/PIT GATE*%
X64400000Y-51000000D03*
%TO.P,U33,15,CLK1_15*%
%TO.N,Net-(U33-CLK0)*%
X61860000Y-51000000D03*
%TO.P,U33,16,G2_16*%
%TO.N,/Flag Registers/SPKR OUT*%
X59320000Y-51000000D03*
%TO.P,U33,17,OUT2_17*%
%TO.N,/Flag Registers/SPKR EN*%
X56780000Y-51000000D03*
%TO.P,U33,18,CLK2_18*%
%TO.N,Net-(U33-CLK0)*%
X54240000Y-51000000D03*
%TO.P,U33,19,A0_19*%
%TO.N,/Bus Driver/XA0*%
X51700000Y-51000000D03*
%TO.P,U33,20,A1_20*%
%TO.N,/Bus Driver/XA1*%
X49160000Y-51000000D03*
%TO.P,U33,21,~{CS}_21*%
%TO.N,/~{CS1}*%
X46620000Y-51000000D03*
%TO.P,U33,22,~{RD}_22*%
%TO.N,/~{XIOW}*%
X44080000Y-51000000D03*
%TO.P,U33,23,~{WR}_23*%
%TO.N,/~{XIOR}*%
X41540000Y-51000000D03*
%TO.P,U33,24,VCC_24*%
%TO.N,+5V*%
X39000000Y-51000000D03*
%TD*%
D11*
%TO.P,U54,1,~{Mr}_1*%
%TO.N,/Wait State Generator/~{RESET}*%
X103250000Y-109000000D03*
D10*
%TO.P,U54,2,Q0_2*%
%TO.N,/Flag Registers/BA0*%
X105790000Y-109000000D03*
%TO.P,U54,3,D0_3*%
%TO.N,/Bus Driver/XD0*%
X108330000Y-109000000D03*
%TO.P,U54,4,D1_4*%
%TO.N,/Bus Driver/XD1*%
X110870000Y-109000000D03*
%TO.P,U54,5,Q1_5*%
%TO.N,/Flag Registers/BA1*%
X113410000Y-109000000D03*
%TO.P,U54,6,Q2_6*%
%TO.N,/Flag Registers/SPKR EN*%
X115950000Y-109000000D03*
%TO.P,U54,7,D2_7*%
%TO.N,/Bus Driver/XD2*%
X118490000Y-109000000D03*
%TO.P,U54,8,D3_8*%
%TO.N,/Bus Driver/XD3*%
X121030000Y-109000000D03*
%TO.P,U54,9,Q3_9*%
%TO.N,/Flag Registers/SPKR GATE*%
X123570000Y-109000000D03*
%TO.P,U54,10,GND_10*%
%TO.N,GND*%
X126110000Y-109000000D03*
%TO.P,U54,11,Cp_11*%
%TO.N,Net-(U54-Cp)*%
X126110000Y-101380000D03*
%TO.P,U54,12,Q4_12*%
%TO.N,unconnected-(U54-Q4-Pad12)*%
X123570000Y-101380000D03*
%TO.P,U54,13,D4_13*%
%TO.N,/Bus Driver/XD4*%
X121030000Y-101380000D03*
%TO.P,U54,14,D5_14*%
%TO.N,/Bus Driver/XD5*%
X118490000Y-101380000D03*
%TO.P,U54,15,Q5_15*%
%TO.N,unconnected-(U54-Q5-Pad15)*%
X115950000Y-101380000D03*
%TO.P,U54,16,Q6_16*%
%TO.N,/Flag Registers/ENABLE IO CK*%
X113410000Y-101380000D03*
%TO.P,U54,17,D6_17*%
%TO.N,/Bus Driver/XD6*%
X110870000Y-101380000D03*
%TO.P,U54,18,D7_18*%
%TO.N,/Bus Driver/XD7*%
X108330000Y-101380000D03*
%TO.P,U54,19,Q7_19*%
%TO.N,/Flag Registers/ALLOW NMI*%
X105790000Y-101380000D03*
%TO.P,U54,20,VCC_20*%
%TO.N,+5V*%
X103250000Y-101380000D03*
%TD*%
D36*
%TO.P,J4,1,GND_1*%
%TO.N,GND*%
X49400000Y-194330000D03*
D37*
%TO.P,J4,2,RESET_2*%
%TO.N,/Bus Driver/RESET*%
X51940000Y-194330000D03*
%TO.P,J4,3,VCC_3*%
%TO.N,+5V*%
X54480000Y-194330000D03*
%TO.P,J4,4,IRQ2_4*%
%TO.N,/Processor And Control/IRQ2*%
X57020000Y-194330000D03*
%TO.P,J4,5,-5V_5*%
%TO.N,unconnected-(J4--5V-Pad5)*%
X59560000Y-194330000D03*
%TO.P,J4,6,DRQ2_6*%
%TO.N,/DMA/DRQ2*%
X62100000Y-194330000D03*
%TO.P,J4,7,-12V_7*%
%TO.N,-12V*%
X64640000Y-194330000D03*
%TO.P,J4,8,UNUSED_8*%
%TO.N,/ISA BUS/~{HRQ I{slash}O CH}*%
X67180000Y-194330000D03*
%TO.P,J4,9,+12V_9*%
%TO.N,+12V*%
X69720000Y-194330000D03*
%TO.P,J4,10,GND_10*%
%TO.N,GND*%
X72260000Y-194330000D03*
%TO.P,J4,11,~{SMEMW}_11*%
%TO.N,/~{MEMW}*%
X74800000Y-194330000D03*
%TO.P,J4,12,~{SMEMR}_12*%
%TO.N,/~{MEMR}*%
X77340000Y-194330000D03*
%TO.P,J4,13,~{IOW}_13*%
%TO.N,/~{IOW}*%
X79880000Y-194330000D03*
%TO.P,J4,14,~{IOR}_14*%
%TO.N,/~{IOR}*%
X82420000Y-194330000D03*
%TO.P,J4,15,~{DACK3}_15*%
%TO.N,/ISA BUS/~{DACK3}*%
X84960000Y-194330000D03*
%TO.P,J4,16,DRQ3_16*%
%TO.N,/DMA/DRQ3*%
X87500000Y-194330000D03*
%TO.P,J4,17,~{DACK1}_17*%
%TO.N,/ISA BUS/~{DACK1}*%
X90040000Y-194330000D03*
%TO.P,J4,18,DRQ1_18*%
%TO.N,/DMA/DRQ1*%
X92580000Y-194330000D03*
%TO.P,J4,19,~{DACK0}_19*%
%TO.N,/ISA BUS/~{DACK0}*%
X95120000Y-194330000D03*
%TO.P,J4,20,CLK_20*%
%TO.N,CLK*%
X97660000Y-194330000D03*
%TO.P,J4,21,IRQ7_21*%
%TO.N,/Processor And Control/IRQ7*%
X100200000Y-194330000D03*
%TO.P,J4,22,IRQ6_22*%
%TO.N,/Processor And Control/IRQ6*%
X102740000Y-194330000D03*
%TO.P,J4,23,IRQ5_23*%
%TO.N,/Processor And Control/IRQ5*%
X105280000Y-194330000D03*
%TO.P,J4,24,IRQ4_24*%
%TO.N,/Processor And Control/IRQ4*%
X107820000Y-194330000D03*
%TO.P,J4,25,IRQ3_25*%
%TO.N,/Processor And Control/IRQ3*%
X110360000Y-194330000D03*
%TO.P,J4,26,~{DACK2}_26*%
%TO.N,/ISA BUS/~{DACK2}*%
X112900000Y-194330000D03*
%TO.P,J4,27,TC_27*%
%TO.N,/DMA/Terminal Count*%
X115440000Y-194330000D03*
%TO.P,J4,28,ALE_28*%
%TO.N,/RTC/AS*%
X117980000Y-194330000D03*
%TO.P,J4,29,VCC_29*%
%TO.N,+5V*%
X120520000Y-194330000D03*
%TO.P,J4,30,OSC_30*%
%TO.N,OSC*%
X123060000Y-194330000D03*
%TO.P,J4,31,GND_31*%
%TO.N,GND*%
X125600000Y-194330000D03*
%TO.P,J4,32,IO_32*%
%TO.N,/ISA BUS/~{I{slash}O CH CK}*%
X49400000Y-189478000D03*
%TO.P,J4,33,DB7_33*%
%TO.N,/Bus Driver/D7*%
X51940000Y-189478000D03*
%TO.P,J4,34,DB6_34*%
%TO.N,/Bus Driver/D6*%
X54480000Y-189478000D03*
%TO.P,J4,35,DB5_35*%
%TO.N,/Bus Driver/D5*%
X57020000Y-189478000D03*
%TO.P,J4,36,DB4_36*%
%TO.N,/Bus Driver/D4*%
X59560000Y-189478000D03*
%TO.P,J4,37,DB3_37*%
%TO.N,/Bus Driver/D3*%
X62100000Y-189478000D03*
%TO.P,J4,38,DB2_38*%
%TO.N,/Bus Driver/D2*%
X64640000Y-189478000D03*
%TO.P,J4,39,DB1_39*%
%TO.N,/Bus Driver/D1*%
X67180000Y-189478000D03*
%TO.P,J4,40,DB0_40*%
%TO.N,/Bus Driver/D0*%
X69720000Y-189478000D03*
%TO.P,J4,41,IO_READY_41*%
%TO.N,/ISA BUS/I{slash}O CH RDY*%
X72260000Y-189478000D03*
%TO.P,J4,42,AEN_42*%
%TO.N,/Bus Driver/AEN*%
X74800000Y-189478000D03*
%TO.P,J4,43,BA19_43*%
%TO.N,/Bus Driver/A19*%
X77340000Y-189478000D03*
%TO.P,J4,44,BA18_44*%
%TO.N,/Bus Driver/A18*%
X79880000Y-189478000D03*
%TO.P,J4,45,BA17_45*%
%TO.N,/Bus Driver/A17*%
X82420000Y-189478000D03*
%TO.P,J4,46,BA16_46*%
%TO.N,/Bus Driver/A16*%
X84960000Y-189478000D03*
%TO.P,J4,47,BA15_47*%
%TO.N,/Bus Driver/A15*%
X87500000Y-189478000D03*
%TO.P,J4,48,BA14_48*%
%TO.N,/Bus Driver/A14*%
X90040000Y-189478000D03*
%TO.P,J4,49,BA13_49*%
%TO.N,/Bus Driver/A13*%
X92580000Y-189478000D03*
%TO.P,J4,50,BA12_50*%
%TO.N,/Bus Driver/A12*%
X95120000Y-189478000D03*
%TO.P,J4,51,BA11_51*%
%TO.N,/Bus Driver/A11*%
X97660000Y-189478000D03*
%TO.P,J4,52,BA10_52*%
%TO.N,/Bus Driver/A10*%
X100200000Y-189478000D03*
%TO.P,J4,53,BA09_53*%
%TO.N,/Bus Driver/A9*%
X102740000Y-189478000D03*
%TO.P,J4,54,BA08_54*%
%TO.N,/Bus Driver/A8*%
X105280000Y-189478000D03*
%TO.P,J4,55,BA07_55*%
%TO.N,/Bus Driver/A7*%
X107820000Y-189478000D03*
%TO.P,J4,56,BA06_56*%
%TO.N,/Bus Driver/A6*%
X110360000Y-189478000D03*
%TO.P,J4,57,BA05_57*%
%TO.N,/Bus Driver/A5*%
X112900000Y-189478000D03*
%TO.P,J4,58,BA04_58*%
%TO.N,/Bus Driver/A4*%
X115440000Y-189478000D03*
%TO.P,J4,59,BA03_59*%
%TO.N,/Bus Driver/A3*%
X117980000Y-189478000D03*
%TO.P,J4,60,BA02_60*%
%TO.N,/Bus Driver/A2*%
X120520000Y-189478000D03*
%TO.P,J4,61,BA01_61*%
%TO.N,/Bus Driver/A1*%
X123060000Y-189478000D03*
%TO.P,J4,62,BA00_62*%
%TO.N,/Bus Driver/A0*%
X125600000Y-189478000D03*
%TD*%
D11*
%TO.P,U24,1*%
%TO.N,/RTC/ADDR EN*%
X133190000Y-91505000D03*
D10*
%TO.P,U24,2*%
%TO.N,Net-(U16-~{SP}{slash}~{EN})*%
X135730000Y-91505000D03*
%TO.P,U24,3*%
%TO.N,/Bus Driver/XA9*%
X138270000Y-91505000D03*
%TO.P,U24,4*%
X140810000Y-91505000D03*
%TO.P,U24,5*%
X143350000Y-91505000D03*
%TO.P,U24,6*%
%TO.N,Net-(U24-Pad11)*%
X145890000Y-91505000D03*
%TO.P,U24,7,GND_7*%
%TO.N,GND*%
X148430000Y-91505000D03*
%TO.P,U24,8*%
%TO.N,/~{CS7}*%
X148430000Y-83885000D03*
%TO.P,U24,9*%
%TO.N,/Bus Driver/XA8*%
X145890000Y-83885000D03*
%TO.P,U24,10*%
%TO.N,/Device Decoder/~{AEN}*%
X143350000Y-83885000D03*
%TO.P,U24,11*%
%TO.N,Net-(U24-Pad11)*%
X140810000Y-83885000D03*
%TO.P,U24,12*%
%TO.N,Net-(U21-CE)*%
X138270000Y-83885000D03*
%TO.P,U24,13*%
%TO.N,Net-(U16-~{SP}{slash}~{EN})*%
X135730000Y-83885000D03*
%TO.P,U24,14,VCC_14*%
%TO.N,+5V*%
X133190000Y-83885000D03*
%TD*%
D38*
%TO.P,J8,1,+3.3V_1*%
%TO.N,3V3*%
X260500000Y-37000000D03*
D39*
%TO.P,J8,2,+3.3V_2*%
X260500000Y-41200000D03*
%TO.P,J8,3,GND_3*%
%TO.N,GND*%
X260500000Y-45400000D03*
%TO.P,J8,4,+5V_4*%
%TO.N,+5V*%
X260500000Y-49600000D03*
%TO.P,J8,5,GND_5*%
%TO.N,GND*%
X260500000Y-53800000D03*
%TO.P,J8,6,+5V_6*%
%TO.N,+5V*%
X260500000Y-58000000D03*
%TO.P,J8,7,GND_7*%
%TO.N,GND*%
X260500000Y-62200000D03*
%TO.P,J8,8,PWR_OK_8*%
%TO.N,/POWER/PWR GOOD*%
X260500000Y-66400000D03*
%TO.P,J8,9,+5VSB_9*%
%TO.N,+5VSB*%
X260500000Y-70600000D03*
%TO.P,J8,10,+12V_10*%
%TO.N,+12V*%
X260500000Y-74800000D03*
%TO.P,J8,11,+12V_11*%
X260500000Y-79000000D03*
%TO.P,J8,12,+3.3V_12*%
%TO.N,3V3*%
X260500000Y-83200000D03*
%TO.P,J8,13,+3.3V_13*%
X255000000Y-37000000D03*
%TO.P,J8,14,-12V_14*%
%TO.N,-12V*%
X255000000Y-41200000D03*
%TO.P,J8,15,GND_15*%
%TO.N,GND*%
X255000000Y-45400000D03*
%TO.P,J8,16,PS_ON#_16*%
%TO.N,Net-(J13-Pin_1)*%
X255000000Y-49600000D03*
%TO.P,J8,17,GND_17*%
%TO.N,GND*%
X255000000Y-53800000D03*
%TO.P,J8,18,GND_18*%
X255000000Y-58000000D03*
%TO.P,J8,19,GND_19*%
X255000000Y-62200000D03*
%TO.P,J8,20,NC_20*%
%TO.N,unconnected-(J8-NC-Pad20)*%
X255000000Y-66400000D03*
%TO.P,J8,21,+5V_21*%
%TO.N,+5V*%
X255000000Y-70600000D03*
%TO.P,J8,22,+5V_22*%
X255000000Y-74800000D03*
%TO.P,J8,23,+5V_23*%
X255000000Y-79000000D03*
%TO.P,J8,24,GND_24*%
%TO.N,GND*%
X255000000Y-83200000D03*
%TD*%
D11*
%TO.P,U13,1,CSYNC_1*%
%TO.N,GND*%
X174470000Y-158875000D03*
D10*
%TO.P,U13,2,PCLK_2*%
%TO.N,PCLK*%
X177010000Y-158875000D03*
%TO.P,U13,3,~{AEN1}_3*%
%TO.N,/Wait State Generator/~{RDY}{slash}WAIT*%
X179550000Y-158875000D03*
%TO.P,U13,4,RDY1_4*%
%TO.N,/Processor And Control/~{DMA WAIT}*%
X182090000Y-158875000D03*
%TO.P,U13,5,READY_5*%
%TO.N,Net-(U13-READY)*%
X184630000Y-158875000D03*
%TO.P,U13,6,RDY2_6*%
%TO.N,GND*%
X187170000Y-158875000D03*
%TO.P,U13,7,~{AEN2}_7*%
%TO.N,+5V*%
X189710000Y-158875000D03*
%TO.P,U13,8,CLK_8*%
%TO.N,CLK88*%
X192250000Y-158875000D03*
%TO.P,U13,9,GND_9*%
%TO.N,GND*%
X194790000Y-158875000D03*
%TO.P,U13,10,RESET_10*%
%TO.N,/Bus Driver/RESET BRD*%
X194790000Y-151255000D03*
%TO.P,U13,11,~{RES}_11*%
%TO.N,/POWER/PWR GOOD*%
X192250000Y-151255000D03*
%TO.P,U13,12,OSC_12*%
%TO.N,OSC*%
X189710000Y-151255000D03*
%TO.P,U13,13,F/~{C}_13*%
%TO.N,GND*%
X187170000Y-151255000D03*
%TO.P,U13,14,EFI_14*%
%TO.N,unconnected-(U13-EFI-Pad14)*%
X184630000Y-151255000D03*
%TO.P,U13,15,~{ASYNC}_15*%
%TO.N,GND*%
X182090000Y-151255000D03*
%TO.P,U13,16,X2_16*%
%TO.N,Net-(U13-X2)*%
X179550000Y-151255000D03*
%TO.P,U13,17,X1_17*%
%TO.N,Net-(C14-COLD(ROTOR)_TERMINAL)*%
X177010000Y-151255000D03*
%TO.P,U13,18,VCC_18*%
%TO.N,+5V*%
X174470000Y-151255000D03*
%TD*%
D11*
%TO.P,U10,1,~{R}_1*%
%TO.N,/Wait State Generator/RDY{slash}~{WAIT} DLY*%
X211370000Y-40970000D03*
D10*
%TO.P,U10,2,D_2*%
%TO.N,+5V*%
X213910000Y-40970000D03*
%TO.P,U10,3,C_3*%
%TO.N,Net-(U10A-C)*%
X216450000Y-40970000D03*
%TO.P,U10,4,~{S}_4*%
%TO.N,/ISA BUS/I{slash}O CH RDY*%
X218990000Y-40970000D03*
%TO.P,U10,5,Q_5*%
%TO.N,/Wait State Generator/~{RDY}{slash}WAIT*%
X221530000Y-40970000D03*
%TO.P,U10,6,~{Q}_6*%
%TO.N,unconnected-(U10A-~{Q}-Pad6)*%
X224070000Y-40970000D03*
%TO.P,U10,7,GND_7*%
%TO.N,GND*%
X226610000Y-40970000D03*
%TO.P,U10,8,~{Q}_8*%
%TO.N,Net-(U10B-~{Q})*%
X226610000Y-33350000D03*
%TO.P,U10,9,Q_9*%
%TO.N,/Wait State Generator/HOLDA*%
X224070000Y-33350000D03*
%TO.P,U10,10,~{S}_10*%
%TO.N,Net-(U10B-~{Q})*%
X221530000Y-33350000D03*
%TO.P,U10,11,C_11*%
%TO.N,/Wait State Generator/~{CLK}*%
X218990000Y-33350000D03*
%TO.P,U10,12,D_12*%
%TO.N,Net-(U10B-D)*%
X216450000Y-33350000D03*
%TO.P,U10,13,~{R}_13*%
%TO.N,Net-(U10B-~{R})*%
X213910000Y-33350000D03*
%TO.P,U10,14,VCC_14*%
%TO.N,+5V*%
X211370000Y-33350000D03*
%TD*%
D12*
%TO.P,Y2,1,1_1*%
%TO.N,Net-(U13-X2)*%
X170060000Y-152910000D03*
%TO.P,Y2,2,2_2*%
%TO.N,Net-(C14-HOT-END_TERMINAL)*%
X170060000Y-148030000D03*
%TD*%
D11*
%TO.P,U18,1,OE_1*%
%TO.N,/Wait State Generator/AEN*%
X103530000Y-161810000D03*
D10*
%TO.P,U18,2,O0_2*%
%TO.N,/Bus Driver/A16*%
X106070000Y-161810000D03*
%TO.P,U18,3,D0_3*%
%TO.N,/Processor And Control/AX16*%
X108610000Y-161810000D03*
%TO.P,U18,4,D1_4*%
%TO.N,/Processor And Control/AX17*%
X111150000Y-161810000D03*
%TO.P,U18,5,O1_5*%
%TO.N,/Bus Driver/A17*%
X113690000Y-161810000D03*
%TO.P,U18,6,O2_6*%
%TO.N,/Bus Driver/A18*%
X116230000Y-161810000D03*
%TO.P,U18,7,D2_7*%
%TO.N,/Processor And Control/AX18*%
X118770000Y-161810000D03*
%TO.P,U18,8,D3_8*%
%TO.N,/Processor And Control/AX19*%
X121310000Y-161810000D03*
%TO.P,U18,9,O3_9*%
%TO.N,/Bus Driver/A19*%
X123850000Y-161810000D03*
%TO.P,U18,10,GND_10*%
%TO.N,GND*%
X126390000Y-161810000D03*
%TO.P,U18,11,LE_11*%
%TO.N,/RTC/AS*%
X126390000Y-154190000D03*
%TO.P,U18,12,O4_12*%
%TO.N,unconnected-(U18-O4-Pad12)*%
X123850000Y-154190000D03*
%TO.P,U18,13,D4_13*%
%TO.N,GND*%
X121310000Y-154190000D03*
%TO.P,U18,14,D5_14*%
X118770000Y-154190000D03*
%TO.P,U18,15,O5_15*%
%TO.N,unconnected-(U18-O5-Pad15)*%
X116230000Y-154190000D03*
%TO.P,U18,16,O6_16*%
%TO.N,unconnected-(U18-O6-Pad16)*%
X113690000Y-154190000D03*
%TO.P,U18,17,D6_17*%
%TO.N,GND*%
X111150000Y-154190000D03*
%TO.P,U18,18,D7_18*%
X108610000Y-154190000D03*
%TO.P,U18,19,O7_19*%
%TO.N,unconnected-(U18-O7-Pad19)*%
X106070000Y-154190000D03*
%TO.P,U18,20,VCC_20*%
%TO.N,+5V*%
X103530000Y-154190000D03*
%TD*%
D11*
%TO.P,U1,1*%
%TO.N,/ISA BUS/~{I{slash}O CH CK}*%
X250590000Y-198895000D03*
D10*
%TO.P,U1,2*%
%TO.N,Net-(U1-Pad11)*%
X253130000Y-198895000D03*
%TO.P,U1,3*%
%TO.N,/Flag Registers/I{slash}O CH CK*%
X255670000Y-198895000D03*
%TO.P,U1,4*%
%TO.N,/Processor And Control/FPU IRQ*%
X258210000Y-198895000D03*
%TO.P,U1,5*%
%TO.N,+5V*%
X260750000Y-198895000D03*
%TO.P,U1,6*%
%TO.N,Net-(U1-Pad10)*%
X263290000Y-198895000D03*
%TO.P,U1,7,GND_7*%
%TO.N,GND*%
X265830000Y-198895000D03*
%TO.P,U1,8*%
%TO.N,Net-(U1-Pad8)*%
X265830000Y-191275000D03*
%TO.P,U1,9*%
%TO.N,Net-(U1-Pad11)*%
X263290000Y-191275000D03*
%TO.P,U1,10*%
%TO.N,Net-(U1-Pad10)*%
X260750000Y-191275000D03*
%TO.P,U1,11*%
%TO.N,Net-(U1-Pad11)*%
X258210000Y-191275000D03*
%TO.P,U1,12*%
%TO.N,/Flag Registers/I{slash}O CH CK*%
X255670000Y-191275000D03*
%TO.P,U1,13*%
%TO.N,/Wait State Generator/~{ENABLE IO CK}*%
X253130000Y-191275000D03*
%TO.P,U1,14,VCC_14*%
%TO.N,+5V*%
X250590000Y-191275000D03*
%TD*%
D11*
%TO.P,U42,1,D0_1*%
%TO.N,/Bus Driver/XD0*%
X38760000Y-91240000D03*
D10*
%TO.P,U42,2,D1_2*%
%TO.N,/Bus Driver/XD1*%
X41300000Y-91240000D03*
%TO.P,U42,3,D2_3*%
%TO.N,/Bus Driver/XD2*%
X43840000Y-91240000D03*
%TO.P,U42,4,D3_4*%
%TO.N,/Bus Driver/XD3*%
X46380000Y-91240000D03*
%TO.P,U42,5,D4_5*%
%TO.N,/Bus Driver/XD4*%
X48920000Y-91240000D03*
%TO.P,U42,6,D5_6*%
%TO.N,/Bus Driver/XD5*%
X51460000Y-91240000D03*
%TO.P,U42,7,D6_7*%
%TO.N,/Bus Driver/XD6*%
X54000000Y-91240000D03*
%TO.P,U42,8,D7_8*%
%TO.N,/Bus Driver/XD7*%
X56540000Y-91240000D03*
%TO.P,U42,9,RCLK_9*%
%TO.N,Net-(U42-RCLK)*%
X59080000Y-91240000D03*
%TO.P,U42,10,SIN_10*%
%TO.N,Net-(U42-SIN)*%
X61620000Y-91240000D03*
%TO.P,U42,11,SOUT_11*%
%TO.N,Net-(U42-SOUT)*%
X64160000Y-91240000D03*
%TO.P,U42,12,CS0_12*%
%TO.N,+5V*%
X66700000Y-91240000D03*
%TO.P,U42,13,CS1_13*%
X69240000Y-91240000D03*
%TO.P,U42,14,~{CS2}_14*%
%TO.N,/~{CS6}*%
X71780000Y-91240000D03*
%TO.P,U42,15,~{BAUDOUT}_15*%
%TO.N,Net-(U42-RCLK)*%
X74320000Y-91240000D03*
%TO.P,U42,16,XIN_16*%
%TO.N,CLK*%
X76860000Y-91240000D03*
%TO.P,U42,17,XOUT_17*%
%TO.N,unconnected-(U42-XOUT-Pad17)*%
X79400000Y-91240000D03*
%TO.P,U42,18,~{WR}_18*%
%TO.N,/~{XIOW}*%
X81940000Y-91240000D03*
%TO.P,U42,19,WR_19*%
%TO.N,GND*%
X84480000Y-91240000D03*
%TO.P,U42,20,GND_20*%
X87020000Y-91240000D03*
%TO.P,U42,21,~{RD}_21*%
%TO.N,/~{XIOR}*%
X87020000Y-76000000D03*
%TO.P,U42,22,RD_22*%
%TO.N,GND*%
X84480000Y-76000000D03*
%TO.P,U42,23,DDIS_23*%
%TO.N,unconnected-(U42-DDIS-Pad23)*%
X81940000Y-76000000D03*
%TO.P,U42,24,~{TXRDY}_24*%
%TO.N,unconnected-(U42-~{TXRDY}-Pad24)*%
X79400000Y-76000000D03*
%TO.P,U42,25,~{ADS}_25*%
%TO.N,GND*%
X76860000Y-76000000D03*
%TO.P,U42,26,A2_26*%
%TO.N,/Bus Driver/XA2*%
X74320000Y-76000000D03*
%TO.P,U42,27,A1_27*%
%TO.N,/Bus Driver/XA1*%
X71780000Y-76000000D03*
%TO.P,U42,28,A0_28*%
%TO.N,/Bus Driver/XA0*%
X69240000Y-76000000D03*
%TO.P,U42,29,~{RXRDY}_29*%
%TO.N,unconnected-(U42-~{RXRDY}-Pad29)*%
X66700000Y-76000000D03*
%TO.P,U42,30,INTR_30*%
%TO.N,/Processor And Control/IRQ4*%
X64160000Y-76000000D03*
%TO.P,U42,31,~{OUT2}_31*%
%TO.N,unconnected-(U42-~{OUT2}-Pad31)*%
X61620000Y-76000000D03*
%TO.P,U42,32,~{RTS}_32*%
%TO.N,Net-(U42-~{RTS})*%
X59080000Y-76000000D03*
%TO.P,U42,33,~{DTR}_33*%
%TO.N,unconnected-(U42-~{DTR}-Pad33)*%
X56540000Y-76000000D03*
%TO.P,U42,34,~{OUT1}_34*%
%TO.N,unconnected-(U42-~{OUT1}-Pad34)*%
X54000000Y-76000000D03*
%TO.P,U42,35,MR_35*%
%TO.N,/Bus Driver/RESET*%
X51460000Y-76000000D03*
%TO.P,U42,36,~{CTS}_36*%
%TO.N,Net-(U42-~{CTS})*%
X48920000Y-76000000D03*
%TO.P,U42,37,~{DSR}_37*%
%TO.N,unconnected-(U42-~{DSR}-Pad37)*%
X46380000Y-76000000D03*
%TO.P,U42,38,~{DCD}_38*%
%TO.N,unconnected-(U42-~{DCD}-Pad38)*%
X43840000Y-76000000D03*
%TO.P,U42,39,~{RI}_39*%
%TO.N,+5V*%
X41300000Y-76000000D03*
%TO.P,U42,40,VCC_40*%
X38760000Y-76000000D03*
%TD*%
D36*
%TO.P,J1,1,GND_1*%
%TO.N,GND*%
X49400000Y-256190000D03*
D37*
%TO.P,J1,2,RESET_2*%
%TO.N,/Bus Driver/RESET*%
X51940000Y-256190000D03*
%TO.P,J1,3,VCC_3*%
%TO.N,+5V*%
X54480000Y-256190000D03*
%TO.P,J1,4,IRQ2_4*%
%TO.N,/Processor And Control/IRQ2*%
X57020000Y-256190000D03*
%TO.P,J1,5,-5V_5*%
%TO.N,unconnected-(J1--5V-Pad5)*%
X59560000Y-256190000D03*
%TO.P,J1,6,DRQ2_6*%
%TO.N,/DMA/DRQ2*%
X62100000Y-256190000D03*
%TO.P,J1,7,-12V_7*%
%TO.N,-12V*%
X64640000Y-256190000D03*
%TO.P,J1,8,UNUSED_8*%
%TO.N,/ISA BUS/~{HRQ I{slash}O CH}*%
X67180000Y-256190000D03*
%TO.P,J1,9,+12V_9*%
%TO.N,+12V*%
X69720000Y-256190000D03*
%TO.P,J1,10,GND_10*%
%TO.N,GND*%
X72260000Y-256190000D03*
%TO.P,J1,11,~{SMEMW}_11*%
%TO.N,/~{MEMW}*%
X74800000Y-256190000D03*
%TO.P,J1,12,~{SMEMR}_12*%
%TO.N,/~{MEMR}*%
X77340000Y-256190000D03*
%TO.P,J1,13,~{IOW}_13*%
%TO.N,/~{IOW}*%
X79880000Y-256190000D03*
%TO.P,J1,14,~{IOR}_14*%
%TO.N,/~{IOR}*%
X82420000Y-256190000D03*
%TO.P,J1,15,~{DACK3}_15*%
%TO.N,/ISA BUS/~{DACK3}*%
X84960000Y-256190000D03*
%TO.P,J1,16,DRQ3_16*%
%TO.N,/DMA/DRQ3*%
X87500000Y-256190000D03*
%TO.P,J1,17,~{DACK1}_17*%
%TO.N,/ISA BUS/~{DACK1}*%
X90040000Y-256190000D03*
%TO.P,J1,18,DRQ1_18*%
%TO.N,/DMA/DRQ1*%
X92580000Y-256190000D03*
%TO.P,J1,19,~{DACK0}_19*%
%TO.N,/ISA BUS/~{DACK0}*%
X95120000Y-256190000D03*
%TO.P,J1,20,CLK_20*%
%TO.N,CLK*%
X97660000Y-256190000D03*
%TO.P,J1,21,IRQ7_21*%
%TO.N,/Processor And Control/IRQ7*%
X100200000Y-256190000D03*
%TO.P,J1,22,IRQ6_22*%
%TO.N,/Processor And Control/IRQ6*%
X102740000Y-256190000D03*
%TO.P,J1,23,IRQ5_23*%
%TO.N,/Processor And Control/IRQ5*%
X105280000Y-256190000D03*
%TO.P,J1,24,IRQ4_24*%
%TO.N,/Processor And Control/IRQ4*%
X107820000Y-256190000D03*
%TO.P,J1,25,IRQ3_25*%
%TO.N,/Processor And Control/IRQ3*%
X110360000Y-256190000D03*
%TO.P,J1,26,~{DACK2}_26*%
%TO.N,/ISA BUS/~{DACK2}*%
X112900000Y-256190000D03*
%TO.P,J1,27,TC_27*%
%TO.N,/DMA/Terminal Count*%
X115440000Y-256190000D03*
%TO.P,J1,28,ALE_28*%
%TO.N,/RTC/AS*%
X117980000Y-256190000D03*
%TO.P,J1,29,VCC_29*%
%TO.N,+5V*%
X120520000Y-256190000D03*
%TO.P,J1,30,OSC_30*%
%TO.N,OSC*%
X123060000Y-256190000D03*
%TO.P,J1,31,GND_31*%
%TO.N,GND*%
X125600000Y-256190000D03*
%TO.P,J1,32,IO_32*%
%TO.N,/ISA BUS/~{I{slash}O CH CK}*%
X49400000Y-251338000D03*
%TO.P,J1,33,DB7_33*%
%TO.N,/Bus Driver/D7*%
X51940000Y-251338000D03*
%TO.P,J1,34,DB6_34*%
%TO.N,/Bus Driver/D6*%
X54480000Y-251338000D03*
%TO.P,J1,35,DB5_35*%
%TO.N,/Bus Driver/D5*%
X57020000Y-251338000D03*
%TO.P,J1,36,DB4_36*%
%TO.N,/Bus Driver/D4*%
X59560000Y-251338000D03*
%TO.P,J1,37,DB3_37*%
%TO.N,/Bus Driver/D3*%
X62100000Y-251338000D03*
%TO.P,J1,38,DB2_38*%
%TO.N,/Bus Driver/D2*%
X64640000Y-251338000D03*
%TO.P,J1,39,DB1_39*%
%TO.N,/Bus Driver/D1*%
X67180000Y-251338000D03*
%TO.P,J1,40,DB0_40*%
%TO.N,/Bus Driver/D0*%
X69720000Y-251338000D03*
%TO.P,J1,41,IO_READY_41*%
%TO.N,/ISA BUS/I{slash}O CH RDY*%
X72260000Y-251338000D03*
%TO.P,J1,42,AEN_42*%
%TO.N,/Bus Driver/AEN*%
X74800000Y-251338000D03*
%TO.P,J1,43,BA19_43*%
%TO.N,/Bus Driver/A19*%
X77340000Y-251338000D03*
%TO.P,J1,44,BA18_44*%
%TO.N,/Bus Driver/A18*%
X79880000Y-251338000D03*
%TO.P,J1,45,BA17_45*%
%TO.N,/Bus Driver/A17*%
X82420000Y-251338000D03*
%TO.P,J1,46,BA16_46*%
%TO.N,/Bus Driver/A16*%
X84960000Y-251338000D03*
%TO.P,J1,47,BA15_47*%
%TO.N,/Bus Driver/A15*%
X87500000Y-251338000D03*
%TO.P,J1,48,BA14_48*%
%TO.N,/Bus Driver/A14*%
X90040000Y-251338000D03*
%TO.P,J1,49,BA13_49*%
%TO.N,/Bus Driver/A13*%
X92580000Y-251338000D03*
%TO.P,J1,50,BA12_50*%
%TO.N,/Bus Driver/A12*%
X95120000Y-251338000D03*
%TO.P,J1,51,BA11_51*%
%TO.N,/Bus Driver/A11*%
X97660000Y-251338000D03*
%TO.P,J1,52,BA10_52*%
%TO.N,/Bus Driver/A10*%
X100200000Y-251338000D03*
%TO.P,J1,53,BA09_53*%
%TO.N,/Bus Driver/A9*%
X102740000Y-251338000D03*
%TO.P,J1,54,BA08_54*%
%TO.N,/Bus Driver/A8*%
X105280000Y-251338000D03*
%TO.P,J1,55,BA07_55*%
%TO.N,/Bus Driver/A7*%
X107820000Y-251338000D03*
%TO.P,J1,56,BA06_56*%
%TO.N,/Bus Driver/A6*%
X110360000Y-251338000D03*
%TO.P,J1,57,BA05_57*%
%TO.N,/Bus Driver/A5*%
X112900000Y-251338000D03*
%TO.P,J1,58,BA04_58*%
%TO.N,/Bus Driver/A4*%
X115440000Y-251338000D03*
%TO.P,J1,59,BA03_59*%
%TO.N,/Bus Driver/A3*%
X117980000Y-251338000D03*
%TO.P,J1,60,BA02_60*%
%TO.N,/Bus Driver/A2*%
X120520000Y-251338000D03*
%TO.P,J1,61,BA01_61*%
%TO.N,/Bus Driver/A1*%
X123060000Y-251338000D03*
%TO.P,J1,62,BA00_62*%
%TO.N,/Bus Driver/A0*%
X125600000Y-251338000D03*
%TD*%
D10*
%TO.P,LS1,1,-_1*%
%TO.N,Net-(D1-K)*%
X79200000Y-57000000D03*
%TO.P,LS1,2,+_2*%
%TO.N,Net-(D1-A)*%
X86800000Y-57000000D03*
%TD*%
D36*
%TO.P,J3,1,GND_1*%
%TO.N,GND*%
X49400000Y-214950000D03*
D37*
%TO.P,J3,2,RESET_2*%
%TO.N,/Bus Driver/RESET*%
X51940000Y-214950000D03*
%TO.P,J3,3,VCC_3*%
%TO.N,+5V*%
X54480000Y-214950000D03*
%TO.P,J3,4,IRQ2_4*%
%TO.N,/Processor And Control/IRQ2*%
X57020000Y-214950000D03*
%TO.P,J3,5,-5V_5*%
%TO.N,unconnected-(J3--5V-Pad5)*%
X59560000Y-214950000D03*
%TO.P,J3,6,DRQ2_6*%
%TO.N,/DMA/DRQ2*%
X62100000Y-214950000D03*
%TO.P,J3,7,-12V_7*%
%TO.N,-12V*%
X64640000Y-214950000D03*
%TO.P,J3,8,UNUSED_8*%
%TO.N,/ISA BUS/~{HRQ I{slash}O CH}*%
X67180000Y-214950000D03*
%TO.P,J3,9,+12V_9*%
%TO.N,+12V*%
X69720000Y-214950000D03*
%TO.P,J3,10,GND_10*%
%TO.N,GND*%
X72260000Y-214950000D03*
%TO.P,J3,11,~{SMEMW}_11*%
%TO.N,/~{MEMW}*%
X74800000Y-214950000D03*
%TO.P,J3,12,~{SMEMR}_12*%
%TO.N,/~{MEMR}*%
X77340000Y-214950000D03*
%TO.P,J3,13,~{IOW}_13*%
%TO.N,/~{IOW}*%
X79880000Y-214950000D03*
%TO.P,J3,14,~{IOR}_14*%
%TO.N,/~{IOR}*%
X82420000Y-214950000D03*
%TO.P,J3,15,~{DACK3}_15*%
%TO.N,/ISA BUS/~{DACK3}*%
X84960000Y-214950000D03*
%TO.P,J3,16,DRQ3_16*%
%TO.N,/DMA/DRQ3*%
X87500000Y-214950000D03*
%TO.P,J3,17,~{DACK1}_17*%
%TO.N,/ISA BUS/~{DACK1}*%
X90040000Y-214950000D03*
%TO.P,J3,18,DRQ1_18*%
%TO.N,/DMA/DRQ1*%
X92580000Y-214950000D03*
%TO.P,J3,19,~{DACK0}_19*%
%TO.N,/ISA BUS/~{DACK0}*%
X95120000Y-214950000D03*
%TO.P,J3,20,CLK_20*%
%TO.N,CLK*%
X97660000Y-214950000D03*
%TO.P,J3,21,IRQ7_21*%
%TO.N,/Processor And Control/IRQ7*%
X100200000Y-214950000D03*
%TO.P,J3,22,IRQ6_22*%
%TO.N,/Processor And Control/IRQ6*%
X102740000Y-214950000D03*
%TO.P,J3,23,IRQ5_23*%
%TO.N,/Processor And Control/IRQ5*%
X105280000Y-214950000D03*
%TO.P,J3,24,IRQ4_24*%
%TO.N,/Processor And Control/IRQ4*%
X107820000Y-214950000D03*
%TO.P,J3,25,IRQ3_25*%
%TO.N,/Processor And Control/IRQ3*%
X110360000Y-214950000D03*
%TO.P,J3,26,~{DACK2}_26*%
%TO.N,/ISA BUS/~{DACK2}*%
X112900000Y-214950000D03*
%TO.P,J3,27,TC_27*%
%TO.N,/DMA/Terminal Count*%
X115440000Y-214950000D03*
%TO.P,J3,28,ALE_28*%
%TO.N,/RTC/AS*%
X117980000Y-214950000D03*
%TO.P,J3,29,VCC_29*%
%TO.N,+5V*%
X120520000Y-214950000D03*
%TO.P,J3,30,OSC_30*%
%TO.N,OSC*%
X123060000Y-214950000D03*
%TO.P,J3,31,GND_31*%
%TO.N,GND*%
X125600000Y-214950000D03*
%TO.P,J3,32,IO_32*%
%TO.N,/ISA BUS/~{I{slash}O CH CK}*%
X49400000Y-210098000D03*
%TO.P,J3,33,DB7_33*%
%TO.N,/Bus Driver/D7*%
X51940000Y-210098000D03*
%TO.P,J3,34,DB6_34*%
%TO.N,/Bus Driver/D6*%
X54480000Y-210098000D03*
%TO.P,J3,35,DB5_35*%
%TO.N,/Bus Driver/D5*%
X57020000Y-210098000D03*
%TO.P,J3,36,DB4_36*%
%TO.N,/Bus Driver/D4*%
X59560000Y-210098000D03*
%TO.P,J3,37,DB3_37*%
%TO.N,/Bus Driver/D3*%
X62100000Y-210098000D03*
%TO.P,J3,38,DB2_38*%
%TO.N,/Bus Driver/D2*%
X64640000Y-210098000D03*
%TO.P,J3,39,DB1_39*%
%TO.N,/Bus Driver/D1*%
X67180000Y-210098000D03*
%TO.P,J3,40,DB0_40*%
%TO.N,/Bus Driver/D0*%
X69720000Y-210098000D03*
%TO.P,J3,41,IO_READY_41*%
%TO.N,/ISA BUS/I{slash}O CH RDY*%
X72260000Y-210098000D03*
%TO.P,J3,42,AEN_42*%
%TO.N,/Bus Driver/AEN*%
X74800000Y-210098000D03*
%TO.P,J3,43,BA19_43*%
%TO.N,/Bus Driver/A19*%
X77340000Y-210098000D03*
%TO.P,J3,44,BA18_44*%
%TO.N,/Bus Driver/A18*%
X79880000Y-210098000D03*
%TO.P,J3,45,BA17_45*%
%TO.N,/Bus Driver/A17*%
X82420000Y-210098000D03*
%TO.P,J3,46,BA16_46*%
%TO.N,/Bus Driver/A16*%
X84960000Y-210098000D03*
%TO.P,J3,47,BA15_47*%
%TO.N,/Bus Driver/A15*%
X87500000Y-210098000D03*
%TO.P,J3,48,BA14_48*%
%TO.N,/Bus Driver/A14*%
X90040000Y-210098000D03*
%TO.P,J3,49,BA13_49*%
%TO.N,/Bus Driver/A13*%
X92580000Y-210098000D03*
%TO.P,J3,50,BA12_50*%
%TO.N,/Bus Driver/A12*%
X95120000Y-210098000D03*
%TO.P,J3,51,BA11_51*%
%TO.N,/Bus Driver/A11*%
X97660000Y-210098000D03*
%TO.P,J3,52,BA10_52*%
%TO.N,/Bus Driver/A10*%
X100200000Y-210098000D03*
%TO.P,J3,53,BA09_53*%
%TO.N,/Bus Driver/A9*%
X102740000Y-210098000D03*
%TO.P,J3,54,BA08_54*%
%TO.N,/Bus Driver/A8*%
X105280000Y-210098000D03*
%TO.P,J3,55,BA07_55*%
%TO.N,/Bus Driver/A7*%
X107820000Y-210098000D03*
%TO.P,J3,56,BA06_56*%
%TO.N,/Bus Driver/A6*%
X110360000Y-210098000D03*
%TO.P,J3,57,BA05_57*%
%TO.N,/Bus Driver/A5*%
X112900000Y-210098000D03*
%TO.P,J3,58,BA04_58*%
%TO.N,/Bus Driver/A4*%
X115440000Y-210098000D03*
%TO.P,J3,59,BA03_59*%
%TO.N,/Bus Driver/A3*%
X117980000Y-210098000D03*
%TO.P,J3,60,BA02_60*%
%TO.N,/Bus Driver/A2*%
X120520000Y-210098000D03*
%TO.P,J3,61,BA01_61*%
%TO.N,/Bus Driver/A1*%
X123060000Y-210098000D03*
%TO.P,J3,62,BA00_62*%
%TO.N,/Bus Driver/A0*%
X125600000Y-210098000D03*
%TD*%
D11*
%TO.P,U20,1,OE_1*%
%TO.N,/Wait State Generator/AEN*%
X103570000Y-183060000D03*
D10*
%TO.P,U20,2,O0_2*%
%TO.N,/Bus Driver/A0*%
X106110000Y-183060000D03*
%TO.P,U20,3,D0_3*%
%TO.N,/Processor And Control/AX0*%
X108650000Y-183060000D03*
%TO.P,U20,4,D1_4*%
%TO.N,/Processor And Control/AX1*%
X111190000Y-183060000D03*
%TO.P,U20,5,O1_5*%
%TO.N,/Bus Driver/A1*%
X113730000Y-183060000D03*
%TO.P,U20,6,O2_6*%
%TO.N,/Bus Driver/A2*%
X116270000Y-183060000D03*
%TO.P,U20,7,D2_7*%
%TO.N,/Processor And Control/AX2*%
X118810000Y-183060000D03*
%TO.P,U20,8,D3_8*%
%TO.N,/Processor And Control/AX3*%
X121350000Y-183060000D03*
%TO.P,U20,9,O3_9*%
%TO.N,/Bus Driver/A3*%
X123890000Y-183060000D03*
%TO.P,U20,10,GND_10*%
%TO.N,GND*%
X126430000Y-183060000D03*
%TO.P,U20,11,LE_11*%
%TO.N,/RTC/AS*%
X126430000Y-175440000D03*
%TO.P,U20,12,O4_12*%
%TO.N,/Bus Driver/A4*%
X123890000Y-175440000D03*
%TO.P,U20,13,D4_13*%
%TO.N,/Processor And Control/AX4*%
X121350000Y-175440000D03*
%TO.P,U20,14,D5_14*%
%TO.N,/Processor And Control/AX5*%
X118810000Y-175440000D03*
%TO.P,U20,15,O5_15*%
%TO.N,/Bus Driver/A5*%
X116270000Y-175440000D03*
%TO.P,U20,16,O6_16*%
%TO.N,/Bus Driver/A6*%
X113730000Y-175440000D03*
%TO.P,U20,17,D6_17*%
%TO.N,/Processor And Control/AX6*%
X111190000Y-175440000D03*
%TO.P,U20,18,D7_18*%
%TO.N,/Processor And Control/AX7*%
X108650000Y-175440000D03*
%TO.P,U20,19,O7_19*%
%TO.N,/Bus Driver/A7*%
X106110000Y-175440000D03*
%TO.P,U20,20,VCC_20*%
%TO.N,+5V*%
X103570000Y-175440000D03*
%TD*%
D11*
%TO.P,U25,1,~{IOR}_1*%
%TO.N,/~{XIOR}*%
X192250000Y-138250000D03*
D10*
%TO.P,U25,2,~{IOW}_2*%
%TO.N,/~{XIOW}*%
X194790000Y-138250000D03*
%TO.P,U25,3,~{MEMR}_3*%
%TO.N,/~{XMEMR}*%
X197330000Y-138250000D03*
%TO.P,U25,4,~{MEMW}_4*%
%TO.N,/~{XMEMW}*%
X199870000Y-138250000D03*
%TO.P,U25,5,PIN5_5*%
%TO.N,+5V*%
X202410000Y-138250000D03*
%TO.P,U25,6,READY_6*%
%TO.N,/DMA/RDY TO DMA*%
X204950000Y-138250000D03*
%TO.P,U25,7,HLDA_7*%
%TO.N,/Wait State Generator/HOLDA*%
X207490000Y-138250000D03*
%TO.P,U25,8,ADSTB_8*%
%TO.N,Net-(U25-ADSTB)*%
X210030000Y-138250000D03*
%TO.P,U25,9,AEN_9*%
%TO.N,unconnected-(U25-AEN-Pad9)*%
X212570000Y-138250000D03*
%TO.P,U25,10,HRQ_10*%
%TO.N,Net-(U25-HRQ)*%
X215110000Y-138250000D03*
%TO.P,U25,11,~{CS}_11*%
%TO.N,/~{CS0}*%
X217650000Y-138250000D03*
%TO.P,U25,12,CLK_12*%
%TO.N,CLK*%
X220190000Y-138250000D03*
%TO.P,U25,13,RESET_13*%
%TO.N,/Bus Driver/RESET*%
X222730000Y-138250000D03*
%TO.P,U25,14,DACK2_14*%
%TO.N,/DMA/~{DACK2}*%
X225270000Y-138250000D03*
%TO.P,U25,15,DACK3_15*%
%TO.N,/DMA/~{DACK3}*%
X227810000Y-138250000D03*
%TO.P,U25,16,DREQ3_16*%
%TO.N,/DMA/DRQ3*%
X230350000Y-138250000D03*
%TO.P,U25,17,DREQ2_17*%
%TO.N,/DMA/DRQ2*%
X232890000Y-138250000D03*
%TO.P,U25,18,DREQ1_18*%
%TO.N,/DMA/DRQ1*%
X235430000Y-138250000D03*
%TO.P,U25,19,DREQ0_19*%
%TO.N,GND*%
X237970000Y-138250000D03*
%TO.P,U25,20,Vss_20*%
X240510000Y-138250000D03*
%TO.P,U25,21,DB7_21*%
%TO.N,/Bus Driver/XD7*%
X240510000Y-123010000D03*
%TO.P,U25,22,DB6_22*%
%TO.N,/Bus Driver/XD6*%
X237970000Y-123010000D03*
%TO.P,U25,23,DB5_23*%
%TO.N,/Bus Driver/XD5*%
X235430000Y-123010000D03*
%TO.P,U25,24,DACK1_24*%
%TO.N,/DMA/~{DACK1}*%
X232890000Y-123010000D03*
%TO.P,U25,25,DACK0_25*%
%TO.N,/DMA/~{DACK0}*%
X230350000Y-123010000D03*
%TO.P,U25,26,DB4_26*%
%TO.N,/Bus Driver/XD4*%
X227810000Y-123010000D03*
%TO.P,U25,27,DB3_27*%
%TO.N,/Bus Driver/XD3*%
X225270000Y-123010000D03*
%TO.P,U25,28,DB2_28*%
%TO.N,/Bus Driver/XD2*%
X222730000Y-123010000D03*
%TO.P,U25,29,DB1_29*%
%TO.N,/Bus Driver/XD1*%
X220190000Y-123010000D03*
%TO.P,U25,30,DB0_30*%
%TO.N,/Bus Driver/XD0*%
X217650000Y-123010000D03*
%TO.P,U25,31,Vcc_31*%
%TO.N,+5V*%
X215110000Y-123010000D03*
%TO.P,U25,32,A0_32*%
%TO.N,/Bus Driver/XA0*%
X212570000Y-123010000D03*
%TO.P,U25,33,A1_33*%
%TO.N,/Bus Driver/XA1*%
X210030000Y-123010000D03*
%TO.P,U25,34,A2_34*%
%TO.N,/Bus Driver/XA2*%
X207490000Y-123010000D03*
%TO.P,U25,35,A3_35*%
%TO.N,/Bus Driver/XA3*%
X204950000Y-123010000D03*
%TO.P,U25,36,~{EOP}_36*%
%TO.N,Net-(U25-~{EOP})*%
X202410000Y-123010000D03*
%TO.P,U25,37,A4_37*%
%TO.N,/DMA/DA4*%
X199870000Y-123010000D03*
%TO.P,U25,38,A5_38*%
%TO.N,/DMA/DA5*%
X197330000Y-123010000D03*
%TO.P,U25,39,A6_39*%
%TO.N,/DMA/DA6*%
X194790000Y-123010000D03*
%TO.P,U25,40,A7_40*%
%TO.N,/DMA/DA7*%
X192250000Y-123010000D03*
%TD*%
D23*
%TO.P,J13,1,Pin_1_1*%
%TO.N,Net-(J13-Pin_1)*%
X241000000Y-23000000D03*
D24*
%TO.P,J13,2,Pin_2_2*%
%TO.N,GND*%
X241000000Y-20460000D03*
%TD*%
D40*
%TO.P,S1,1,NC_1*%
%TO.N,GND*%
X251000000Y-20460000D03*
D41*
%TO.P,S1,2,NOT_CONNECTED_2*%
X251000000Y-23000000D03*
%TO.P,S1,3,COM_3*%
%TO.N,Net-(J13-Pin_1)*%
X251000000Y-25540000D03*
%TD*%
D11*
%TO.P,U55,1,OEa_1*%
%TO.N,Net-(U55-OEa)*%
X103250000Y-98000000D03*
D10*
%TO.P,U55,2,I0a_2*%
%TO.N,/Flag Registers/BA0*%
X105790000Y-98000000D03*
%TO.P,U55,3,O3b_3*%
%TO.N,/Bus Driver/XD7*%
X108330000Y-98000000D03*
%TO.P,U55,4,I1a_4*%
%TO.N,/Flag Registers/BA1*%
X110870000Y-98000000D03*
%TO.P,U55,5,O2b_5*%
%TO.N,/Bus Driver/XD6*%
X113410000Y-98000000D03*
%TO.P,U55,6,I2a_6*%
%TO.N,/Flag Registers/SPKR EN*%
X115950000Y-98000000D03*
%TO.P,U55,7,O1b_7*%
%TO.N,/Bus Driver/XD5*%
X118490000Y-98000000D03*
%TO.P,U55,8,I3a_8*%
%TO.N,/Flag Registers/SPKR GATE*%
X121030000Y-98000000D03*
%TO.P,U55,9,O0b_9*%
%TO.N,/Bus Driver/XD4*%
X123570000Y-98000000D03*
%TO.P,U55,10,GND_10*%
%TO.N,GND*%
X126110000Y-98000000D03*
%TO.P,U55,11,I0b_11*%
%TO.N,/Flag Registers/I{slash}O CH CK*%
X126110000Y-90380000D03*
%TO.P,U55,12,O3a_12*%
%TO.N,/Bus Driver/XD3*%
X123570000Y-90380000D03*
%TO.P,U55,13,I1b_13*%
%TO.N,/Flag Registers/SPKR OUT*%
X121030000Y-90380000D03*
%TO.P,U55,14,O2a_14*%
%TO.N,/Bus Driver/XD2*%
X118490000Y-90380000D03*
%TO.P,U55,15,I2b_15*%
%TO.N,/Flag Registers/ENABLE IO CK*%
X115950000Y-90380000D03*
%TO.P,U55,16,O1a_16*%
%TO.N,/Bus Driver/XD1*%
X113410000Y-90380000D03*
%TO.P,U55,17,I3b_17*%
%TO.N,/Flag Registers/ALLOW NMI*%
X110870000Y-90380000D03*
%TO.P,U55,18,O0a_18*%
%TO.N,/Bus Driver/XD0*%
X108330000Y-90380000D03*
%TO.P,U55,19,OEb_19*%
%TO.N,GND*%
X105790000Y-90380000D03*
%TO.P,U55,20,VCC_20*%
%TO.N,+5V*%
X103250000Y-90380000D03*
%TD*%
D11*
%TO.P,U17,1*%
%TO.N,/~{XIOR}*%
X103250000Y-86190000D03*
D10*
%TO.P,U17,2*%
%TO.N,/Bus Driver/XA9*%
X105790000Y-86190000D03*
%TO.P,U17,3*%
%TO.N,Net-(U27-A->B)*%
X108330000Y-86190000D03*
%TO.P,U17,4*%
%TO.N,/~{XIOW}*%
X110870000Y-86190000D03*
%TO.P,U17,5*%
%TO.N,/~{CS4}*%
X113410000Y-86190000D03*
%TO.P,U17,6*%
%TO.N,Net-(U30-~{Ew})*%
X115950000Y-86190000D03*
%TO.P,U17,7,GND_7*%
%TO.N,GND*%
X118490000Y-86190000D03*
%TO.P,U17,8*%
%TO.N,Net-(U54-Cp)*%
X118490000Y-78570000D03*
%TO.P,U17,9*%
%TO.N,/~{CS5}*%
X115950000Y-78570000D03*
%TO.P,U17,10*%
%TO.N,/~{XIOW}*%
X113410000Y-78570000D03*
%TO.P,U17,11*%
%TO.N,Net-(U55-OEa)*%
X110870000Y-78570000D03*
%TO.P,U17,12*%
%TO.N,/~{CS5}*%
X108330000Y-78570000D03*
%TO.P,U17,13*%
%TO.N,/~{XIOR}*%
X105790000Y-78570000D03*
%TO.P,U17,14,VCC_14*%
%TO.N,unconnected-(U17E-VCC-Pad14)*%
X103250000Y-78570000D03*
%TD*%
D11*
%TO.P,U8,1*%
%TO.N,/Device Decoder/~{ROM_CS}*%
X237140000Y-165620000D03*
D10*
%TO.P,U8,2*%
%TO.N,+5V*%
X239680000Y-165620000D03*
%TO.P,U8,3*%
X242220000Y-165620000D03*
%TO.P,U8,4*%
%TO.N,/Device Decoder/~{RAM_BANK_CS}*%
X244760000Y-165620000D03*
%TO.P,U8,5*%
%TO.N,Net-(U6-O4)*%
X247300000Y-165620000D03*
%TO.P,U8,6*%
%TO.N,Net-(U6-O5)*%
X249840000Y-165620000D03*
%TO.P,U8,7,GND_7*%
%TO.N,GND*%
X252380000Y-165620000D03*
%TO.P,U8,8*%
%TO.N,Net-(U22-Pad11)*%
X252380000Y-158000000D03*
%TO.P,U8,9,NC_9*%
%TO.N,unconnected-(U8B-NC-Pad9)*%
X249840000Y-158000000D03*
%TO.P,U8,10,NC_10*%
%TO.N,unconnected-(U8B-NC-Pad10)*%
X247300000Y-158000000D03*
%TO.P,U8,11*%
%TO.N,Net-(U6-O6)*%
X244760000Y-158000000D03*
%TO.P,U8,12*%
%TO.N,Net-(U6-O7)*%
X242220000Y-158000000D03*
%TO.P,U8,13,NC_13*%
%TO.N,unconnected-(U8B-NC-Pad13)*%
X239680000Y-158000000D03*
%TO.P,U8,14,VCC_14*%
%TO.N,+5V*%
X237140000Y-158000000D03*
%TD*%
D11*
%TO.P,U50,1,OE_1*%
%TO.N,/RTC/ADDR EN*%
X64000000Y-119800000D03*
D10*
%TO.P,U50,2,O0_2*%
%TO.N,/RTC/AD0*%
X66540000Y-119800000D03*
%TO.P,U50,3,D0_3*%
%TO.N,/Bus Driver/XA0*%
X69080000Y-119800000D03*
%TO.P,U50,4,D1_4*%
%TO.N,/Bus Driver/XA1*%
X71620000Y-119800000D03*
%TO.P,U50,5,O1_5*%
%TO.N,/RTC/AD1*%
X74160000Y-119800000D03*
%TO.P,U50,6,O2_6*%
%TO.N,/RTC/AD2*%
X76700000Y-119800000D03*
%TO.P,U50,7,D2_7*%
%TO.N,/Bus Driver/XA2*%
X79240000Y-119800000D03*
%TO.P,U50,8,D3_8*%
%TO.N,/Bus Driver/XA3*%
X81780000Y-119800000D03*
%TO.P,U50,9,O3_9*%
%TO.N,/RTC/AD3*%
X84320000Y-119800000D03*
%TO.P,U50,10,GND_10*%
%TO.N,GND*%
X86860000Y-119800000D03*
%TO.P,U50,11,LE_11*%
%TO.N,/RTC/AS*%
X86860000Y-112180000D03*
%TO.P,U50,12,O4_12*%
%TO.N,/RTC/AD4*%
X84320000Y-112180000D03*
%TO.P,U50,13,D4_13*%
%TO.N,/Bus Driver/XA4*%
X81780000Y-112180000D03*
%TO.P,U50,14,D5_14*%
%TO.N,/Bus Driver/XA5*%
X79240000Y-112180000D03*
%TO.P,U50,15,O5_15*%
%TO.N,/RTC/AD5*%
X76700000Y-112180000D03*
%TO.P,U50,16,O6_16*%
%TO.N,/RTC/AD6*%
X74160000Y-112180000D03*
%TO.P,U50,17,D6_17*%
%TO.N,/Bus Driver/XA6*%
X71620000Y-112180000D03*
%TO.P,U50,18,D7_18*%
%TO.N,GND*%
X69080000Y-112180000D03*
%TO.P,U50,19,O7_19*%
%TO.N,/RTC/AD7*%
X66540000Y-112180000D03*
%TO.P,U50,20,VCC_20*%
%TO.N,+5V*%
X64000000Y-112180000D03*
%TD*%
D42*
%TO.P,C89,1*%
%TO.N,+12V*%
X69627500Y-253860000D03*
%TO.P,C89,2*%
%TO.N,GND*%
X72752500Y-253860000D03*
%TD*%
D15*
%TO.P,C54,1*%
%TO.N,+5V*%
X241180000Y-252130000D03*
%TO.P,C54,2*%
%TO.N,GND*%
X238055000Y-252130000D03*
%TD*%
D43*
%TO.P,R28,1*%
%TO.N,+5V*%
X247147500Y-241770000D03*
%TO.P,R28,2*%
%TO.N,/~{IOR}*%
X244047500Y-241770000D03*
%TD*%
D44*
%TO.P,C15,1*%
%TO.N,+12V*%
X258000000Y-79687500D03*
%TO.P,C15,2*%
%TO.N,GND*%
X258000000Y-82812500D03*
%TD*%
D15*
%TO.P,C81,1*%
%TO.N,+5V*%
X259962500Y-248100000D03*
%TO.P,C81,2*%
%TO.N,GND*%
X256837500Y-248100000D03*
%TD*%
D44*
%TO.P,C23,1*%
%TO.N,-12V*%
X257750000Y-42187500D03*
%TO.P,C23,2*%
%TO.N,GND*%
X257750000Y-45312500D03*
%TD*%
D42*
%TO.P,C30,1*%
%TO.N,+5V*%
X231200000Y-204900000D03*
%TO.P,C30,2*%
%TO.N,GND*%
X234325000Y-204900000D03*
%TD*%
D15*
%TO.P,C35,1*%
%TO.N,+5V*%
X253800000Y-233000000D03*
%TO.P,C35,2*%
%TO.N,GND*%
X250675000Y-233000000D03*
%TD*%
%TO.P,C19,1*%
%TO.N,+5V*%
X241180000Y-222380000D03*
%TO.P,C19,2*%
%TO.N,GND*%
X238055000Y-222380000D03*
%TD*%
%TO.P,C17,1*%
%TO.N,+5V*%
X265462500Y-237700000D03*
%TO.P,C17,2*%
%TO.N,GND*%
X262337500Y-237700000D03*
%TD*%
%TO.P,C38,1*%
%TO.N,+5V*%
X253800000Y-245750000D03*
%TO.P,C38,2*%
%TO.N,GND*%
X250675000Y-245750000D03*
%TD*%
%TO.P,C53,1*%
%TO.N,+5V*%
X241180000Y-247880000D03*
%TO.P,C53,2*%
%TO.N,GND*%
X238055000Y-247880000D03*
%TD*%
D45*
%TO.P,C69,1*%
%TO.N,Net-(U43-VS+)*%
X41360000Y-109787500D03*
%TO.P,C69,2*%
%TO.N,GND*%
X41360000Y-112912500D03*
%TD*%
D42*
%TO.P,C58,1*%
%TO.N,+5V*%
X245260000Y-162310000D03*
%TO.P,C58,2*%
%TO.N,GND*%
X248385000Y-162310000D03*
%TD*%
D15*
%TO.P,C21,1*%
%TO.N,+5V*%
X241180000Y-230880000D03*
%TO.P,C21,2*%
%TO.N,GND*%
X238055000Y-230880000D03*
%TD*%
%TO.P,C65,1*%
%TO.N,+5V*%
X266150000Y-228500000D03*
%TO.P,C65,2*%
%TO.N,GND*%
X263025000Y-228500000D03*
%TD*%
%TO.P,C51,1*%
%TO.N,+5V*%
X265462500Y-246200000D03*
%TO.P,C51,2*%
%TO.N,GND*%
X262337500Y-246200000D03*
%TD*%
%TO.P,C36,1*%
%TO.N,+5V*%
X253800000Y-237250000D03*
%TO.P,C36,2*%
%TO.N,GND*%
X250675000Y-237250000D03*
%TD*%
D42*
%TO.P,C91,1*%
%TO.N,+5V*%
X120975000Y-198200000D03*
%TO.P,C91,2*%
%TO.N,GND*%
X124100000Y-198200000D03*
%TD*%
D46*
%TO.P,C50,1*%
%TO.N,/Keyboard/KEYBOARD DATA*%
X73800000Y-152490000D03*
%TO.P,C50,2*%
%TO.N,GND*%
X73800000Y-149365000D03*
%TD*%
D42*
%TO.P,C40,1*%
%TO.N,+5V*%
X261977500Y-195105000D03*
%TO.P,C40,2*%
%TO.N,GND*%
X265102500Y-195105000D03*
%TD*%
D43*
%TO.P,R29,1*%
%TO.N,+5V*%
X247147500Y-245080000D03*
%TO.P,R29,2*%
%TO.N,Net-(U16-~{SP}{slash}~{EN})*%
X244047500Y-245080000D03*
%TD*%
D47*
%TO.P,R11,1*%
%TO.N,+5V*%
X89810000Y-60360000D03*
%TO.P,R11,2*%
%TO.N,Net-(D1-A)*%
X89810000Y-57260000D03*
%TD*%
D15*
%TO.P,C46,1*%
%TO.N,+5V*%
X241180000Y-243630000D03*
%TO.P,C46,2*%
%TO.N,GND*%
X238055000Y-243630000D03*
%TD*%
D43*
%TO.P,R34,1*%
%TO.N,+5V*%
X259767500Y-224030000D03*
%TO.P,R34,2*%
%TO.N,Net-(U25-HRQ)*%
X256667500Y-224030000D03*
%TD*%
%TO.P,R27,1*%
%TO.N,+5V*%
X247147500Y-238460000D03*
%TO.P,R27,2*%
%TO.N,/~{MEMR}*%
X244047500Y-238460000D03*
%TD*%
D15*
%TO.P,C22,1*%
%TO.N,+5V*%
X241180000Y-235130000D03*
%TO.P,C22,2*%
%TO.N,GND*%
X238055000Y-235130000D03*
%TD*%
%TO.P,C56,1*%
%TO.N,+5V*%
X223900000Y-200800000D03*
%TO.P,C56,2*%
%TO.N,GND*%
X220775000Y-200800000D03*
%TD*%
%TO.P,C39,1*%
%TO.N,+5V*%
X241180000Y-239380000D03*
%TO.P,C39,2*%
%TO.N,GND*%
X238055000Y-239380000D03*
%TD*%
%TO.P,C37,1*%
%TO.N,+5V*%
X253800000Y-241500000D03*
%TO.P,C37,2*%
%TO.N,GND*%
X250675000Y-241500000D03*
%TD*%
D43*
%TO.P,R25,1*%
%TO.N,+5V*%
X247147500Y-231840000D03*
%TO.P,R25,2*%
%TO.N,/~{IOW}*%
X244047500Y-231840000D03*
%TD*%
D15*
%TO.P,C20,1*%
%TO.N,+5V*%
X241180000Y-226630000D03*
%TO.P,C20,2*%
%TO.N,GND*%
X238055000Y-226630000D03*
%TD*%
D42*
%TO.P,C94,1*%
%TO.N,+5V*%
X121407500Y-253920000D03*
%TO.P,C94,2*%
%TO.N,GND*%
X124532500Y-253920000D03*
%TD*%
%TO.P,C99,1*%
%TO.N,-12V*%
X64275000Y-198800000D03*
%TO.P,C99,2*%
%TO.N,GND*%
X67400000Y-198800000D03*
%TD*%
D15*
%TO.P,C34,1*%
%TO.N,+5V*%
X253800000Y-228750000D03*
%TO.P,C34,2*%
%TO.N,GND*%
X250675000Y-228750000D03*
%TD*%
D19*
%TO.P,C16,1*%
%TO.N,+5VSB*%
X243125000Y-43000000D03*
%TO.P,C16,2*%
%TO.N,GND*%
X240000000Y-43000000D03*
%TD*%
D44*
%TO.P,C83,1*%
%TO.N,/Keyboard/MOUSE DATA*%
X71000000Y-157037500D03*
%TO.P,C83,2*%
%TO.N,GND*%
X71000000Y-160162500D03*
%TD*%
D43*
%TO.P,R33,1*%
%TO.N,+5V*%
X247147500Y-248390000D03*
%TO.P,R33,2*%
%TO.N,Net-(U14-~{TEST})*%
X244047500Y-248390000D03*
%TD*%
D15*
%TO.P,C85,1*%
%TO.N,+5V*%
X259912500Y-241150000D03*
%TO.P,C85,2*%
%TO.N,GND*%
X256787500Y-241150000D03*
%TD*%
%TO.P,C75,1*%
%TO.N,+5V*%
X259912500Y-236900000D03*
%TO.P,C75,2*%
%TO.N,GND*%
X256787500Y-236900000D03*
%TD*%
%TO.P,C18,1*%
%TO.N,+5V*%
X265462500Y-241950000D03*
%TO.P,C18,2*%
%TO.N,GND*%
X262337500Y-241950000D03*
%TD*%
D42*
%TO.P,C73,1*%
%TO.N,+5V*%
X38375000Y-95750000D03*
%TO.P,C73,2*%
%TO.N,GND*%
X41500000Y-95750000D03*
%TD*%
D15*
%TO.P,C57,1*%
%TO.N,+5V*%
X248760000Y-151560000D03*
%TO.P,C57,2*%
%TO.N,GND*%
X245635000Y-151560000D03*
%TD*%
%TO.P,C64,1*%
%TO.N,+5V*%
X266150000Y-224250000D03*
%TO.P,C64,2*%
%TO.N,GND*%
X263025000Y-224250000D03*
%TD*%
D42*
%TO.P,C95,1*%
%TO.N,+12V*%
X69437500Y-198900000D03*
%TO.P,C95,2*%
%TO.N,GND*%
X72562500Y-198900000D03*
%TD*%
D15*
%TO.P,C33,1*%
%TO.N,+5V*%
X253800000Y-224500000D03*
%TO.P,C33,2*%
%TO.N,GND*%
X250675000Y-224500000D03*
%TD*%
%TO.P,C93,1*%
%TO.N,-12V*%
X64720000Y-253860000D03*
%TO.P,C93,2*%
%TO.N,GND*%
X61595000Y-253860000D03*
%TD*%
D48*
%TO.P,R20,1*%
%TO.N,Net-(C14-COLD(ROTOR)_TERMINAL)*%
X177210000Y-155065000D03*
%TO.P,R20,2*%
%TO.N,GND*%
X180310000Y-155065000D03*
%TD*%
D49*
%TO.P,R30,1*%
%TO.N,+5V*%
X250790000Y-193505000D03*
%TO.P,R30,2*%
%TO.N,/ISA BUS/~{I{slash}O CH CK}*%
X250790000Y-196605000D03*
%TD*%
D43*
%TO.P,R26,1*%
%TO.N,+5V*%
X247147500Y-235150000D03*
%TO.P,R26,2*%
%TO.N,/~{MEMW}*%
X244047500Y-235150000D03*
%TD*%
D45*
%TO.P,C68,1*%
%TO.N,Net-(U43-VS-)*%
X51360000Y-109387500D03*
%TO.P,C68,2*%
%TO.N,GND*%
X51360000Y-112512500D03*
%TD*%
D42*
%TO.P,C67,1*%
%TO.N,Net-(U43-C2+)*%
X46035000Y-103750000D03*
%TO.P,C67,2*%
%TO.N,Net-(U43-C2-)*%
X49160000Y-103750000D03*
%TD*%
%TO.P,C31,1*%
%TO.N,+5V*%
X239587500Y-206600000D03*
%TO.P,C31,2*%
%TO.N,GND*%
X242712500Y-206600000D03*
%TD*%
D48*
%TO.P,R21,1*%
%TO.N,Net-(U13-X2)*%
X179210000Y-148065000D03*
%TO.P,R21,2*%
%TO.N,GND*%
X182310000Y-148065000D03*
%TD*%
D19*
%TO.P,C5,1*%
%TO.N,+5V*%
X248150000Y-253150000D03*
%TO.P,C5,2*%
%TO.N,GND*%
X245025000Y-253150000D03*
%TD*%
D42*
%TO.P,C72,1*%
%TO.N,+5V*%
X250950000Y-255250000D03*
%TO.P,C72,2*%
%TO.N,GND*%
X254075000Y-255250000D03*
%TD*%
D44*
%TO.P,C71,1*%
%TO.N,/Keyboard/MOUSE CLOCK*%
X43300000Y-156740000D03*
%TO.P,C71,2*%
%TO.N,GND*%
X43300000Y-159865000D03*
%TD*%
D15*
%TO.P,C66,1*%
%TO.N,+5V*%
X266150000Y-232750000D03*
%TO.P,C66,2*%
%TO.N,GND*%
X263025000Y-232750000D03*
%TD*%
D19*
%TO.P,C6,1*%
%TO.N,+5V*%
X248150000Y-256500000D03*
%TO.P,C6,2*%
%TO.N,GND*%
X245025000Y-256500000D03*
%TD*%
D43*
%TO.P,R9,1*%
%TO.N,+5V*%
X247147500Y-221910000D03*
%TO.P,R9,2*%
%TO.N,Net-(U14-~{RQ}{slash}~{GT1})*%
X244047500Y-221910000D03*
%TD*%
D42*
%TO.P,C52,1*%
%TO.N,Net-(U43-C1+)*%
X39997500Y-103750000D03*
%TO.P,C52,2*%
%TO.N,Net-(U43-C1-)*%
X43122500Y-103750000D03*
%TD*%
D47*
%TO.P,R41,1*%
%TO.N,+5V*%
X137450000Y-25450000D03*
%TO.P,R41,2*%
%TO.N,Net-(DS2-LED(+))*%
X137450000Y-22350000D03*
%TD*%
D46*
%TO.P,C70,1*%
%TO.N,/Keyboard/KEYBOARD CLOCK*%
X40800000Y-167740000D03*
%TO.P,C70,2*%
%TO.N,GND*%
X40800000Y-164615000D03*
%TD*%
D43*
%TO.P,R35,1*%
%TO.N,+5V*%
X259767500Y-227340000D03*
%TO.P,R35,2*%
%TO.N,Net-(U25-~{EOP})*%
X256667500Y-227340000D03*
%TD*%
D15*
%TO.P,C82,1*%
%TO.N,+5V*%
X259962500Y-252350000D03*
%TO.P,C82,2*%
%TO.N,GND*%
X256837500Y-252350000D03*
%TD*%
%TO.P,C74,1*%
%TO.N,+5V*%
X259912500Y-232650000D03*
%TO.P,C74,2*%
%TO.N,GND*%
X256787500Y-232650000D03*
%TD*%
D50*
%TO.N,/Bus Driver/RESET*%
X93750000Y-78250000D03*
%TO.N,GND*%
X124125000Y-198100000D03*
X67400000Y-198800000D03*
X67512500Y-220400000D03*
X124900000Y-220600000D03*
%TO.N,+5V*%
X121775000Y-220600000D03*
X121325000Y-241200000D03*
%TO.N,GND*%
X124450000Y-241200000D03*
X72781250Y-241231250D03*
X67250000Y-241200000D03*
%TO.N,+5V*%
X220967500Y-192450000D03*
X38375000Y-95750000D03*
X137450000Y-25450000D03*
%TO.N,GND*%
X51360000Y-112550000D03*
X257750000Y-45312500D03*
X41360000Y-112950000D03*
X72752500Y-253860000D03*
X124532500Y-253920000D03*
X43300000Y-159865000D03*
X71300000Y-160365000D03*
X258000000Y-82812500D03*
X61595000Y-253860000D03*
X41500000Y-95750000D03*
X73800000Y-149365000D03*
X40800000Y-164615000D03*
%TD*%
%TO.N,/Bus Driver/RESET*%
D51*
X51940000Y-194330000D02*
X47100000Y-189490000D01*
X47100000Y-189490000D02*
X47100000Y-108527057D01*
X47100000Y-108527057D02*
X47580000Y-108047057D01*
X47580000Y-108047057D02*
X47580000Y-102827057D01*
X47580000Y-102827057D02*
X45180000Y-100427057D01*
X45180000Y-100427057D02*
X45180000Y-75502943D01*
X45180000Y-75502943D02*
X47132943Y-73550000D01*
X47132943Y-73550000D02*
X49010000Y-73550000D01*
X49010000Y-73550000D02*
X51460000Y-76000000D01*
%TO.N,/~{XIOR}*%
X66250000Y-172180000D02*
X65050000Y-173380000D01*
X65050000Y-173380000D02*
X63212943Y-173380000D01*
X63212943Y-173380000D02*
X62510000Y-172677057D01*
X62510000Y-172677057D02*
X62510000Y-171822943D01*
X62510000Y-171822943D02*
X61627057Y-170940000D01*
X61627057Y-170940000D02*
X61577057Y-170940000D01*
%TO.N,/~{IOW}*%
X75000000Y-184650000D02*
X78661000Y-188311000D01*
%TO.N,/~{IOR}*%
X63560000Y-179950000D02*
X63560000Y-180235000D01*
%TO.N,/~{IOW}*%
X61020000Y-179950000D02*
X61020000Y-180235000D01*
X61020000Y-180235000D02*
X65435000Y-184650000D01*
X61170000Y-179800000D02*
X61020000Y-179950000D01*
%TO.N,/~{IOR}*%
X81099000Y-188249000D02*
X81099000Y-193009000D01*
X76000000Y-183150000D02*
X81099000Y-188249000D01*
X66475000Y-183150000D02*
X76000000Y-183150000D01*
X63560000Y-180235000D02*
X66475000Y-183150000D01*
X63710000Y-179800000D02*
X63560000Y-179950000D01*
%TO.N,/~{IOW}*%
X65435000Y-184650000D02*
X75000000Y-184650000D01*
%TO.N,/~{XIOW}*%
X63630000Y-172110000D02*
X63630000Y-169750000D01*
%TO.N,/~{MEMR}*%
X58480000Y-179950000D02*
X58480000Y-180235000D01*
%TO.N,/~{MEMW}*%
X55940000Y-179950000D02*
X55940000Y-180235000D01*
%TO.N,/~{MEMR}*%
X76121000Y-193111000D02*
X77340000Y-194330000D01*
%TO.N,/~{IOR}*%
X81099000Y-193009000D02*
X82420000Y-194330000D01*
%TO.N,/~{XIOW}*%
X63700000Y-172180000D02*
X63630000Y-172110000D01*
%TO.N,/~{MEMR}*%
X58630000Y-179800000D02*
X58480000Y-179950000D01*
%TO.N,/~{XIOW}*%
X63630000Y-169750000D02*
X63620000Y-169740000D01*
X63710000Y-172180000D02*
X63700000Y-172180000D01*
%TO.N,/~{IOW}*%
X78661000Y-188311000D02*
X78661000Y-193111000D01*
X78661000Y-193111000D02*
X79880000Y-194330000D01*
%TO.N,/~{MEMW}*%
X63255000Y-187550000D02*
X72450000Y-187550000D01*
%TO.N,/~{MEMR}*%
X58480000Y-180235000D02*
X64345000Y-186100000D01*
X64345000Y-186100000D02*
X74200000Y-186100000D01*
X74200000Y-186100000D02*
X76121000Y-188021000D01*
X76121000Y-188021000D02*
X76121000Y-193111000D01*
%TO.N,/~{MEMW}*%
X56090000Y-179800000D02*
X55940000Y-179950000D01*
X55940000Y-180235000D02*
X63255000Y-187550000D01*
X72450000Y-187550000D02*
X73581000Y-188681000D01*
X73581000Y-188681000D02*
X73581000Y-193111000D01*
X73581000Y-193111000D02*
X74800000Y-194330000D01*
%TO.N,/~{XIOR}*%
X73610000Y-124750000D02*
X77360000Y-128500000D01*
X77360000Y-128500000D02*
X77360000Y-153842943D01*
X77360000Y-153842943D02*
X77520000Y-154002943D01*
X77520000Y-154002943D02*
X77520000Y-154997057D01*
X77520000Y-154997057D02*
X77360000Y-155157057D01*
X77360000Y-155157057D02*
X77360000Y-158090000D01*
X77360000Y-158090000D02*
X71500000Y-163950000D01*
X71500000Y-163950000D02*
X67615290Y-163950000D01*
X67615290Y-163950000D02*
X62280000Y-169285290D01*
X62280000Y-169285290D02*
X62280000Y-170237057D01*
X62280000Y-170237057D02*
X61577057Y-170940000D01*
X61577057Y-170940000D02*
X61042057Y-170940000D01*
%TO.N,/~{XIOW}*%
X63620000Y-169740000D02*
X68033000Y-165327000D01*
X68033000Y-165327000D02*
X71668290Y-165327000D01*
X71668290Y-165327000D02*
X80200000Y-156795290D01*
X80200000Y-156795290D02*
X80200000Y-126260000D01*
X80200000Y-126260000D02*
X78690000Y-124750000D01*
%TO.N,/Bus Driver/XA0*%
X69080000Y-119800000D02*
X72500000Y-123220000D01*
X72500000Y-123220000D02*
X72500000Y-161500000D01*
X72500000Y-161500000D02*
X71250000Y-162750000D01*
X71250000Y-162750000D02*
X65400000Y-162750000D01*
X65400000Y-162750000D02*
X61080000Y-167070000D01*
X61080000Y-167070000D02*
X61080000Y-169740000D01*
%TO.N,/~{XIOR}*%
X61042057Y-170940000D02*
X59740000Y-170940000D01*
X59740000Y-170940000D02*
X58540000Y-169740000D01*
X58550000Y-169750000D02*
X58540000Y-169740000D01*
%TO.N,/Pinout/PA2*%
D52*
X27763654Y-34550000D02*
X31016346Y-34550000D01*
X25200000Y-20150000D02*
X25200000Y-31986346D01*
X31016346Y-34550000D02*
X31690000Y-35223654D01*
X31690000Y-35223654D02*
X31690000Y-35590000D01*
X31690000Y-35590000D02*
X34858776Y-38758776D01*
X25200000Y-31986346D02*
X27763654Y-34550000D01*
X25848000Y-19502000D02*
X25200000Y-20150000D01*
X38000000Y-46700000D02*
X40080000Y-46700000D01*
X87935552Y-19502000D02*
X25848000Y-19502000D01*
X90337552Y-17100000D02*
X87935552Y-19502000D01*
X124197056Y-17100000D02*
X90337552Y-17100000D01*
X125247056Y-21350000D02*
X125950000Y-20647056D01*
X123810000Y-21350000D02*
X125247056Y-21350000D01*
X125950000Y-18852944D02*
X124197056Y-17100000D01*
X125950000Y-20647056D02*
X125950000Y-18852944D01*
X122210000Y-19750000D02*
X123810000Y-21350000D01*
X34858776Y-38758776D02*
X34858776Y-43558776D01*
X34858776Y-43558776D02*
X38000000Y-46700000D01*
X40080000Y-46700000D02*
X41540000Y-45240000D01*
%TO.N,/Pinout/PA3*%
X124750000Y-19750000D02*
X122500000Y-17500000D01*
X122500000Y-17500000D02*
X90400000Y-17500000D01*
X90400000Y-17500000D02*
X87400000Y-20500000D01*
X87400000Y-20500000D02*
X58801507Y-20500000D01*
X58801507Y-20500000D02*
X58130507Y-19829000D01*
X58130507Y-19829000D02*
X55909493Y-19829000D01*
X55909493Y-19829000D02*
X55238493Y-20500000D01*
X55238493Y-20500000D02*
X26650000Y-20500000D01*
X26650000Y-20500000D02*
X26150000Y-21000000D01*
X26150000Y-21000000D02*
X26150000Y-30396346D01*
X26150000Y-30396346D02*
X27763654Y-32010000D01*
X27763654Y-32010000D02*
X29390000Y-32010000D01*
X29390000Y-32010000D02*
X30540000Y-33160000D01*
%TO.N,/Pinout/PA1*%
X30540000Y-28080000D02*
X29390000Y-26930000D01*
X29390000Y-26930000D02*
X29390000Y-25063654D01*
X29390000Y-25063654D02*
X30063654Y-24390000D01*
X30063654Y-24390000D02*
X48810000Y-24390000D01*
X48810000Y-24390000D02*
X51750000Y-21450000D01*
X51750000Y-21450000D02*
X54750941Y-21450000D01*
X54750941Y-21450000D02*
X56044941Y-20156000D01*
X56044941Y-20156000D02*
X57995059Y-20156000D01*
X117870000Y-17950000D02*
X119670000Y-19750000D01*
X57995059Y-20156000D02*
X59289059Y-21450000D01*
X59289059Y-21450000D02*
X87150000Y-21450000D01*
X87150000Y-21450000D02*
X90650000Y-17950000D01*
X90650000Y-17950000D02*
X117870000Y-17950000D01*
%TO.N,/Bus Driver/RESET*%
D51*
X93750000Y-78250000D02*
X93750000Y-78350000D01*
X93750000Y-48300000D02*
X93750000Y-78250000D01*
X87850000Y-42400000D02*
X93750000Y-48300000D01*
X64100000Y-42400000D02*
X87850000Y-42400000D01*
X51700000Y-30000000D02*
X64100000Y-42400000D01*
%TO.N,/Keyboard/KEYBOARD CLOCK*%
X40760000Y-169740000D02*
X37950000Y-166930000D01*
X37950000Y-166930000D02*
X37950000Y-153000000D01*
X37950000Y-153000000D02*
X42000000Y-148950000D01*
X42000000Y-148950000D02*
X42000000Y-141850000D01*
X42000000Y-141850000D02*
X41050000Y-140900000D01*
%TO.N,+5V*%
D53*
X121000000Y-198100000D02*
X121000000Y-194810000D01*
X121000000Y-194810000D02*
X120520000Y-194330000D01*
%TO.N,OSC*%
D51*
X123060000Y-214950000D02*
X124381000Y-213629000D01*
X124381000Y-213629000D02*
X124381000Y-209593073D01*
X124381000Y-209593073D02*
X124400000Y-209574073D01*
X124400000Y-209574073D02*
X124400000Y-206700000D01*
X124400000Y-206700000D02*
X125500000Y-205600000D01*
X125500000Y-205600000D02*
X125500000Y-196770000D01*
X125500000Y-196770000D02*
X123060000Y-194330000D01*
%TO.N,-12V*%
D53*
X64275000Y-198800000D02*
X64275000Y-194695000D01*
X64275000Y-194695000D02*
X64640000Y-194330000D01*
%TO.N,+12V*%
X69437500Y-198900000D02*
X69437500Y-194612500D01*
X69437500Y-194612500D02*
X69720000Y-194330000D01*
%TO.N,GND*%
X72562500Y-198900000D02*
X72562500Y-194632500D01*
X72562500Y-194632500D02*
X72260000Y-194330000D01*
%TO.N,OSC*%
D51*
X123060000Y-235570000D02*
X123900000Y-234730000D01*
X123900000Y-234730000D02*
X123900000Y-231601927D01*
X123900000Y-231601927D02*
X124279000Y-231222927D01*
X124279000Y-231222927D02*
X124279000Y-230213073D01*
X124279000Y-230213073D02*
X123900000Y-229834073D01*
X123900000Y-229834073D02*
X123900000Y-215790000D01*
X123900000Y-215790000D02*
X123060000Y-214950000D01*
%TO.N,/Processor And Control/AX6*%
D52*
X199680000Y-113630000D02*
X191880000Y-113630000D01*
%TO.N,/Processor And Control/AX5*%
X204970000Y-110930000D02*
X204970000Y-110880000D01*
X191575000Y-114380000D02*
X201520000Y-114380000D01*
X201520000Y-114380000D02*
X204970000Y-110930000D01*
%TO.N,/Processor And Control/AX6*%
X202430000Y-110880000D02*
X199680000Y-113630000D01*
%TO.N,/Processor And Control/AX7*%
X192250000Y-113000000D02*
X197770000Y-113000000D01*
X197770000Y-113000000D02*
X199890000Y-110880000D01*
%TO.N,/Processor And Control/AX2*%
X190250000Y-116500000D02*
X206970000Y-116500000D01*
%TO.N,/Processor And Control/AX4*%
X207510000Y-110880000D02*
X203390000Y-115000000D01*
X203390000Y-115000000D02*
X191000000Y-115000000D01*
%TO.N,/Processor And Control/AX0*%
X217670000Y-110880000D02*
X210550000Y-118000000D01*
X210550000Y-118000000D02*
X190000000Y-118000000D01*
%TO.N,/Processor And Control/AX1*%
X215130000Y-110880000D02*
X208760000Y-117250000D01*
X208760000Y-117250000D02*
X190250000Y-117250000D01*
%TO.N,/Processor And Control/AX2*%
X206970000Y-116500000D02*
X212590000Y-110880000D01*
%TO.N,/Processor And Control/AX3*%
X210050000Y-110880000D02*
X205180000Y-115750000D01*
X205180000Y-115750000D02*
X190750000Y-115750000D01*
%TO.N,/Processor And Control/AX0*%
X190000000Y-118000000D02*
X178750000Y-106750000D01*
X178750000Y-106750000D02*
X175125000Y-106750000D01*
X175125000Y-106750000D02*
X170995000Y-110880000D01*
%TO.N,/Processor And Control/AX1*%
X190250000Y-117250000D02*
X179000000Y-106000000D01*
X179000000Y-106000000D02*
X173335000Y-106000000D01*
X173335000Y-106000000D02*
X168455000Y-110880000D01*
%TO.N,/Processor And Control/AX2*%
X178500000Y-104750000D02*
X190250000Y-116500000D01*
X165915000Y-110880000D02*
X172045000Y-104750000D01*
X172045000Y-104750000D02*
X178500000Y-104750000D01*
%TO.N,/Processor And Control/AX3*%
X190750000Y-115750000D02*
X178750000Y-103750000D01*
X178750000Y-103750000D02*
X170505000Y-103750000D01*
X170505000Y-103750000D02*
X163375000Y-110880000D01*
%TO.N,/Processor And Control/AX4*%
X168965000Y-102750000D02*
X160835000Y-110880000D01*
X191000000Y-115000000D02*
X178750000Y-102750000D01*
X178750000Y-102750000D02*
X168965000Y-102750000D01*
%TO.N,/Processor And Control/AX7*%
X153215000Y-110880000D02*
X163845000Y-100250000D01*
X163845000Y-100250000D02*
X179500000Y-100250000D01*
X179500000Y-100250000D02*
X192250000Y-113000000D01*
%TO.N,/Processor And Control/AX6*%
X191880000Y-113630000D02*
X179250000Y-101000000D01*
X179250000Y-101000000D02*
X165635000Y-101000000D01*
X165635000Y-101000000D02*
X155755000Y-110880000D01*
%TO.N,/Processor And Control/AX5*%
X178945000Y-101750000D02*
X191575000Y-114380000D01*
X158295000Y-110880000D02*
X167425000Y-101750000D01*
X167425000Y-101750000D02*
X178945000Y-101750000D01*
%TO.N,CLK88*%
D51*
X178615000Y-110880000D02*
X179920000Y-112185000D01*
X179920000Y-112185000D02*
X179920000Y-137050000D01*
X179920000Y-137050000D02*
X178720000Y-138250000D01*
%TO.N,/Processor And Control/AX5*%
D52*
X158400000Y-133100000D02*
X158400000Y-138250000D01*
X158295000Y-110880000D02*
X157070000Y-112105000D01*
%TO.N,/Processor And Control/AX6*%
X155860000Y-133100000D02*
X155860000Y-138250000D01*
%TO.N,/Processor And Control/AX5*%
X157070000Y-112105000D02*
X157070000Y-131770000D01*
%TO.N,/Processor And Control/AX12*%
X139290000Y-117174365D02*
X139290000Y-131770000D01*
%TO.N,/Processor And Control/AX7*%
X151990000Y-131770000D02*
X153320000Y-133100000D01*
X153215000Y-110880000D02*
X151990000Y-112105000D01*
%TO.N,/Processor And Control/AX6*%
X154530000Y-131770000D02*
X155860000Y-133100000D01*
%TO.N,/Processor And Control/AX8*%
X150780000Y-133100000D02*
X150780000Y-138250000D01*
%TO.N,/Processor And Control/AX7*%
X153320000Y-133100000D02*
X153320000Y-138250000D01*
%TO.N,/Processor And Control/AX8*%
X150675000Y-110880000D02*
X149450000Y-112105000D01*
%TO.N,/Processor And Control/AX9*%
X148135000Y-110880000D02*
X148135000Y-115949365D01*
%TO.N,/Processor And Control/AX10*%
X145700000Y-133100000D02*
X145700000Y-138250000D01*
X144370000Y-131770000D02*
X145700000Y-133100000D01*
X144370000Y-117174365D02*
X144370000Y-131770000D01*
X145595000Y-115949365D02*
X144370000Y-117174365D01*
%TO.N,/Processor And Control/AX11*%
X143160000Y-133100000D02*
X143160000Y-138250000D01*
%TO.N,/Processor And Control/AX16*%
X139075000Y-116405000D02*
X138080000Y-117400000D01*
%TO.N,/Processor And Control/AX11*%
X141830000Y-117174365D02*
X141830000Y-131770000D01*
%TO.N,/Processor And Control/AX12*%
X140515000Y-115949365D02*
X139290000Y-117174365D01*
X140515000Y-110880000D02*
X140515000Y-115949365D01*
%TO.N,/Processor And Control/AX13*%
X138080000Y-133100000D02*
X138080000Y-138250000D01*
X137975000Y-115949365D02*
X136750000Y-117174365D01*
%TO.N,/Processor And Control/AX9*%
X148135000Y-115949365D02*
X146910000Y-117174365D01*
%TO.N,/Processor And Control/AX8*%
X149450000Y-112105000D02*
X149450000Y-131770000D01*
%TO.N,/Processor And Control/AX2*%
X166020000Y-133100000D02*
X166020000Y-138250000D01*
%TO.N,/Processor And Control/AX13*%
X136750000Y-131770000D02*
X138080000Y-133100000D01*
%TO.N,/Processor And Control/AX3*%
X162150000Y-131770000D02*
X163480000Y-133100000D01*
%TO.N,/Processor And Control/AX14*%
X134210000Y-131770000D02*
X135540000Y-133100000D01*
X134210000Y-112105000D02*
X134210000Y-131770000D01*
%TO.N,/Processor And Control/AX9*%
X148240000Y-133100000D02*
X148240000Y-138250000D01*
%TO.N,/Processor And Control/AX14*%
X135435000Y-110880000D02*
X134210000Y-112105000D01*
%TO.N,/Processor And Control/AX4*%
X159610000Y-112105000D02*
X159610000Y-131770000D01*
X160835000Y-110880000D02*
X159610000Y-112105000D01*
%TO.N,/Processor And Control/AX10*%
X145595000Y-110880000D02*
X145595000Y-115949365D01*
%TO.N,/Processor And Control/AX7*%
X151990000Y-112105000D02*
X151990000Y-131770000D01*
%TO.N,/Processor And Control/AX17*%
X140620000Y-123010000D02*
X140620000Y-117400000D01*
%TO.N,/Processor And Control/AX5*%
X157070000Y-131770000D02*
X158400000Y-133100000D01*
%TO.N,/Processor And Control/AX9*%
X146910000Y-117174365D02*
X146910000Y-131770000D01*
%TO.N,/Processor And Control/AX11*%
X143055000Y-110880000D02*
X143055000Y-115949365D01*
%TO.N,/Processor And Control/AX6*%
X155755000Y-110880000D02*
X154530000Y-112105000D01*
%TO.N,/Processor And Control/AX11*%
X141830000Y-131770000D02*
X143160000Y-133100000D01*
%TO.N,/Processor And Control/AX13*%
X137975000Y-110880000D02*
X137975000Y-115949365D01*
%TO.N,/Processor And Control/AX1*%
X168560000Y-133100000D02*
X168560000Y-138250000D01*
X167230000Y-131770000D02*
X168560000Y-133100000D01*
%TO.N,/Processor And Control/AX8*%
X149450000Y-131770000D02*
X150780000Y-133100000D01*
%TO.N,/Processor And Control/AX18*%
X143160000Y-117400000D02*
X143160000Y-123010000D01*
%TO.N,/Processor And Control/AX17*%
X140620000Y-117400000D02*
X141615000Y-116405000D01*
%TO.N,/Processor And Control/AX12*%
X139290000Y-131770000D02*
X140620000Y-133100000D01*
%TO.N,/Processor And Control/AX19*%
X145700000Y-123010000D02*
X145700000Y-117400000D01*
%TO.N,/Processor And Control/AX16*%
X138080000Y-117400000D02*
X138080000Y-123010000D01*
%TO.N,/Processor And Control/AX13*%
X136750000Y-117174365D02*
X136750000Y-131770000D01*
%TO.N,/Processor And Control/AX17*%
X141615000Y-116405000D02*
X141615000Y-96740000D01*
%TO.N,/Processor And Control/AX2*%
X164690000Y-131770000D02*
X166020000Y-133100000D01*
%TO.N,/Processor And Control/AX12*%
X140620000Y-133100000D02*
X140620000Y-138250000D01*
%TO.N,/Processor And Control/AX6*%
X154530000Y-112105000D02*
X154530000Y-131770000D01*
%TO.N,/Processor And Control/AX14*%
X135540000Y-133100000D02*
X135540000Y-138250000D01*
%TO.N,/Processor And Control/AX1*%
X168455000Y-110880000D02*
X167230000Y-112105000D01*
%TO.N,/Processor And Control/AX11*%
X143055000Y-115949365D02*
X141830000Y-117174365D01*
%TO.N,/Processor And Control/AX9*%
X146910000Y-131770000D02*
X148240000Y-133100000D01*
%TO.N,/Processor And Control/AX4*%
X160940000Y-133100000D02*
X160940000Y-138250000D01*
X159610000Y-131770000D02*
X160940000Y-133100000D01*
%TO.N,/Processor And Control/AX3*%
X163375000Y-110880000D02*
X162150000Y-112105000D01*
X162150000Y-112105000D02*
X162150000Y-131770000D01*
%TO.N,/Processor And Control/AX16*%
X139075000Y-96740000D02*
X139075000Y-116405000D01*
%TO.N,/Processor And Control/AX3*%
X163480000Y-133100000D02*
X163480000Y-138250000D01*
%TO.N,/Processor And Control/AX2*%
X165915000Y-110880000D02*
X164690000Y-112105000D01*
X164690000Y-112105000D02*
X164690000Y-131770000D01*
%TO.N,/Processor And Control/AX15*%
X136535000Y-116405000D02*
X136535000Y-96740000D01*
%TO.N,/Processor And Control/AX1*%
X167230000Y-112105000D02*
X167230000Y-131770000D01*
%TO.N,/Processor And Control/AX0*%
X170995000Y-110880000D02*
X169770000Y-112105000D01*
X169770000Y-112105000D02*
X169770000Y-131770000D01*
X169770000Y-131770000D02*
X171100000Y-133100000D01*
X171100000Y-133100000D02*
X171100000Y-138250000D01*
%TO.N,/Processor And Control/AX19*%
X145700000Y-117400000D02*
X147035000Y-116065000D01*
X147035000Y-116065000D02*
X147035000Y-97080000D01*
X147035000Y-97080000D02*
X145595000Y-95640000D01*
%TO.N,/Processor And Control/AX18*%
X143055000Y-95640000D02*
X144155000Y-96740000D01*
X144155000Y-96740000D02*
X144155000Y-116405000D01*
X144155000Y-116405000D02*
X143160000Y-117400000D01*
%TO.N,/Processor And Control/AX17*%
X141615000Y-96740000D02*
X140515000Y-95640000D01*
%TO.N,/Processor And Control/AX15*%
X135540000Y-123010000D02*
X135540000Y-117400000D01*
%TO.N,/Processor And Control/AX16*%
X137975000Y-95640000D02*
X139075000Y-96740000D01*
%TO.N,/Processor And Control/AX15*%
X135540000Y-117400000D02*
X136535000Y-116405000D01*
X136535000Y-96740000D02*
X135435000Y-95640000D01*
%TO.N,/Bus Driver/XD6*%
X161000000Y-151440000D02*
X155190000Y-157250000D01*
X155190000Y-157250000D02*
X134750000Y-157250000D01*
X134750000Y-157250000D02*
X132000000Y-160000000D01*
X132000000Y-160000000D02*
X93680000Y-160000000D01*
X93680000Y-160000000D02*
X83940000Y-169740000D01*
%TO.N,/Bus Driver/XD5*%
X81400000Y-169740000D02*
X91890000Y-159250000D01*
X91890000Y-159250000D02*
X130750000Y-159250000D01*
X130750000Y-159250000D02*
X133500000Y-156500000D01*
X133500000Y-156500000D02*
X153400000Y-156500000D01*
X153400000Y-156500000D02*
X158460000Y-151440000D01*
%TO.N,/Bus Driver/XD4*%
X78860000Y-169740000D02*
X90100000Y-158500000D01*
X90100000Y-158500000D02*
X130500000Y-158500000D01*
X130500000Y-158500000D02*
X133250000Y-155750000D01*
X133250000Y-155750000D02*
X151610000Y-155750000D01*
X151610000Y-155750000D02*
X155920000Y-151440000D01*
%TO.N,/Bus Driver/XD3*%
X76320000Y-169740000D02*
X88310000Y-157750000D01*
X88310000Y-157750000D02*
X130250000Y-157750000D01*
X130250000Y-157750000D02*
X133000000Y-155000000D01*
X133000000Y-155000000D02*
X149820000Y-155000000D01*
X149820000Y-155000000D02*
X153380000Y-151440000D01*
%TO.N,/Bus Driver/XD2*%
X73780000Y-169740000D02*
X86520000Y-157000000D01*
X86520000Y-157000000D02*
X129750000Y-157000000D01*
X129750000Y-157000000D02*
X132500000Y-154250000D01*
X132500000Y-154250000D02*
X148030000Y-154250000D01*
X148030000Y-154250000D02*
X150840000Y-151440000D01*
%TO.N,/Bus Driver/XD1*%
X71240000Y-169740000D02*
X84730000Y-156250000D01*
X84730000Y-156250000D02*
X129500000Y-156250000D01*
X129500000Y-156250000D02*
X132250000Y-153500000D01*
X132250000Y-153500000D02*
X146240000Y-153500000D01*
X146240000Y-153500000D02*
X148300000Y-151440000D01*
%TO.N,/Bus Driver/XD0*%
X89475635Y-155600000D02*
X89575635Y-155500000D01*
X131750000Y-152750000D02*
X144450000Y-152750000D01*
X88464365Y-155500000D02*
X88564365Y-155600000D01*
X88564365Y-155600000D02*
X89475635Y-155600000D01*
X87035635Y-155500000D02*
X88464365Y-155500000D01*
X89575635Y-155500000D02*
X129000000Y-155500000D01*
X86935635Y-155600000D02*
X87035635Y-155500000D01*
X144450000Y-152750000D02*
X145760000Y-151440000D01*
X86024365Y-155600000D02*
X86935635Y-155600000D01*
X85924365Y-155500000D02*
X86024365Y-155600000D01*
X84495635Y-155500000D02*
X85924365Y-155500000D01*
X84395635Y-155600000D02*
X84495635Y-155500000D01*
X83484365Y-155600000D02*
X84395635Y-155600000D01*
X83384365Y-155500000D02*
X83484365Y-155600000D01*
X82940000Y-155500000D02*
X83384365Y-155500000D01*
X68700000Y-169740000D02*
X82940000Y-155500000D01*
X129000000Y-155500000D02*
X131750000Y-152750000D01*
%TO.N,+5V*%
D53*
X260790000Y-196292500D02*
X260790000Y-198855000D01*
X250790000Y-191475000D02*
X250590000Y-191275000D01*
X181270000Y-227960000D02*
X181270000Y-233990000D01*
X245260000Y-162310000D02*
X245260000Y-162580000D01*
X248760000Y-154180000D02*
X249760000Y-155180000D01*
X245260000Y-162580000D02*
X242220000Y-165620000D01*
X38375000Y-99545000D02*
X38760000Y-99930000D01*
X248760000Y-151560000D02*
X248760000Y-154180000D01*
X260790000Y-198855000D02*
X260750000Y-198895000D01*
X261977500Y-195105000D02*
X260790000Y-196292500D01*
X250790000Y-193505000D02*
X250790000Y-191475000D01*
X38375000Y-95750000D02*
X38375000Y-99545000D01*
X181350000Y-227880000D02*
X181270000Y-227960000D01*
X120520000Y-256190000D02*
X120520000Y-254807500D01*
X120520000Y-254807500D02*
X121407500Y-253920000D01*
%TO.N,GND*%
X258000000Y-82812500D02*
X255387500Y-82812500D01*
X181930000Y-151255000D02*
X182310000Y-150875000D01*
X41500000Y-99730000D02*
X41300000Y-99930000D01*
X180310000Y-152875000D02*
X181930000Y-151255000D01*
X265830000Y-195832500D02*
X265102500Y-195105000D01*
X265830000Y-198895000D02*
X265830000Y-195832500D01*
X249070000Y-162310000D02*
X252380000Y-165620000D01*
X257750000Y-45312500D02*
X255087500Y-45312500D01*
X248385000Y-162310000D02*
X249070000Y-162310000D01*
X245635000Y-151560000D02*
X245635000Y-154225000D01*
X182310000Y-150875000D02*
X182310000Y-148065000D01*
X245635000Y-154225000D02*
X244680000Y-155180000D01*
X260412500Y-45312500D02*
X260500000Y-45400000D01*
X125600000Y-256190000D02*
X125600000Y-254987500D01*
X260737500Y-62437500D02*
X260500000Y-62200000D01*
X180310000Y-155065000D02*
X180310000Y-152875000D01*
X255387500Y-82812500D02*
X255000000Y-83200000D01*
X125600000Y-254987500D02*
X124532500Y-253920000D01*
X255087500Y-45312500D02*
X255000000Y-45400000D01*
X257750000Y-45312500D02*
X260412500Y-45312500D01*
X41500000Y-95750000D02*
X41500000Y-99730000D01*
X72260000Y-254352500D02*
X72752500Y-253860000D01*
X72260000Y-256190000D02*
X72260000Y-254352500D01*
%TO.N,/Pinout/PA0*%
D52*
X46620000Y-41620000D02*
X30540000Y-25540000D01*
X111340000Y-25540000D02*
X117130000Y-19750000D01*
X30540000Y-25540000D02*
X111340000Y-25540000D01*
X46620000Y-45240000D02*
X46620000Y-41620000D01*
%TO.N,/Pinout/PA1*%
X44080000Y-45240000D02*
X44080000Y-41620000D01*
X44080000Y-41620000D02*
X30540000Y-28080000D01*
%TO.N,/Pinout/PA2*%
X41540000Y-45240000D02*
X41540000Y-41620000D01*
X41540000Y-41620000D02*
X30540000Y-30620000D01*
%TO.N,/Pinout/PA3*%
X39000000Y-41620000D02*
X30540000Y-33160000D01*
X39000000Y-45240000D02*
X39000000Y-41620000D01*
%TO.N,/Bus Driver/A0*%
X125600000Y-188150000D02*
X130750000Y-183000000D01*
X130750000Y-183000000D02*
X130750000Y-180250000D01*
X106110000Y-181140000D02*
X106110000Y-183060000D01*
X108000000Y-179250000D02*
X106110000Y-181140000D01*
X129750000Y-179250000D02*
X108000000Y-179250000D01*
X125600000Y-189478000D02*
X125600000Y-188150000D01*
X130750000Y-180250000D02*
X129750000Y-179250000D01*
%TO.N,/Bus Driver/A1*%
X129000000Y-180250000D02*
X116540000Y-180250000D01*
X129750000Y-181000000D02*
X129000000Y-180250000D01*
X129750000Y-182788000D02*
X129750000Y-181000000D01*
X123060000Y-189478000D02*
X129750000Y-182788000D01*
X116540000Y-180250000D02*
X113730000Y-183060000D01*
%TO.N,/Bus Driver/A2*%
X127750000Y-181250000D02*
X117250000Y-181250000D01*
X128500000Y-182000000D02*
X127750000Y-181250000D01*
X121739000Y-188259000D02*
X122786635Y-188259000D01*
X116270000Y-182230000D02*
X116270000Y-183060000D01*
X117250000Y-181250000D02*
X116270000Y-182230000D01*
X120520000Y-189478000D02*
X121739000Y-188259000D01*
X122786635Y-188259000D02*
X128500000Y-182545635D01*
X128500000Y-182545635D02*
X128500000Y-182000000D01*
%TO.N,/Bus Driver/A3*%
X123890000Y-183568000D02*
X123890000Y-183060000D01*
X117980000Y-189478000D02*
X123890000Y-183568000D01*
%TO.N,/Bus Driver/XA2*%
D51*
X74320000Y-76000000D02*
X78250000Y-79930000D01*
X78250000Y-90692943D02*
X78200000Y-90742943D01*
X80440000Y-118600000D02*
X79240000Y-119800000D01*
X78250000Y-91787057D02*
X78250000Y-97482943D01*
X78200000Y-91737057D02*
X78250000Y-91787057D01*
X80440000Y-99672943D02*
X80440000Y-118600000D01*
X78250000Y-97482943D02*
X79627057Y-98860000D01*
X79707057Y-98860000D02*
X80410000Y-99562943D01*
X78200000Y-90742943D02*
X78200000Y-91737057D01*
X80410000Y-99642943D02*
X80440000Y-99672943D01*
X79627057Y-98860000D02*
X79707057Y-98860000D01*
X80410000Y-99562943D02*
X80410000Y-99642943D01*
X78250000Y-79930000D02*
X78250000Y-90692943D01*
%TO.N,/Bus Driver/XA1*%
X65600000Y-69820000D02*
X65600000Y-62600000D01*
X77087057Y-98860000D02*
X77167057Y-98860000D01*
X77870000Y-99642943D02*
X77900000Y-99672943D01*
X75520000Y-91737057D02*
X75500000Y-91757057D01*
X75500000Y-97272943D02*
X77087057Y-98860000D01*
X50000000Y-49000000D02*
X49160000Y-49840000D01*
X75500000Y-91757057D02*
X75500000Y-97272943D01*
X75500000Y-79720000D02*
X75500000Y-90722943D01*
X55440000Y-52440000D02*
X55440000Y-50190000D01*
X75500000Y-90722943D02*
X75520000Y-90742943D01*
X65600000Y-62600000D02*
X55440000Y-52440000D01*
X75520000Y-90742943D02*
X75520000Y-91737057D01*
X71780000Y-76000000D02*
X65600000Y-69820000D01*
X49160000Y-49840000D02*
X49160000Y-51000000D01*
X71780000Y-76000000D02*
X75500000Y-79720000D01*
X77167057Y-98860000D02*
X77870000Y-99562943D01*
X54250000Y-49000000D02*
X50000000Y-49000000D01*
X77870000Y-99562943D02*
X77870000Y-99642943D01*
X77900000Y-99672943D02*
X77900000Y-113520000D01*
X77900000Y-113520000D02*
X71620000Y-119800000D01*
X55440000Y-50190000D02*
X54250000Y-49000000D01*
%TO.N,/Bus Driver/XA0*%
X63200000Y-62500000D02*
X51700000Y-51000000D01*
X73120000Y-91737057D02*
X73120000Y-79880000D01*
X72930000Y-91927057D02*
X73120000Y-91737057D01*
X72930000Y-115950000D02*
X72930000Y-91927057D01*
X69240000Y-76000000D02*
X63200000Y-69960000D01*
X73120000Y-79880000D02*
X69240000Y-76000000D01*
X69080000Y-119800000D02*
X72930000Y-115950000D01*
X63200000Y-69960000D02*
X63200000Y-62500000D01*
%TO.N,CLK*%
X97660000Y-256190000D02*
X98879000Y-254971000D01*
X98879000Y-234351000D02*
X98879000Y-216169000D01*
X98879000Y-254971000D02*
X98879000Y-236789000D01*
X98879000Y-213731000D02*
X98879000Y-195549000D01*
X97660000Y-235570000D02*
X98879000Y-234351000D01*
X98879000Y-236789000D02*
X97660000Y-235570000D01*
X98879000Y-216169000D02*
X97660000Y-214950000D01*
X97660000Y-214950000D02*
X98879000Y-213731000D01*
X98879000Y-195549000D02*
X97660000Y-194330000D01*
%TO.N,/Bus Driver/A8*%
X169770000Y-235190000D02*
X169770000Y-246720000D01*
X168570000Y-227960000D02*
X168570000Y-233990000D01*
X169770000Y-211640000D02*
X169770000Y-226760000D01*
X169770000Y-246720000D02*
X168550000Y-247940000D01*
X168570000Y-233990000D02*
X169770000Y-235190000D01*
X169770000Y-226760000D02*
X168570000Y-227960000D01*
X168620000Y-210490000D02*
X169770000Y-211640000D01*
X168550000Y-247940000D02*
X168550000Y-255240000D01*
%TO.N,/Bus Driver/A9*%
X167370000Y-211780000D02*
X166080000Y-210490000D01*
X166030000Y-227960000D02*
X167370000Y-226620000D01*
X166030000Y-233990000D02*
X166030000Y-227960000D01*
X167370000Y-226620000D02*
X167370000Y-211780000D01*
X167230000Y-246720000D02*
X166010000Y-247940000D01*
X166030000Y-233990000D02*
X167230000Y-235190000D01*
X166010000Y-247940000D02*
X166010000Y-255240000D01*
X167230000Y-235190000D02*
X167230000Y-246720000D01*
%TO.N,/Bus Driver/A10*%
X159610000Y-211640000D02*
X159610000Y-226760000D01*
X158390000Y-247940000D02*
X158390000Y-255240000D01*
X159610000Y-235190000D02*
X159610000Y-246720000D01*
X158410000Y-233990000D02*
X159610000Y-235190000D01*
X159610000Y-246720000D02*
X158390000Y-247940000D01*
X158460000Y-210490000D02*
X159610000Y-211640000D01*
X158410000Y-227960000D02*
X158410000Y-233990000D01*
X159610000Y-226760000D02*
X158410000Y-227960000D01*
%TO.N,/Bus Driver/A11*%
X163470000Y-247940000D02*
X163470000Y-255240000D01*
X164690000Y-226760000D02*
X163490000Y-227960000D01*
X164690000Y-235190000D02*
X164690000Y-246720000D01*
X163490000Y-227960000D02*
X163490000Y-233990000D01*
X163490000Y-233990000D02*
X164690000Y-235190000D01*
X164690000Y-246720000D02*
X163470000Y-247940000D01*
X164690000Y-211640000D02*
X164690000Y-226760000D01*
X163540000Y-210490000D02*
X164690000Y-211640000D01*
%TO.N,/Bus Driver/A13*%
X172310000Y-246720000D02*
X171090000Y-247940000D01*
X171110000Y-227960000D02*
X172450000Y-226620000D01*
X171090000Y-247940000D02*
X171090000Y-255240000D01*
X171110000Y-233990000D02*
X172310000Y-235190000D01*
X172450000Y-211780000D02*
X171160000Y-210490000D01*
X172450000Y-226620000D02*
X172450000Y-211780000D01*
X171110000Y-233990000D02*
X171110000Y-227960000D01*
X172310000Y-235190000D02*
X172310000Y-246720000D01*
%TO.N,/Bus Driver/A14*%
X176190000Y-212980000D02*
X176190000Y-218750000D01*
X173700000Y-210490000D02*
X176190000Y-212980000D01*
%TO.N,/Bus Driver/A15*%
X177390000Y-235330000D02*
X177390000Y-246580000D01*
X177390000Y-246580000D02*
X178710000Y-247900000D01*
X178710000Y-247900000D02*
X178710000Y-255240000D01*
X178730000Y-233990000D02*
X177390000Y-235330000D01*
%TO.N,/~{XMEMR}*%
X162150000Y-226760000D02*
X162150000Y-211640000D01*
X162150000Y-211640000D02*
X161000000Y-210490000D01*
X160950000Y-233990000D02*
X162150000Y-235190000D01*
X162150000Y-235190000D02*
X162150000Y-246720000D01*
X160930000Y-247940000D02*
X160930000Y-255240000D01*
X160950000Y-227960000D02*
X162150000Y-226760000D01*
X162150000Y-246720000D02*
X160930000Y-247940000D01*
X160950000Y-233990000D02*
X160950000Y-227960000D01*
%TO.N,/Bus Driver/D0*%
X145760000Y-163440000D02*
X144440000Y-164760000D01*
X144440000Y-164760000D02*
X144440000Y-182450000D01*
X144440000Y-182450000D02*
X143240000Y-183650000D01*
X145760000Y-161600000D02*
X143220000Y-159060000D01*
X145760000Y-163440000D02*
X145760000Y-161600000D01*
%TO.N,/Bus Driver/D1*%
X147100000Y-182330000D02*
X147100000Y-164640000D01*
X145780000Y-183650000D02*
X147100000Y-182330000D01*
X147100000Y-164640000D02*
X148300000Y-163440000D01*
X148300000Y-163440000D02*
X148300000Y-161600000D01*
X148300000Y-161600000D02*
X145760000Y-159060000D01*
%TO.N,/Bus Driver/D2*%
X148320000Y-178930000D02*
X149640000Y-177610000D01*
X149640000Y-177610000D02*
X149640000Y-164640000D01*
X149640000Y-164640000D02*
X150840000Y-163440000D01*
X148320000Y-183650000D02*
X148320000Y-178930000D01*
X150840000Y-163440000D02*
X150840000Y-161600000D01*
X150840000Y-161600000D02*
X148300000Y-159060000D01*
%TO.N,/Bus Driver/D3*%
X150860000Y-183650000D02*
X150860000Y-180267057D01*
X150860000Y-180267057D02*
X154720000Y-176407057D01*
X154720000Y-164780000D02*
X153380000Y-163440000D01*
X154720000Y-176407057D02*
X154720000Y-164780000D01*
X153380000Y-161600000D02*
X153380000Y-163440000D01*
X150840000Y-159060000D02*
X153380000Y-161600000D01*
%TO.N,/Bus Driver/D4*%
X155920000Y-163440000D02*
X157140000Y-164660000D01*
X157140000Y-164660000D02*
X157140000Y-176624710D01*
X153400000Y-180364710D02*
X153400000Y-183650000D01*
X157140000Y-176624710D02*
X153400000Y-180364710D01*
X155920000Y-161600000D02*
X153380000Y-159060000D01*
X155920000Y-163440000D02*
X155920000Y-161600000D01*
%TO.N,/Bus Driver/D5*%
X159680000Y-164660000D02*
X158460000Y-163440000D01*
X155940000Y-183650000D02*
X155940000Y-180810000D01*
X155940000Y-180810000D02*
X159680000Y-177070000D01*
X159680000Y-177070000D02*
X159680000Y-164660000D01*
X155920000Y-159060000D02*
X158460000Y-161600000D01*
X158460000Y-161600000D02*
X158460000Y-163440000D01*
%TO.N,/Bus Driver/D6*%
X162220000Y-178030000D02*
X162220000Y-164660000D01*
X158480000Y-181770000D02*
X162220000Y-178030000D01*
X158480000Y-183650000D02*
X158480000Y-181770000D01*
X162220000Y-164660000D02*
X161000000Y-163440000D01*
X161000000Y-163440000D02*
X161000000Y-161600000D01*
X161000000Y-161600000D02*
X158460000Y-159060000D01*
%TO.N,/Bus Driver/D7*%
X161020000Y-182980000D02*
X164760000Y-179240000D01*
X164760000Y-164660000D02*
X163540000Y-163440000D01*
X161020000Y-183650000D02*
X161020000Y-182980000D01*
X164760000Y-179240000D02*
X164760000Y-164660000D01*
X161000000Y-159060000D02*
X163540000Y-161600000D01*
X163540000Y-161600000D02*
X163540000Y-163440000D01*
%TO.N,/RAM and ROM/MD7*%
X154530000Y-235190000D02*
X154530000Y-246720000D01*
X162360000Y-196600000D02*
X153380000Y-205580000D01*
X154530000Y-246720000D02*
X153310000Y-247940000D01*
X159820000Y-182430000D02*
X159820000Y-185100000D01*
X153310000Y-247940000D02*
X153310000Y-255240000D01*
X153380000Y-210490000D02*
X154530000Y-211640000D01*
X153380000Y-205580000D02*
X153380000Y-210490000D01*
X162360000Y-187640000D02*
X162360000Y-196600000D01*
X163560000Y-178690000D02*
X159820000Y-182430000D01*
X154530000Y-226760000D02*
X153330000Y-227960000D01*
X154530000Y-211640000D02*
X154530000Y-226760000D01*
X163560000Y-176030000D02*
X163560000Y-178690000D01*
X153330000Y-233990000D02*
X154530000Y-235190000D01*
X159820000Y-185100000D02*
X162360000Y-187640000D01*
X153330000Y-227960000D02*
X153330000Y-233990000D01*
%TO.N,/RAM and ROM/MD6*%
X151955000Y-230705000D02*
X151990000Y-230740000D01*
X151990000Y-211640000D02*
X151990000Y-226760000D01*
X150790000Y-227960000D02*
X150790000Y-233990000D01*
X157250000Y-181125000D02*
X157250000Y-199170000D01*
X150770000Y-247940000D02*
X150770000Y-255240000D01*
X151990000Y-230740000D02*
X151990000Y-246720000D01*
X150840000Y-210490000D02*
X151990000Y-211640000D01*
X161020000Y-176030000D02*
X161020000Y-177355000D01*
X150790000Y-230290000D02*
X151955000Y-229125000D01*
X151990000Y-226760000D02*
X150790000Y-227960000D01*
X150840000Y-205580000D02*
X150840000Y-210490000D01*
X157250000Y-199170000D02*
X150840000Y-205580000D01*
X151955000Y-229125000D02*
X151990000Y-229160000D01*
X151955000Y-229125000D02*
X151955000Y-230705000D01*
X151990000Y-246720000D02*
X150770000Y-247940000D01*
X150790000Y-233990000D02*
X150790000Y-230290000D01*
X161020000Y-177355000D02*
X157250000Y-181125000D01*
%TO.N,/RAM and ROM/MD5*%
X148230000Y-247940000D02*
X148230000Y-255240000D01*
X149450000Y-246720000D02*
X148230000Y-247940000D01*
X149450000Y-235190000D02*
X149450000Y-246720000D01*
X158480000Y-176030000D02*
X158480000Y-176775000D01*
X149450000Y-211640000D02*
X149450000Y-226760000D01*
X149450000Y-226760000D02*
X148250000Y-227960000D01*
X154740000Y-180515000D02*
X154740000Y-199140000D01*
X148250000Y-233990000D02*
X149450000Y-235190000D01*
X158480000Y-176775000D02*
X154740000Y-180515000D01*
X148300000Y-210490000D02*
X149450000Y-211640000D01*
X148250000Y-227960000D02*
X148250000Y-233990000D01*
X148300000Y-205580000D02*
X148300000Y-210490000D01*
X154740000Y-199140000D02*
X148300000Y-205580000D01*
%TO.N,/RAM and ROM/MD4*%
X145710000Y-227960000D02*
X145710000Y-233990000D01*
X152200000Y-180300000D02*
X152200000Y-199140000D01*
X152200000Y-199140000D02*
X145760000Y-205580000D01*
X146910000Y-246720000D02*
X145690000Y-247940000D01*
X145760000Y-210490000D02*
X146910000Y-211640000D01*
X146910000Y-211640000D02*
X146910000Y-226760000D01*
X145710000Y-233990000D02*
X146910000Y-235190000D01*
X145760000Y-205580000D02*
X145760000Y-210490000D01*
X146910000Y-226760000D02*
X145710000Y-227960000D01*
X155940000Y-176560000D02*
X152200000Y-180300000D01*
X145690000Y-247940000D02*
X145690000Y-255240000D01*
X155940000Y-176030000D02*
X155940000Y-176560000D01*
X146910000Y-235190000D02*
X146910000Y-246720000D01*
%TO.N,/RAM and ROM/MD3*%
X143220000Y-205580000D02*
X143220000Y-210490000D01*
X144370000Y-211640000D02*
X144370000Y-226760000D01*
X149630000Y-179800000D02*
X149630000Y-199170000D01*
X144370000Y-226760000D02*
X143170000Y-227960000D01*
X144370000Y-235190000D02*
X143170000Y-233990000D01*
X153400000Y-176030000D02*
X149630000Y-179800000D01*
X144370000Y-246720000D02*
X144370000Y-235190000D01*
X143170000Y-227960000D02*
X143170000Y-233990000D01*
X149630000Y-199170000D02*
X143220000Y-205580000D01*
X143150000Y-255240000D02*
X143150000Y-247940000D01*
X143220000Y-210490000D02*
X144370000Y-211640000D01*
X143150000Y-247940000D02*
X144370000Y-246720000D01*
%TO.N,/Keyboard/KEYBOARD CLOCK*%
D53*
X40760000Y-167780000D02*
X40800000Y-167740000D01*
X40760000Y-169740000D02*
X40760000Y-167780000D01*
%TO.N,/~{XIOR}*%
D51*
X80740000Y-91990000D02*
X89000000Y-100250000D01*
X80740000Y-82280000D02*
X80740000Y-91990000D01*
X89000000Y-100250000D02*
X89000000Y-119723000D01*
X47960000Y-45597057D02*
X47960000Y-31200000D01*
X47960000Y-31200000D02*
X49160000Y-30000000D01*
X58120000Y-53370000D02*
X68500000Y-63750000D01*
X55783000Y-48000000D02*
X58120000Y-50337000D01*
X68500000Y-66000000D02*
X73000000Y-70500000D01*
X75887000Y-122473000D02*
X73610000Y-124750000D01*
X41540000Y-51000000D02*
X44540000Y-48000000D01*
X89000000Y-119723000D02*
X86250000Y-122473000D01*
X58120000Y-50337000D02*
X58120000Y-53370000D01*
X41540000Y-51000000D02*
X46100000Y-46440000D01*
X47117057Y-46440000D02*
X47960000Y-45597057D01*
X87020000Y-76000000D02*
X80740000Y-82280000D01*
X73000000Y-70500000D02*
X81520000Y-70500000D01*
X86250000Y-122473000D02*
X75887000Y-122473000D01*
X81520000Y-70500000D02*
X87020000Y-76000000D01*
X44540000Y-48000000D02*
X55783000Y-48000000D01*
X46100000Y-46440000D02*
X47117057Y-46440000D01*
X68500000Y-63750000D02*
X68500000Y-66000000D01*
%TO.N,/~{XIOW}*%
X86750000Y-123500000D02*
X90250000Y-120000000D01*
X60520000Y-50502943D02*
X60520000Y-53270000D01*
X88520000Y-84660000D02*
X88520000Y-75378679D01*
X78690000Y-124750000D02*
X79940000Y-123500000D01*
X70000000Y-62750000D02*
X70000000Y-65500000D01*
X88520000Y-75378679D02*
X82141321Y-69000000D01*
X79940000Y-123500000D02*
X86750000Y-123500000D01*
X82141321Y-69000000D02*
X73500000Y-69000000D01*
X50360000Y-46440000D02*
X56457057Y-46440000D01*
X70000000Y-65500000D02*
X73500000Y-69000000D01*
X81940000Y-91240000D02*
X88520000Y-84660000D01*
X90250000Y-99550000D02*
X81940000Y-91240000D01*
X56457057Y-46440000D02*
X60520000Y-50502943D01*
X90250000Y-120000000D02*
X90250000Y-99550000D01*
X60520000Y-53270000D02*
X70000000Y-62750000D01*
X49160000Y-45240000D02*
X50360000Y-46440000D01*
%TO.N,/Keyboard/KEYBOARD DATA*%
D53*
X73780000Y-152510000D02*
X73800000Y-152490000D01*
X73780000Y-154500000D02*
X73780000Y-152510000D01*
%TO.N,/Keyboard/MOUSE DATA*%
X71240000Y-157180000D02*
X71300000Y-157240000D01*
X71240000Y-154500000D02*
X71240000Y-157180000D01*
%TO.N,/Processor And Control/IRQ7*%
D51*
X101419000Y-195549000D02*
X101419000Y-213731000D01*
X101419000Y-213731000D02*
X100200000Y-214950000D01*
X100250000Y-214982000D02*
X101469000Y-216201000D01*
X100200000Y-235542000D02*
X101419000Y-236761000D01*
X101469000Y-216201000D02*
X101469000Y-234383000D01*
X100200000Y-194330000D02*
X101419000Y-195549000D01*
X101419000Y-236761000D02*
X101419000Y-254943000D01*
X101469000Y-234383000D02*
X100250000Y-235602000D01*
X101419000Y-254943000D02*
X100200000Y-256162000D01*
%TO.N,/Keyboard/MOUSE CLOCK*%
D53*
X43300000Y-154500000D02*
X43300000Y-156740000D01*
%TO.N,/~{XMEMW}*%
D51*
X174850000Y-235190000D02*
X174850000Y-246720000D01*
X173630000Y-247940000D02*
X173630000Y-255240000D01*
X173650000Y-233990000D02*
X174850000Y-235190000D01*
X174850000Y-246720000D02*
X173630000Y-247940000D01*
%TO.N,/Bus Driver/RESET*%
X51990000Y-214982000D02*
X53209000Y-216201000D01*
X53209000Y-216201000D02*
X53209000Y-234383000D01*
X53209000Y-234383000D02*
X51990000Y-235602000D01*
X51940000Y-194330000D02*
X53159000Y-195549000D01*
X53159000Y-236761000D02*
X53159000Y-254943000D01*
X53159000Y-195549000D02*
X53159000Y-213731000D01*
X51940000Y-235542000D02*
X53159000Y-236761000D01*
X53159000Y-254943000D02*
X51940000Y-256162000D01*
X53159000Y-213731000D02*
X51940000Y-214950000D01*
%TO.N,/Bus Driver/XA9*%
D52*
X196000000Y-99800000D02*
X198540000Y-99800000D01*
X196000000Y-99800000D02*
X193460000Y-99800000D01*
%TO.N,Net-(C14-COLD(ROTOR)_TERMINAL)*%
D53*
X177210000Y-151615000D02*
X176850000Y-151255000D01*
X177210000Y-155065000D02*
X177210000Y-151615000D01*
%TO.N,/Processor And Control/IRQ6*%
D51*
X104009000Y-234383000D02*
X104009000Y-216201000D01*
X102740000Y-256162000D02*
X103959000Y-254943000D01*
X103959000Y-213731000D02*
X103959000Y-195549000D01*
X103959000Y-254943000D02*
X103959000Y-236761000D01*
X102790000Y-235602000D02*
X104009000Y-234383000D01*
X102740000Y-214950000D02*
X103959000Y-213731000D01*
X103959000Y-195549000D02*
X102740000Y-194330000D01*
X103959000Y-236761000D02*
X102740000Y-235542000D01*
X104009000Y-216201000D02*
X102790000Y-214982000D01*
%TO.N,/DMA/Terminal Count*%
X115440000Y-194330000D02*
X116659000Y-195549000D01*
X115490000Y-214982000D02*
X116709000Y-216201000D01*
X116709000Y-234383000D02*
X115490000Y-235602000D01*
X115440000Y-235542000D02*
X116659000Y-236761000D01*
X116709000Y-216201000D02*
X116709000Y-234383000D01*
X116659000Y-195549000D02*
X116659000Y-213731000D01*
X116659000Y-213731000D02*
X115440000Y-214950000D01*
X116659000Y-254943000D02*
X115440000Y-256162000D01*
X116659000Y-236761000D02*
X116659000Y-254943000D01*
%TO.N,Net-(D1-K)*%
D53*
X72810000Y-58320000D02*
X77880000Y-58320000D01*
X72810000Y-63600000D02*
X72670000Y-63740000D01*
X77880000Y-58320000D02*
X79200000Y-57000000D01*
X72810000Y-58320000D02*
X72810000Y-63600000D01*
%TO.N,Net-(D1-A)*%
X86800000Y-57000000D02*
X80500000Y-50700000D01*
X80500000Y-50700000D02*
X72810000Y-50700000D01*
X89700000Y-57000000D02*
X86800000Y-57000000D01*
%TO.N,/RTC/AS*%
D51*
X119199000Y-254943000D02*
X119199000Y-236761000D01*
X117980000Y-214950000D02*
X119199000Y-213731000D01*
X119249000Y-216201000D02*
X118030000Y-214982000D01*
X119199000Y-195549000D02*
X117980000Y-194330000D01*
X119249000Y-234383000D02*
X119249000Y-216201000D01*
X119199000Y-213731000D02*
X119199000Y-195549000D01*
X118030000Y-235602000D02*
X119249000Y-234383000D01*
X117980000Y-256162000D02*
X119199000Y-254943000D01*
X119199000Y-236761000D02*
X117980000Y-235542000D01*
%TO.N,/~{MEMR}*%
X77390000Y-235602000D02*
X78609000Y-234383000D01*
X77340000Y-256162000D02*
X78559000Y-254943000D01*
X78559000Y-254943000D02*
X78559000Y-236761000D01*
X78559000Y-236761000D02*
X77340000Y-235542000D01*
X77340000Y-214950000D02*
X78559000Y-213731000D01*
X78609000Y-216201000D02*
X77390000Y-214982000D01*
X78559000Y-195549000D02*
X77340000Y-194330000D01*
X78559000Y-213731000D02*
X78559000Y-195549000D01*
X78609000Y-234383000D02*
X78609000Y-216201000D01*
%TO.N,/~{MEMW}*%
X74800000Y-235542000D02*
X76019000Y-236761000D01*
X76019000Y-236761000D02*
X76019000Y-254943000D01*
X74850000Y-214982000D02*
X76069000Y-216201000D01*
X76019000Y-195549000D02*
X76019000Y-213731000D01*
X76069000Y-234383000D02*
X74850000Y-235602000D01*
X76019000Y-213731000D02*
X74800000Y-214950000D01*
X76019000Y-254943000D02*
X74800000Y-256162000D01*
X74800000Y-194330000D02*
X76019000Y-195549000D01*
X76069000Y-216201000D02*
X76069000Y-234383000D01*
%TO.N,/~{IOW}*%
X81149000Y-216201000D02*
X81149000Y-234383000D01*
X81149000Y-234383000D02*
X79930000Y-235602000D01*
X81099000Y-254943000D02*
X79880000Y-256162000D01*
X81099000Y-195549000D02*
X81099000Y-213731000D01*
X79930000Y-214982000D02*
X81149000Y-216201000D01*
X81099000Y-236761000D02*
X81099000Y-254943000D01*
X79880000Y-194330000D02*
X81099000Y-195549000D01*
X81099000Y-213731000D02*
X79880000Y-214950000D01*
X79880000Y-235542000D02*
X81099000Y-236761000D01*
%TO.N,/~{IOR}*%
X83639000Y-213731000D02*
X82420000Y-214950000D01*
X83689000Y-234383000D02*
X82470000Y-235602000D01*
X83689000Y-216201000D02*
X83689000Y-234383000D01*
X82420000Y-194330000D02*
X83639000Y-195549000D01*
X82420000Y-235542000D02*
X83639000Y-236761000D01*
X82470000Y-214982000D02*
X83689000Y-216201000D01*
X83639000Y-195549000D02*
X83639000Y-213731000D01*
X83639000Y-236761000D02*
X83639000Y-254943000D01*
X83639000Y-254943000D02*
X82420000Y-256162000D01*
%TO.N,/Processor And Control/IRQ2*%
X58239000Y-254943000D02*
X58239000Y-236761000D01*
X57070000Y-235602000D02*
X58289000Y-234383000D01*
X57020000Y-214950000D02*
X58239000Y-213731000D01*
X58289000Y-216201000D02*
X57070000Y-214982000D01*
X57020000Y-256162000D02*
X58239000Y-254943000D01*
X58239000Y-236761000D02*
X57020000Y-235542000D01*
X58289000Y-234383000D02*
X58289000Y-216201000D01*
X58239000Y-195549000D02*
X57020000Y-194330000D01*
X58239000Y-213731000D02*
X58239000Y-195549000D01*
%TO.N,/DMA/DRQ2*%
X63471000Y-234281000D02*
X62150000Y-235602000D01*
X62150000Y-214982000D02*
X63471000Y-216303000D01*
X63421000Y-195651000D02*
X63421000Y-213629000D01*
X63421000Y-213629000D02*
X62100000Y-214950000D01*
X63471000Y-216303000D02*
X63471000Y-234281000D01*
X63421000Y-236863000D02*
X63421000Y-254841000D01*
X62100000Y-194330000D02*
X63421000Y-195651000D01*
X63421000Y-254841000D02*
X62100000Y-256162000D01*
X62100000Y-235542000D02*
X63421000Y-236863000D01*
%TO.N,-12V*%
D53*
X64640000Y-253940000D02*
X64720000Y-253860000D01*
D51*
X64640000Y-214950000D02*
X65961000Y-213629000D01*
D53*
X257750000Y-42187500D02*
X255987500Y-42187500D01*
D51*
X65859000Y-216169000D02*
X64640000Y-214950000D01*
X64640000Y-256190000D02*
X65961000Y-254869000D01*
X65961000Y-195651000D02*
X64640000Y-194330000D01*
X65961000Y-236891000D02*
X64640000Y-235570000D01*
X65859000Y-234351000D02*
X65859000Y-216169000D01*
X65961000Y-254869000D02*
X65961000Y-236891000D01*
D53*
X64640000Y-256190000D02*
X64640000Y-253940000D01*
D51*
X64640000Y-235570000D02*
X65859000Y-234351000D01*
D53*
X255987500Y-42187500D02*
X255000000Y-41200000D01*
D51*
X65961000Y-213629000D02*
X65961000Y-195651000D01*
%TO.N,/ISA BUS/~{HRQ I{slash}O CH}*%
X68399000Y-213731000D02*
X68399000Y-195549000D01*
X67180000Y-256162000D02*
X68399000Y-254943000D01*
X68449000Y-216201000D02*
X67230000Y-214982000D01*
X68449000Y-234383000D02*
X68449000Y-216201000D01*
X68399000Y-254943000D02*
X68399000Y-236761000D01*
X67180000Y-214950000D02*
X68399000Y-213731000D01*
X67230000Y-235602000D02*
X68449000Y-234383000D01*
X68399000Y-236761000D02*
X67180000Y-235542000D01*
X68399000Y-195549000D02*
X67180000Y-194330000D01*
%TO.N,+12V*%
X70939000Y-213731000D02*
X69720000Y-214950000D01*
D53*
X260500000Y-79000000D02*
X258687500Y-79000000D01*
D51*
X69720000Y-235570000D02*
X70939000Y-236789000D01*
X70939000Y-236789000D02*
X70939000Y-254971000D01*
D53*
X69720000Y-253952500D02*
X69627500Y-253860000D01*
D51*
X70939000Y-254971000D02*
X69720000Y-256190000D01*
X71000000Y-234290000D02*
X69720000Y-235570000D01*
D53*
X69720000Y-256190000D02*
X69720000Y-253952500D01*
D51*
X69720000Y-214950000D02*
X71000000Y-216230000D01*
X69720000Y-194330000D02*
X70939000Y-195549000D01*
X71000000Y-216230000D02*
X71000000Y-234290000D01*
D53*
X258687500Y-79000000D02*
X258000000Y-79687500D01*
D51*
X70939000Y-195549000D02*
X70939000Y-213731000D01*
%TO.N,/ISA BUS/~{DACK3}*%
X84960000Y-214950000D02*
X86179000Y-213731000D01*
X86179000Y-254943000D02*
X86179000Y-236761000D01*
X84960000Y-256162000D02*
X86179000Y-254943000D01*
X86179000Y-236761000D02*
X84960000Y-235542000D01*
X85010000Y-235602000D02*
X86229000Y-234383000D01*
X86179000Y-213731000D02*
X86179000Y-195549000D01*
X86179000Y-195549000D02*
X84960000Y-194330000D01*
X86229000Y-234383000D02*
X86229000Y-216201000D01*
X86229000Y-216201000D02*
X85010000Y-214982000D01*
%TO.N,/DMA/DRQ3*%
X88769000Y-234383000D02*
X87550000Y-235602000D01*
X88719000Y-213731000D02*
X87500000Y-214950000D01*
X87500000Y-194330000D02*
X88719000Y-195549000D01*
X88719000Y-254943000D02*
X87500000Y-256162000D01*
X88769000Y-216201000D02*
X88769000Y-234383000D01*
X87500000Y-235542000D02*
X88719000Y-236761000D01*
X88719000Y-236761000D02*
X88719000Y-254943000D01*
X87550000Y-214982000D02*
X88769000Y-216201000D01*
X88719000Y-195549000D02*
X88719000Y-213731000D01*
%TO.N,/ISA BUS/~{DACK1}*%
X90090000Y-235602000D02*
X91309000Y-234383000D01*
X91309000Y-216201000D02*
X90090000Y-214982000D01*
X90040000Y-256162000D02*
X91259000Y-254943000D01*
X91259000Y-195549000D02*
X90040000Y-194330000D01*
X91259000Y-254943000D02*
X91259000Y-236761000D01*
X91309000Y-234383000D02*
X91309000Y-216201000D01*
X91259000Y-213731000D02*
X91259000Y-195549000D01*
X91259000Y-236761000D02*
X90040000Y-235542000D01*
X90040000Y-214950000D02*
X91259000Y-213731000D01*
%TO.N,/DMA/DRQ1*%
X93799000Y-236761000D02*
X93799000Y-254943000D01*
X92630000Y-214982000D02*
X93849000Y-216201000D01*
X92580000Y-194330000D02*
X93799000Y-195549000D01*
X93849000Y-234383000D02*
X92630000Y-235602000D01*
X93849000Y-216201000D02*
X93849000Y-234383000D01*
X93799000Y-195549000D02*
X93799000Y-213731000D01*
X93799000Y-254943000D02*
X92580000Y-256162000D01*
X93799000Y-213731000D02*
X92580000Y-214950000D01*
X92580000Y-235542000D02*
X93799000Y-236761000D01*
%TO.N,/ISA BUS/~{DACK0}*%
X96389000Y-216201000D02*
X95170000Y-214982000D01*
X96339000Y-195549000D02*
X95120000Y-194330000D01*
X95170000Y-235602000D02*
X96389000Y-234383000D01*
X96389000Y-234383000D02*
X96389000Y-216201000D01*
X95120000Y-256162000D02*
X96339000Y-254943000D01*
X95120000Y-214950000D02*
X96339000Y-213731000D01*
X96339000Y-213731000D02*
X96339000Y-195549000D01*
X96339000Y-254943000D02*
X96339000Y-236761000D01*
X96339000Y-236761000D02*
X95120000Y-235542000D01*
%TO.N,/Processor And Control/IRQ5*%
X106549000Y-234383000D02*
X105330000Y-235602000D01*
X106549000Y-216201000D02*
X106549000Y-234383000D01*
X106499000Y-195549000D02*
X106499000Y-213731000D01*
X106499000Y-213731000D02*
X105280000Y-214950000D01*
X105280000Y-194330000D02*
X106499000Y-195549000D01*
X106499000Y-254943000D02*
X105280000Y-256162000D01*
X105330000Y-214982000D02*
X106549000Y-216201000D01*
X105280000Y-235542000D02*
X106499000Y-236761000D01*
X106499000Y-236761000D02*
X106499000Y-254943000D01*
%TO.N,/Processor And Control/IRQ4*%
X109039000Y-254943000D02*
X109039000Y-236761000D01*
X107820000Y-256162000D02*
X109039000Y-254943000D01*
X109039000Y-236761000D02*
X107820000Y-235542000D01*
X109039000Y-195549000D02*
X107820000Y-194330000D01*
X109089000Y-216201000D02*
X107870000Y-214982000D01*
X107820000Y-214950000D02*
X109039000Y-213731000D01*
X107870000Y-235602000D02*
X109089000Y-234383000D01*
X109039000Y-213731000D02*
X109039000Y-195549000D01*
X109089000Y-234383000D02*
X109089000Y-216201000D01*
%TO.N,/Processor And Control/IRQ3*%
X111629000Y-234383000D02*
X110410000Y-235602000D01*
X111629000Y-216201000D02*
X111629000Y-234383000D01*
X110360000Y-235542000D02*
X111579000Y-236761000D01*
X111579000Y-213731000D02*
X110360000Y-214950000D01*
X110360000Y-194330000D02*
X111579000Y-195549000D01*
X110410000Y-214982000D02*
X111629000Y-216201000D01*
X111579000Y-254943000D02*
X110360000Y-256162000D01*
X111579000Y-236761000D02*
X111579000Y-254943000D01*
X111579000Y-195549000D02*
X111579000Y-213731000D01*
%TO.N,/ISA BUS/~{DACK2}*%
X112900000Y-256162000D02*
X114119000Y-254943000D01*
X114169000Y-234383000D02*
X114169000Y-216201000D01*
X114119000Y-254943000D02*
X114119000Y-236761000D01*
X114119000Y-195549000D02*
X112900000Y-194330000D01*
X114169000Y-216201000D02*
X112950000Y-214982000D01*
X112900000Y-214950000D02*
X114119000Y-213731000D01*
X112950000Y-235602000D02*
X114169000Y-234383000D01*
X114119000Y-213731000D02*
X114119000Y-195549000D01*
X114119000Y-236761000D02*
X112900000Y-235542000D01*
%TO.N,OSC*%
X121841000Y-250833073D02*
X122430000Y-250244073D01*
X122430000Y-236200000D02*
X123060000Y-235570000D01*
X121841000Y-251842927D02*
X121841000Y-250833073D01*
X123060000Y-256190000D02*
X122430000Y-255560000D01*
X122430000Y-250244073D02*
X122430000Y-236200000D01*
X122430000Y-252431927D02*
X121841000Y-251842927D01*
X189710000Y-151255000D02*
X184020000Y-145565000D01*
X122430000Y-255560000D02*
X122430000Y-252431927D01*
%TO.N,/ISA BUS/~{I{slash}O CH CK}*%
D53*
X250790000Y-196605000D02*
X250790000Y-198695000D01*
X250790000Y-198695000D02*
X250590000Y-198895000D01*
%TO.N,Net-(U43-C1+)*%
X38760000Y-107550000D02*
X38760000Y-104987500D01*
X38760000Y-104987500D02*
X39997500Y-103750000D01*
%TO.N,Net-(U43-VS+)*%
X41360000Y-107610000D02*
X41300000Y-107550000D01*
X41360000Y-109787500D02*
X41360000Y-107610000D01*
%TO.N,Net-(U43-C1-)*%
X43122500Y-106832500D02*
X43840000Y-107550000D01*
X43122500Y-103750000D02*
X43122500Y-106832500D01*
%TO.N,Net-(U43-C2+)*%
X46380000Y-107550000D02*
X46380000Y-104095000D01*
X46380000Y-104095000D02*
X46035000Y-103750000D01*
%TO.N,Net-(U43-C2-)*%
X48920000Y-103990000D02*
X49160000Y-103750000D01*
X48920000Y-107550000D02*
X48920000Y-103990000D01*
%TO.N,Net-(U43-VS-)*%
X51360000Y-107650000D02*
X51460000Y-107550000D01*
X51360000Y-109387500D02*
X51360000Y-107650000D01*
%TO.N,Net-(U42-~{CTS})*%
D51*
X48792943Y-101500000D02*
X47580000Y-100287057D01*
X47580000Y-100287057D02*
X47580000Y-77340000D01*
X54970000Y-101500000D02*
X48792943Y-101500000D01*
X47580000Y-77340000D02*
X48920000Y-76000000D01*
X56540000Y-99930000D02*
X54970000Y-101500000D01*
%TO.N,Net-(U42-~{RTS})*%
X55200000Y-98730000D02*
X58367057Y-98730000D01*
X65360000Y-82280000D02*
X59080000Y-76000000D01*
X58367057Y-98730000D02*
X65360000Y-91737057D01*
X65360000Y-91737057D02*
X65360000Y-82280000D01*
X54000000Y-99930000D02*
X55200000Y-98730000D01*
%TO.N,Net-(U42-SOUT)*%
X58750000Y-96750000D02*
X64160000Y-91340000D01*
X64160000Y-91340000D02*
X64160000Y-91240000D01*
X51460000Y-99930000D02*
X51570000Y-99930000D01*
X51570000Y-99930000D02*
X54750000Y-96750000D01*
X54750000Y-96750000D02*
X58750000Y-96750000D01*
%TO.N,Net-(U42-SIN)*%
X53850000Y-95000000D02*
X57860000Y-95000000D01*
X48920000Y-99930000D02*
X53850000Y-95000000D01*
X57860000Y-95000000D02*
X61620000Y-91240000D01*
%TO.N,Net-(DS2-LED(+))*%
D53*
X137450000Y-22350000D02*
X137450000Y-19750000D01*
%TO.N,Net-(U13-X2)*%
X179390000Y-151255000D02*
X179210000Y-151075000D01*
X179210000Y-151075000D02*
X179210000Y-148065000D01*
%TO.N,/Bus Driver/XD7*%
D52*
X155424365Y-158000000D02*
X155464365Y-157960000D01*
X143715635Y-158000000D02*
X145264365Y-158000000D01*
X151335635Y-158000000D02*
X152884365Y-158000000D01*
X145264365Y-158000000D02*
X145304365Y-157960000D01*
X152884365Y-158000000D02*
X152924365Y-157960000D01*
X150344365Y-158000000D02*
X150384365Y-157960000D01*
X152924365Y-157960000D02*
X153835635Y-157960000D01*
X151295635Y-157960000D02*
X151335635Y-158000000D01*
X147804365Y-158000000D02*
X147844365Y-157960000D01*
X148755635Y-157960000D02*
X148795635Y-158000000D01*
X146255635Y-158000000D02*
X147804365Y-158000000D01*
X145304365Y-157960000D02*
X146215635Y-157960000D01*
X153835635Y-157960000D02*
X153875635Y-158000000D01*
X135077000Y-158000000D02*
X139855256Y-158000000D01*
X142724365Y-158000000D02*
X142764365Y-157960000D01*
X155464365Y-157960000D02*
X156375635Y-157960000D01*
X148795635Y-158000000D02*
X150344365Y-158000000D01*
X139895256Y-157960000D02*
X141464744Y-157960000D01*
X146215635Y-157960000D02*
X146255635Y-158000000D01*
X95643000Y-160577000D02*
X132500000Y-160577000D01*
X142764365Y-157960000D02*
X143675635Y-157960000D01*
X150384365Y-157960000D02*
X151295635Y-157960000D01*
X156980000Y-158000000D02*
X163540000Y-151440000D01*
X132500000Y-160577000D02*
X135077000Y-158000000D01*
X153875635Y-158000000D02*
X155424365Y-158000000D01*
X139855256Y-158000000D02*
X139895256Y-157960000D01*
X141464744Y-157960000D02*
X141504744Y-158000000D01*
X86480000Y-169740000D02*
X95643000Y-160577000D01*
X141504744Y-158000000D02*
X142724365Y-158000000D01*
X143675635Y-157960000D02*
X143715635Y-158000000D01*
X147844365Y-157960000D02*
X148755635Y-157960000D01*
X156375635Y-157960000D02*
X156415635Y-158000000D01*
X156415635Y-158000000D02*
X156980000Y-158000000D01*
%TD*%
M02*
