M48
; DRILL file KiCad 10.0.4 date 2026-06-30T00:08:12
; FORMAT={-:-/ absolute / metric / decimal}
; #@! TF.CreationDate,2026-06-30T00:08:12-07:00
; #@! TF.GenerationSoftware,Kicad,Pcbnew,10.0.4
; #@! TF.FileFunction,Plated,1,6,PTH
FMAT,2
METRIC
; #@! TA.AperFunction,Plated,PTH,ViaDrill
T1C0.300
; #@! TA.AperFunction,Plated,PTH,ComponentDrill
T2C0.730
; #@! TA.AperFunction,Plated,PTH,ComponentDrill
T3C0.750
; #@! TA.AperFunction,Plated,PTH,ComponentDrill
T4C0.800
; #@! TA.AperFunction,Plated,PTH,ComponentDrill
T5C0.900
; #@! TA.AperFunction,Plated,PTH,ComponentDrill
T6C1.000
; #@! TA.AperFunction,Plated,PTH,ComponentDrill
T7C1.050
; #@! TA.AperFunction,Plated,PTH,ComponentDrill
T8C1.090
; #@! TA.AperFunction,Plated,PTH,ComponentDrill
T9C1.092
; #@! TA.AperFunction,Plated,PTH,ComponentDrill
T10C1.100
; #@! TA.AperFunction,Plated,PTH,ComponentDrill
T11C1.200
; #@! TA.AperFunction,Plated,PTH,ComponentDrill
T12C1.300
; #@! TA.AperFunction,Plated,PTH,ComponentDrill
T13C1.400
; #@! TA.AperFunction,Plated,PTH,ComponentDrill
T14C2.300
; #@! TA.AperFunction,Plated,PTH,ComponentDrill
T15C2.500
; #@! TA.AperFunction,Plated,PTH,ComponentDrill
T16C3.100
%
G90
G05
T1
X38.375Y-95.75
X40.8Y-164.615
X41.36Y-112.95
X41.5Y-95.75
X43.3Y-159.865
X51.36Y-112.55
X61.595Y-253.86
X67.25Y-241.2
X67.4Y-198.8
X67.513Y-220.4
X71.3Y-160.365
X72.752Y-253.86
X72.781Y-241.231
X73.8Y-149.365
X93.75Y-78.25
X121.325Y-241.2
X121.775Y-220.6
X124.125Y-198.1
X124.45Y-241.2
X124.532Y-253.92
X124.9Y-220.6
X137.45Y-25.45
X220.968Y-192.45
X257.75Y-45.312
X258.0Y-82.812
T2
X55.83Y-124.75
X55.83Y-140.246
X58.37Y-124.75
X58.37Y-140.246
X60.91Y-124.75
X60.91Y-140.246
X63.45Y-124.75
X63.45Y-140.246
X65.99Y-124.75
X65.99Y-140.246
X68.53Y-124.75
X68.53Y-140.246
X71.07Y-124.75
X71.07Y-140.246
X73.61Y-124.75
X73.61Y-140.246
X76.15Y-124.75
X76.15Y-140.246
X78.69Y-124.75
X78.69Y-140.246
X81.23Y-124.75
X81.23Y-140.246
X83.77Y-124.75
X83.77Y-140.246
T3
X72.67Y-63.74
X72.67Y-65.01
X72.67Y-66.28
T4
X38.76Y-76.0
X38.76Y-91.24
X38.76Y-99.93
X38.76Y-107.55
X39.0Y-30.0
X39.0Y-45.24
X39.0Y-51.0
X39.0Y-66.24
X40.76Y-154.5
X40.76Y-169.74
X41.3Y-76.0
X41.3Y-91.24
X41.3Y-99.93
X41.3Y-107.55
X41.54Y-30.0
X41.54Y-45.24
X41.54Y-51.0
X41.54Y-66.24
X43.3Y-154.5
X43.3Y-169.74
X43.84Y-76.0
X43.84Y-91.24
X43.84Y-99.93
X43.84Y-107.55
X44.08Y-30.0
X44.08Y-45.24
X44.08Y-51.0
X44.08Y-66.24
X45.84Y-154.5
X45.84Y-169.74
X46.38Y-76.0
X46.38Y-91.24
X46.38Y-99.93
X46.38Y-107.55
X46.62Y-30.0
X46.62Y-45.24
X46.62Y-51.0
X46.62Y-66.24
X48.38Y-154.5
X48.38Y-169.74
X48.92Y-76.0
X48.92Y-91.24
X48.92Y-99.93
X48.92Y-107.55
X49.16Y-30.0
X49.16Y-45.24
X49.16Y-51.0
X49.16Y-66.24
X50.92Y-154.5
X50.92Y-169.74
X51.46Y-76.0
X51.46Y-91.24
X51.46Y-99.93
X51.46Y-107.55
X51.7Y-30.0
X51.7Y-45.24
X51.7Y-51.0
X51.7Y-66.24
X53.46Y-154.5
X53.46Y-169.74
X53.55Y-172.18
X53.55Y-179.8
X54.0Y-76.0
X54.0Y-91.24
X54.0Y-99.93
X54.0Y-107.55
X54.24Y-30.0
X54.24Y-45.24
X54.24Y-51.0
X54.24Y-66.24
X55.58Y-143.985
X55.58Y-151.605
X56.0Y-154.5
X56.0Y-169.74
X56.09Y-172.18
X56.09Y-179.8
X56.54Y-76.0
X56.54Y-91.24
X56.54Y-99.93
X56.54Y-107.55
X56.78Y-30.0
X56.78Y-45.24
X56.78Y-51.0
X56.78Y-66.24
X58.12Y-143.985
X58.12Y-151.605
X58.54Y-154.5
X58.54Y-169.74
X58.63Y-172.18
X58.63Y-179.8
X59.08Y-76.0
X59.08Y-91.24
X59.32Y-30.0
X59.32Y-45.24
X59.32Y-51.0
X59.32Y-66.24
X60.66Y-143.985
X60.66Y-151.605
X61.08Y-154.5
X61.08Y-169.74
X61.17Y-172.18
X61.17Y-179.8
X61.62Y-76.0
X61.62Y-91.24
X61.86Y-30.0
X61.86Y-45.24
X61.86Y-51.0
X61.86Y-66.24
X63.2Y-143.985
X63.2Y-151.605
X63.62Y-154.5
X63.62Y-169.74
X63.71Y-172.18
X63.71Y-179.8
X63.97Y-100.06
X63.97Y-107.68
X64.0Y-112.18
X64.0Y-119.8
X64.16Y-76.0
X64.16Y-91.24
X64.4Y-30.0
X64.4Y-45.24
X64.4Y-51.0
X64.4Y-66.24
X65.74Y-143.985
X65.74Y-151.605
X66.16Y-154.5
X66.16Y-169.74
X66.25Y-172.18
X66.25Y-179.8
X66.51Y-100.06
X66.51Y-107.68
X66.54Y-112.18
X66.54Y-119.8
X66.7Y-76.0
X66.7Y-91.24
X66.94Y-30.0
X66.94Y-45.24
X66.94Y-51.0
X66.94Y-66.24
X68.28Y-143.985
X68.28Y-151.605
X68.7Y-154.5
X68.7Y-169.74
X68.79Y-172.18
X68.79Y-179.8
X69.05Y-100.06
X69.05Y-107.68
X69.08Y-112.18
X69.08Y-119.8
X69.24Y-76.0
X69.24Y-91.24
X69.48Y-30.0
X69.48Y-45.24
X70.82Y-143.985
X70.82Y-151.605
X71.24Y-154.5
X71.24Y-169.74
X71.33Y-172.18
X71.33Y-179.8
X71.59Y-100.06
X71.59Y-107.68
X71.62Y-112.18
X71.62Y-119.8
X71.78Y-76.0
X71.78Y-91.24
X72.02Y-30.0
X72.02Y-45.24
X72.81Y-50.7
X72.81Y-58.32
X73.78Y-154.5
X73.78Y-169.74
X73.87Y-172.18
X73.87Y-179.8
X74.13Y-100.06
X74.13Y-107.68
X74.16Y-112.18
X74.16Y-119.8
X74.32Y-76.0
X74.32Y-91.24
X74.56Y-30.0
X74.56Y-45.24
X76.32Y-154.5
X76.32Y-169.74
X76.41Y-172.18
X76.41Y-179.8
X76.67Y-100.06
X76.67Y-107.68
X76.7Y-112.18
X76.7Y-119.8
X76.86Y-76.0
X76.86Y-91.24
X77.1Y-30.0
X77.1Y-45.24
X78.86Y-154.5
X78.86Y-169.74
X79.21Y-100.06
X79.21Y-107.68
X79.24Y-112.18
X79.24Y-119.8
X79.4Y-76.0
X79.4Y-91.24
X79.64Y-30.0
X79.64Y-45.24
X81.4Y-154.5
X81.4Y-169.74
X81.75Y-100.06
X81.75Y-107.68
X81.78Y-112.18
X81.78Y-119.8
X81.94Y-76.0
X81.94Y-91.24
X82.18Y-30.0
X82.18Y-45.24
X83.94Y-154.5
X83.94Y-169.74
X84.29Y-100.06
X84.29Y-107.68
X84.32Y-112.18
X84.32Y-119.8
X84.48Y-76.0
X84.48Y-91.24
X84.72Y-30.0
X84.72Y-45.24
X86.48Y-154.5
X86.48Y-169.74
X86.83Y-100.06
X86.83Y-107.68
X86.86Y-112.18
X86.86Y-119.8
X87.02Y-76.0
X87.02Y-91.24
X87.26Y-30.0
X87.26Y-45.24
X89.02Y-154.5
X89.02Y-169.74
X96.96Y-56.75
X96.96Y-64.37
X99.5Y-56.75
X99.5Y-64.37
X102.04Y-56.75
X102.04Y-64.37
X103.25Y-78.57
X103.25Y-86.19
X103.25Y-90.38
X103.25Y-98.0
X103.25Y-101.38
X103.25Y-109.0
X103.53Y-154.19
X103.53Y-161.81
X103.55Y-126.58
X103.55Y-134.2
X103.57Y-141.435
X103.57Y-149.055
X103.57Y-164.737
X103.57Y-172.357
X103.57Y-175.44
X103.57Y-183.06
X104.58Y-56.75
X104.58Y-64.37
X105.79Y-78.57
X105.79Y-86.19
X105.79Y-90.38
X105.79Y-98.0
X105.79Y-101.38
X105.79Y-109.0
X106.07Y-154.19
X106.07Y-161.81
X106.09Y-126.58
X106.09Y-134.2
X106.11Y-141.435
X106.11Y-149.055
X106.11Y-164.737
X106.11Y-172.357
X106.11Y-175.44
X106.11Y-183.06
X107.12Y-56.75
X107.12Y-64.37
X108.33Y-78.57
X108.33Y-86.19
X108.33Y-90.38
X108.33Y-98.0
X108.33Y-101.38
X108.33Y-109.0
X108.61Y-154.19
X108.61Y-161.81
X108.63Y-126.58
X108.63Y-134.2
X108.65Y-141.435
X108.65Y-149.055
X108.65Y-164.737
X108.65Y-172.357
X108.65Y-175.44
X108.65Y-183.06
X109.66Y-56.75
X109.66Y-64.37
X110.87Y-78.57
X110.87Y-86.19
X110.87Y-90.38
X110.87Y-98.0
X110.87Y-101.38
X110.87Y-109.0
X111.15Y-154.19
X111.15Y-161.81
X111.17Y-126.58
X111.17Y-134.2
X111.19Y-141.435
X111.19Y-149.055
X111.19Y-164.737
X111.19Y-172.357
X111.19Y-175.44
X111.19Y-183.06
X112.2Y-56.75
X112.2Y-64.37
X113.41Y-78.57
X113.41Y-86.19
X113.41Y-90.38
X113.41Y-98.0
X113.41Y-101.38
X113.41Y-109.0
X113.69Y-154.19
X113.69Y-161.81
X113.71Y-126.58
X113.71Y-134.2
X113.73Y-141.435
X113.73Y-149.055
X113.73Y-164.737
X113.73Y-172.357
X113.73Y-175.44
X113.73Y-183.06
X114.74Y-56.75
X114.74Y-64.37
X115.95Y-78.57
X115.95Y-86.19
X115.95Y-90.38
X115.95Y-98.0
X115.95Y-101.38
X115.95Y-109.0
X116.23Y-154.19
X116.23Y-161.81
X116.25Y-126.58
X116.25Y-134.2
X116.27Y-141.435
X116.27Y-149.055
X116.27Y-164.737
X116.27Y-172.357
X116.27Y-175.44
X116.27Y-183.06
X118.49Y-78.57
X118.49Y-86.19
X118.49Y-90.38
X118.49Y-98.0
X118.49Y-101.38
X118.49Y-109.0
X118.77Y-154.19
X118.77Y-161.81
X118.79Y-126.58
X118.79Y-134.2
X118.81Y-141.435
X118.81Y-149.055
X118.81Y-164.737
X118.81Y-172.357
X118.81Y-175.44
X118.81Y-183.06
X121.03Y-90.38
X121.03Y-98.0
X121.03Y-101.38
X121.03Y-109.0
X121.31Y-154.19
X121.31Y-161.81
X121.33Y-126.58
X121.33Y-134.2
X121.35Y-141.435
X121.35Y-149.055
X121.35Y-164.737
X121.35Y-172.357
X121.35Y-175.44
X121.35Y-183.06
X123.57Y-90.38
X123.57Y-98.0
X123.57Y-101.38
X123.57Y-109.0
X123.85Y-154.19
X123.85Y-161.81
X123.87Y-126.58
X123.87Y-134.2
X123.89Y-141.435
X123.89Y-149.055
X123.89Y-164.737
X123.89Y-172.357
X123.89Y-175.44
X123.89Y-183.06
X126.11Y-90.38
X126.11Y-98.0
X126.11Y-101.38
X126.11Y-109.0
X126.39Y-154.19
X126.39Y-161.81
X126.41Y-126.58
X126.41Y-134.2
X126.43Y-141.435
X126.43Y-149.055
X126.43Y-164.737
X126.43Y-172.357
X126.43Y-175.44
X126.43Y-183.06
X132.895Y-95.64
X132.895Y-110.88
X133.0Y-123.01
X133.0Y-138.25
X133.17Y-72.63
X133.17Y-80.25
X133.19Y-83.885
X133.19Y-91.505
X135.435Y-95.64
X135.435Y-110.88
X135.54Y-123.01
X135.54Y-138.25
X135.71Y-72.63
X135.71Y-80.25
X135.73Y-83.885
X135.73Y-91.505
X137.975Y-95.64
X137.975Y-110.88
X138.08Y-123.01
X138.08Y-138.25
X138.25Y-72.63
X138.25Y-80.25
X138.27Y-83.885
X138.27Y-91.505
X140.515Y-95.64
X140.515Y-110.88
X140.62Y-123.01
X140.62Y-138.25
X140.68Y-151.44
X140.68Y-159.06
X140.68Y-163.44
X140.68Y-171.06
X140.7Y-176.03
X140.7Y-183.65
X140.79Y-72.63
X140.79Y-80.25
X140.81Y-83.885
X140.81Y-91.505
X143.055Y-95.64
X143.055Y-110.88
X143.15Y-240.0
X143.15Y-255.24
X143.16Y-123.01
X143.16Y-138.25
X143.17Y-218.75
X143.17Y-233.99
X143.22Y-151.44
X143.22Y-159.06
X143.22Y-163.44
X143.22Y-171.06
X143.24Y-176.03
X143.24Y-183.65
X143.33Y-72.63
X143.33Y-80.25
X143.35Y-83.885
X143.35Y-91.505
X145.595Y-95.64
X145.595Y-110.88
X145.69Y-240.0
X145.69Y-255.24
X145.7Y-123.01
X145.7Y-138.25
X145.71Y-218.75
X145.71Y-233.99
X145.76Y-151.44
X145.76Y-159.06
X145.76Y-163.44
X145.76Y-171.06
X145.78Y-176.03
X145.78Y-183.65
X145.87Y-72.63
X145.87Y-80.25
X145.89Y-83.885
X145.89Y-91.505
X148.135Y-95.64
X148.135Y-110.88
X148.23Y-240.0
X148.23Y-255.24
X148.24Y-123.01
X148.24Y-138.25
X148.25Y-218.75
X148.25Y-233.99
X148.3Y-151.44
X148.3Y-159.06
X148.3Y-163.44
X148.3Y-171.06
X148.32Y-176.03
X148.32Y-183.65
X148.41Y-72.63
X148.41Y-80.25
X148.43Y-83.885
X148.43Y-91.505
X150.675Y-95.64
X150.675Y-110.88
X150.77Y-240.0
X150.77Y-255.24
X150.78Y-123.01
X150.78Y-138.25
X150.79Y-218.75
X150.79Y-233.99
X150.84Y-151.44
X150.84Y-159.06
X150.84Y-163.44
X150.84Y-171.06
X150.86Y-176.03
X150.86Y-183.65
X150.95Y-72.63
X150.95Y-80.25
X153.215Y-95.64
X153.215Y-110.88
X153.31Y-240.0
X153.31Y-255.24
X153.32Y-123.01
X153.32Y-138.25
X153.33Y-218.75
X153.33Y-233.99
X153.38Y-151.44
X153.38Y-159.06
X153.38Y-163.44
X153.38Y-171.06
X153.4Y-176.03
X153.4Y-183.65
X155.755Y-95.64
X155.755Y-110.88
X155.85Y-240.0
X155.85Y-255.24
X155.86Y-123.01
X155.86Y-138.25
X155.87Y-218.75
X155.87Y-233.99
X155.92Y-151.44
X155.92Y-159.06
X155.92Y-163.44
X155.92Y-171.06
X155.94Y-176.03
X155.94Y-183.65
X158.295Y-95.64
X158.295Y-110.88
X158.39Y-240.0
X158.39Y-255.24
X158.4Y-123.01
X158.4Y-138.25
X158.41Y-218.75
X158.41Y-233.99
X158.46Y-151.44
X158.46Y-159.06
X158.46Y-163.44
X158.46Y-171.06
X158.48Y-176.03
X158.48Y-183.65
X160.835Y-95.64
X160.835Y-110.88
X160.93Y-240.0
X160.93Y-255.24
X160.94Y-123.01
X160.94Y-138.25
X160.95Y-218.75
X160.95Y-233.99
X161.0Y-151.44
X161.0Y-159.06
X161.0Y-163.44
X161.0Y-171.06
X161.02Y-176.03
X161.02Y-183.65
X163.375Y-95.64
X163.375Y-110.88
X163.47Y-240.0
X163.47Y-255.24
X163.48Y-123.01
X163.48Y-138.25
X163.49Y-218.75
X163.49Y-233.99
X163.54Y-151.44
X163.54Y-159.06
X163.54Y-163.44
X163.54Y-171.06
X163.56Y-176.03
X163.56Y-183.65
X165.915Y-95.64
X165.915Y-110.88
X166.01Y-240.0
X166.01Y-255.24
X166.02Y-123.01
X166.02Y-138.25
X166.03Y-218.75
X166.03Y-233.99
X168.455Y-95.64
X168.455Y-110.88
X168.55Y-240.0
X168.55Y-255.24
X168.56Y-123.01
X168.56Y-138.25
X168.57Y-218.75
X168.57Y-233.99
X170.06Y-148.03
X170.06Y-152.91
X170.995Y-95.64
X170.995Y-110.88
X171.09Y-240.0
X171.09Y-255.24
X171.1Y-123.01
X171.1Y-138.25
X171.11Y-218.75
X171.11Y-233.99
X173.535Y-95.64
X173.535Y-110.88
X173.63Y-240.0
X173.63Y-255.24
X173.64Y-123.01
X173.64Y-138.25
X173.65Y-218.75
X173.65Y-233.99
X174.47Y-151.255
X174.47Y-158.875
X176.075Y-95.64
X176.075Y-110.88
X176.17Y-240.0
X176.17Y-255.24
X176.18Y-123.01
X176.18Y-138.25
X176.19Y-218.75
X176.19Y-233.99
X177.01Y-151.255
X177.01Y-158.875
X178.615Y-95.64
X178.615Y-110.88
X178.71Y-240.0
X178.71Y-255.24
X178.72Y-123.01
X178.72Y-138.25
X178.73Y-218.75
X178.73Y-233.99
X179.55Y-151.255
X179.55Y-158.875
X181.155Y-95.64
X181.155Y-110.88
X181.25Y-240.0
X181.25Y-255.24
X181.26Y-123.01
X181.26Y-138.25
X181.27Y-218.75
X181.27Y-233.99
X182.09Y-151.255
X182.09Y-158.875
X183.56Y-39.25
X183.56Y-46.87
X184.63Y-151.255
X184.63Y-158.875
X186.1Y-39.25
X186.1Y-46.87
X187.17Y-151.255
X187.17Y-158.875
X188.64Y-39.25
X188.64Y-46.87
X189.71Y-151.255
X189.71Y-158.875
X191.18Y-39.25
X191.18Y-46.87
X192.25Y-123.01
X192.25Y-138.25
X192.25Y-151.255
X192.25Y-158.875
X192.27Y-95.64
X192.27Y-110.88
X193.72Y-39.25
X193.72Y-46.87
X194.79Y-123.01
X194.79Y-138.25
X194.79Y-151.255
X194.79Y-158.875
X194.81Y-95.64
X194.81Y-110.88
X196.26Y-39.25
X196.26Y-46.87
X196.94Y-244.28
X196.94Y-251.9
X197.33Y-123.01
X197.33Y-138.25
X197.35Y-95.64
X197.35Y-110.88
X198.73Y-229.275
X198.73Y-236.895
X198.8Y-39.25
X198.8Y-46.87
X199.48Y-244.28
X199.48Y-251.9
X199.87Y-123.01
X199.87Y-138.25
X199.89Y-95.64
X199.89Y-110.88
X200.77Y-214.15
X200.77Y-221.77
X201.27Y-229.275
X201.27Y-236.895
X202.02Y-244.28
X202.02Y-251.9
X202.41Y-123.01
X202.41Y-138.25
X202.43Y-95.64
X202.43Y-110.88
X202.91Y-148.885
X202.91Y-156.505
X203.31Y-214.15
X203.31Y-221.77
X203.81Y-229.275
X203.81Y-236.895
X204.56Y-244.28
X204.56Y-251.9
X204.95Y-123.01
X204.95Y-138.25
X204.97Y-95.64
X204.97Y-110.88
X205.45Y-148.885
X205.45Y-156.505
X205.85Y-214.15
X205.85Y-221.77
X206.35Y-229.275
X206.35Y-236.895
X207.1Y-244.28
X207.1Y-251.9
X207.49Y-123.01
X207.49Y-138.25
X207.51Y-95.64
X207.51Y-110.88
X207.99Y-148.885
X207.99Y-156.505
X208.39Y-214.15
X208.39Y-221.77
X208.89Y-229.275
X208.89Y-236.895
X209.64Y-244.28
X209.64Y-251.9
X210.03Y-123.01
X210.03Y-138.25
X210.05Y-95.64
X210.05Y-110.88
X210.32Y-173.44
X210.32Y-181.06
X210.53Y-148.885
X210.53Y-156.505
X210.93Y-214.15
X210.93Y-221.77
X211.13Y-44.73
X211.13Y-52.35
X211.13Y-55.8
X211.13Y-63.42
X211.13Y-66.55
X211.13Y-74.17
X211.37Y-33.35
X211.37Y-40.97
X211.43Y-229.275
X211.43Y-236.895
X212.18Y-244.28
X212.18Y-251.9
X212.57Y-123.01
X212.57Y-138.25
X212.59Y-95.64
X212.59Y-110.88
X212.86Y-173.44
X212.86Y-181.06
X213.07Y-148.885
X213.07Y-156.505
X213.47Y-214.15
X213.47Y-221.77
X213.67Y-44.73
X213.67Y-52.35
X213.67Y-55.8
X213.67Y-63.42
X213.67Y-66.55
X213.67Y-74.17
X213.91Y-33.35
X213.91Y-40.97
X213.97Y-229.275
X213.97Y-236.895
X214.72Y-244.28
X214.72Y-251.9
X215.11Y-123.01
X215.11Y-138.25
X215.13Y-95.64
X215.13Y-110.88
X215.4Y-173.44
X215.4Y-181.06
X215.61Y-148.885
X215.61Y-156.505
X216.01Y-214.15
X216.01Y-221.77
X216.21Y-44.73
X216.21Y-52.35
X216.21Y-55.8
X216.21Y-63.42
X216.21Y-66.55
X216.21Y-74.17
X216.45Y-33.35
X216.45Y-40.97
X216.51Y-229.275
X216.51Y-236.895
X217.26Y-244.28
X217.26Y-251.9
X217.65Y-123.01
X217.65Y-138.25
X217.67Y-95.64
X217.67Y-110.88
X217.94Y-173.44
X217.94Y-181.06
X218.15Y-148.885
X218.15Y-156.505
X218.55Y-214.15
X218.55Y-221.77
X218.75Y-44.73
X218.75Y-52.35
X218.75Y-55.8
X218.75Y-63.42
X218.75Y-66.55
X218.75Y-74.17
X218.99Y-33.35
X218.99Y-40.97
X219.05Y-229.275
X219.05Y-236.895
X219.8Y-244.28
X219.8Y-251.9
X220.19Y-123.01
X220.19Y-138.25
X220.21Y-95.64
X220.21Y-110.88
X220.48Y-173.44
X220.48Y-181.06
X220.69Y-148.885
X220.69Y-156.505
X221.29Y-44.73
X221.29Y-52.35
X221.29Y-55.8
X221.29Y-63.42
X221.29Y-66.55
X221.29Y-74.17
X221.53Y-33.35
X221.53Y-40.97
X221.59Y-229.275
X221.59Y-236.895
X222.73Y-123.01
X222.73Y-138.25
X222.75Y-95.64
X222.75Y-110.88
X223.02Y-173.44
X223.02Y-181.06
X223.83Y-44.73
X223.83Y-52.35
X223.83Y-55.8
X223.83Y-63.42
X223.83Y-66.55
X223.83Y-74.17
X224.07Y-33.35
X224.07Y-40.97
X225.27Y-123.01
X225.27Y-138.25
X225.29Y-95.64
X225.29Y-110.88
X225.56Y-173.44
X225.56Y-181.06
X226.37Y-44.73
X226.37Y-52.35
X226.37Y-55.8
X226.37Y-63.42
X226.37Y-66.55
X226.37Y-74.17
X226.61Y-33.35
X226.61Y-40.97
X227.81Y-123.01
X227.81Y-138.25
X228.1Y-173.44
X228.1Y-181.06
X228.91Y-55.8
X228.91Y-63.42
X230.35Y-123.01
X230.35Y-138.25
X230.64Y-173.44
X230.64Y-181.06
X232.89Y-123.01
X232.89Y-138.25
X233.18Y-173.44
X233.18Y-181.06
X235.43Y-123.01
X235.43Y-138.25
X237.06Y-147.56
X237.06Y-155.18
X237.14Y-158.0
X237.14Y-165.62
X237.97Y-123.01
X237.97Y-138.25
X239.6Y-147.56
X239.6Y-155.18
X239.68Y-158.0
X239.68Y-165.62
X240.51Y-123.01
X240.51Y-138.25
X242.14Y-147.56
X242.14Y-155.18
X242.22Y-158.0
X242.22Y-165.62
X244.68Y-147.56
X244.68Y-155.18
X244.76Y-158.0
X244.76Y-165.62
X247.22Y-147.56
X247.22Y-155.18
X247.3Y-158.0
X247.3Y-165.62
X248.49Y-107.375
X248.49Y-114.995
X248.9Y-96.66
X248.9Y-104.28
X249.14Y-118.25
X249.14Y-125.87
X249.76Y-147.56
X249.76Y-155.18
X249.84Y-158.0
X249.84Y-165.62
X250.59Y-191.275
X250.59Y-198.895
X250.85Y-203.03
X250.85Y-210.65
X251.03Y-107.375
X251.03Y-114.995
X251.44Y-96.66
X251.44Y-104.28
X251.68Y-118.25
X251.68Y-125.87
X252.3Y-147.56
X252.3Y-155.18
X252.38Y-158.0
X252.38Y-165.62
X253.13Y-191.275
X253.13Y-198.895
X253.39Y-203.03
X253.39Y-210.65
X253.57Y-107.375
X253.57Y-114.995
X253.98Y-96.66
X253.98Y-104.28
X254.22Y-118.25
X254.22Y-125.87
X254.84Y-147.56
X254.84Y-155.18
X255.67Y-191.275
X255.67Y-198.895
X255.93Y-203.03
X255.93Y-210.65
X256.11Y-107.375
X256.11Y-114.995
X256.52Y-96.66
X256.52Y-104.28
X256.76Y-118.25
X256.76Y-125.87
X258.21Y-191.275
X258.21Y-198.895
X258.47Y-203.03
X258.47Y-210.65
X258.65Y-107.375
X258.65Y-114.995
X259.06Y-96.66
X259.06Y-104.28
X259.3Y-118.25
X259.3Y-125.87
X260.75Y-191.275
X260.75Y-198.895
X261.01Y-203.03
X261.01Y-210.65
X261.19Y-107.375
X261.19Y-114.995
X261.6Y-96.66
X261.6Y-104.28
X261.84Y-118.25
X261.84Y-125.87
X263.29Y-191.275
X263.29Y-198.895
X263.55Y-203.03
X263.55Y-210.65
X263.73Y-107.375
X263.73Y-114.995
X264.14Y-96.66
X264.14Y-104.28
X264.38Y-118.25
X264.38Y-125.87
X265.83Y-191.275
X265.83Y-198.895
X266.09Y-203.03
X266.09Y-210.65
T5
X212.197Y-192.45
X214.737Y-192.45
T6
X28.0Y-23.0
X28.0Y-25.54
X28.0Y-28.08
X28.0Y-30.62
X28.0Y-33.16
X28.0Y-35.7
X28.0Y-38.24
X28.0Y-40.78
X28.0Y-43.32
X28.0Y-45.86
X28.0Y-48.4
X28.0Y-50.94
X28.0Y-53.48
X28.0Y-56.02
X30.54Y-23.0
X30.54Y-25.54
X30.54Y-28.08
X30.54Y-30.62
X30.54Y-33.16
X30.54Y-35.7
X30.54Y-38.24
X30.54Y-40.78
X30.54Y-43.32
X30.54Y-45.86
X30.54Y-48.4
X30.54Y-50.94
X30.54Y-53.48
X30.54Y-56.02
X39.45Y-117.05
X39.45Y-121.55
X45.95Y-117.05
X45.95Y-121.55
X86.862Y-18.35
X86.862Y-23.35
X143.22Y-195.25
X143.22Y-210.49
X145.76Y-195.25
X145.76Y-210.49
X148.3Y-195.25
X148.3Y-210.49
X150.84Y-195.25
X150.84Y-210.49
X153.38Y-195.25
X153.38Y-210.49
X155.92Y-195.25
X155.92Y-210.49
X158.46Y-195.25
X158.46Y-210.49
X161.0Y-195.25
X161.0Y-210.49
X163.54Y-195.25
X163.54Y-210.49
X166.08Y-195.25
X166.08Y-210.49
X168.62Y-195.25
X168.62Y-210.49
X171.16Y-195.25
X171.16Y-210.49
X173.7Y-195.25
X173.7Y-210.49
X176.24Y-195.25
X176.24Y-210.49
X178.78Y-195.25
X178.78Y-210.49
X181.32Y-195.25
X181.32Y-210.49
X240.85Y-30.36
X240.85Y-32.9
X241.0Y-20.46
X241.0Y-23.0
T7
X27.76Y-99.0
X27.76Y-101.77
X27.76Y-104.54
X27.76Y-107.31
X30.6Y-97.615
X30.6Y-100.385
X30.6Y-103.155
X30.6Y-105.925
X30.6Y-108.695
X79.2Y-57.0
X86.8Y-57.0
T8
X251.0Y-20.46
X251.0Y-23.0
X251.0Y-25.54
T9
X49.4Y-189.478
X49.4Y-194.33
X49.4Y-210.098
X49.4Y-214.95
X49.4Y-230.718
X49.4Y-235.57
X49.4Y-251.338
X49.4Y-256.19
X51.94Y-189.478
X51.94Y-194.33
X51.94Y-210.098
X51.94Y-214.95
X51.94Y-230.718
X51.94Y-235.57
X51.94Y-251.338
X51.94Y-256.19
X54.48Y-189.478
X54.48Y-194.33
X54.48Y-210.098
X54.48Y-214.95
X54.48Y-230.718
X54.48Y-235.57
X54.48Y-251.338
X54.48Y-256.19
X57.02Y-189.478
X57.02Y-194.33
X57.02Y-210.098
X57.02Y-214.95
X57.02Y-230.718
X57.02Y-235.57
X57.02Y-251.338
X57.02Y-256.19
X59.56Y-189.478
X59.56Y-194.33
X59.56Y-210.098
X59.56Y-214.95
X59.56Y-230.718
X59.56Y-235.57
X59.56Y-251.338
X59.56Y-256.19
X62.1Y-189.478
X62.1Y-194.33
X62.1Y-210.098
X62.1Y-214.95
X62.1Y-230.718
X62.1Y-235.57
X62.1Y-251.338
X62.1Y-256.19
X64.64Y-189.478
X64.64Y-194.33
X64.64Y-210.098
X64.64Y-214.95
X64.64Y-230.718
X64.64Y-235.57
X64.64Y-251.338
X64.64Y-256.19
X67.18Y-189.478
X67.18Y-194.33
X67.18Y-210.098
X67.18Y-214.95
X67.18Y-230.718
X67.18Y-235.57
X67.18Y-251.338
X67.18Y-256.19
X69.72Y-189.478
X69.72Y-194.33
X69.72Y-210.098
X69.72Y-214.95
X69.72Y-230.718
X69.72Y-235.57
X69.72Y-251.338
X69.72Y-256.19
X72.26Y-189.478
X72.26Y-194.33
X72.26Y-210.098
X72.26Y-214.95
X72.26Y-230.718
X72.26Y-235.57
X72.26Y-251.338
X72.26Y-256.19
X74.8Y-189.478
X74.8Y-194.33
X74.8Y-210.098
X74.8Y-214.95
X74.8Y-230.718
X74.8Y-235.57
X74.8Y-251.338
X74.8Y-256.19
X77.34Y-189.478
X77.34Y-194.33
X77.34Y-210.098
X77.34Y-214.95
X77.34Y-230.718
X77.34Y-235.57
X77.34Y-251.338
X77.34Y-256.19
X79.88Y-189.478
X79.88Y-194.33
X79.88Y-210.098
X79.88Y-214.95
X79.88Y-230.718
X79.88Y-235.57
X79.88Y-251.338
X79.88Y-256.19
X82.42Y-189.478
X82.42Y-194.33
X82.42Y-210.098
X82.42Y-214.95
X82.42Y-230.718
X82.42Y-235.57
X82.42Y-251.338
X82.42Y-256.19
X84.96Y-189.478
X84.96Y-194.33
X84.96Y-210.098
X84.96Y-214.95
X84.96Y-230.718
X84.96Y-235.57
X84.96Y-251.338
X84.96Y-256.19
X87.5Y-189.478
X87.5Y-194.33
X87.5Y-210.098
X87.5Y-214.95
X87.5Y-230.718
X87.5Y-235.57
X87.5Y-251.338
X87.5Y-256.19
X90.04Y-189.478
X90.04Y-194.33
X90.04Y-210.098
X90.04Y-214.95
X90.04Y-230.718
X90.04Y-235.57
X90.04Y-251.338
X90.04Y-256.19
X92.58Y-189.478
X92.58Y-194.33
X92.58Y-210.098
X92.58Y-214.95
X92.58Y-230.718
X92.58Y-235.57
X92.58Y-251.338
X92.58Y-256.19
X95.12Y-189.478
X95.12Y-194.33
X95.12Y-210.098
X95.12Y-214.95
X95.12Y-230.718
X95.12Y-235.57
X95.12Y-251.338
X95.12Y-256.19
X97.66Y-189.478
X97.66Y-194.33
X97.66Y-210.098
X97.66Y-214.95
X97.66Y-230.718
X97.66Y-235.57
X97.66Y-251.338
X97.66Y-256.19
X100.2Y-189.478
X100.2Y-194.33
X100.2Y-210.098
X100.2Y-214.95
X100.2Y-230.718
X100.2Y-235.57
X100.2Y-251.338
X100.2Y-256.19
X102.74Y-189.478
X102.74Y-194.33
X102.74Y-210.098
X102.74Y-214.95
X102.74Y-230.718
X102.74Y-235.57
X102.74Y-251.338
X102.74Y-256.19
X105.28Y-189.478
X105.28Y-194.33
X105.28Y-210.098
X105.28Y-214.95
X105.28Y-230.718
X105.28Y-235.57
X105.28Y-251.338
X105.28Y-256.19
X107.82Y-189.478
X107.82Y-194.33
X107.82Y-210.098
X107.82Y-214.95
X107.82Y-230.718
X107.82Y-235.57
X107.82Y-251.338
X107.82Y-256.19
X110.36Y-189.478
X110.36Y-194.33
X110.36Y-210.098
X110.36Y-214.95
X110.36Y-230.718
X110.36Y-235.57
X110.36Y-251.338
X110.36Y-256.19
X112.9Y-189.478
X112.9Y-194.33
X112.9Y-210.098
X112.9Y-214.95
X112.9Y-230.718
X112.9Y-235.57
X112.9Y-251.338
X112.9Y-256.19
X115.44Y-189.478
X115.44Y-194.33
X115.44Y-210.098
X115.44Y-214.95
X115.44Y-230.718
X115.44Y-235.57
X115.44Y-251.338
X115.44Y-256.19
X117.98Y-189.478
X117.98Y-194.33
X117.98Y-210.098
X117.98Y-214.95
X117.98Y-230.718
X117.98Y-235.57
X117.98Y-251.338
X117.98Y-256.19
X120.52Y-189.478
X120.52Y-194.33
X120.52Y-210.098
X120.52Y-214.95
X120.52Y-230.718
X120.52Y-235.57
X120.52Y-251.338
X120.52Y-256.19
X123.06Y-189.478
X123.06Y-194.33
X123.06Y-210.098
X123.06Y-214.95
X123.06Y-230.718
X123.06Y-235.57
X123.06Y-251.338
X123.06Y-256.19
X125.6Y-189.478
X125.6Y-194.33
X125.6Y-210.098
X125.6Y-214.95
X125.6Y-230.718
X125.6Y-235.57
X125.6Y-251.338
X125.6Y-256.19
T10
X31.55Y-134.1
X31.55Y-136.2
X31.55Y-138.8
X31.55Y-140.9
X34.05Y-134.1
X34.05Y-140.9
X38.55Y-134.1
X38.55Y-136.2
X38.55Y-138.8
X38.55Y-140.9
X41.05Y-134.1
X41.05Y-140.9
T11
X101.89Y-19.75
X104.43Y-19.75
X106.97Y-19.75
X109.51Y-19.75
X112.05Y-19.75
X114.59Y-19.75
X117.13Y-19.75
X119.67Y-19.75
X122.21Y-19.75
X124.75Y-19.75
X127.29Y-19.75
X129.83Y-19.75
X132.37Y-19.75
X134.91Y-19.75
X137.45Y-19.75
X139.99Y-19.75
T12
X89.862Y-20.85
T13
X255.0Y-37.0
X255.0Y-41.2
X255.0Y-45.4
X255.0Y-49.6
X255.0Y-53.8
X255.0Y-58.0
X255.0Y-62.2
X255.0Y-66.4
X255.0Y-70.6
X255.0Y-74.8
X255.0Y-79.0
X255.0Y-83.2
X260.5Y-37.0
X260.5Y-41.2
X260.5Y-45.4
X260.5Y-49.6
X260.5Y-53.8
X260.5Y-58.0
X260.5Y-62.2
X260.5Y-66.4
X260.5Y-70.6
X260.5Y-74.8
X260.5Y-79.0
X260.5Y-83.2
T14
X27.75Y-137.5
X28.55Y-130.75
X28.55Y-144.25
X38.55Y-130.75
X38.55Y-144.25
T15
X96.391Y-19.75
X96.391Y-50.751
X171.389Y-50.751
X171.39Y-19.75
T16
X29.18Y-90.66
X29.18Y-115.65
M30
