%TF.GenerationSoftware,KiCad,Pcbnew,10.0.4*%
%TF.CreationDate,2026-06-30T00:08:09-07:00*%
%TF.ProjectId,retroslop,72657472-6f73-46c6-9f70-2e6b69636164,rev?*%
%TF.SameCoordinates,Original*%
%TF.FileFunction,Soldermask,Top*%
%TF.FilePolarity,Negative*%
%FSLAX46Y46*%
G04 Gerber Fmt 4.6, Leading zero omitted, Abs format (unit mm)*
G04 Created by KiCad (PCBNEW 10.0.4) date 2026-06-30 00:08:09*
%MOMM*%
%LPD*%
G01*
G04 APERTURE LIST*
G04 Aperture macros list*
%AMRoundRect*
0 Rectangle with rounded corners*
0 $1 Rounding radius*
0 $2 $3 $4 $5 $6 $7 $8 $9 X,Y pos of 4 corners*
0 Add a 4 corners polygon primitive as box body*
4,1,4,$2,$3,$4,$5,$6,$7,$8,$9,$2,$3,0*
0 Add four circle primitives for the rounded corners*
1,1,$1+$1,$2,$3*
1,1,$1+$1,$4,$5*
1,1,$1+$1,$6,$7*
1,1,$1+$1,$8,$9*
0 Add four rect primitives between the rounded corners*
20,1,$1+$1,$2,$3,$4,$5,0*
20,1,$1+$1,$4,$5,$6,$7,0*
20,1,$1+$1,$6,$7,$8,$9,0*
20,1,$1+$1,$8,$9,$2,$3,0*%
G04 Aperture macros list end*
%ADD10C,1.600000*%
%ADD11RoundRect,0.250000X0.550000X-0.550000X0.550000X0.550000X-0.550000X0.550000X-0.550000X-0.550000X0*%
%ADD12C,1.500000*%
%ADD13C,1.950000*%
%ADD14R,1.500000X1.500000*%
%ADD15RoundRect,0.250000X-0.412500X-1.100000X0.412500X-1.100000X0.412500X1.100000X-0.412500X1.100000X0*%
%ADD16RoundRect,0.250000X0.412500X1.100000X-0.412500X1.100000X-0.412500X-1.100000X0.412500X-1.100000X0*%
%ADD17C,3.000000*%
%ADD18R,1.800000X2.600000*%
%ADD19O,1.800000X2.600000*%
%ADD20R,1.650000X1.650000*%
%ADD21C,1.650000*%
%ADD22C,3.450000*%
%ADD23RoundRect,0.250000X-0.400000X-0.625000X0.400000X-0.625000X0.400000X0.625000X-0.400000X0.625000X0*%
%ADD24R,1.700000X1.700000*%
%ADD25C,1.700000*%
%ADD26C,1.550000*%
%ADD27C,5.000000*%
%ADD28RoundRect,0.250000X-0.550000X0.550000X-0.550000X-0.550000X0.550000X-0.550000X0.550000X0.550000X0*%
%ADD29C,4.000000*%
%ADD30R,0.900000X1.400000*%
%ADD31R,1.130000X1.130000*%
%ADD32C,1.130000*%
%ADD33R,1.800000X1.800000*%
%ADD34C,1.800000*%
%ADD35R,1.500000X1.050000*%
%ADD36O,1.500000X1.050000*%
%ADD37R,1.440000X2.000000*%
%ADD38O,1.440000X2.000000*%
%ADD39R,1.638000X1.638000*%
%ADD40C,1.638000*%
%ADD41R,1.750000X1.750000*%
%ADD42C,1.750000*%
%ADD43R,1.635000X1.635000*%
%ADD44C,1.635000*%
G04 APERTURE END LIST*
D10*
%TO.C,U30*%
X202910000Y-148885000D03*
X205450000Y-148885000D03*
X207990000Y-148885000D03*
X210530000Y-148885000D03*
X213070000Y-148885000D03*
X215610000Y-148885000D03*
X218150000Y-148885000D03*
X220690000Y-148885000D03*
X220690000Y-156505000D03*
X218150000Y-156505000D03*
X215610000Y-156505000D03*
X213070000Y-156505000D03*
X210530000Y-156505000D03*
X207990000Y-156505000D03*
X205450000Y-156505000D03*
D11*
X202910000Y-156505000D03*
%TD*%
D10*
%TO.C,U28*%
X53550000Y-172180000D03*
X56090000Y-172180000D03*
X58630000Y-172180000D03*
X61170000Y-172180000D03*
X63710000Y-172180000D03*
X66250000Y-172180000D03*
X68790000Y-172180000D03*
X71330000Y-172180000D03*
X73870000Y-172180000D03*
X76410000Y-172180000D03*
X76410000Y-179800000D03*
X73870000Y-179800000D03*
X71330000Y-179800000D03*
X68790000Y-179800000D03*
X66250000Y-179800000D03*
X63710000Y-179800000D03*
X61170000Y-179800000D03*
X58630000Y-179800000D03*
X56090000Y-179800000D03*
D11*
X53550000Y-179800000D03*
%TD*%
D10*
%TO.C,U41*%
X96960000Y-56750000D03*
X99500000Y-56750000D03*
X102040000Y-56750000D03*
X104580000Y-56750000D03*
X107120000Y-56750000D03*
X109660000Y-56750000D03*
X112200000Y-56750000D03*
X114740000Y-56750000D03*
X114740000Y-64370000D03*
X112200000Y-64370000D03*
X109660000Y-64370000D03*
X107120000Y-64370000D03*
X104580000Y-64370000D03*
X102040000Y-64370000D03*
X99500000Y-64370000D03*
D11*
X96960000Y-64370000D03*
%TD*%
D12*
%TO.C,VR1*%
X86862500Y-23350000D03*
D13*
X89862500Y-20850000D03*
D14*
X86862500Y-18350000D03*
%TD*%
D15*
%TO.C,C98*%
X64387500Y-220400000D03*
X67512500Y-220400000D03*
%TD*%
%TO.C,C97*%
X69625000Y-220450000D03*
X72750000Y-220450000D03*
%TD*%
%TO.C,C96*%
X64125000Y-241200000D03*
X67250000Y-241200000D03*
%TD*%
%TO.C,C88*%
X121775000Y-220600000D03*
X124900000Y-220600000D03*
%TD*%
%TO.C,C87*%
X121325000Y-241200000D03*
X124450000Y-241200000D03*
%TD*%
%TO.C,C92*%
X72762500Y-241250000D03*
X69637500Y-241250000D03*
%TD*%
D16*
%TO.C,C29*%
X226575000Y-242700000D03*
X229700000Y-242700000D03*
%TD*%
D12*
%TO.C,S2*%
X45950000Y-121550000D03*
X39450000Y-121550000D03*
X45950000Y-117050000D03*
D14*
X39450000Y-117050000D03*
%TD*%
D17*
%TO.C,DS2*%
X96390900Y-19750000D03*
X96390900Y-50750700D03*
X171389480Y-50750700D03*
X171390000Y-19750000D03*
D18*
X101890000Y-19750000D03*
D19*
X104430000Y-19750000D03*
X106970000Y-19750000D03*
X109510000Y-19750000D03*
X112050000Y-19750000D03*
X114590000Y-19750000D03*
X117130000Y-19750000D03*
X119670000Y-19750000D03*
X122210000Y-19750000D03*
X124750000Y-19750000D03*
X127290000Y-19750000D03*
X129830000Y-19750000D03*
X132370000Y-19750000D03*
X134910000Y-19750000D03*
X137450000Y-19750000D03*
X139990000Y-19750000D03*
%TD*%
D10*
%TO.C,U16*%
X192270000Y-95640000D03*
X194810000Y-95640000D03*
X197350000Y-95640000D03*
X199890000Y-95640000D03*
X202430000Y-95640000D03*
X204970000Y-95640000D03*
X207510000Y-95640000D03*
X210050000Y-95640000D03*
X212590000Y-95640000D03*
X215130000Y-95640000D03*
X217670000Y-95640000D03*
X220210000Y-95640000D03*
X222750000Y-95640000D03*
X225290000Y-95640000D03*
X225290000Y-110880000D03*
X222750000Y-110880000D03*
X220210000Y-110880000D03*
X217670000Y-110880000D03*
X215130000Y-110880000D03*
X212590000Y-110880000D03*
X210050000Y-110880000D03*
X207510000Y-110880000D03*
X204970000Y-110880000D03*
X202430000Y-110880000D03*
X199890000Y-110880000D03*
X197350000Y-110880000D03*
X194810000Y-110880000D03*
D11*
X192270000Y-110880000D03*
%TD*%
D20*
%TO.C,J10*%
X31550000Y-138800000D03*
D21*
X31550000Y-136200000D03*
X31550000Y-140900000D03*
X31550000Y-134100000D03*
X34050000Y-140900000D03*
X34050000Y-134100000D03*
X38550000Y-138800000D03*
X38550000Y-136200000D03*
X38550000Y-140900000D03*
X38550000Y-134100000D03*
X41050000Y-140900000D03*
X41050000Y-134100000D03*
D22*
X27750000Y-137500000D03*
X28550000Y-144250000D03*
X28550000Y-130750000D03*
X38550000Y-144250000D03*
X38550000Y-130750000D03*
%TD*%
D23*
%TO.C,R31*%
X241437500Y-194370000D03*
X244537500Y-194370000D03*
%TD*%
D24*
%TO.C,J7*%
X30540000Y-23000000D03*
D25*
X28000000Y-23000000D03*
X30540000Y-25540000D03*
X28000000Y-25540000D03*
X30540000Y-28080000D03*
X28000000Y-28080000D03*
X30540000Y-30620000D03*
X28000000Y-30620000D03*
X30540000Y-33160000D03*
X28000000Y-33160000D03*
X30540000Y-35700000D03*
X28000000Y-35700000D03*
X30540000Y-38240000D03*
X28000000Y-38240000D03*
X30540000Y-40780000D03*
X28000000Y-40780000D03*
X30540000Y-43320000D03*
X28000000Y-43320000D03*
X30540000Y-45860000D03*
X28000000Y-45860000D03*
X30540000Y-48400000D03*
X28000000Y-48400000D03*
X30540000Y-50940000D03*
X28000000Y-50940000D03*
X30540000Y-53480000D03*
X28000000Y-53480000D03*
X30540000Y-56020000D03*
X28000000Y-56020000D03*
%TD*%
D11*
%TO.C,U56*%
X103570000Y-149055000D03*
D10*
X106110000Y-149055000D03*
X108650000Y-149055000D03*
X111190000Y-149055000D03*
X113730000Y-149055000D03*
X116270000Y-149055000D03*
X118810000Y-149055000D03*
X121350000Y-149055000D03*
X123890000Y-149055000D03*
X126430000Y-149055000D03*
X126430000Y-141435000D03*
X123890000Y-141435000D03*
X121350000Y-141435000D03*
X118810000Y-141435000D03*
X116270000Y-141435000D03*
X113730000Y-141435000D03*
X111190000Y-141435000D03*
X108650000Y-141435000D03*
X106110000Y-141435000D03*
X103570000Y-141435000D03*
%TD*%
D11*
%TO.C,U32*%
X211130000Y-63420000D03*
D10*
X213670000Y-63420000D03*
X216210000Y-63420000D03*
X218750000Y-63420000D03*
X221290000Y-63420000D03*
X223830000Y-63420000D03*
X226370000Y-63420000D03*
X228910000Y-63420000D03*
X228910000Y-55800000D03*
X226370000Y-55800000D03*
X223830000Y-55800000D03*
X221290000Y-55800000D03*
X218750000Y-55800000D03*
X216210000Y-55800000D03*
X213670000Y-55800000D03*
X211130000Y-55800000D03*
%TD*%
D11*
%TO.C,U35*%
X196940000Y-251900000D03*
D10*
X199480000Y-251900000D03*
X202020000Y-251900000D03*
X204560000Y-251900000D03*
X207100000Y-251900000D03*
X209640000Y-251900000D03*
X212180000Y-251900000D03*
X214720000Y-251900000D03*
X217260000Y-251900000D03*
X219800000Y-251900000D03*
X219800000Y-244280000D03*
X217260000Y-244280000D03*
X214720000Y-244280000D03*
X212180000Y-244280000D03*
X209640000Y-244280000D03*
X207100000Y-244280000D03*
X204560000Y-244280000D03*
X202020000Y-244280000D03*
X199480000Y-244280000D03*
X196940000Y-244280000D03*
%TD*%
D11*
%TO.C,U9*%
X140700000Y-183650000D03*
D10*
X143240000Y-183650000D03*
X145780000Y-183650000D03*
X148320000Y-183650000D03*
X150860000Y-183650000D03*
X153400000Y-183650000D03*
X155940000Y-183650000D03*
X158480000Y-183650000D03*
X161020000Y-183650000D03*
X163560000Y-183650000D03*
X163560000Y-176030000D03*
X161020000Y-176030000D03*
X158480000Y-176030000D03*
X155940000Y-176030000D03*
X153400000Y-176030000D03*
X150860000Y-176030000D03*
X148320000Y-176030000D03*
X145780000Y-176030000D03*
X143240000Y-176030000D03*
X140700000Y-176030000D03*
%TD*%
D26*
%TO.C,J5*%
X30600000Y-97615000D03*
X30600000Y-100385000D03*
X30600000Y-103155000D03*
X30600000Y-105925000D03*
X30600000Y-108695000D03*
X27760000Y-99000000D03*
X27760000Y-101770000D03*
X27760000Y-104540000D03*
X27760000Y-107310000D03*
D27*
X29180000Y-90660000D03*
X29180000Y-115650000D03*
%TD*%
D11*
%TO.C,U11*%
X40760000Y-169740000D03*
D10*
X43300000Y-169740000D03*
X45840000Y-169740000D03*
X48380000Y-169740000D03*
X50920000Y-169740000D03*
X53460000Y-169740000D03*
X56000000Y-169740000D03*
X58540000Y-169740000D03*
X61080000Y-169740000D03*
X63620000Y-169740000D03*
X66160000Y-169740000D03*
X68700000Y-169740000D03*
X71240000Y-169740000D03*
X73780000Y-169740000D03*
X76320000Y-169740000D03*
X78860000Y-169740000D03*
X81400000Y-169740000D03*
X83940000Y-169740000D03*
X86480000Y-169740000D03*
X89020000Y-169740000D03*
X89020000Y-154500000D03*
X86480000Y-154500000D03*
X83940000Y-154500000D03*
X81400000Y-154500000D03*
X78860000Y-154500000D03*
X76320000Y-154500000D03*
X73780000Y-154500000D03*
X71240000Y-154500000D03*
X68700000Y-154500000D03*
X66160000Y-154500000D03*
X63620000Y-154500000D03*
X61080000Y-154500000D03*
X58540000Y-154500000D03*
X56000000Y-154500000D03*
X53460000Y-154500000D03*
X50920000Y-154500000D03*
X48380000Y-154500000D03*
X45840000Y-154500000D03*
X43300000Y-154500000D03*
X40760000Y-154500000D03*
%TD*%
D28*
%TO.C,U7*%
X181270000Y-218750000D03*
D10*
X178730000Y-218750000D03*
X176190000Y-218750000D03*
X173650000Y-218750000D03*
X171110000Y-218750000D03*
X168570000Y-218750000D03*
X166030000Y-218750000D03*
X163490000Y-218750000D03*
X160950000Y-218750000D03*
X158410000Y-218750000D03*
X155870000Y-218750000D03*
X153330000Y-218750000D03*
X150790000Y-218750000D03*
X148250000Y-218750000D03*
X145710000Y-218750000D03*
X143170000Y-218750000D03*
X143170000Y-233990000D03*
X145710000Y-233990000D03*
X148250000Y-233990000D03*
X150790000Y-233990000D03*
X153330000Y-233990000D03*
X155870000Y-233990000D03*
X158410000Y-233990000D03*
X160950000Y-233990000D03*
X163490000Y-233990000D03*
X166030000Y-233990000D03*
X168570000Y-233990000D03*
X171110000Y-233990000D03*
X173650000Y-233990000D03*
X176190000Y-233990000D03*
X178730000Y-233990000D03*
X181270000Y-233990000D03*
%TD*%
D23*
%TO.C,R18*%
X241437500Y-187750000D03*
X244537500Y-187750000D03*
%TD*%
D11*
%TO.C,U48*%
X210320000Y-181060000D03*
D10*
X212860000Y-181060000D03*
X215400000Y-181060000D03*
X217940000Y-181060000D03*
X220480000Y-181060000D03*
X223020000Y-181060000D03*
X225560000Y-181060000D03*
X228100000Y-181060000D03*
X230640000Y-181060000D03*
X233180000Y-181060000D03*
X233180000Y-173440000D03*
X230640000Y-173440000D03*
X228100000Y-173440000D03*
X225560000Y-173440000D03*
X223020000Y-173440000D03*
X220480000Y-173440000D03*
X217940000Y-173440000D03*
X215400000Y-173440000D03*
X212860000Y-173440000D03*
X210320000Y-173440000D03*
%TD*%
D29*
%TO.C,H5*%
X189100000Y-22510000D03*
%TD*%
%TO.C,H2*%
X189100000Y-225710000D03*
%TD*%
D11*
%TO.C,U2*%
X211130000Y-52350000D03*
D10*
X213670000Y-52350000D03*
X216210000Y-52350000D03*
X218750000Y-52350000D03*
X221290000Y-52350000D03*
X223830000Y-52350000D03*
X226370000Y-52350000D03*
X226370000Y-44730000D03*
X223830000Y-44730000D03*
X221290000Y-44730000D03*
X218750000Y-44730000D03*
X216210000Y-44730000D03*
X213670000Y-44730000D03*
X211130000Y-44730000D03*
%TD*%
D11*
%TO.C,U15*%
X132895000Y-110880000D03*
D10*
X135435000Y-110880000D03*
X137975000Y-110880000D03*
X140515000Y-110880000D03*
X143055000Y-110880000D03*
X145595000Y-110880000D03*
X148135000Y-110880000D03*
X150675000Y-110880000D03*
X153215000Y-110880000D03*
X155755000Y-110880000D03*
X158295000Y-110880000D03*
X160835000Y-110880000D03*
X163375000Y-110880000D03*
X165915000Y-110880000D03*
X168455000Y-110880000D03*
X170995000Y-110880000D03*
X173535000Y-110880000D03*
X176075000Y-110880000D03*
X178615000Y-110880000D03*
X181155000Y-110880000D03*
X181155000Y-95640000D03*
X178615000Y-95640000D03*
X176075000Y-95640000D03*
X173535000Y-95640000D03*
X170995000Y-95640000D03*
X168455000Y-95640000D03*
X165915000Y-95640000D03*
X163375000Y-95640000D03*
X160835000Y-95640000D03*
X158295000Y-95640000D03*
X155755000Y-95640000D03*
X153215000Y-95640000D03*
X150675000Y-95640000D03*
X148135000Y-95640000D03*
X145595000Y-95640000D03*
X143055000Y-95640000D03*
X140515000Y-95640000D03*
X137975000Y-95640000D03*
X135435000Y-95640000D03*
X132895000Y-95640000D03*
%TD*%
D16*
%TO.C,C63*%
X266412500Y-254900000D03*
X263287500Y-254900000D03*
%TD*%
D24*
%TO.C,J12*%
X240850000Y-32900000D03*
D25*
X240850000Y-30360000D03*
%TD*%
D11*
%TO.C,U46*%
X55580000Y-151605000D03*
D10*
X58120000Y-151605000D03*
X60660000Y-151605000D03*
X63200000Y-151605000D03*
X65740000Y-151605000D03*
X68280000Y-151605000D03*
X70820000Y-151605000D03*
X70820000Y-143985000D03*
X68280000Y-143985000D03*
X65740000Y-143985000D03*
X63200000Y-143985000D03*
X60660000Y-143985000D03*
X58120000Y-143985000D03*
X55580000Y-143985000D03*
%TD*%
D15*
%TO.C,C55*%
X225712500Y-235800000D03*
X228837500Y-235800000D03*
%TD*%
%TO.C,C42*%
X225712500Y-218800000D03*
X228837500Y-218800000D03*
%TD*%
D11*
%TO.C,U6*%
X237060000Y-155180000D03*
D10*
X239600000Y-155180000D03*
X242140000Y-155180000D03*
X244680000Y-155180000D03*
X247220000Y-155180000D03*
X249760000Y-155180000D03*
X252300000Y-155180000D03*
X254840000Y-155180000D03*
X254840000Y-147560000D03*
X252300000Y-147560000D03*
X249760000Y-147560000D03*
X247220000Y-147560000D03*
X244680000Y-147560000D03*
X242140000Y-147560000D03*
X239600000Y-147560000D03*
X237060000Y-147560000D03*
%TD*%
D29*
%TO.C,H1*%
X34160000Y-173640000D03*
%TD*%
%TO.C,H8*%
X189100000Y-246030000D03*
%TD*%
D15*
%TO.C,C62*%
X226425000Y-251850000D03*
X229550000Y-251850000D03*
%TD*%
D11*
%TO.C,U29*%
X249140000Y-125870000D03*
D10*
X251680000Y-125870000D03*
X254220000Y-125870000D03*
X256760000Y-125870000D03*
X259300000Y-125870000D03*
X261840000Y-125870000D03*
X264380000Y-125870000D03*
X264380000Y-118250000D03*
X261840000Y-118250000D03*
X259300000Y-118250000D03*
X256760000Y-118250000D03*
X254220000Y-118250000D03*
X251680000Y-118250000D03*
X249140000Y-118250000D03*
%TD*%
D11*
%TO.C,U34*%
X250850000Y-210650000D03*
D10*
X253390000Y-210650000D03*
X255930000Y-210650000D03*
X258470000Y-210650000D03*
X261010000Y-210650000D03*
X263550000Y-210650000D03*
X266090000Y-210650000D03*
X266090000Y-203030000D03*
X263550000Y-203030000D03*
X261010000Y-203030000D03*
X258470000Y-203030000D03*
X255930000Y-203030000D03*
X253390000Y-203030000D03*
X250850000Y-203030000D03*
%TD*%
D29*
%TO.C,H6*%
X57020000Y-22510000D03*
%TD*%
D15*
%TO.C,C79*%
X232225000Y-247800000D03*
X235350000Y-247800000D03*
%TD*%
D23*
%TO.C,R39*%
X232587500Y-220700000D03*
X235687500Y-220700000D03*
%TD*%
D15*
%TO.C,C76*%
X232225000Y-235050000D03*
X235350000Y-235050000D03*
%TD*%
D23*
%TO.C,R36*%
X217942500Y-192450000D03*
X221042500Y-192450000D03*
%TD*%
D30*
%TO.C,C14*%
X174360000Y-147470000D03*
X178260000Y-147470000D03*
%TD*%
D11*
%TO.C,U37*%
X248900000Y-104280000D03*
D10*
X251440000Y-104280000D03*
X253980000Y-104280000D03*
X256520000Y-104280000D03*
X259060000Y-104280000D03*
X261600000Y-104280000D03*
X264140000Y-104280000D03*
X264140000Y-96660000D03*
X261600000Y-96660000D03*
X259060000Y-96660000D03*
X256520000Y-96660000D03*
X253980000Y-96660000D03*
X251440000Y-96660000D03*
X248900000Y-96660000D03*
%TD*%
D11*
%TO.C,U47*%
X63970000Y-107680000D03*
D10*
X66510000Y-107680000D03*
X69050000Y-107680000D03*
X71590000Y-107680000D03*
X74130000Y-107680000D03*
X76670000Y-107680000D03*
X79210000Y-107680000D03*
X81750000Y-107680000D03*
X84290000Y-107680000D03*
X86830000Y-107680000D03*
X86830000Y-100060000D03*
X84290000Y-100060000D03*
X81750000Y-100060000D03*
X79210000Y-100060000D03*
X76670000Y-100060000D03*
X74130000Y-100060000D03*
X71590000Y-100060000D03*
X69050000Y-100060000D03*
X66510000Y-100060000D03*
X63970000Y-100060000D03*
%TD*%
D15*
%TO.C,C80*%
X232225000Y-252050000D03*
X235350000Y-252050000D03*
%TD*%
%TO.C,C45*%
X225712500Y-231550000D03*
X228837500Y-231550000D03*
%TD*%
D11*
%TO.C,U27*%
X140680000Y-159060000D03*
D10*
X143220000Y-159060000D03*
X145760000Y-159060000D03*
X148300000Y-159060000D03*
X150840000Y-159060000D03*
X153380000Y-159060000D03*
X155920000Y-159060000D03*
X158460000Y-159060000D03*
X161000000Y-159060000D03*
X163540000Y-159060000D03*
X163540000Y-151440000D03*
X161000000Y-151440000D03*
X158460000Y-151440000D03*
X155920000Y-151440000D03*
X153380000Y-151440000D03*
X150840000Y-151440000D03*
X148300000Y-151440000D03*
X145760000Y-151440000D03*
X143220000Y-151440000D03*
X140680000Y-151440000D03*
%TD*%
D11*
%TO.C,U36*%
X200770000Y-221770000D03*
D10*
X203310000Y-221770000D03*
X205850000Y-221770000D03*
X208390000Y-221770000D03*
X210930000Y-221770000D03*
X213470000Y-221770000D03*
X216010000Y-221770000D03*
X218550000Y-221770000D03*
X218550000Y-214150000D03*
X216010000Y-214150000D03*
X213470000Y-214150000D03*
X210930000Y-214150000D03*
X208390000Y-214150000D03*
X205850000Y-214150000D03*
X203310000Y-214150000D03*
X200770000Y-214150000D03*
%TD*%
D15*
%TO.C,C43*%
X225712500Y-223050000D03*
X228837500Y-223050000D03*
%TD*%
D11*
%TO.C,U21*%
X140680000Y-171060000D03*
D10*
X143220000Y-171060000D03*
X145760000Y-171060000D03*
X148300000Y-171060000D03*
X150840000Y-171060000D03*
X153380000Y-171060000D03*
X155920000Y-171060000D03*
X158460000Y-171060000D03*
X161000000Y-171060000D03*
X163540000Y-171060000D03*
X163540000Y-163440000D03*
X161000000Y-163440000D03*
X158460000Y-163440000D03*
X155920000Y-163440000D03*
X153380000Y-163440000D03*
X150840000Y-163440000D03*
X148300000Y-163440000D03*
X145760000Y-163440000D03*
X143220000Y-163440000D03*
X140680000Y-163440000D03*
%TD*%
D11*
%TO.C,U22*%
X248490000Y-114995000D03*
D10*
X251030000Y-114995000D03*
X253570000Y-114995000D03*
X256110000Y-114995000D03*
X258650000Y-114995000D03*
X261190000Y-114995000D03*
X263730000Y-114995000D03*
X263730000Y-107375000D03*
X261190000Y-107375000D03*
X258650000Y-107375000D03*
X256110000Y-107375000D03*
X253570000Y-107375000D03*
X251030000Y-107375000D03*
X248490000Y-107375000D03*
%TD*%
D15*
%TO.C,C77*%
X232225000Y-239300000D03*
X235350000Y-239300000D03*
%TD*%
D11*
%TO.C,U4*%
X183560000Y-46870000D03*
D10*
X186100000Y-46870000D03*
X188640000Y-46870000D03*
X191180000Y-46870000D03*
X193720000Y-46870000D03*
X196260000Y-46870000D03*
X198800000Y-46870000D03*
X198800000Y-39250000D03*
X196260000Y-39250000D03*
X193720000Y-39250000D03*
X191180000Y-39250000D03*
X188640000Y-39250000D03*
X186100000Y-39250000D03*
X183560000Y-39250000D03*
%TD*%
D11*
%TO.C,D1*%
X72810000Y-58320000D03*
D10*
X72810000Y-50700000D03*
%TD*%
D31*
%TO.C,IC1*%
X55830000Y-140246000D03*
D32*
X58370000Y-140246000D03*
X60910000Y-140246000D03*
X63450000Y-140246000D03*
X65990000Y-140246000D03*
X68530000Y-140246000D03*
X71070000Y-140246000D03*
X73610000Y-140246000D03*
X76150000Y-140246000D03*
X78690000Y-140246000D03*
X81230000Y-140246000D03*
X83770000Y-140246000D03*
X83770000Y-124750000D03*
X81230000Y-124750000D03*
X78690000Y-124750000D03*
X76150000Y-124750000D03*
X73610000Y-124750000D03*
X71070000Y-124750000D03*
X68530000Y-124750000D03*
X65990000Y-124750000D03*
X63450000Y-124750000D03*
X60910000Y-124750000D03*
X58370000Y-124750000D03*
X55830000Y-124750000D03*
%TD*%
D11*
%TO.C,U5*%
X133170000Y-80250000D03*
D10*
X135710000Y-80250000D03*
X138250000Y-80250000D03*
X140790000Y-80250000D03*
X143330000Y-80250000D03*
X145870000Y-80250000D03*
X148410000Y-80250000D03*
X150950000Y-80250000D03*
X150950000Y-72630000D03*
X148410000Y-72630000D03*
X145870000Y-72630000D03*
X143330000Y-72630000D03*
X140790000Y-72630000D03*
X138250000Y-72630000D03*
X135710000Y-72630000D03*
X133170000Y-72630000D03*
%TD*%
D29*
%TO.C,H7*%
X34160000Y-225710000D03*
%TD*%
D33*
%TO.C,D2*%
X212197500Y-192450000D03*
D34*
X214737500Y-192450000D03*
%TD*%
D29*
%TO.C,H4*%
X189100000Y-179990000D03*
%TD*%
D35*
%TO.C,Q1*%
X72670000Y-66280000D03*
D36*
X72670000Y-65010000D03*
X72670000Y-63740000D03*
%TD*%
D29*
%TO.C,H9*%
X261490000Y-22510000D03*
%TD*%
D15*
%TO.C,C61*%
X226425000Y-247600000D03*
X229550000Y-247600000D03*
%TD*%
D11*
%TO.C,U19*%
X103570000Y-172357500D03*
D10*
X106110000Y-172357500D03*
X108650000Y-172357500D03*
X111190000Y-172357500D03*
X113730000Y-172357500D03*
X116270000Y-172357500D03*
X118810000Y-172357500D03*
X121350000Y-172357500D03*
X123890000Y-172357500D03*
X126430000Y-172357500D03*
X126430000Y-164737500D03*
X123890000Y-164737500D03*
X121350000Y-164737500D03*
X118810000Y-164737500D03*
X116270000Y-164737500D03*
X113730000Y-164737500D03*
X111190000Y-164737500D03*
X108650000Y-164737500D03*
X106110000Y-164737500D03*
X103570000Y-164737500D03*
%TD*%
D37*
%TO.C,U26*%
X181320000Y-195250000D03*
D38*
X178780000Y-195250000D03*
X176240000Y-195250000D03*
X173700000Y-195250000D03*
X171160000Y-195250000D03*
X168620000Y-195250000D03*
X166080000Y-195250000D03*
X163540000Y-195250000D03*
X161000000Y-195250000D03*
X158460000Y-195250000D03*
X155920000Y-195250000D03*
X153380000Y-195250000D03*
X150840000Y-195250000D03*
X148300000Y-195250000D03*
X145760000Y-195250000D03*
X143220000Y-195250000D03*
X143220000Y-210490000D03*
X145760000Y-210490000D03*
X148300000Y-210490000D03*
X150840000Y-210490000D03*
X153380000Y-210490000D03*
X155920000Y-210490000D03*
X158460000Y-210490000D03*
X161000000Y-210490000D03*
X163540000Y-210490000D03*
X166080000Y-210490000D03*
X168620000Y-210490000D03*
X171160000Y-210490000D03*
X173700000Y-210490000D03*
X176240000Y-210490000D03*
X178780000Y-210490000D03*
X181320000Y-210490000D03*
%TD*%
D11*
%TO.C,U40*%
X39000000Y-45240000D03*
D10*
X41540000Y-45240000D03*
X44080000Y-45240000D03*
X46620000Y-45240000D03*
X49160000Y-45240000D03*
X51700000Y-45240000D03*
X54240000Y-45240000D03*
X56780000Y-45240000D03*
X59320000Y-45240000D03*
X61860000Y-45240000D03*
X64400000Y-45240000D03*
X66940000Y-45240000D03*
X69480000Y-45240000D03*
X72020000Y-45240000D03*
X74560000Y-45240000D03*
X77100000Y-45240000D03*
X79640000Y-45240000D03*
X82180000Y-45240000D03*
X84720000Y-45240000D03*
X87260000Y-45240000D03*
X87260000Y-30000000D03*
X84720000Y-30000000D03*
X82180000Y-30000000D03*
X79640000Y-30000000D03*
X77100000Y-30000000D03*
X74560000Y-30000000D03*
X72020000Y-30000000D03*
X69480000Y-30000000D03*
X66940000Y-30000000D03*
X64400000Y-30000000D03*
X61860000Y-30000000D03*
X59320000Y-30000000D03*
X56780000Y-30000000D03*
X54240000Y-30000000D03*
X51700000Y-30000000D03*
X49160000Y-30000000D03*
X46620000Y-30000000D03*
X44080000Y-30000000D03*
X41540000Y-30000000D03*
X39000000Y-30000000D03*
%TD*%
D11*
%TO.C,U23*%
X103550000Y-134200000D03*
D10*
X106090000Y-134200000D03*
X108630000Y-134200000D03*
X111170000Y-134200000D03*
X113710000Y-134200000D03*
X116250000Y-134200000D03*
X118790000Y-134200000D03*
X121330000Y-134200000D03*
X123870000Y-134200000D03*
X126410000Y-134200000D03*
X126410000Y-126580000D03*
X123870000Y-126580000D03*
X121330000Y-126580000D03*
X118790000Y-126580000D03*
X116250000Y-126580000D03*
X113710000Y-126580000D03*
X111170000Y-126580000D03*
X108630000Y-126580000D03*
X106090000Y-126580000D03*
X103550000Y-126580000D03*
%TD*%
D11*
%TO.C,U3*%
X211130000Y-74170000D03*
D10*
X213670000Y-74170000D03*
X216210000Y-74170000D03*
X218750000Y-74170000D03*
X221290000Y-74170000D03*
X223830000Y-74170000D03*
X226370000Y-74170000D03*
X226370000Y-66550000D03*
X223830000Y-66550000D03*
X221290000Y-66550000D03*
X218750000Y-66550000D03*
X216210000Y-66550000D03*
X213670000Y-66550000D03*
X211130000Y-66550000D03*
%TD*%
D28*
%TO.C,U12*%
X181250000Y-240000000D03*
D10*
X178710000Y-240000000D03*
X176170000Y-240000000D03*
X173630000Y-240000000D03*
X171090000Y-240000000D03*
X168550000Y-240000000D03*
X166010000Y-240000000D03*
X163470000Y-240000000D03*
X160930000Y-240000000D03*
X158390000Y-240000000D03*
X155850000Y-240000000D03*
X153310000Y-240000000D03*
X150770000Y-240000000D03*
X148230000Y-240000000D03*
X145690000Y-240000000D03*
X143150000Y-240000000D03*
X143150000Y-255240000D03*
X145690000Y-255240000D03*
X148230000Y-255240000D03*
X150770000Y-255240000D03*
X153310000Y-255240000D03*
X155850000Y-255240000D03*
X158390000Y-255240000D03*
X160930000Y-255240000D03*
X163470000Y-255240000D03*
X166010000Y-255240000D03*
X168550000Y-255240000D03*
X171090000Y-255240000D03*
X173630000Y-255240000D03*
X176170000Y-255240000D03*
X178710000Y-255240000D03*
X181250000Y-255240000D03*
%TD*%
D39*
%TO.C,J2*%
X49400000Y-235570000D03*
D40*
X51940000Y-235570000D03*
X54480000Y-235570000D03*
X57020000Y-235570000D03*
X59560000Y-235570000D03*
X62100000Y-235570000D03*
X64640000Y-235570000D03*
X67180000Y-235570000D03*
X69720000Y-235570000D03*
X72260000Y-235570000D03*
X74800000Y-235570000D03*
X77340000Y-235570000D03*
X79880000Y-235570000D03*
X82420000Y-235570000D03*
X84960000Y-235570000D03*
X87500000Y-235570000D03*
X90040000Y-235570000D03*
X92580000Y-235570000D03*
X95120000Y-235570000D03*
X97660000Y-235570000D03*
X100200000Y-235570000D03*
X102740000Y-235570000D03*
X105280000Y-235570000D03*
X107820000Y-235570000D03*
X110360000Y-235570000D03*
X112900000Y-235570000D03*
X115440000Y-235570000D03*
X117980000Y-235570000D03*
X120520000Y-235570000D03*
X123060000Y-235570000D03*
X125600000Y-235570000D03*
X49400000Y-230718000D03*
X51940000Y-230718000D03*
X54480000Y-230718000D03*
X57020000Y-230718000D03*
X59560000Y-230718000D03*
X62100000Y-230718000D03*
X64640000Y-230718000D03*
X67180000Y-230718000D03*
X69720000Y-230718000D03*
X72260000Y-230718000D03*
X74800000Y-230718000D03*
X77340000Y-230718000D03*
X79880000Y-230718000D03*
X82420000Y-230718000D03*
X84960000Y-230718000D03*
X87500000Y-230718000D03*
X90040000Y-230718000D03*
X92580000Y-230718000D03*
X95120000Y-230718000D03*
X97660000Y-230718000D03*
X100200000Y-230718000D03*
X102740000Y-230718000D03*
X105280000Y-230718000D03*
X107820000Y-230718000D03*
X110360000Y-230718000D03*
X112900000Y-230718000D03*
X115440000Y-230718000D03*
X117980000Y-230718000D03*
X120520000Y-230718000D03*
X123060000Y-230718000D03*
X125600000Y-230718000D03*
%TD*%
D11*
%TO.C,U43*%
X38760000Y-107550000D03*
D10*
X41300000Y-107550000D03*
X43840000Y-107550000D03*
X46380000Y-107550000D03*
X48920000Y-107550000D03*
X51460000Y-107550000D03*
X54000000Y-107550000D03*
X56540000Y-107550000D03*
X56540000Y-99930000D03*
X54000000Y-99930000D03*
X51460000Y-99930000D03*
X48920000Y-99930000D03*
X46380000Y-99930000D03*
X43840000Y-99930000D03*
X41300000Y-99930000D03*
X38760000Y-99930000D03*
%TD*%
D11*
%TO.C,U14*%
X133000000Y-138250000D03*
D10*
X135540000Y-138250000D03*
X138080000Y-138250000D03*
X140620000Y-138250000D03*
X143160000Y-138250000D03*
X145700000Y-138250000D03*
X148240000Y-138250000D03*
X150780000Y-138250000D03*
X153320000Y-138250000D03*
X155860000Y-138250000D03*
X158400000Y-138250000D03*
X160940000Y-138250000D03*
X163480000Y-138250000D03*
X166020000Y-138250000D03*
X168560000Y-138250000D03*
X171100000Y-138250000D03*
X173640000Y-138250000D03*
X176180000Y-138250000D03*
X178720000Y-138250000D03*
X181260000Y-138250000D03*
X181260000Y-123010000D03*
X178720000Y-123010000D03*
X176180000Y-123010000D03*
X173640000Y-123010000D03*
X171100000Y-123010000D03*
X168560000Y-123010000D03*
X166020000Y-123010000D03*
X163480000Y-123010000D03*
X160940000Y-123010000D03*
X158400000Y-123010000D03*
X155860000Y-123010000D03*
X153320000Y-123010000D03*
X150780000Y-123010000D03*
X148240000Y-123010000D03*
X145700000Y-123010000D03*
X143160000Y-123010000D03*
X140620000Y-123010000D03*
X138080000Y-123010000D03*
X135540000Y-123010000D03*
X133000000Y-123010000D03*
%TD*%
D11*
%TO.C,U31*%
X198730000Y-236895000D03*
D10*
X201270000Y-236895000D03*
X203810000Y-236895000D03*
X206350000Y-236895000D03*
X208890000Y-236895000D03*
X211430000Y-236895000D03*
X213970000Y-236895000D03*
X216510000Y-236895000D03*
X219050000Y-236895000D03*
X221590000Y-236895000D03*
X221590000Y-229275000D03*
X219050000Y-229275000D03*
X216510000Y-229275000D03*
X213970000Y-229275000D03*
X211430000Y-229275000D03*
X208890000Y-229275000D03*
X206350000Y-229275000D03*
X203810000Y-229275000D03*
X201270000Y-229275000D03*
X198730000Y-229275000D03*
%TD*%
D11*
%TO.C,U33*%
X39000000Y-66240000D03*
D10*
X41540000Y-66240000D03*
X44080000Y-66240000D03*
X46620000Y-66240000D03*
X49160000Y-66240000D03*
X51700000Y-66240000D03*
X54240000Y-66240000D03*
X56780000Y-66240000D03*
X59320000Y-66240000D03*
X61860000Y-66240000D03*
X64400000Y-66240000D03*
X66940000Y-66240000D03*
X66940000Y-51000000D03*
X64400000Y-51000000D03*
X61860000Y-51000000D03*
X59320000Y-51000000D03*
X56780000Y-51000000D03*
X54240000Y-51000000D03*
X51700000Y-51000000D03*
X49160000Y-51000000D03*
X46620000Y-51000000D03*
X44080000Y-51000000D03*
X41540000Y-51000000D03*
X39000000Y-51000000D03*
%TD*%
D11*
%TO.C,U54*%
X103250000Y-109000000D03*
D10*
X105790000Y-109000000D03*
X108330000Y-109000000D03*
X110870000Y-109000000D03*
X113410000Y-109000000D03*
X115950000Y-109000000D03*
X118490000Y-109000000D03*
X121030000Y-109000000D03*
X123570000Y-109000000D03*
X126110000Y-109000000D03*
X126110000Y-101380000D03*
X123570000Y-101380000D03*
X121030000Y-101380000D03*
X118490000Y-101380000D03*
X115950000Y-101380000D03*
X113410000Y-101380000D03*
X110870000Y-101380000D03*
X108330000Y-101380000D03*
X105790000Y-101380000D03*
X103250000Y-101380000D03*
%TD*%
D39*
%TO.C,J4*%
X49400000Y-194330000D03*
D40*
X51940000Y-194330000D03*
X54480000Y-194330000D03*
X57020000Y-194330000D03*
X59560000Y-194330000D03*
X62100000Y-194330000D03*
X64640000Y-194330000D03*
X67180000Y-194330000D03*
X69720000Y-194330000D03*
X72260000Y-194330000D03*
X74800000Y-194330000D03*
X77340000Y-194330000D03*
X79880000Y-194330000D03*
X82420000Y-194330000D03*
X84960000Y-194330000D03*
X87500000Y-194330000D03*
X90040000Y-194330000D03*
X92580000Y-194330000D03*
X95120000Y-194330000D03*
X97660000Y-194330000D03*
X100200000Y-194330000D03*
X102740000Y-194330000D03*
X105280000Y-194330000D03*
X107820000Y-194330000D03*
X110360000Y-194330000D03*
X112900000Y-194330000D03*
X115440000Y-194330000D03*
X117980000Y-194330000D03*
X120520000Y-194330000D03*
X123060000Y-194330000D03*
X125600000Y-194330000D03*
X49400000Y-189478000D03*
X51940000Y-189478000D03*
X54480000Y-189478000D03*
X57020000Y-189478000D03*
X59560000Y-189478000D03*
X62100000Y-189478000D03*
X64640000Y-189478000D03*
X67180000Y-189478000D03*
X69720000Y-189478000D03*
X72260000Y-189478000D03*
X74800000Y-189478000D03*
X77340000Y-189478000D03*
X79880000Y-189478000D03*
X82420000Y-189478000D03*
X84960000Y-189478000D03*
X87500000Y-189478000D03*
X90040000Y-189478000D03*
X92580000Y-189478000D03*
X95120000Y-189478000D03*
X97660000Y-189478000D03*
X100200000Y-189478000D03*
X102740000Y-189478000D03*
X105280000Y-189478000D03*
X107820000Y-189478000D03*
X110360000Y-189478000D03*
X112900000Y-189478000D03*
X115440000Y-189478000D03*
X117980000Y-189478000D03*
X120520000Y-189478000D03*
X123060000Y-189478000D03*
X125600000Y-189478000D03*
%TD*%
D11*
%TO.C,U24*%
X133190000Y-91505000D03*
D10*
X135730000Y-91505000D03*
X138270000Y-91505000D03*
X140810000Y-91505000D03*
X143350000Y-91505000D03*
X145890000Y-91505000D03*
X148430000Y-91505000D03*
X148430000Y-83885000D03*
X145890000Y-83885000D03*
X143350000Y-83885000D03*
X140810000Y-83885000D03*
X138270000Y-83885000D03*
X135730000Y-83885000D03*
X133190000Y-83885000D03*
%TD*%
D41*
%TO.C,J8*%
X260500000Y-37000000D03*
D42*
X260500000Y-41200000D03*
X260500000Y-45400000D03*
X260500000Y-49600000D03*
X260500000Y-53800000D03*
X260500000Y-58000000D03*
X260500000Y-62200000D03*
X260500000Y-66400000D03*
X260500000Y-70600000D03*
X260500000Y-74800000D03*
X260500000Y-79000000D03*
X260500000Y-83200000D03*
X255000000Y-37000000D03*
X255000000Y-41200000D03*
X255000000Y-45400000D03*
X255000000Y-49600000D03*
X255000000Y-53800000D03*
X255000000Y-58000000D03*
X255000000Y-62200000D03*
X255000000Y-66400000D03*
X255000000Y-70600000D03*
X255000000Y-74800000D03*
X255000000Y-79000000D03*
X255000000Y-83200000D03*
%TD*%
D23*
%TO.C,R40*%
X232587500Y-224010000D03*
X235687500Y-224010000D03*
%TD*%
%TO.C,R38*%
X232587500Y-217390000D03*
X235687500Y-217390000D03*
%TD*%
D11*
%TO.C,U13*%
X174470000Y-158875000D03*
D10*
X177010000Y-158875000D03*
X179550000Y-158875000D03*
X182090000Y-158875000D03*
X184630000Y-158875000D03*
X187170000Y-158875000D03*
X189710000Y-158875000D03*
X192250000Y-158875000D03*
X194790000Y-158875000D03*
X194790000Y-151255000D03*
X192250000Y-151255000D03*
X189710000Y-151255000D03*
X187170000Y-151255000D03*
X184630000Y-151255000D03*
X182090000Y-151255000D03*
X179550000Y-151255000D03*
X177010000Y-151255000D03*
X174470000Y-151255000D03*
%TD*%
D23*
%TO.C,R32*%
X240450000Y-199750000D03*
X243550000Y-199750000D03*
%TD*%
D11*
%TO.C,U10*%
X211370000Y-40970000D03*
D10*
X213910000Y-40970000D03*
X216450000Y-40970000D03*
X218990000Y-40970000D03*
X221530000Y-40970000D03*
X224070000Y-40970000D03*
X226610000Y-40970000D03*
X226610000Y-33350000D03*
X224070000Y-33350000D03*
X221530000Y-33350000D03*
X218990000Y-33350000D03*
X216450000Y-33350000D03*
X213910000Y-33350000D03*
X211370000Y-33350000D03*
%TD*%
D12*
%TO.C,Y2*%
X170060000Y-152910000D03*
X170060000Y-148030000D03*
%TD*%
D11*
%TO.C,U18*%
X103530000Y-161810000D03*
D10*
X106070000Y-161810000D03*
X108610000Y-161810000D03*
X111150000Y-161810000D03*
X113690000Y-161810000D03*
X116230000Y-161810000D03*
X118770000Y-161810000D03*
X121310000Y-161810000D03*
X123850000Y-161810000D03*
X126390000Y-161810000D03*
X126390000Y-154190000D03*
X123850000Y-154190000D03*
X121310000Y-154190000D03*
X118770000Y-154190000D03*
X116230000Y-154190000D03*
X113690000Y-154190000D03*
X111150000Y-154190000D03*
X108610000Y-154190000D03*
X106070000Y-154190000D03*
X103530000Y-154190000D03*
%TD*%
D11*
%TO.C,U1*%
X250590000Y-198895000D03*
D10*
X253130000Y-198895000D03*
X255670000Y-198895000D03*
X258210000Y-198895000D03*
X260750000Y-198895000D03*
X263290000Y-198895000D03*
X265830000Y-198895000D03*
X265830000Y-191275000D03*
X263290000Y-191275000D03*
X260750000Y-191275000D03*
X258210000Y-191275000D03*
X255670000Y-191275000D03*
X253130000Y-191275000D03*
X250590000Y-191275000D03*
%TD*%
D15*
%TO.C,C78*%
X232225000Y-243550000D03*
X235350000Y-243550000D03*
%TD*%
D11*
%TO.C,U42*%
X38760000Y-91240000D03*
D10*
X41300000Y-91240000D03*
X43840000Y-91240000D03*
X46380000Y-91240000D03*
X48920000Y-91240000D03*
X51460000Y-91240000D03*
X54000000Y-91240000D03*
X56540000Y-91240000D03*
X59080000Y-91240000D03*
X61620000Y-91240000D03*
X64160000Y-91240000D03*
X66700000Y-91240000D03*
X69240000Y-91240000D03*
X71780000Y-91240000D03*
X74320000Y-91240000D03*
X76860000Y-91240000D03*
X79400000Y-91240000D03*
X81940000Y-91240000D03*
X84480000Y-91240000D03*
X87020000Y-91240000D03*
X87020000Y-76000000D03*
X84480000Y-76000000D03*
X81940000Y-76000000D03*
X79400000Y-76000000D03*
X76860000Y-76000000D03*
X74320000Y-76000000D03*
X71780000Y-76000000D03*
X69240000Y-76000000D03*
X66700000Y-76000000D03*
X64160000Y-76000000D03*
X61620000Y-76000000D03*
X59080000Y-76000000D03*
X56540000Y-76000000D03*
X54000000Y-76000000D03*
X51460000Y-76000000D03*
X48920000Y-76000000D03*
X46380000Y-76000000D03*
X43840000Y-76000000D03*
X41300000Y-76000000D03*
X38760000Y-76000000D03*
%TD*%
D15*
%TO.C,C41*%
X225712500Y-214550000D03*
X228837500Y-214550000D03*
%TD*%
D39*
%TO.C,J1*%
X49400000Y-256190000D03*
D40*
X51940000Y-256190000D03*
X54480000Y-256190000D03*
X57020000Y-256190000D03*
X59560000Y-256190000D03*
X62100000Y-256190000D03*
X64640000Y-256190000D03*
X67180000Y-256190000D03*
X69720000Y-256190000D03*
X72260000Y-256190000D03*
X74800000Y-256190000D03*
X77340000Y-256190000D03*
X79880000Y-256190000D03*
X82420000Y-256190000D03*
X84960000Y-256190000D03*
X87500000Y-256190000D03*
X90040000Y-256190000D03*
X92580000Y-256190000D03*
X95120000Y-256190000D03*
X97660000Y-256190000D03*
X100200000Y-256190000D03*
X102740000Y-256190000D03*
X105280000Y-256190000D03*
X107820000Y-256190000D03*
X110360000Y-256190000D03*
X112900000Y-256190000D03*
X115440000Y-256190000D03*
X117980000Y-256190000D03*
X120520000Y-256190000D03*
X123060000Y-256190000D03*
X125600000Y-256190000D03*
X49400000Y-251338000D03*
X51940000Y-251338000D03*
X54480000Y-251338000D03*
X57020000Y-251338000D03*
X59560000Y-251338000D03*
X62100000Y-251338000D03*
X64640000Y-251338000D03*
X67180000Y-251338000D03*
X69720000Y-251338000D03*
X72260000Y-251338000D03*
X74800000Y-251338000D03*
X77340000Y-251338000D03*
X79880000Y-251338000D03*
X82420000Y-251338000D03*
X84960000Y-251338000D03*
X87500000Y-251338000D03*
X90040000Y-251338000D03*
X92580000Y-251338000D03*
X95120000Y-251338000D03*
X97660000Y-251338000D03*
X100200000Y-251338000D03*
X102740000Y-251338000D03*
X105280000Y-251338000D03*
X107820000Y-251338000D03*
X110360000Y-251338000D03*
X112900000Y-251338000D03*
X115440000Y-251338000D03*
X117980000Y-251338000D03*
X120520000Y-251338000D03*
X123060000Y-251338000D03*
X125600000Y-251338000D03*
%TD*%
D10*
%TO.C,LS1*%
X79200000Y-57000000D03*
X86800000Y-57000000D03*
%TD*%
D23*
%TO.C,R37*%
X232287500Y-229450000D03*
X235387500Y-229450000D03*
%TD*%
D39*
%TO.C,J3*%
X49400000Y-214950000D03*
D40*
X51940000Y-214950000D03*
X54480000Y-214950000D03*
X57020000Y-214950000D03*
X59560000Y-214950000D03*
X62100000Y-214950000D03*
X64640000Y-214950000D03*
X67180000Y-214950000D03*
X69720000Y-214950000D03*
X72260000Y-214950000D03*
X74800000Y-214950000D03*
X77340000Y-214950000D03*
X79880000Y-214950000D03*
X82420000Y-214950000D03*
X84960000Y-214950000D03*
X87500000Y-214950000D03*
X90040000Y-214950000D03*
X92580000Y-214950000D03*
X95120000Y-214950000D03*
X97660000Y-214950000D03*
X100200000Y-214950000D03*
X102740000Y-214950000D03*
X105280000Y-214950000D03*
X107820000Y-214950000D03*
X110360000Y-214950000D03*
X112900000Y-214950000D03*
X115440000Y-214950000D03*
X117980000Y-214950000D03*
X120520000Y-214950000D03*
X123060000Y-214950000D03*
X125600000Y-214950000D03*
X49400000Y-210098000D03*
X51940000Y-210098000D03*
X54480000Y-210098000D03*
X57020000Y-210098000D03*
X59560000Y-210098000D03*
X62100000Y-210098000D03*
X64640000Y-210098000D03*
X67180000Y-210098000D03*
X69720000Y-210098000D03*
X72260000Y-210098000D03*
X74800000Y-210098000D03*
X77340000Y-210098000D03*
X79880000Y-210098000D03*
X82420000Y-210098000D03*
X84960000Y-210098000D03*
X87500000Y-210098000D03*
X90040000Y-210098000D03*
X92580000Y-210098000D03*
X95120000Y-210098000D03*
X97660000Y-210098000D03*
X100200000Y-210098000D03*
X102740000Y-210098000D03*
X105280000Y-210098000D03*
X107820000Y-210098000D03*
X110360000Y-210098000D03*
X112900000Y-210098000D03*
X115440000Y-210098000D03*
X117980000Y-210098000D03*
X120520000Y-210098000D03*
X123060000Y-210098000D03*
X125600000Y-210098000D03*
%TD*%
D29*
%TO.C,H3*%
X261490000Y-179990000D03*
%TD*%
D11*
%TO.C,U20*%
X103570000Y-183060000D03*
D10*
X106110000Y-183060000D03*
X108650000Y-183060000D03*
X111190000Y-183060000D03*
X113730000Y-183060000D03*
X116270000Y-183060000D03*
X118810000Y-183060000D03*
X121350000Y-183060000D03*
X123890000Y-183060000D03*
X126430000Y-183060000D03*
X126430000Y-175440000D03*
X123890000Y-175440000D03*
X121350000Y-175440000D03*
X118810000Y-175440000D03*
X116270000Y-175440000D03*
X113730000Y-175440000D03*
X111190000Y-175440000D03*
X108650000Y-175440000D03*
X106110000Y-175440000D03*
X103570000Y-175440000D03*
%TD*%
D11*
%TO.C,U25*%
X192250000Y-138250000D03*
D10*
X194790000Y-138250000D03*
X197330000Y-138250000D03*
X199870000Y-138250000D03*
X202410000Y-138250000D03*
X204950000Y-138250000D03*
X207490000Y-138250000D03*
X210030000Y-138250000D03*
X212570000Y-138250000D03*
X215110000Y-138250000D03*
X217650000Y-138250000D03*
X220190000Y-138250000D03*
X222730000Y-138250000D03*
X225270000Y-138250000D03*
X227810000Y-138250000D03*
X230350000Y-138250000D03*
X232890000Y-138250000D03*
X235430000Y-138250000D03*
X237970000Y-138250000D03*
X240510000Y-138250000D03*
X240510000Y-123010000D03*
X237970000Y-123010000D03*
X235430000Y-123010000D03*
X232890000Y-123010000D03*
X230350000Y-123010000D03*
X227810000Y-123010000D03*
X225270000Y-123010000D03*
X222730000Y-123010000D03*
X220190000Y-123010000D03*
X217650000Y-123010000D03*
X215110000Y-123010000D03*
X212570000Y-123010000D03*
X210030000Y-123010000D03*
X207490000Y-123010000D03*
X204950000Y-123010000D03*
X202410000Y-123010000D03*
X199870000Y-123010000D03*
X197330000Y-123010000D03*
X194790000Y-123010000D03*
X192250000Y-123010000D03*
%TD*%
D24*
%TO.C,J13*%
X241000000Y-23000000D03*
D25*
X241000000Y-20460000D03*
%TD*%
D15*
%TO.C,C44*%
X225712500Y-227300000D03*
X228837500Y-227300000D03*
%TD*%
D43*
%TO.C,S1*%
X251000000Y-20460000D03*
D44*
X251000000Y-23000000D03*
X251000000Y-25540000D03*
%TD*%
D11*
%TO.C,U55*%
X103250000Y-98000000D03*
D10*
X105790000Y-98000000D03*
X108330000Y-98000000D03*
X110870000Y-98000000D03*
X113410000Y-98000000D03*
X115950000Y-98000000D03*
X118490000Y-98000000D03*
X121030000Y-98000000D03*
X123570000Y-98000000D03*
X126110000Y-98000000D03*
X126110000Y-90380000D03*
X123570000Y-90380000D03*
X121030000Y-90380000D03*
X118490000Y-90380000D03*
X115950000Y-90380000D03*
X113410000Y-90380000D03*
X110870000Y-90380000D03*
X108330000Y-90380000D03*
X105790000Y-90380000D03*
X103250000Y-90380000D03*
%TD*%
D11*
%TO.C,U17*%
X103250000Y-86190000D03*
D10*
X105790000Y-86190000D03*
X108330000Y-86190000D03*
X110870000Y-86190000D03*
X113410000Y-86190000D03*
X115950000Y-86190000D03*
X118490000Y-86190000D03*
X118490000Y-78570000D03*
X115950000Y-78570000D03*
X113410000Y-78570000D03*
X110870000Y-78570000D03*
X108330000Y-78570000D03*
X105790000Y-78570000D03*
X103250000Y-78570000D03*
%TD*%
D11*
%TO.C,U8*%
X237140000Y-165620000D03*
D10*
X239680000Y-165620000D03*
X242220000Y-165620000D03*
X244760000Y-165620000D03*
X247300000Y-165620000D03*
X249840000Y-165620000D03*
X252380000Y-165620000D03*
X252380000Y-158000000D03*
X249840000Y-158000000D03*
X247300000Y-158000000D03*
X244760000Y-158000000D03*
X242220000Y-158000000D03*
X239680000Y-158000000D03*
X237140000Y-158000000D03*
%TD*%
D11*
%TO.C,U50*%
X64000000Y-119800000D03*
D10*
X66540000Y-119800000D03*
X69080000Y-119800000D03*
X71620000Y-119800000D03*
X74160000Y-119800000D03*
X76700000Y-119800000D03*
X79240000Y-119800000D03*
X81780000Y-119800000D03*
X84320000Y-119800000D03*
X86860000Y-119800000D03*
X86860000Y-112180000D03*
X84320000Y-112180000D03*
X81780000Y-112180000D03*
X79240000Y-112180000D03*
X76700000Y-112180000D03*
X74160000Y-112180000D03*
X71620000Y-112180000D03*
X69080000Y-112180000D03*
X66540000Y-112180000D03*
X64000000Y-112180000D03*
%TD*%
M02*
