M48
; DRILL file KiCad 10.0.4 date 2026-07-10T11:33:12
; FORMAT={-:-/ absolute / metric / decimal}
; #@! TF.CreationDate,2026-07-10T11:33:12-07:00
; #@! TF.GenerationSoftware,Kicad,Pcbnew,10.0.4
; #@! TF.FileFunction,Plated,1,6,PTH
FMAT,2
METRIC
; #@! TA.AperFunction,Plated,PTH,ViaDrill
T1C0.300
; #@! TA.AperFunction,Plated,PTH,ComponentDrill
T2C0.730
; #@! TA.AperFunction,Plated,PTH,ComponentDrill
T3C0.800
; #@! TA.AperFunction,Plated,PTH,ComponentDrill
T4C0.900
; #@! TA.AperFunction,Plated,PTH,ComponentDrill
T5C1.000
; #@! TA.AperFunction,Plated,PTH,ComponentDrill
T6C1.050
; #@! TA.AperFunction,Plated,PTH,ComponentDrill
T7C1.090
; #@! TA.AperFunction,Plated,PTH,ComponentDrill
T8C1.092
; #@! TA.AperFunction,Plated,PTH,ComponentDrill
T9C1.100
; #@! TA.AperFunction,Plated,PTH,ComponentDrill
T10C1.200
; #@! TA.AperFunction,Plated,PTH,ComponentDrill
T11C1.300
; #@! TA.AperFunction,Plated,PTH,ComponentDrill
T12C1.400
; #@! TA.AperFunction,Plated,PTH,ComponentDrill
T13C2.300
; #@! TA.AperFunction,Plated,PTH,ComponentDrill
T14C2.500
; #@! TA.AperFunction,Plated,PTH,ComponentDrill
T15C3.100
%
G90
G05
T1
X25.897Y-130.022
X29.0Y-130.0
X30.525Y-142.4
X30.65Y-61.938
X31.6Y-59.662
X31.6Y-61.938
X31.8Y-200.8
X32.55Y-61.938
X32.7Y-209.7
X32.8Y-142.4
X32.8Y-143.35
X34.24Y-104.31
X34.24Y-107.435
X34.637Y-126.0
X36.2Y-105.98
X36.675Y-92.7
X36.84Y-154.4
X37.525Y-142.4
X37.6Y-63.637
X37.6Y-66.763
X37.64Y-155.2
X38.64Y-155.8
X39.09Y-109.71
X39.6Y-132.4
X39.64Y-156.6
X39.8Y-141.45
X39.8Y-142.4
X39.8Y-143.35
X39.84Y-221.51
X40.84Y-220.71
X41.84Y-216.11
X42.6Y-108.91
X42.84Y-215.31
X44.04Y-142.585
X44.04Y-145.71
X44.64Y-175.31
X45.4Y-125.0
X45.84Y-157.985
X45.84Y-161.11
X46.24Y-104.51
X46.44Y-166.71
X46.84Y-152.8
X47.44Y-170.31
X47.44Y-176.11
X47.74Y-207.31
X47.84Y-168.51
X48.84Y-104.51
X49.2Y-191.0
X49.84Y-169.31
X50.04Y-176.91
X50.32Y-206.51
X50.562Y-132.2
X51.6Y-143.6
X51.64Y-161.11
X52.115Y-55.51
X52.44Y-167.51
X52.83Y-205.71
X53.2Y-196.8
X53.4Y-124.725
X53.6Y-136.8
X53.64Y-177.71
X54.2Y-208.91
X54.4Y-160.31
X54.639Y-204.91
X55.24Y-55.51
X55.24Y-161.91
X55.4Y-197.5
X55.4Y-204.1
X55.738Y-98.197
X56.0Y-93.4
X56.0Y-96.525
X56.24Y-178.51
X56.4Y-90.362
X57.275Y-222.51
X57.315Y-242.8
X57.475Y-202.4
X57.64Y-166.71
X57.775Y-99.175
X57.84Y-63.51
X57.84Y-146.11
X58.64Y-179.31
X58.7Y-93.9
X58.715Y-251.2
X59.21Y-203.31
X59.24Y-171.91
X60.24Y-157.51
X60.34Y-62.61
X60.4Y-90.2
X61.24Y-182.71
X61.44Y-57.91
X61.44Y-73.6
X61.84Y-170.91
X61.962Y-202.472
X62.44Y-88.0
X62.84Y-61.91
X62.855Y-126.04
X63.04Y-165.91
X63.53Y-185.4
X63.84Y-201.71
X64.1Y-58.7
X64.1Y-74.6
X64.24Y-159.51
X64.24Y-165.11
X65.4Y-123.9
X65.565Y-88.0
X65.7Y-61.11
X66.2Y-166.71
X66.24Y-168.51
X66.44Y-183.6
X66.44Y-186.725
X66.6Y-59.5
X66.6Y-75.4
X67.4Y-161.91
X68.04Y-127.11
X68.04Y-171.91
X68.24Y-188.4
X68.84Y-170.91
X69.04Y-60.31
X69.04Y-76.51
X69.04Y-133.71
X69.04Y-150.91
X69.04Y-154.035
X69.04Y-186.71
X69.21Y-165.11
X69.602Y-251.2
X69.84Y-168.51
X70.44Y-59.51
X70.44Y-167.51
X70.5Y-128.8
X70.64Y-188.91
X71.0Y-224.0
X71.515Y-170.81
X71.8Y-61.11
X71.84Y-77.31
X71.84Y-137.91
X73.04Y-58.71
X73.04Y-132.2
X73.04Y-169.31
X73.04Y-185.91
X73.18Y-223.11
X73.24Y-187.71
X74.24Y-61.91
X74.24Y-78.2
X74.24Y-184.31
X74.29Y-134.6
X74.29Y-161.11
X74.6Y-221.4
X74.64Y-170.81
X75.44Y-57.91
X75.6Y-136.2
X75.64Y-183.51
X75.9Y-186.71
X76.6Y-146.01
X76.6Y-170.11
X76.64Y-147.51
X76.7Y-62.7
X76.7Y-79.2
X76.84Y-158.71
X76.88Y-182.71
X78.04Y-64.51
X78.04Y-129.91
X78.24Y-159.51
X78.24Y-208.11
X79.195Y-63.51
X79.2Y-80.2
X79.24Y-56.31
X79.44Y-179.31
X79.84Y-160.31
X80.7Y-165.91
X80.73Y-135.4
X81.8Y-143.6
X81.84Y-71.51
X83.24Y-133.0
X83.24Y-166.51
X83.338Y-185.947
X84.44Y-75.71
X84.44Y-121.51
X84.44Y-159.51
X85.64Y-83.31
X85.88Y-248.31
X86.64Y-82.51
X86.64Y-147.51
X87.04Y-170.31
X87.04Y-176.11
X87.04Y-178.51
X87.44Y-145.91
X87.64Y-81.71
X88.24Y-84.11
X88.24Y-168.4
X88.4Y-249.4
X88.975Y-33.175
X89.04Y-69.71
X89.04Y-107.31
X89.04Y-116.36
X89.33Y-142.6
X89.64Y-169.31
X89.64Y-176.4
X89.64Y-178.2
X90.0Y-140.31
X90.575Y-30.375
X90.84Y-170.71
X90.875Y-23.6
X90.96Y-228.6
X91.2Y-131.0
X91.24Y-101.4
X91.24Y-124.91
X91.275Y-33.4
X91.8Y-147.01
X92.2Y-141.6
X92.4Y-113.8
X92.44Y-38.31
X92.44Y-53.44
X92.44Y-86.51
X92.44Y-106.51
X92.75Y-245.35
X93.24Y-64.51
X93.24Y-127.91
X93.24Y-177.71
X94.0Y-23.6
X94.04Y-108.91
X94.24Y-137.11
X94.4Y-33.4
X94.84Y-80.91
X94.84Y-169.51
X95.0Y-244.0
X96.04Y-179.429
X96.24Y-153.11
X96.24Y-156.235
X96.64Y-112.11
X96.84Y-63.51
X97.44Y-84.91
X97.5Y-209.8
X97.6Y-133.8
X98.04Y-175.11
X98.04Y-188.91
X98.55Y-247.2
X98.64Y-124.91
X98.84Y-89.11
X98.84Y-137.91
X99.0Y-182.71
X99.24Y-62.71
X99.44Y-167.51
X99.677Y-170.8
X99.94Y-142.61
X100.0Y-192.0
X100.275Y-137.2
X100.522Y-153.427
X100.64Y-132.91
X101.13Y-246.2
X102.04Y-61.91
X102.04Y-161.11
X102.44Y-189.11
X102.6Y-222.2
X102.64Y-184.31
X102.802Y-170.8
X103.04Y-143.91
X103.24Y-108.11
X103.24Y-157.71
X103.4Y-137.2
X103.82Y-200.8
X104.44Y-61.11
X104.64Y-161.91
X105.1Y-223.0
X105.2Y-169.2
X105.93Y-64.42
X106.24Y-151.11
X106.6Y-166.67
X107.04Y-60.31
X107.04Y-160.31
X107.6Y-224.0
X107.64Y-182.71
X107.64Y-190.11
X107.677Y-124.6
X107.7Y-121.6
X107.8Y-144.4
X109.04Y-168.4
X109.64Y-59.51
X109.64Y-158.71
X109.84Y-151.91
X110.2Y-224.6
X110.44Y-143.6
X110.73Y-152.71
X110.8Y-121.6
X110.802Y-124.6
X111.1Y-137.1
X111.24Y-217.4
X111.6Y-166.8
X111.6Y-170.6
X112.04Y-58.71
X112.04Y-159.51
X113.4Y-159.5
X113.4Y-165.04
X113.4Y-225.6
X114.64Y-57.91
X114.8Y-42.71
X114.8Y-168.4
X116.0Y-69.84
X116.0Y-165.8
X116.04Y-154.31
X116.375Y-202.4
X116.4Y-226.4
X117.04Y-77.31
X117.44Y-211.11
X117.54Y-231.11
X117.54Y-251.31
X118.04Y-185.11
X118.44Y-74.91
X118.5Y-170.6
X118.64Y-161.11
X118.8Y-227.2
X119.5Y-202.4
X119.79Y-159.51
X119.8Y-57.11
X120.469Y-76.507
X120.565Y-211.11
X120.565Y-231.11
X120.565Y-251.31
X120.6Y-191.0
X121.23Y-158.71
X121.44Y-227.8
X122.04Y-117.71
X122.04Y-154.31
X122.44Y-160.31
X123.64Y-161.91
X124.24Y-116.1
X125.2Y-98.4
X125.24Y-189.11
X126.24Y-138.0
X126.24Y-187.11
X127.0Y-95.8
X127.04Y-190.11
X127.84Y-208.91
X128.0Y-94.6
X128.6Y-230.6
X128.64Y-137.71
X129.6Y-132.5
X130.44Y-139.0
X131.44Y-80.11
X131.6Y-152.67
X133.64Y-161.4
X134.2Y-138.2
X135.64Y-211.31
X136.12Y-236.71
X136.475Y-170.8
X137.618Y-181.3
X138.44Y-212.11
X138.6Y-244.0
X139.0Y-129.838
X139.0Y-132.963
X139.6Y-106.875
X139.6Y-110.0
X139.6Y-118.438
X139.6Y-121.562
X139.6Y-137.4
X139.6Y-140.525
X139.6Y-170.8
X139.84Y-210.51
X140.84Y-160.71
X140.906Y-212.91
X141.2Y-243.2
X141.675Y-65.8
X141.875Y-78.6
X142.22Y-145.91
X142.24Y-209.71
X143.44Y-159.91
X143.64Y-213.71
X143.8Y-242.4
X144.62Y-41.58
X144.76Y-146.71
X144.8Y-65.8
X144.84Y-208.91
X145.0Y-78.6
X145.84Y-158.31
X145.84Y-214.51
X146.0Y-169.85
X146.2Y-241.6
X146.662Y-91.6
X147.2Y-40.6
X147.24Y-147.51
X147.44Y-70.71
X147.46Y-83.31
X148.44Y-157.51
X148.64Y-215.31
X148.64Y-227.8
X148.84Y-89.11
X149.6Y-39.2
X149.762Y-91.6
X149.84Y-82.51
X149.98Y-67.51
X150.4Y-169.85
X151.04Y-156.71
X151.24Y-227.0
X151.4Y-240.8
X152.34Y-164.81
X152.585Y-68.833
X152.64Y-81.71
X153.6Y-226.2
X153.8Y-80.11
X153.84Y-190.51
X153.9Y-244.8
X154.4Y-169.11
X154.8Y-175.2
X154.8Y-178.325
X155.4Y-225.4
X155.6Y-171.11
X156.01Y-214.51
X156.24Y-64.4
X156.24Y-77.31
X156.8Y-245.6
X157.04Y-84.91
X157.24Y-207.31
X157.44Y-148.31
X157.64Y-224.6
X158.04Y-80.91
X158.55Y-213.71
X159.14Y-117.4
X159.64Y-206.51
X160.04Y-99.91
X160.08Y-247.2
X160.2Y-88.8
X160.24Y-223.8
X161.09Y-212.91
X161.24Y-80.91
X161.44Y-87.91
X162.24Y-180.6
X162.44Y-205.71
X162.6Y-94.2
X162.64Y-223.0
X162.65Y-246.4
X162.68Y-51.8
X162.7Y-49.9
X163.63Y-212.11
X164.8Y-179.8
X164.84Y-204.91
X165.0Y-48.4
X165.04Y-114.0
X165.2Y-56.31
X165.2Y-98.4
X165.24Y-222.2
X166.17Y-211.31
X166.4Y-99.2
X166.7Y-141.6
X167.2Y-204.2
X167.4Y-177.31
X167.44Y-208.11
X167.6Y-46.8
X167.64Y-97.6
X167.67Y-230.6
X168.71Y-210.51
X168.9Y-231.9
X169.84Y-172.71
X169.84Y-203.31
X170.0Y-45.4
X170.2Y-96.8
X170.4Y-240.0
X170.4Y-248.31
X171.25Y-209.71
X171.44Y-129.91
X171.675Y-65.8
X171.875Y-78.4
X172.275Y-202.475
X172.53Y-176.6
X172.6Y-29.71
X172.64Y-235.11
X172.677Y-230.51
X172.73Y-95.93
X173.64Y-235.91
X173.79Y-208.91
X174.8Y-65.8
X175.0Y-78.4
X175.04Y-201.71
X175.196Y-178.2
X175.2Y-95.2
X175.44Y-248.947
X175.44Y-252.072
X175.802Y-230.51
X176.24Y-204.51
X176.438Y-193.4
X177.2Y-186.6
X177.41Y-71.6
X177.53Y-179.0
X177.64Y-108.91
X178.45Y-96.0
X178.8Y-57.1
X179.315Y-164.51
X179.562Y-193.4
X179.8Y-71.6
X180.8Y-68.0
X181.44Y-133.51
X181.55Y-96.0
X182.44Y-57.91
X182.468Y-164.427
X183.84Y-63.51
X184.24Y-155.585
X184.24Y-158.71
X185.0Y-173.6
X185.24Y-140.51
X185.55Y-117.4
X186.64Y-139.51
X187.5Y-58.7
X187.8Y-187.4
X188.3Y-234.1
X188.84Y-62.71
X189.6Y-246.24
X189.64Y-68.71
X190.4Y-99.84
X190.4Y-232.91
X191.2Y-197.91
X191.2Y-207.95
X191.24Y-160.71
X191.6Y-88.4
X191.64Y-139.51
X192.0Y-240.0
X192.44Y-159.91
X192.6Y-59.51
X192.8Y-247.2
X193.04Y-122.985
X193.04Y-126.11
X193.64Y-148.31
X193.64Y-196.31
X193.64Y-218.2
X194.04Y-61.91
X194.09Y-99.0
X194.44Y-132.71
X194.44Y-152.71
X194.44Y-240.8
X195.04Y-158.4
X195.04Y-171.11
X195.2Y-42.7
X195.2Y-69.84
X195.24Y-255.8
X196.14Y-145.91
X196.315Y-206.71
X196.44Y-61.11
X196.44Y-195.51
X197.04Y-130.91
X197.04Y-151.11
X197.64Y-165.91
X197.8Y-232.0
X197.84Y-60.31
X198.24Y-151.91
X199.0Y-226.6
X199.4Y-87.6
X199.44Y-140.51
X199.44Y-184.51
X199.44Y-206.71
X200.2Y-221.0
X200.24Y-183.6
X200.31Y-236.71
X200.4Y-100.71
X201.04Y-184.51
X201.44Y-146.71
X201.84Y-183.51
X202.44Y-170.31
X202.64Y-112.9
X202.64Y-157.51
X202.64Y-184.51
X203.0Y-213.6
X203.64Y-183.51
X204.2Y-221.8
X204.6Y-116.31
X204.6Y-142.6
X204.64Y-184.51
X205.04Y-169.51
X205.2Y-157.0
X205.4Y-212.8
X205.8Y-139.4
X205.84Y-183.51
X206.62Y-225.78
X206.985Y-145.055
X207.09Y-126.4
X207.2Y-89.2
X207.84Y-208.91
X208.84Y-147.51
X209.2Y-90.0
X209.2Y-225.0
X209.24Y-116.31
X209.6Y-125.51
X209.84Y-176.91
X209.84Y-180.035
X210.04Y-111.8
X210.4Y-222.6
X210.8Y-137.51
X211.2Y-92.4
X212.0Y-148.81
X212.04Y-144.2
X213.04Y-143.4
X213.8Y-194.4
X214.64Y-137.11
X215.4Y-224.8
X215.7Y-187.3
X215.84Y-139.51
X217.0Y-53.6
X217.0Y-67.4
X217.6Y-36.6
X217.6Y-39.725
X217.6Y-116.8
X217.915Y-171.31
X218.6Y-73.2
X219.04Y-124.71
X219.24Y-200.91
X219.6Y-104.0
X219.6Y-107.125
X219.8Y-115.237
X219.8Y-118.362
X220.125Y-53.6
X220.125Y-67.4
X220.64Y-200.11
X220.864Y-194.4
X221.04Y-171.31
X221.64Y-108.91
X222.64Y-151.11
X222.64Y-152.71
X222.64Y-154.31
X222.84Y-109.71
X222.84Y-137.91
X222.84Y-141.11
X223.04Y-207.24
X224.8Y-132.4
X224.8Y-139.51
X225.18Y-151.85
X225.34Y-64.0
X225.4Y-80.0
X225.44Y-192.785
X225.44Y-195.91
X225.64Y-205.385
X225.64Y-208.51
X225.8Y-138.0
X226.75Y-117.0
X226.8Y-184.0
X227.2Y-77.31
X227.2Y-122.2
X227.64Y-146.31
X227.84Y-150.91
X227.9Y-55.31
X228.0Y-138.8
X228.49Y-123.91
X230.0Y-90.65
X230.44Y-56.11
X230.44Y-76.51
X231.44Y-147.11
X231.6Y-257.6
X231.64Y-78.6
X231.74Y-139.51
X232.02Y-185.2
X233.0Y-65.6
X233.0Y-147.0
X233.04Y-56.91
X233.04Y-200.91
X234.9Y-165.9
X235.44Y-57.71
X235.52Y-64.8
X236.6Y-159.2
X237.0Y-111.6
X237.2Y-240.237
X237.2Y-243.362
X237.4Y-123.8
X237.4Y-160.51
X237.84Y-58.51
X237.84Y-146.71
X238.04Y-206.91
X238.18Y-216.11
X238.24Y-200.11
X239.077Y-165.11
X239.24Y-78.4
X239.44Y-215.31
X240.2Y-131.2
X240.2Y-161.51
X240.4Y-65.6
X240.64Y-59.31
X241.0Y-101.0
X241.0Y-145.6
X241.0Y-154.51
X241.2Y-140.6
X241.8Y-146.8
X241.84Y-79.2
X241.962Y-92.6
X242.0Y-64.8
X242.0Y-100.0
X242.202Y-165.11
X243.0Y-64.0
X243.0Y-85.237
X243.0Y-88.362
X243.24Y-59.91
X243.8Y-107.71
X243.8Y-110.835
X243.8Y-146.6
X243.8Y-151.438
X243.8Y-154.562
X244.04Y-137.947
X244.04Y-141.072
X244.2Y-63.2
X244.8Y-132.0
X245.0Y-125.51
X245.2Y-191.91
X246.44Y-139.51
X247.0Y-111.2
X247.04Y-188.51
X247.6Y-129.4
X247.84Y-80.91
X248.0Y-187.6
X248.04Y-247.8
X248.055Y-195.71
X248.8Y-48.2
X249.0Y-130.0
X249.0Y-132.0
X249.04Y-162.64
X249.24Y-146.71
X249.75Y-178.2
X249.84Y-101.51
X250.1Y-119.11
X250.4Y-164.5
X250.84Y-102.31
X251.6Y-195.8
X251.84Y-138.01
X253.04Y-153.6
X253.64Y-188.51
X255.44Y-146.71
X256.44Y-108.91
X256.64Y-139.51
X257.0Y-33.837
X257.0Y-36.962
X257.0Y-42.2
X257.0Y-53.562
X257.0Y-63.237
X257.0Y-66.362
X257.0Y-71.638
X257.64Y-212.11
X257.8Y-137.2
X258.2Y-123.7
X258.2Y-138.8
X258.8Y-97.3
X259.2Y-200.8
X260.44Y-171.91
T2
X217.63Y-34.292
X217.63Y-49.788
X220.17Y-34.292
X220.17Y-49.788
X222.71Y-34.292
X222.71Y-49.788
X225.25Y-34.292
X225.25Y-49.788
X227.79Y-34.292
X227.79Y-49.788
X230.33Y-34.292
X230.33Y-49.788
X232.87Y-34.292
X232.87Y-49.788
X235.41Y-34.292
X235.41Y-49.788
X237.95Y-34.292
X237.95Y-49.788
X240.49Y-34.292
X240.49Y-49.788
X243.03Y-34.292
X243.03Y-49.788
X245.57Y-34.292
X245.57Y-49.788
T3
X34.76Y-89.58
X34.76Y-97.2
X34.8Y-69.49
X34.8Y-84.73
X34.915Y-102.29
X34.915Y-117.53
X34.96Y-121.58
X34.96Y-129.2
X37.3Y-89.58
X37.3Y-97.2
X37.34Y-69.49
X37.34Y-84.73
X37.455Y-102.29
X37.455Y-117.53
X37.5Y-121.58
X37.5Y-129.2
X39.84Y-89.58
X39.84Y-97.2
X39.88Y-69.49
X39.88Y-84.73
X39.995Y-102.29
X39.995Y-117.53
X40.04Y-121.58
X40.04Y-129.2
X42.38Y-89.58
X42.38Y-97.2
X42.42Y-69.49
X42.42Y-84.73
X42.51Y-36.67
X42.51Y-51.91
X42.535Y-102.29
X42.535Y-117.53
X42.58Y-121.58
X42.58Y-129.2
X43.46Y-173.49
X43.46Y-181.11
X44.04Y-140.29
X44.04Y-147.91
X44.92Y-89.58
X44.92Y-97.2
X44.96Y-69.49
X44.96Y-84.73
X45.05Y-36.67
X45.05Y-51.91
X45.075Y-102.29
X45.075Y-117.53
X45.12Y-121.58
X45.12Y-129.2
X46.0Y-173.49
X46.0Y-181.11
X46.41Y-155.92
X46.41Y-163.54
X46.58Y-140.29
X46.58Y-147.91
X47.46Y-89.58
X47.46Y-97.2
X47.5Y-69.49
X47.5Y-84.73
X47.59Y-36.67
X47.59Y-51.91
X47.615Y-102.29
X47.615Y-117.53
X47.66Y-121.58
X47.66Y-129.2
X48.54Y-173.49
X48.54Y-181.11
X48.95Y-155.92
X48.95Y-163.54
X49.12Y-140.29
X49.12Y-147.91
X50.0Y-89.58
X50.0Y-97.2
X50.04Y-69.49
X50.04Y-84.73
X50.13Y-36.67
X50.13Y-51.91
X50.155Y-102.29
X50.155Y-117.53
X50.2Y-121.58
X50.2Y-129.2
X51.08Y-173.49
X51.08Y-181.11
X51.49Y-155.92
X51.49Y-163.54
X51.66Y-140.29
X51.66Y-147.91
X52.54Y-89.58
X52.54Y-97.2
X52.58Y-69.49
X52.58Y-84.73
X52.67Y-36.67
X52.67Y-51.91
X52.695Y-102.29
X52.695Y-117.53
X53.62Y-173.49
X53.62Y-181.11
X54.03Y-155.92
X54.03Y-163.54
X54.2Y-140.29
X54.2Y-147.91
X55.12Y-69.49
X55.12Y-84.73
X55.21Y-36.67
X55.21Y-51.91
X55.235Y-102.29
X55.235Y-117.53
X56.16Y-173.49
X56.16Y-181.11
X56.57Y-155.92
X56.57Y-163.54
X56.74Y-140.29
X56.74Y-147.91
X57.66Y-69.49
X57.66Y-84.73
X57.75Y-36.67
X57.75Y-51.91
X57.775Y-102.29
X57.775Y-117.53
X58.7Y-173.49
X58.7Y-181.11
X59.11Y-155.92
X59.11Y-163.54
X59.28Y-140.29
X59.28Y-147.91
X60.2Y-69.49
X60.2Y-84.73
X60.29Y-36.67
X60.29Y-51.91
X60.315Y-102.29
X60.315Y-117.53
X61.24Y-173.49
X61.24Y-181.11
X61.65Y-155.92
X61.65Y-163.54
X62.74Y-69.49
X62.74Y-84.73
X62.83Y-36.67
X62.83Y-51.91
X62.855Y-102.29
X62.855Y-117.53
X63.78Y-173.49
X63.78Y-181.11
X64.19Y-155.92
X64.19Y-163.54
X65.28Y-69.49
X65.28Y-84.73
X65.37Y-36.67
X65.37Y-51.91
X65.395Y-102.29
X65.395Y-117.53
X66.32Y-173.49
X66.32Y-181.11
X67.82Y-69.49
X67.82Y-84.73
X67.91Y-36.67
X67.91Y-51.91
X67.935Y-102.29
X67.935Y-117.53
X69.21Y-155.895
X69.21Y-163.515
X70.36Y-69.49
X70.36Y-84.73
X70.45Y-36.67
X70.45Y-51.91
X70.475Y-102.29
X70.475Y-117.53
X71.75Y-155.895
X71.75Y-163.515
X71.77Y-173.535
X71.77Y-181.155
X72.9Y-69.49
X72.9Y-84.73
X72.99Y-36.67
X72.99Y-51.91
X73.015Y-102.29
X73.015Y-117.53
X74.29Y-155.895
X74.29Y-163.515
X74.31Y-173.535
X74.31Y-181.155
X75.44Y-69.49
X75.44Y-84.73
X75.53Y-36.67
X75.53Y-51.91
X75.555Y-102.29
X75.555Y-117.53
X76.83Y-155.895
X76.83Y-163.515
X76.85Y-173.535
X76.85Y-181.155
X77.98Y-69.49
X77.98Y-84.73
X78.07Y-36.67
X78.07Y-51.91
X78.095Y-102.29
X78.095Y-117.53
X79.37Y-155.895
X79.37Y-163.515
X79.39Y-173.535
X79.39Y-181.155
X80.52Y-69.49
X80.52Y-84.73
X80.61Y-36.67
X80.61Y-51.91
X80.635Y-102.29
X80.635Y-117.53
X81.91Y-155.895
X81.91Y-163.515
X81.93Y-173.535
X81.93Y-181.155
X83.06Y-69.49
X83.06Y-84.73
X83.15Y-36.67
X83.15Y-51.91
X83.175Y-102.29
X83.175Y-117.53
X84.45Y-155.895
X84.45Y-163.515
X84.47Y-173.535
X84.47Y-181.155
X85.69Y-36.67
X85.69Y-51.91
X86.99Y-155.895
X86.99Y-163.515
X87.01Y-173.535
X87.01Y-181.155
X88.23Y-36.67
X88.23Y-51.91
X89.53Y-155.895
X89.53Y-163.515
X89.55Y-173.535
X89.55Y-181.155
X90.77Y-36.67
X90.77Y-51.91
X92.07Y-155.895
X92.07Y-163.515
X92.09Y-173.535
X92.09Y-181.155
X94.63Y-173.535
X94.63Y-181.155
X96.87Y-36.71
X96.87Y-51.95
X96.95Y-23.495
X96.95Y-31.115
X99.41Y-36.71
X99.41Y-51.95
X99.44Y-156.11
X99.44Y-163.73
X99.49Y-23.495
X99.49Y-31.115
X100.18Y-173.51
X100.18Y-181.13
X100.27Y-139.91
X100.27Y-147.53
X100.68Y-117.61
X100.68Y-120.15
X100.68Y-122.69
X100.68Y-125.23
X100.68Y-127.77
X100.68Y-130.31
X101.95Y-36.71
X101.95Y-51.95
X101.98Y-156.11
X101.98Y-163.73
X102.03Y-23.495
X102.03Y-31.115
X102.72Y-173.51
X102.72Y-181.13
X102.81Y-139.91
X102.81Y-147.53
X103.22Y-115.07
X103.22Y-117.61
X103.22Y-120.15
X103.22Y-122.69
X103.22Y-125.23
X103.22Y-127.77
X103.22Y-130.31
X103.22Y-132.85
X104.49Y-36.71
X104.49Y-51.95
X104.52Y-156.11
X104.52Y-163.73
X104.57Y-23.495
X104.57Y-31.115
X105.26Y-173.51
X105.26Y-181.13
X105.35Y-139.91
X105.35Y-147.53
X105.76Y-115.07
X105.76Y-117.61
X105.76Y-130.31
X105.76Y-132.85
X107.03Y-36.71
X107.03Y-51.95
X107.06Y-156.11
X107.06Y-163.73
X107.11Y-23.495
X107.11Y-31.115
X107.8Y-173.51
X107.8Y-181.13
X107.89Y-139.91
X107.89Y-147.53
X108.3Y-115.07
X108.3Y-117.61
X108.3Y-130.31
X108.3Y-132.85
X109.57Y-36.71
X109.57Y-51.95
X109.6Y-156.11
X109.6Y-163.73
X109.65Y-23.495
X109.65Y-31.115
X110.34Y-173.51
X110.34Y-181.13
X110.43Y-139.91
X110.43Y-147.53
X110.84Y-115.07
X110.84Y-117.61
X110.84Y-130.31
X110.84Y-132.85
X112.11Y-36.71
X112.11Y-51.95
X112.14Y-156.11
X112.14Y-163.73
X112.19Y-23.495
X112.19Y-31.115
X112.88Y-173.51
X112.88Y-181.13
X112.97Y-139.91
X112.97Y-147.53
X113.38Y-115.07
X113.38Y-117.61
X113.38Y-130.31
X113.38Y-132.85
X114.65Y-36.71
X114.65Y-51.95
X114.68Y-156.11
X114.68Y-163.73
X114.73Y-23.495
X114.73Y-31.115
X115.42Y-173.51
X115.42Y-181.13
X115.51Y-139.91
X115.51Y-147.53
X115.92Y-115.07
X115.92Y-117.61
X115.92Y-120.15
X115.92Y-122.69
X115.92Y-125.23
X115.92Y-127.77
X115.92Y-130.31
X115.92Y-132.85
X117.19Y-36.71
X117.19Y-51.95
X117.22Y-156.11
X117.22Y-163.73
X117.96Y-173.51
X117.96Y-181.13
X118.05Y-139.91
X118.05Y-147.53
X118.46Y-117.61
X118.46Y-120.15
X118.46Y-122.69
X118.46Y-125.23
X118.46Y-127.77
X118.46Y-130.31
X119.73Y-36.71
X119.73Y-51.95
X119.76Y-156.11
X119.76Y-163.73
X120.5Y-173.51
X120.5Y-181.13
X120.59Y-139.91
X120.59Y-147.53
X122.27Y-36.71
X122.27Y-51.95
X122.3Y-156.11
X122.3Y-163.73
X123.04Y-173.51
X123.04Y-181.13
X123.13Y-139.91
X123.13Y-147.53
X124.81Y-36.71
X124.81Y-51.95
X131.797Y-167.51
X131.797Y-175.13
X134.338Y-167.51
X134.338Y-175.13
X136.877Y-167.51
X136.877Y-175.13
X137.19Y-218.29
X137.19Y-233.53
X137.22Y-238.67
X137.22Y-253.91
X139.417Y-167.51
X139.417Y-175.13
X139.56Y-135.29
X139.56Y-150.53
X139.595Y-112.29
X139.595Y-127.53
X139.73Y-218.29
X139.73Y-233.53
X139.76Y-238.67
X139.76Y-253.91
X141.957Y-167.51
X141.957Y-175.13
X142.1Y-135.29
X142.1Y-150.53
X142.135Y-112.29
X142.135Y-127.53
X142.27Y-218.29
X142.27Y-233.53
X142.3Y-238.67
X142.3Y-253.91
X144.498Y-167.51
X144.498Y-175.13
X144.64Y-135.29
X144.64Y-150.53
X144.675Y-112.29
X144.675Y-127.53
X144.81Y-218.29
X144.81Y-233.53
X144.84Y-238.67
X144.84Y-253.91
X146.0Y-180.96
X146.0Y-185.84
X147.037Y-167.51
X147.037Y-175.13
X147.18Y-135.29
X147.18Y-150.53
X147.215Y-112.29
X147.215Y-127.53
X147.35Y-218.29
X147.35Y-233.53
X147.38Y-238.67
X147.38Y-253.91
X147.44Y-65.89
X147.44Y-73.51
X147.46Y-78.69
X147.46Y-86.31
X149.577Y-167.51
X149.577Y-175.13
X149.72Y-135.29
X149.72Y-150.53
X149.755Y-112.29
X149.755Y-127.53
X149.89Y-218.29
X149.89Y-233.53
X149.92Y-238.67
X149.92Y-253.91
X149.98Y-65.89
X149.98Y-73.51
X150.0Y-78.69
X150.0Y-86.31
X152.118Y-167.51
X152.118Y-175.13
X152.26Y-135.29
X152.26Y-150.53
X152.295Y-112.29
X152.295Y-127.53
X152.41Y-91.47
X152.41Y-106.71
X152.43Y-218.29
X152.43Y-233.53
X152.46Y-238.67
X152.46Y-253.91
X152.52Y-65.89
X152.52Y-73.51
X152.54Y-78.69
X152.54Y-86.31
X154.8Y-135.29
X154.8Y-150.53
X154.835Y-112.29
X154.835Y-127.53
X154.95Y-91.47
X154.95Y-106.71
X154.97Y-218.29
X154.97Y-233.53
X155.0Y-238.67
X155.0Y-253.91
X155.06Y-65.89
X155.06Y-73.51
X155.08Y-78.69
X155.08Y-86.31
X156.01Y-189.09
X156.01Y-196.71
X157.34Y-135.29
X157.34Y-150.53
X157.375Y-112.29
X157.375Y-127.53
X157.49Y-91.47
X157.49Y-106.71
X157.51Y-218.29
X157.51Y-233.53
X157.54Y-238.67
X157.54Y-253.91
X157.6Y-65.89
X157.6Y-73.51
X157.62Y-78.69
X157.62Y-86.31
X158.46Y-167.29
X158.46Y-174.91
X158.55Y-189.09
X158.55Y-196.71
X159.88Y-135.29
X159.88Y-150.53
X159.915Y-112.29
X159.915Y-127.53
X160.03Y-91.47
X160.03Y-106.71
X160.05Y-218.29
X160.05Y-233.53
X160.08Y-238.67
X160.08Y-253.91
X160.14Y-65.89
X160.14Y-73.51
X160.16Y-78.69
X160.16Y-86.31
X161.0Y-167.29
X161.0Y-174.91
X161.09Y-189.09
X161.09Y-196.71
X162.42Y-135.29
X162.42Y-150.53
X162.455Y-112.29
X162.455Y-127.53
X162.57Y-91.47
X162.57Y-106.71
X162.59Y-218.29
X162.59Y-233.53
X162.62Y-238.67
X162.62Y-253.91
X162.68Y-65.89
X162.68Y-73.51
X162.7Y-78.69
X162.7Y-86.31
X163.54Y-167.29
X163.54Y-174.91
X163.63Y-189.09
X163.63Y-196.71
X164.96Y-135.29
X164.96Y-150.53
X164.995Y-112.29
X164.995Y-127.53
X165.11Y-91.47
X165.11Y-106.71
X165.13Y-218.29
X165.13Y-233.53
X165.16Y-238.67
X165.16Y-253.91
X165.24Y-78.69
X165.24Y-86.31
X166.08Y-167.29
X166.08Y-174.91
X166.17Y-189.09
X166.17Y-196.71
X167.5Y-135.29
X167.5Y-150.53
X167.535Y-112.29
X167.535Y-127.53
X167.65Y-91.47
X167.65Y-106.71
X167.67Y-218.29
X167.67Y-233.53
X167.7Y-238.67
X167.7Y-253.91
X168.62Y-167.29
X168.62Y-174.91
X168.71Y-189.09
X168.71Y-196.71
X170.04Y-135.29
X170.04Y-150.53
X170.075Y-112.29
X170.075Y-127.53
X170.19Y-91.47
X170.19Y-106.71
X170.21Y-218.29
X170.21Y-233.53
X170.24Y-238.67
X170.24Y-253.91
X171.16Y-167.29
X171.16Y-174.91
X171.25Y-189.09
X171.25Y-196.71
X172.58Y-135.29
X172.58Y-150.53
X172.615Y-112.29
X172.615Y-127.53
X172.73Y-91.47
X172.73Y-106.71
X172.75Y-218.29
X172.75Y-233.53
X172.78Y-238.67
X172.78Y-253.91
X173.7Y-167.29
X173.7Y-174.91
X173.79Y-189.09
X173.79Y-196.71
X175.12Y-135.29
X175.12Y-150.53
X175.155Y-112.29
X175.155Y-127.53
X175.27Y-91.47
X175.27Y-106.71
X175.29Y-218.29
X175.29Y-233.53
X175.32Y-238.67
X175.32Y-253.91
X176.24Y-167.29
X176.24Y-174.91
X176.33Y-189.09
X176.33Y-196.71
X177.41Y-66.09
X177.41Y-73.71
X177.52Y-78.49
X177.52Y-86.11
X177.66Y-135.29
X177.66Y-150.53
X177.695Y-112.29
X177.695Y-127.53
X177.81Y-91.47
X177.81Y-106.71
X178.78Y-167.29
X178.78Y-174.91
X178.87Y-189.09
X178.87Y-196.71
X179.95Y-66.09
X179.95Y-73.71
X180.06Y-78.49
X180.06Y-86.11
X180.2Y-135.29
X180.2Y-150.53
X180.235Y-112.29
X180.235Y-127.53
X180.35Y-91.47
X180.35Y-106.71
X181.32Y-167.29
X181.32Y-174.91
X182.49Y-66.09
X182.49Y-73.71
X182.6Y-78.49
X182.6Y-86.11
X182.74Y-135.29
X182.74Y-150.53
X182.775Y-112.29
X182.775Y-127.53
X182.89Y-91.47
X182.89Y-106.71
X185.03Y-66.09
X185.03Y-73.71
X185.14Y-78.49
X185.14Y-86.11
X185.28Y-135.29
X185.28Y-150.53
X185.315Y-112.29
X185.315Y-127.53
X185.43Y-91.47
X185.43Y-106.71
X187.36Y-167.49
X187.36Y-175.11
X187.42Y-155.31
X187.42Y-162.93
X187.57Y-66.09
X187.57Y-73.71
X187.68Y-78.49
X187.68Y-86.11
X187.82Y-135.29
X187.82Y-150.53
X187.855Y-112.29
X187.855Y-127.53
X189.9Y-167.49
X189.9Y-175.11
X189.96Y-155.31
X189.96Y-162.93
X190.11Y-66.09
X190.11Y-73.71
X190.22Y-78.49
X190.22Y-86.11
X192.44Y-167.49
X192.44Y-175.11
X192.5Y-155.31
X192.5Y-162.93
X192.65Y-66.09
X192.65Y-73.71
X192.76Y-78.49
X192.76Y-86.11
X193.06Y-120.69
X193.06Y-128.31
X194.98Y-167.49
X194.98Y-175.11
X195.04Y-155.31
X195.04Y-162.93
X195.19Y-66.09
X195.19Y-73.71
X195.3Y-78.49
X195.3Y-86.11
X195.6Y-120.69
X195.6Y-128.31
X196.46Y-203.09
X196.46Y-210.71
X197.52Y-167.49
X197.52Y-175.11
X197.58Y-155.31
X197.58Y-162.93
X197.73Y-66.09
X197.73Y-73.71
X197.84Y-78.49
X197.84Y-86.11
X198.14Y-120.69
X198.14Y-128.31
X199.0Y-203.09
X199.0Y-210.71
X200.06Y-167.49
X200.06Y-175.11
X200.12Y-155.31
X200.12Y-162.93
X200.27Y-66.09
X200.27Y-73.71
X200.38Y-78.49
X200.38Y-86.11
X200.68Y-120.69
X200.68Y-128.31
X201.54Y-203.09
X201.54Y-210.71
X202.6Y-167.49
X202.6Y-175.11
X202.66Y-155.31
X202.66Y-162.93
X203.22Y-120.69
X203.22Y-128.31
X204.08Y-203.09
X204.08Y-210.71
X205.14Y-167.49
X205.14Y-175.11
X205.2Y-155.31
X205.2Y-162.93
X205.76Y-120.69
X205.76Y-128.31
X206.62Y-203.09
X206.62Y-210.71
X207.68Y-167.49
X207.68Y-175.11
X207.74Y-155.31
X207.74Y-162.93
X208.3Y-120.69
X208.3Y-128.31
X209.16Y-203.09
X209.16Y-210.71
X210.22Y-167.49
X210.22Y-175.11
X210.28Y-155.31
X210.28Y-162.93
X210.84Y-120.69
X210.84Y-128.31
X211.7Y-203.09
X211.7Y-210.71
X213.38Y-120.69
X213.38Y-128.31
X214.24Y-203.09
X214.24Y-210.71
X215.92Y-120.69
X215.92Y-128.31
X216.78Y-203.09
X216.78Y-210.71
X218.22Y-167.69
X218.22Y-175.31
X219.1Y-89.8
X219.32Y-203.09
X219.32Y-210.71
X220.76Y-167.69
X220.76Y-175.31
X220.91Y-120.69
X220.91Y-128.31
X222.6Y-89.8
X222.64Y-148.93
X222.64Y-156.55
X222.8Y-67.495
X222.8Y-75.115
X222.82Y-53.89
X222.82Y-61.51
X222.84Y-135.705
X222.84Y-143.325
X222.94Y-105.49
X222.94Y-113.11
X223.3Y-167.69
X223.3Y-175.31
X223.45Y-120.69
X223.45Y-128.31
X225.18Y-148.93
X225.18Y-156.55
X225.34Y-67.495
X225.34Y-75.115
X225.36Y-53.89
X225.36Y-61.51
X225.38Y-135.705
X225.38Y-143.325
X225.48Y-105.49
X225.48Y-113.11
X225.55Y-190.3
X225.55Y-197.92
X225.64Y-203.04
X225.64Y-210.66
X225.84Y-167.69
X225.84Y-175.31
X225.99Y-120.69
X225.99Y-128.31
X227.72Y-148.93
X227.72Y-156.55
X227.88Y-67.495
X227.88Y-75.115
X227.9Y-53.89
X227.9Y-61.51
X227.92Y-135.705
X227.92Y-143.325
X228.02Y-105.49
X228.02Y-113.11
X228.09Y-190.3
X228.09Y-197.92
X228.18Y-203.04
X228.18Y-210.66
X228.38Y-167.69
X228.38Y-175.31
X228.53Y-120.69
X228.53Y-128.31
X230.26Y-148.93
X230.26Y-156.55
X230.42Y-67.495
X230.42Y-75.115
X230.44Y-53.89
X230.44Y-61.51
X230.46Y-135.705
X230.46Y-143.325
X230.56Y-105.49
X230.56Y-113.11
X230.63Y-190.3
X230.63Y-197.92
X230.72Y-203.04
X230.72Y-210.66
X230.882Y-83.2
X230.92Y-167.69
X230.92Y-175.31
X231.07Y-120.69
X231.07Y-128.31
X231.99Y-88.39
X231.99Y-96.01
X232.8Y-148.93
X232.8Y-156.55
X232.96Y-67.495
X232.96Y-75.115
X232.98Y-53.89
X232.98Y-61.51
X233.0Y-135.705
X233.0Y-143.325
X233.1Y-105.49
X233.1Y-113.11
X233.17Y-190.3
X233.17Y-197.92
X233.26Y-203.04
X233.26Y-210.66
X233.382Y-83.2
X233.46Y-167.69
X233.46Y-175.31
X233.61Y-120.69
X233.61Y-128.31
X234.53Y-88.39
X234.53Y-96.01
X235.34Y-148.93
X235.34Y-156.55
X235.5Y-67.495
X235.5Y-75.115
X235.52Y-53.89
X235.52Y-61.51
X235.54Y-135.705
X235.54Y-143.325
X235.64Y-105.49
X235.64Y-113.11
X235.71Y-190.3
X235.71Y-197.92
X235.8Y-203.04
X235.8Y-210.66
X236.15Y-120.69
X236.15Y-128.31
X237.07Y-88.39
X237.07Y-96.01
X237.88Y-148.93
X237.88Y-156.55
X238.04Y-67.495
X238.04Y-75.115
X238.06Y-53.89
X238.06Y-61.51
X238.08Y-135.705
X238.08Y-143.325
X238.18Y-105.49
X238.18Y-113.11
X238.25Y-190.3
X238.25Y-197.92
X238.3Y-83.2
X238.34Y-203.04
X238.34Y-210.66
X238.69Y-120.69
X238.69Y-128.31
X239.02Y-167.69
X239.02Y-175.31
X239.61Y-88.39
X239.61Y-96.01
X240.58Y-67.495
X240.58Y-75.115
X240.6Y-53.89
X240.6Y-61.51
X240.79Y-190.3
X240.79Y-197.92
X240.8Y-83.2
X240.88Y-203.04
X240.88Y-210.66
X241.56Y-167.69
X241.56Y-175.31
X243.12Y-67.495
X243.12Y-75.115
X243.14Y-53.89
X243.14Y-61.51
X243.33Y-190.3
X243.33Y-197.92
X243.74Y-105.51
X243.74Y-113.13
X244.02Y-135.71
X244.02Y-143.33
X244.02Y-148.915
X244.02Y-156.535
X244.1Y-167.69
X244.1Y-175.31
X245.66Y-67.495
X245.66Y-75.115
X245.68Y-53.89
X245.68Y-61.51
X246.28Y-105.51
X246.28Y-113.13
X246.56Y-135.71
X246.56Y-143.33
X246.56Y-148.915
X246.56Y-156.535
X246.64Y-167.69
X246.64Y-175.31
X248.82Y-105.51
X248.82Y-113.13
X249.1Y-135.71
X249.1Y-143.33
X249.1Y-148.915
X249.1Y-156.535
X249.18Y-167.69
X249.18Y-175.31
X251.36Y-105.51
X251.36Y-113.13
X251.64Y-135.71
X251.64Y-143.33
X251.64Y-148.915
X251.64Y-156.535
X251.72Y-167.69
X251.72Y-175.31
X253.9Y-105.51
X253.9Y-113.13
X254.18Y-135.71
X254.18Y-143.33
X254.18Y-148.915
X254.18Y-156.535
X254.26Y-167.69
X254.26Y-175.31
X256.44Y-105.51
X256.44Y-113.13
X256.72Y-135.71
X256.72Y-143.33
X256.72Y-148.915
X256.72Y-156.535
X258.98Y-105.51
X258.98Y-113.13
X259.26Y-135.71
X259.26Y-143.33
X259.26Y-148.915
X259.26Y-156.535
T4
X256.165Y-89.91
X258.705Y-89.91
T5
X30.4Y-23.935
X30.4Y-26.475
X30.4Y-29.015
X30.4Y-31.555
X30.4Y-34.095
X30.4Y-36.635
X30.4Y-39.175
X30.4Y-41.715
X30.4Y-44.255
X30.4Y-46.795
X30.4Y-49.335
X30.4Y-51.875
X30.4Y-54.415
X30.4Y-56.955
X32.94Y-23.935
X32.94Y-26.475
X32.94Y-29.015
X32.94Y-31.555
X32.94Y-34.095
X32.94Y-36.635
X32.94Y-39.175
X32.94Y-41.715
X32.94Y-44.255
X32.94Y-46.795
X32.94Y-49.335
X32.94Y-51.875
X32.94Y-54.415
X32.94Y-56.955
X119.04Y-29.51
X124.04Y-29.51
X200.36Y-230.2
X200.36Y-245.44
X202.9Y-230.2
X202.9Y-245.44
X205.44Y-230.2
X205.44Y-245.44
X207.98Y-230.2
X207.98Y-245.44
X210.52Y-230.2
X210.52Y-245.44
X213.06Y-230.2
X213.06Y-245.44
X215.6Y-230.2
X215.6Y-245.44
X218.14Y-230.2
X218.14Y-245.44
X218.44Y-24.01
X218.44Y-28.51
X220.68Y-230.2
X220.68Y-245.44
X223.22Y-230.2
X223.22Y-245.44
X224.94Y-24.01
X224.94Y-28.51
X225.76Y-230.2
X225.76Y-245.44
X228.3Y-230.2
X228.3Y-245.44
X230.84Y-230.2
X230.84Y-245.44
X233.38Y-230.2
X233.38Y-245.44
X233.53Y-24.61
X235.92Y-230.2
X235.92Y-245.44
X236.07Y-24.61
X238.46Y-230.2
X238.46Y-245.44
X246.6Y-92.0
X251.6Y-92.0
X254.64Y-118.245
X254.64Y-120.785
T6
X26.65Y-90.565
X26.65Y-93.335
X26.65Y-96.105
X26.65Y-98.875
X29.49Y-89.18
X29.49Y-91.95
X29.49Y-94.72
X29.49Y-97.49
X29.49Y-100.26
X204.326Y-97.4
X211.926Y-97.4
T7
X244.84Y-24.17
X244.84Y-26.71
X244.84Y-29.25
T8
X45.4Y-194.218
X45.4Y-199.07
X45.4Y-214.538
X45.4Y-219.39
X45.4Y-234.858
X45.4Y-239.71
X45.4Y-255.178
X45.4Y-260.03
X47.94Y-194.218
X47.94Y-199.07
X47.94Y-214.538
X47.94Y-219.39
X47.94Y-234.858
X47.94Y-239.71
X47.94Y-255.178
X47.94Y-260.03
X50.48Y-194.218
X50.48Y-199.07
X50.48Y-214.538
X50.48Y-219.39
X50.48Y-234.858
X50.48Y-239.71
X50.48Y-255.178
X50.48Y-260.03
X53.02Y-194.218
X53.02Y-199.07
X53.02Y-214.538
X53.02Y-219.39
X53.02Y-234.858
X53.02Y-239.71
X53.02Y-255.178
X53.02Y-260.03
X55.56Y-194.218
X55.56Y-199.07
X55.56Y-214.538
X55.56Y-219.39
X55.56Y-234.858
X55.56Y-239.71
X55.56Y-255.178
X55.56Y-260.03
X58.1Y-194.218
X58.1Y-199.07
X58.1Y-214.538
X58.1Y-219.39
X58.1Y-234.858
X58.1Y-239.71
X58.1Y-255.178
X58.1Y-260.03
X60.64Y-194.218
X60.64Y-199.07
X60.64Y-214.538
X60.64Y-219.39
X60.64Y-234.858
X60.64Y-239.71
X60.64Y-255.178
X60.64Y-260.03
X63.18Y-194.218
X63.18Y-199.07
X63.18Y-214.538
X63.18Y-219.39
X63.18Y-234.858
X63.18Y-239.71
X63.18Y-255.178
X63.18Y-260.03
X65.72Y-194.218
X65.72Y-199.07
X65.72Y-214.538
X65.72Y-219.39
X65.72Y-234.858
X65.72Y-239.71
X65.72Y-255.178
X65.72Y-260.03
X68.26Y-194.218
X68.26Y-199.07
X68.26Y-214.538
X68.26Y-219.39
X68.26Y-234.858
X68.26Y-239.71
X68.26Y-255.178
X68.26Y-260.03
X70.8Y-194.218
X70.8Y-199.07
X70.8Y-214.538
X70.8Y-219.39
X70.8Y-234.858
X70.8Y-239.71
X70.8Y-255.178
X70.8Y-260.03
X73.34Y-194.218
X73.34Y-199.07
X73.34Y-214.538
X73.34Y-219.39
X73.34Y-234.858
X73.34Y-239.71
X73.34Y-255.178
X73.34Y-260.03
X75.88Y-194.218
X75.88Y-199.07
X75.88Y-214.538
X75.88Y-219.39
X75.88Y-234.858
X75.88Y-239.71
X75.88Y-255.178
X75.88Y-260.03
X78.42Y-194.218
X78.42Y-199.07
X78.42Y-214.538
X78.42Y-219.39
X78.42Y-234.858
X78.42Y-239.71
X78.42Y-255.178
X78.42Y-260.03
X80.96Y-194.218
X80.96Y-199.07
X80.96Y-214.538
X80.96Y-219.39
X80.96Y-234.858
X80.96Y-239.71
X80.96Y-255.178
X80.96Y-260.03
X83.5Y-194.218
X83.5Y-199.07
X83.5Y-214.538
X83.5Y-219.39
X83.5Y-234.858
X83.5Y-239.71
X83.5Y-255.178
X83.5Y-260.03
X86.04Y-194.218
X86.04Y-199.07
X86.04Y-214.538
X86.04Y-219.39
X86.04Y-234.858
X86.04Y-239.71
X86.04Y-255.178
X86.04Y-260.03
X88.58Y-194.218
X88.58Y-199.07
X88.58Y-214.538
X88.58Y-219.39
X88.58Y-234.858
X88.58Y-239.71
X88.58Y-255.178
X88.58Y-260.03
X91.12Y-194.218
X91.12Y-199.07
X91.12Y-214.538
X91.12Y-219.39
X91.12Y-234.858
X91.12Y-239.71
X91.12Y-255.178
X91.12Y-260.03
X93.66Y-194.218
X93.66Y-199.07
X93.66Y-214.538
X93.66Y-219.39
X93.66Y-234.858
X93.66Y-239.71
X93.66Y-255.178
X93.66Y-260.03
X96.2Y-194.218
X96.2Y-199.07
X96.2Y-214.538
X96.2Y-219.39
X96.2Y-234.858
X96.2Y-239.71
X96.2Y-255.178
X96.2Y-260.03
X98.74Y-194.218
X98.74Y-199.07
X98.74Y-214.538
X98.74Y-219.39
X98.74Y-234.858
X98.74Y-239.71
X98.74Y-255.178
X98.74Y-260.03
X101.28Y-194.218
X101.28Y-199.07
X101.28Y-214.538
X101.28Y-219.39
X101.28Y-234.858
X101.28Y-239.71
X101.28Y-255.178
X101.28Y-260.03
X103.82Y-194.218
X103.82Y-199.07
X103.82Y-214.538
X103.82Y-219.39
X103.82Y-234.858
X103.82Y-239.71
X103.82Y-255.178
X103.82Y-260.03
X106.36Y-194.218
X106.36Y-199.07
X106.36Y-214.538
X106.36Y-219.39
X106.36Y-234.858
X106.36Y-239.71
X106.36Y-255.178
X106.36Y-260.03
X108.9Y-194.218
X108.9Y-199.07
X108.9Y-214.538
X108.9Y-219.39
X108.9Y-234.858
X108.9Y-239.71
X108.9Y-255.178
X108.9Y-260.03
X111.44Y-194.218
X111.44Y-199.07
X111.44Y-214.538
X111.44Y-219.39
X111.44Y-234.858
X111.44Y-239.71
X111.44Y-255.178
X111.44Y-260.03
X113.98Y-194.218
X113.98Y-199.07
X113.98Y-214.538
X113.98Y-219.39
X113.98Y-234.858
X113.98Y-239.71
X113.98Y-255.178
X113.98Y-260.03
X116.52Y-194.218
X116.52Y-199.07
X116.52Y-214.538
X116.52Y-219.39
X116.52Y-234.858
X116.52Y-239.71
X116.52Y-255.178
X116.52Y-260.03
X119.06Y-194.218
X119.06Y-199.07
X119.06Y-214.538
X119.06Y-219.39
X119.06Y-234.858
X119.06Y-239.71
X119.06Y-255.178
X119.06Y-260.03
X121.6Y-194.218
X121.6Y-199.07
X121.6Y-214.538
X121.6Y-219.39
X121.6Y-234.858
X121.6Y-239.71
X121.6Y-255.178
X121.6Y-260.03
T9
X28.5Y-138.2
X28.5Y-140.3
X28.5Y-142.9
X28.5Y-145.0
X31.0Y-138.2
X31.0Y-145.0
X35.5Y-138.2
X35.5Y-140.3
X35.5Y-142.9
X35.5Y-145.0
X38.0Y-138.2
X38.0Y-145.0
T10
X137.0Y-23.242
X139.54Y-23.242
X142.08Y-23.242
X144.62Y-23.242
X147.16Y-23.242
X149.7Y-23.242
X152.24Y-23.242
X154.78Y-23.242
X157.32Y-23.242
X159.86Y-23.242
X162.4Y-23.242
X164.94Y-23.242
X167.48Y-23.242
X170.02Y-23.242
X172.56Y-23.242
X175.1Y-23.242
T11
X121.54Y-32.51
X249.1Y-95.0
T12
X254.3Y-35.24
X254.3Y-39.44
X254.3Y-43.64
X254.3Y-47.84
X254.3Y-52.04
X254.3Y-56.24
X254.3Y-60.44
X254.3Y-64.64
X254.3Y-68.84
X254.3Y-73.04
X254.3Y-77.24
X254.3Y-81.44
X259.8Y-35.24
X259.8Y-39.44
X259.8Y-43.64
X259.8Y-47.84
X259.8Y-52.04
X259.8Y-56.24
X259.8Y-60.44
X259.8Y-64.64
X259.8Y-68.84
X259.8Y-73.04
X259.8Y-77.24
X259.8Y-81.44
T13
X24.7Y-141.6
X25.5Y-134.85
X25.5Y-148.35
X35.5Y-134.85
X35.5Y-148.35
T14
X131.501Y-23.242
X131.501Y-54.243
X206.499Y-54.243
X206.5Y-23.242
T15
X28.07Y-82.225
X28.07Y-107.215
M30
