%TF.GenerationSoftware,KiCad,Pcbnew,10.0.4*%
%TF.CreationDate,2026-07-08T10:23:54-07:00*%
%TF.ProjectId,retroslop,72657472-6f73-46c6-9f70-2e6b69636164,A*%
%TF.SameCoordinates,Original*%
%TF.FileFunction,Paste,Bot*%
%TF.FilePolarity,Positive*%
%FSLAX46Y46*%
G04 Gerber Fmt 4.6, Leading zero omitted, Abs format (unit mm)*
G04 Created by KiCad (PCBNEW 10.0.4) date 2026-07-08 10:23:54*
%MOMM*%
%LPD*%
G01*
G04 APERTURE LIST*
G04 Aperture macros list*
%AMRoundRect*
0 Rectangle with rounded corners*
0 $1 Rounding radius*
0 $2 $3 $4 $5 $6 $7 $8 $9 X,Y pos of 4 corners*
0 Add a 4 corners polygon primitive as box body*
4,1,4,$2,$3,$4,$5,$6,$7,$8,$9,$2,$3,0*
0 Add four circle primitives for the rounded corners*
1,1,$1+$1,$2,$3*
1,1,$1+$1,$4,$5*
1,1,$1+$1,$6,$7*
1,1,$1+$1,$8,$9*
0 Add four rect primitives between the rounded corners*
20,1,$1+$1,$2,$3,$4,$5,0*
20,1,$1+$1,$4,$5,$6,$7,0*
20,1,$1+$1,$6,$7,$8,$9,0*
20,1,$1+$1,$8,$9,$2,$3,0*%
G04 Aperture macros list end*
%ADD10RoundRect,0.250000X-0.400000X-0.625000X0.400000X-0.625000X0.400000X0.625000X-0.400000X0.625000X0*%
%ADD11RoundRect,0.250000X0.400000X0.625000X-0.400000X0.625000X-0.400000X-0.625000X0.400000X-0.625000X0*%
%ADD12RoundRect,0.250000X1.100000X-0.412500X1.100000X0.412500X-1.100000X0.412500X-1.100000X-0.412500X0*%
%ADD13RoundRect,0.250000X0.412500X1.100000X-0.412500X1.100000X-0.412500X-1.100000X0.412500X-1.100000X0*%
%ADD14RoundRect,0.250000X-0.412500X-1.100000X0.412500X-1.100000X0.412500X1.100000X-0.412500X1.100000X0*%
%ADD15RoundRect,0.250000X-1.100000X0.412500X-1.100000X-0.412500X1.100000X-0.412500X1.100000X0.412500X0*%
%ADD16RoundRect,0.250000X0.625000X-0.400000X0.625000X0.400000X-0.625000X0.400000X-0.625000X-0.400000X0*%
%ADD17RoundRect,0.150000X0.512500X0.150000X-0.512500X0.150000X-0.512500X-0.150000X0.512500X-0.150000X0*%
%ADD18RoundRect,0.250000X-0.625000X0.400000X-0.625000X-0.400000X0.625000X-0.400000X0.625000X0.400000X0*%
%ADD19RoundRect,0.150000X0.150000X-0.512500X0.150000X0.512500X-0.150000X0.512500X-0.150000X-0.512500X0*%
G04 APERTURE END LIST*
D10*
%TO.C,R51*%
X115400000Y-170600000D03*
X118500000Y-170600000D03*
%TD*%
D11*
%TO.C,R35*%
X237940000Y-206910000D03*
X234840000Y-206910000D03*
%TD*%
D12*
%TO.C,C15*%
X257200000Y-45325000D03*
X257200000Y-42200000D03*
%TD*%
D13*
%TO.C,C64*%
X182440000Y-164510000D03*
X179315000Y-164510000D03*
%TD*%
D14*
%TO.C,C45*%
X71515000Y-170800000D03*
X74640000Y-170800000D03*
%TD*%
D13*
%TO.C,C77*%
X95600000Y-34110000D03*
X92475000Y-34110000D03*
%TD*%
D15*
%TO.C,C20*%
X243800000Y-151437500D03*
X243800000Y-154562500D03*
%TD*%
D16*
%TO.C,R50*%
X133640000Y-165510000D03*
X133640000Y-162410000D03*
%TD*%
%TO.C,R38*%
X91800000Y-147010000D03*
X91800000Y-143910000D03*
%TD*%
D15*
%TO.C,C50*%
X53400000Y-121600000D03*
X53400000Y-124725000D03*
%TD*%
D16*
%TO.C,R26*%
X212000000Y-148810000D03*
X212000000Y-145710000D03*
%TD*%
D17*
%TO.C,U36*%
X32800000Y-141450000D03*
X32800000Y-142400000D03*
X32800000Y-143350000D03*
X30525000Y-143350000D03*
X30525000Y-142400000D03*
X30525000Y-141450000D03*
%TD*%
D13*
%TO.C,C31*%
X145002500Y-66510000D03*
X141877500Y-66510000D03*
%TD*%
D14*
%TO.C,C95*%
X65440000Y-242800000D03*
X68565000Y-242800000D03*
%TD*%
D15*
%TO.C,C33*%
X243800000Y-107710000D03*
X243800000Y-110835000D03*
%TD*%
D14*
%TO.C,C55*%
X99677500Y-170800000D03*
X102802500Y-170800000D03*
%TD*%
D15*
%TO.C,C58*%
X225440000Y-192785000D03*
X225440000Y-195910000D03*
%TD*%
D14*
%TO.C,C88*%
X117440000Y-211110000D03*
X120565000Y-211110000D03*
%TD*%
D18*
%TO.C,R31*%
X251840000Y-138010000D03*
X251840000Y-141110000D03*
%TD*%
D16*
%TO.C,R20*%
X150400000Y-173150000D03*
X150400000Y-170050000D03*
%TD*%
D15*
%TO.C,C11*%
X257000000Y-54200000D03*
X257000000Y-57325000D03*
%TD*%
D10*
%TO.C,R43*%
X159140000Y-116000000D03*
X162240000Y-116000000D03*
%TD*%
D15*
%TO.C,C54*%
X97040000Y-25747500D03*
X97040000Y-28872500D03*
%TD*%
D13*
%TO.C,C71*%
X42725000Y-132400000D03*
X39600000Y-132400000D03*
%TD*%
D15*
%TO.C,C6*%
X139600000Y-114537500D03*
X139600000Y-117662500D03*
%TD*%
D13*
%TO.C,C65*%
X110802500Y-124600000D03*
X107677500Y-124600000D03*
%TD*%
D18*
%TO.C,R52*%
X202600000Y-131000000D03*
X202600000Y-134100000D03*
%TD*%
D11*
%TO.C,R32*%
X249750000Y-178200000D03*
X246650000Y-178200000D03*
%TD*%
D18*
%TO.C,R36*%
X258800000Y-94200000D03*
X258800000Y-97300000D03*
%TD*%
D13*
%TO.C,C85*%
X140200000Y-26200000D03*
X137075000Y-26200000D03*
%TD*%
D11*
%TO.C,R27*%
X210800000Y-137510000D03*
X207700000Y-137510000D03*
%TD*%
D15*
%TO.C,C57*%
X222840000Y-137985000D03*
X222840000Y-141110000D03*
%TD*%
D11*
%TO.C,R30*%
X226750000Y-117000000D03*
X223650000Y-117000000D03*
%TD*%
D13*
%TO.C,C34*%
X220600000Y-54000000D03*
X217475000Y-54000000D03*
%TD*%
D15*
%TO.C,C39*%
X66440000Y-183110000D03*
X66440000Y-186235000D03*
%TD*%
D14*
%TO.C,C91*%
X116375000Y-202000000D03*
X119500000Y-202000000D03*
%TD*%
D15*
%TO.C,C72*%
X225640000Y-205385000D03*
X225640000Y-208510000D03*
%TD*%
D14*
%TO.C,C92*%
X66477500Y-252310000D03*
X69602500Y-252310000D03*
%TD*%
%TO.C,C89*%
X65075000Y-222600000D03*
X68200000Y-222600000D03*
%TD*%
D18*
%TO.C,R40*%
X129600000Y-132500000D03*
X129600000Y-135600000D03*
%TD*%
D11*
%TO.C,R33*%
X185550000Y-116400000D03*
X182450000Y-116400000D03*
%TD*%
D18*
%TO.C,R28*%
X202640000Y-113310000D03*
X202640000Y-116410000D03*
%TD*%
D16*
%TO.C,R42*%
X258200000Y-123700000D03*
X258200000Y-120600000D03*
%TD*%
D12*
%TO.C,C80*%
X257200000Y-38562500D03*
X257200000Y-35437500D03*
%TD*%
D13*
%TO.C,C81*%
X55240000Y-54910000D03*
X52115000Y-54910000D03*
%TD*%
D14*
%TO.C,C19*%
X136475000Y-170800000D03*
X139600000Y-170800000D03*
%TD*%
D13*
%TO.C,C68*%
X39800000Y-92600000D03*
X36675000Y-92600000D03*
%TD*%
D17*
%TO.C,U38*%
X39800000Y-141450000D03*
X39800000Y-142400000D03*
X39800000Y-143350000D03*
X37525000Y-143350000D03*
X37525000Y-142400000D03*
X37525000Y-141450000D03*
%TD*%
D11*
%TO.C,R39*%
X111100000Y-137600000D03*
X108000000Y-137600000D03*
%TD*%
D18*
%TO.C,R53*%
X230400000Y-90700000D03*
X230400000Y-93800000D03*
%TD*%
D15*
%TO.C,C5*%
X139600000Y-137400000D03*
X139600000Y-140525000D03*
%TD*%
D18*
%TO.C,R46*%
X207640000Y-130960000D03*
X207640000Y-134060000D03*
%TD*%
D16*
%TO.C,R21*%
X146000000Y-173150000D03*
X146000000Y-170050000D03*
%TD*%
D15*
%TO.C,C42*%
X219600000Y-104000000D03*
X219600000Y-107125000D03*
%TD*%
D13*
%TO.C,C67*%
X45525000Y-92600000D03*
X42400000Y-92600000D03*
%TD*%
D12*
%TO.C,C18*%
X237200000Y-243362500D03*
X237200000Y-240237500D03*
%TD*%
D15*
%TO.C,C53*%
X44040000Y-142585000D03*
X44040000Y-145710000D03*
%TD*%
D13*
%TO.C,C32*%
X145200000Y-78510000D03*
X142075000Y-78510000D03*
%TD*%
D12*
%TO.C,C24*%
X257000000Y-68562500D03*
X257000000Y-65437500D03*
%TD*%
D15*
%TO.C,C44*%
X184240000Y-155585000D03*
X184240000Y-158710000D03*
%TD*%
D13*
%TO.C,C23*%
X61840000Y-251510000D03*
X58715000Y-251510000D03*
%TD*%
%TO.C,C82*%
X65565000Y-87710000D03*
X62440000Y-87710000D03*
%TD*%
D15*
%TO.C,C63*%
X154800000Y-175200000D03*
X154800000Y-178325000D03*
%TD*%
D14*
%TO.C,C70*%
X47437500Y-132200000D03*
X50562500Y-132200000D03*
%TD*%
D11*
%TO.C,R37*%
X103040000Y-143910000D03*
X99940000Y-143910000D03*
%TD*%
D13*
%TO.C,C93*%
X60400000Y-222600000D03*
X57275000Y-222600000D03*
%TD*%
D15*
%TO.C,C74*%
X34240000Y-104310000D03*
X34240000Y-107435000D03*
%TD*%
%TO.C,C56*%
X244040000Y-137947500D03*
X244040000Y-141072500D03*
%TD*%
D14*
%TO.C,C29*%
X100275000Y-137200000D03*
X103400000Y-137200000D03*
%TD*%
D12*
%TO.C,C2*%
X233800000Y-93925000D03*
X233800000Y-90800000D03*
%TD*%
%TO.C,C46*%
X56000000Y-96525000D03*
X56000000Y-93400000D03*
%TD*%
D18*
%TO.C,R45*%
X211600000Y-130900000D03*
X211600000Y-134000000D03*
%TD*%
D12*
%TO.C,C73*%
X175440000Y-252072500D03*
X175440000Y-248947500D03*
%TD*%
D15*
%TO.C,C17*%
X222640000Y-151185000D03*
X222640000Y-154310000D03*
%TD*%
D10*
%TO.C,R29*%
X178890000Y-95110000D03*
X181990000Y-95110000D03*
%TD*%
D16*
%TO.C,R41*%
X172600000Y-29660000D03*
X172600000Y-26560000D03*
%TD*%
D19*
%TO.C,U44*%
X32550000Y-61937500D03*
X31600000Y-61937500D03*
X30650000Y-61937500D03*
X30650000Y-59662500D03*
X31600000Y-59662500D03*
X32550000Y-59662500D03*
%TD*%
D12*
%TO.C,C99*%
X257000000Y-76965000D03*
X257000000Y-73840000D03*
%TD*%
D14*
%TO.C,C78*%
X196315000Y-206710000D03*
X199440000Y-206710000D03*
%TD*%
D11*
%TO.C,R34*%
X110800000Y-121600000D03*
X107700000Y-121600000D03*
%TD*%
D15*
%TO.C,C69*%
X56400000Y-87237500D03*
X56400000Y-90362500D03*
%TD*%
D14*
%TO.C,C62*%
X217915000Y-171310000D03*
X221040000Y-171310000D03*
%TD*%
%TO.C,C61*%
X239077500Y-165110000D03*
X242202500Y-165110000D03*
%TD*%
D12*
%TO.C,C41*%
X219800000Y-118362500D03*
X219800000Y-115237500D03*
%TD*%
D13*
%TO.C,C43*%
X179562500Y-193400000D03*
X176437500Y-193400000D03*
%TD*%
D12*
%TO.C,C21*%
X209840000Y-180035000D03*
X209840000Y-176910000D03*
%TD*%
D14*
%TO.C,C87*%
X117440000Y-231110000D03*
X120565000Y-231110000D03*
%TD*%
D13*
%TO.C,C76*%
X174965000Y-79310000D03*
X171840000Y-79310000D03*
%TD*%
%TO.C,C86*%
X241162500Y-92800000D03*
X238037500Y-92800000D03*
%TD*%
D16*
%TO.C,R44*%
X213040000Y-118310000D03*
X213040000Y-115210000D03*
%TD*%
D10*
%TO.C,R25*%
X210040000Y-111800000D03*
X213140000Y-111800000D03*
%TD*%
D14*
%TO.C,C97*%
X65315000Y-202400000D03*
X68440000Y-202400000D03*
%TD*%
D12*
%TO.C,C38*%
X69040000Y-154035000D03*
X69040000Y-150910000D03*
%TD*%
D13*
%TO.C,C96*%
X60440000Y-242800000D03*
X57315000Y-242800000D03*
%TD*%
D18*
%TO.C,R49*%
X137617500Y-178200000D03*
X137617500Y-181300000D03*
%TD*%
D13*
%TO.C,C51*%
X175802500Y-230510000D03*
X172677500Y-230510000D03*
%TD*%
%TO.C,C98*%
X60600000Y-202400000D03*
X57475000Y-202400000D03*
%TD*%
D15*
%TO.C,C40*%
X153440000Y-93800000D03*
X153440000Y-96925000D03*
%TD*%
D14*
%TO.C,C94*%
X117440000Y-251310000D03*
X120565000Y-251310000D03*
%TD*%
D15*
%TO.C,C66*%
X193040000Y-122985000D03*
X193040000Y-126110000D03*
%TD*%
D12*
%TO.C,C84*%
X242800000Y-88362500D03*
X242800000Y-85237500D03*
%TD*%
D13*
%TO.C,C35*%
X222762500Y-70400000D03*
X219637500Y-70400000D03*
%TD*%
%TO.C,C30*%
X175165000Y-65510000D03*
X172040000Y-65510000D03*
%TD*%
D15*
%TO.C,C22*%
X45840000Y-157985000D03*
X45840000Y-161110000D03*
%TD*%
D13*
%TO.C,C83*%
X37762500Y-126000000D03*
X34637500Y-126000000D03*
%TD*%
D11*
%TO.C,R48*%
X149640000Y-165110000D03*
X146540000Y-165110000D03*
%TD*%
D13*
%TO.C,C52*%
X51600000Y-92600000D03*
X48475000Y-92600000D03*
%TD*%
D12*
%TO.C,C75*%
X35640000Y-67272500D03*
X35640000Y-64147500D03*
%TD*%
D16*
%TO.C,R47*%
X209240000Y-118310000D03*
X209240000Y-115210000D03*
%TD*%
D12*
%TO.C,C37*%
X96240000Y-156235000D03*
X96240000Y-153110000D03*
%TD*%
D15*
%TO.C,C36*%
X217600000Y-36600000D03*
X217600000Y-39725000D03*
%TD*%
D13*
%TO.C,C79*%
X29000000Y-130000000D03*
X25875000Y-130000000D03*
%TD*%
M02*
