%TF.GenerationSoftware,KiCad,Pcbnew,10.0.4*%
%TF.CreationDate,2026-07-04T05:53:56-07:00*%
%TF.ProjectId,retroslop,72657472-6f73-46c6-9f70-2e6b69636164,rev?*%
%TF.SameCoordinates,Original*%
%TF.FileFunction,Soldermask,Bot*%
%TF.FilePolarity,Negative*%
%FSLAX46Y46*%
G04 Gerber Fmt 4.6, Leading zero omitted, Abs format (unit mm)*
G04 Created by KiCad (PCBNEW 10.0.4) date 2026-07-04 05:53:56*
%MOMM*%
%LPD*%
G01*
G04 APERTURE LIST*
G04 Aperture macros list*
%AMRoundRect*
0 Rectangle with rounded corners*
0 $1 Rounding radius*
0 $2 $3 $4 $5 $6 $7 $8 $9 X,Y pos of 4 corners*
0 Add a 4 corners polygon primitive as box body*
4,1,4,$2,$3,$4,$5,$6,$7,$8,$9,$2,$3,0*
0 Add four circle primitives for the rounded corners*
1,1,$1+$1,$2,$3*
1,1,$1+$1,$4,$5*
1,1,$1+$1,$6,$7*
1,1,$1+$1,$8,$9*
0 Add four rect primitives between the rounded corners*
20,1,$1+$1,$2,$3,$4,$5,0*
20,1,$1+$1,$4,$5,$6,$7,0*
20,1,$1+$1,$6,$7,$8,$9,0*
20,1,$1+$1,$8,$9,$2,$3,0*%
G04 Aperture macros list end*
%ADD10C,1.600000*%
%ADD11RoundRect,0.250000X0.550000X-0.550000X0.550000X0.550000X-0.550000X0.550000X-0.550000X-0.550000X0*%
%ADD12RoundRect,0.250000X-0.550000X0.550000X-0.550000X-0.550000X0.550000X-0.550000X0.550000X0.550000X0*%
%ADD13RoundRect,0.250000X0.412500X1.100000X-0.412500X1.100000X-0.412500X-1.100000X0.412500X-1.100000X0*%
%ADD14RoundRect,0.250000X-0.412500X-1.100000X0.412500X-1.100000X0.412500X1.100000X-0.412500X1.100000X0*%
%ADD15RoundRect,0.250000X-1.100000X0.412500X-1.100000X-0.412500X1.100000X-0.412500X1.100000X0.412500X0*%
%ADD16RoundRect,0.250000X0.400000X0.625000X-0.400000X0.625000X-0.400000X-0.625000X0.400000X-0.625000X0*%
%ADD17RoundRect,0.250000X-0.625000X0.400000X-0.625000X-0.400000X0.625000X-0.400000X0.625000X0.400000X0*%
%ADD18RoundRect,0.250000X-0.400000X-0.625000X0.400000X-0.625000X0.400000X0.625000X-0.400000X0.625000X0*%
%ADD19RoundRect,0.250000X1.100000X-0.412500X1.100000X0.412500X-1.100000X0.412500X-1.100000X-0.412500X0*%
%ADD20O,1.800000X2.600000*%
%ADD21R,1.800000X2.600000*%
%ADD22C,3.000000*%
%ADD23RoundRect,0.250000X0.625000X-0.400000X0.625000X0.400000X-0.625000X0.400000X-0.625000X-0.400000X0*%
%ADD24R,1.440000X2.000000*%
%ADD25O,1.440000X2.000000*%
%ADD26C,1.500000*%
%ADD27R,1.700000X1.700000*%
%ADD28C,1.700000*%
%ADD29C,1.550000*%
%ADD30C,5.000000*%
%ADD31R,1.130000X1.130000*%
%ADD32C,1.130000*%
%ADD33C,4.000000*%
%ADD34R,1.500000X1.050000*%
%ADD35O,1.500000X1.050000*%
%ADD36R,1.750000X1.750000*%
%ADD37C,1.750000*%
%ADD38RoundRect,0.250000X0.550000X0.550000X-0.550000X0.550000X-0.550000X-0.550000X0.550000X-0.550000X0*%
%ADD39R,1.500000X1.500000*%
%ADD40C,1.950000*%
%ADD41R,1.638000X1.638000*%
%ADD42C,1.638000*%
%ADD43R,1.635000X1.635000*%
%ADD44C,1.635000*%
%ADD45R,1.422400X1.422400*%
%ADD46C,1.422400*%
%ADD47R,1.800000X1.800000*%
%ADD48C,1.800000*%
%ADD49R,1.650000X1.650000*%
%ADD50C,1.650000*%
%ADD51C,3.450000*%
G04 APERTURE END LIST*
D10*
%TO.C,U16*%
X156570000Y-85760000D03*
X159110000Y-85760000D03*
X161650000Y-85760000D03*
X164190000Y-85760000D03*
X166730000Y-85760000D03*
X169270000Y-85760000D03*
X171810000Y-85760000D03*
X174350000Y-85760000D03*
X176890000Y-85760000D03*
X179430000Y-85760000D03*
X181970000Y-85760000D03*
X184510000Y-85760000D03*
X187050000Y-85760000D03*
X189590000Y-85760000D03*
X189590000Y-101000000D03*
X187050000Y-101000000D03*
X184510000Y-101000000D03*
X181970000Y-101000000D03*
X179430000Y-101000000D03*
X176890000Y-101000000D03*
X174350000Y-101000000D03*
X171810000Y-101000000D03*
X169270000Y-101000000D03*
X166730000Y-101000000D03*
X164190000Y-101000000D03*
X161650000Y-101000000D03*
X159110000Y-101000000D03*
D11*
X156570000Y-101000000D03*
%TD*%
%TO.C,U15*%
X143755000Y-123820000D03*
D10*
X146295000Y-123820000D03*
X148835000Y-123820000D03*
X151375000Y-123820000D03*
X153915000Y-123820000D03*
X156455000Y-123820000D03*
X158995000Y-123820000D03*
X161535000Y-123820000D03*
X164075000Y-123820000D03*
X166615000Y-123820000D03*
X169155000Y-123820000D03*
X171695000Y-123820000D03*
X174235000Y-123820000D03*
X176775000Y-123820000D03*
X179315000Y-123820000D03*
X181855000Y-123820000D03*
X184395000Y-123820000D03*
X186935000Y-123820000D03*
X189475000Y-123820000D03*
X192015000Y-123820000D03*
X192015000Y-108580000D03*
X189475000Y-108580000D03*
X186935000Y-108580000D03*
X184395000Y-108580000D03*
X181855000Y-108580000D03*
X179315000Y-108580000D03*
X176775000Y-108580000D03*
X174235000Y-108580000D03*
X171695000Y-108580000D03*
X169155000Y-108580000D03*
X166615000Y-108580000D03*
X164075000Y-108580000D03*
X161535000Y-108580000D03*
X158995000Y-108580000D03*
X156455000Y-108580000D03*
X153915000Y-108580000D03*
X151375000Y-108580000D03*
X148835000Y-108580000D03*
X146295000Y-108580000D03*
X143755000Y-108580000D03*
%TD*%
%TO.C,U7*%
X179450000Y-229820000D03*
X176910000Y-229820000D03*
X174370000Y-229820000D03*
X171830000Y-229820000D03*
X169290000Y-229820000D03*
X166750000Y-229820000D03*
X164210000Y-229820000D03*
X161670000Y-229820000D03*
X159130000Y-229820000D03*
X156590000Y-229820000D03*
X154050000Y-229820000D03*
X151510000Y-229820000D03*
X148970000Y-229820000D03*
X146430000Y-229820000D03*
X143890000Y-229820000D03*
X141350000Y-229820000D03*
X141350000Y-214580000D03*
X143890000Y-214580000D03*
X146430000Y-214580000D03*
X148970000Y-214580000D03*
X151510000Y-214580000D03*
X154050000Y-214580000D03*
X156590000Y-214580000D03*
X159130000Y-214580000D03*
X161670000Y-214580000D03*
X164210000Y-214580000D03*
X166750000Y-214580000D03*
X169290000Y-214580000D03*
X171830000Y-214580000D03*
X174370000Y-214580000D03*
X176910000Y-214580000D03*
D12*
X179450000Y-214580000D03*
%TD*%
D13*
%TO.C,C34*%
X222000000Y-49800000D03*
X225125000Y-49800000D03*
%TD*%
D14*
%TO.C,C29*%
X107600000Y-133800000D03*
X104475000Y-133800000D03*
%TD*%
D13*
%TO.C,C30*%
X176200000Y-61800000D03*
X179325000Y-61800000D03*
%TD*%
D15*
%TO.C,C33*%
X247800000Y-107125000D03*
X247800000Y-104000000D03*
%TD*%
D16*
%TO.C,R37*%
X107200000Y-140200000D03*
X104100000Y-140200000D03*
%TD*%
D17*
%TO.C,R31*%
X256000000Y-134300000D03*
X256000000Y-137400000D03*
%TD*%
D18*
%TO.C,R29*%
X183050000Y-91400000D03*
X186150000Y-91400000D03*
%TD*%
%TO.C,R25*%
X214200000Y-108200000D03*
X217300000Y-108200000D03*
%TD*%
D15*
%TO.C,C80*%
X261200000Y-52037500D03*
X261200000Y-55162500D03*
%TD*%
%TO.C,C79*%
X261200000Y-44400000D03*
X261200000Y-47525000D03*
%TD*%
D14*
%TO.C,C78*%
X200475000Y-203000000D03*
X203600000Y-203000000D03*
%TD*%
D13*
%TO.C,C77*%
X100200000Y-30400000D03*
X97075000Y-30400000D03*
%TD*%
%TO.C,C76*%
X179125000Y-75600000D03*
X176000000Y-75600000D03*
%TD*%
D19*
%TO.C,C73*%
X179600000Y-248362500D03*
X179600000Y-245237500D03*
%TD*%
D15*
%TO.C,C72*%
X229800000Y-201675000D03*
X229800000Y-204800000D03*
%TD*%
%TO.C,C66*%
X197200000Y-119275000D03*
X197200000Y-122400000D03*
%TD*%
D13*
%TO.C,C65*%
X114962500Y-120200000D03*
X111837500Y-120200000D03*
%TD*%
%TO.C,C64*%
X186600000Y-160800000D03*
X183475000Y-160800000D03*
%TD*%
D15*
%TO.C,C63*%
X159200000Y-171475000D03*
X159200000Y-174600000D03*
%TD*%
D14*
%TO.C,C62*%
X222075000Y-168000000D03*
X225200000Y-168000000D03*
%TD*%
%TO.C,C61*%
X243237500Y-161400000D03*
X246362500Y-161400000D03*
%TD*%
D15*
%TO.C,C58*%
X229600000Y-189075000D03*
X229600000Y-192200000D03*
%TD*%
%TO.C,C57*%
X227000000Y-134275000D03*
X227000000Y-137400000D03*
%TD*%
%TO.C,C56*%
X248200000Y-134237500D03*
X248200000Y-137362500D03*
%TD*%
D14*
%TO.C,C55*%
X103837500Y-167600000D03*
X106962500Y-167600000D03*
%TD*%
D15*
%TO.C,C54*%
X101200000Y-22037500D03*
X101200000Y-25162500D03*
%TD*%
%TO.C,C53*%
X48200000Y-138875000D03*
X48200000Y-142000000D03*
%TD*%
D13*
%TO.C,C51*%
X179962500Y-226800000D03*
X176837500Y-226800000D03*
%TD*%
D19*
%TO.C,C46*%
X59200000Y-93325000D03*
X59200000Y-90200000D03*
%TD*%
D14*
%TO.C,C45*%
X75675000Y-167400000D03*
X78800000Y-167400000D03*
%TD*%
D15*
%TO.C,C44*%
X188400000Y-151875000D03*
X188400000Y-155000000D03*
%TD*%
D13*
%TO.C,C43*%
X183725000Y-189200000D03*
X180600000Y-189200000D03*
%TD*%
%TO.C,C42*%
X226762500Y-99200000D03*
X223637500Y-99200000D03*
%TD*%
D19*
%TO.C,C41*%
X224400000Y-114600000D03*
X224400000Y-111475000D03*
%TD*%
D15*
%TO.C,C40*%
X157600000Y-88075000D03*
X157600000Y-91200000D03*
%TD*%
%TO.C,C39*%
X70600000Y-179400000D03*
X70600000Y-182525000D03*
%TD*%
D19*
%TO.C,C38*%
X73200000Y-150325000D03*
X73200000Y-147200000D03*
%TD*%
%TO.C,C37*%
X100400000Y-152525000D03*
X100400000Y-149400000D03*
%TD*%
D15*
%TO.C,C36*%
X218600000Y-31675000D03*
X218600000Y-34800000D03*
%TD*%
D13*
%TO.C,C35*%
X226925000Y-61000000D03*
X223800000Y-61000000D03*
%TD*%
%TO.C,C32*%
X149525000Y-74800000D03*
X146400000Y-74800000D03*
%TD*%
%TO.C,C31*%
X149162500Y-62800000D03*
X146037500Y-62800000D03*
%TD*%
%TO.C,C23*%
X66000000Y-247800000D03*
X62875000Y-247800000D03*
%TD*%
D15*
%TO.C,C22*%
X50000000Y-154275000D03*
X50000000Y-157400000D03*
%TD*%
D19*
%TO.C,C21*%
X214000000Y-176325000D03*
X214000000Y-173200000D03*
%TD*%
D15*
%TO.C,C20*%
X249200000Y-147637500D03*
X249200000Y-150762500D03*
%TD*%
D19*
%TO.C,C18*%
X241000000Y-228400000D03*
X241000000Y-225275000D03*
%TD*%
D15*
%TO.C,C17*%
X226800000Y-147475000D03*
X226800000Y-150600000D03*
%TD*%
%TO.C,C16*%
X261400000Y-65675000D03*
X261400000Y-68800000D03*
%TD*%
%TO.C,C15*%
X261200000Y-74237500D03*
X261200000Y-77362500D03*
%TD*%
D19*
%TO.C,C11*%
X261200000Y-61125000D03*
X261200000Y-58000000D03*
%TD*%
D15*
%TO.C,C6*%
X143400000Y-114875000D03*
X143400000Y-118000000D03*
%TD*%
%TO.C,C5*%
X143600000Y-138637500D03*
X143600000Y-141762500D03*
%TD*%
D18*
%TO.C,R43*%
X163300000Y-112000000D03*
X166400000Y-112000000D03*
%TD*%
D20*
%TO.C,DS2*%
X176900000Y-19442500D03*
X174360000Y-19442500D03*
X171820000Y-19442500D03*
X169280000Y-19442500D03*
X166740000Y-19442500D03*
X164200000Y-19442500D03*
X161660000Y-19442500D03*
X159120000Y-19442500D03*
X156580000Y-19442500D03*
X154040000Y-19442500D03*
X151500000Y-19442500D03*
X148960000Y-19442500D03*
X146420000Y-19442500D03*
X143880000Y-19442500D03*
X141340000Y-19442500D03*
D21*
X138800000Y-19442500D03*
D22*
X208300000Y-19442500D03*
X208299480Y-50443200D03*
X133300900Y-50443200D03*
X133300900Y-19442500D03*
%TD*%
D23*
%TO.C,R41*%
X174400000Y-22850000D03*
X174400000Y-25950000D03*
%TD*%
D13*
%TO.C,C69*%
X51675000Y-84200000D03*
X54800000Y-84200000D03*
%TD*%
D10*
%TO.C,U11*%
X39075000Y-98580000D03*
X41615000Y-98580000D03*
X44155000Y-98580000D03*
X46695000Y-98580000D03*
X49235000Y-98580000D03*
X51775000Y-98580000D03*
X54315000Y-98580000D03*
X56855000Y-98580000D03*
X59395000Y-98580000D03*
X61935000Y-98580000D03*
X64475000Y-98580000D03*
X67015000Y-98580000D03*
X69555000Y-98580000D03*
X72095000Y-98580000D03*
X74635000Y-98580000D03*
X77175000Y-98580000D03*
X79715000Y-98580000D03*
X82255000Y-98580000D03*
X84795000Y-98580000D03*
X87335000Y-98580000D03*
X87335000Y-113820000D03*
X84795000Y-113820000D03*
X82255000Y-113820000D03*
X79715000Y-113820000D03*
X77175000Y-113820000D03*
X74635000Y-113820000D03*
X72095000Y-113820000D03*
X69555000Y-113820000D03*
X67015000Y-113820000D03*
X64475000Y-113820000D03*
X61935000Y-113820000D03*
X59395000Y-113820000D03*
X56855000Y-113820000D03*
X54315000Y-113820000D03*
X51775000Y-113820000D03*
X49235000Y-113820000D03*
X46695000Y-113820000D03*
X44155000Y-113820000D03*
X41615000Y-113820000D03*
D11*
X39075000Y-113820000D03*
%TD*%
D10*
%TO.C,U24*%
X151600000Y-62180000D03*
X154140000Y-62180000D03*
X156680000Y-62180000D03*
X159220000Y-62180000D03*
X161760000Y-62180000D03*
X164300000Y-62180000D03*
X166840000Y-62180000D03*
X166840000Y-69800000D03*
X164300000Y-69800000D03*
X161760000Y-69800000D03*
X159220000Y-69800000D03*
X156680000Y-69800000D03*
X154140000Y-69800000D03*
D11*
X151600000Y-69800000D03*
%TD*%
D10*
%TO.C,U5*%
X151620000Y-74980000D03*
X154160000Y-74980000D03*
X156700000Y-74980000D03*
X159240000Y-74980000D03*
X161780000Y-74980000D03*
X164320000Y-74980000D03*
X166860000Y-74980000D03*
X169400000Y-74980000D03*
X169400000Y-82600000D03*
X166860000Y-82600000D03*
X164320000Y-82600000D03*
X161780000Y-82600000D03*
X159240000Y-82600000D03*
X156700000Y-82600000D03*
X154160000Y-82600000D03*
D11*
X151620000Y-82600000D03*
%TD*%
%TO.C,U54*%
X181680000Y-82400000D03*
D10*
X184220000Y-82400000D03*
X186760000Y-82400000D03*
X189300000Y-82400000D03*
X191840000Y-82400000D03*
X194380000Y-82400000D03*
X196920000Y-82400000D03*
X199460000Y-82400000D03*
X202000000Y-82400000D03*
X204540000Y-82400000D03*
X204540000Y-74780000D03*
X202000000Y-74780000D03*
X199460000Y-74780000D03*
X196920000Y-74780000D03*
X194380000Y-74780000D03*
X191840000Y-74780000D03*
X189300000Y-74780000D03*
X186760000Y-74780000D03*
X184220000Y-74780000D03*
X181680000Y-74780000D03*
%TD*%
%TO.C,U40*%
X94930000Y-48200000D03*
X92390000Y-48200000D03*
X89850000Y-48200000D03*
X87310000Y-48200000D03*
X84770000Y-48200000D03*
X82230000Y-48200000D03*
X79690000Y-48200000D03*
X77150000Y-48200000D03*
X74610000Y-48200000D03*
X72070000Y-48200000D03*
X69530000Y-48200000D03*
X66990000Y-48200000D03*
X64450000Y-48200000D03*
X61910000Y-48200000D03*
X59370000Y-48200000D03*
X56830000Y-48200000D03*
X54290000Y-48200000D03*
X51750000Y-48200000D03*
X49210000Y-48200000D03*
X46670000Y-48200000D03*
X46670000Y-32960000D03*
X49210000Y-32960000D03*
X51750000Y-32960000D03*
X54290000Y-32960000D03*
X56830000Y-32960000D03*
X59370000Y-32960000D03*
X61910000Y-32960000D03*
X64450000Y-32960000D03*
X66990000Y-32960000D03*
X69530000Y-32960000D03*
X72070000Y-32960000D03*
X74610000Y-32960000D03*
X77150000Y-32960000D03*
X79690000Y-32960000D03*
X82230000Y-32960000D03*
X84770000Y-32960000D03*
X87310000Y-32960000D03*
X89850000Y-32960000D03*
X92390000Y-32960000D03*
D12*
X94930000Y-32960000D03*
%TD*%
D10*
%TO.C,U55*%
X181570000Y-62380000D03*
X184110000Y-62380000D03*
X186650000Y-62380000D03*
X189190000Y-62380000D03*
X191730000Y-62380000D03*
X194270000Y-62380000D03*
X196810000Y-62380000D03*
X199350000Y-62380000D03*
X201890000Y-62380000D03*
X204430000Y-62380000D03*
X204430000Y-70000000D03*
X201890000Y-70000000D03*
X199350000Y-70000000D03*
X196810000Y-70000000D03*
X194270000Y-70000000D03*
X191730000Y-70000000D03*
X189190000Y-70000000D03*
X186650000Y-70000000D03*
X184110000Y-70000000D03*
D11*
X181570000Y-70000000D03*
%TD*%
D13*
%TO.C,C83*%
X38675000Y-121000000D03*
X41800000Y-121000000D03*
%TD*%
D11*
%TO.C,U3*%
X226800000Y-152840000D03*
D10*
X229340000Y-152840000D03*
X231880000Y-152840000D03*
X234420000Y-152840000D03*
X236960000Y-152840000D03*
X239500000Y-152840000D03*
X242040000Y-152840000D03*
X242040000Y-145220000D03*
X239500000Y-145220000D03*
X236960000Y-145220000D03*
X234420000Y-145220000D03*
X231880000Y-145220000D03*
X229340000Y-145220000D03*
X226800000Y-145220000D03*
%TD*%
%TO.C,U30*%
X50570000Y-152210000D03*
X53110000Y-152210000D03*
X55650000Y-152210000D03*
X58190000Y-152210000D03*
X60730000Y-152210000D03*
X63270000Y-152210000D03*
X65810000Y-152210000D03*
X68350000Y-152210000D03*
X68350000Y-159830000D03*
X65810000Y-159830000D03*
X63270000Y-159830000D03*
X60730000Y-159830000D03*
X58190000Y-159830000D03*
X55650000Y-159830000D03*
X53110000Y-159830000D03*
D11*
X50570000Y-159830000D03*
%TD*%
D10*
%TO.C,U56*%
X73370000Y-152185000D03*
X75910000Y-152185000D03*
X78450000Y-152185000D03*
X80990000Y-152185000D03*
X83530000Y-152185000D03*
X86070000Y-152185000D03*
X88610000Y-152185000D03*
X91150000Y-152185000D03*
X93690000Y-152185000D03*
X96230000Y-152185000D03*
X96230000Y-159805000D03*
X93690000Y-159805000D03*
X91150000Y-159805000D03*
X88610000Y-159805000D03*
X86070000Y-159805000D03*
X83530000Y-159805000D03*
X80990000Y-159805000D03*
X78450000Y-159805000D03*
X75910000Y-159805000D03*
D11*
X73370000Y-159805000D03*
%TD*%
D10*
%TO.C,U31*%
X103630000Y-152385000D03*
X106170000Y-152385000D03*
X108710000Y-152385000D03*
X111250000Y-152385000D03*
X113790000Y-152385000D03*
X116330000Y-152385000D03*
X118870000Y-152385000D03*
X121410000Y-152385000D03*
X123950000Y-152385000D03*
X126490000Y-152385000D03*
X126490000Y-160005000D03*
X123950000Y-160005000D03*
X121410000Y-160005000D03*
X118870000Y-160005000D03*
X116330000Y-160005000D03*
X113790000Y-160005000D03*
X111250000Y-160005000D03*
X108710000Y-160005000D03*
X106170000Y-160005000D03*
D11*
X103630000Y-160005000D03*
%TD*%
%TO.C,U19*%
X191520000Y-171400000D03*
D10*
X194060000Y-171400000D03*
X196600000Y-171400000D03*
X199140000Y-171400000D03*
X201680000Y-171400000D03*
X204220000Y-171400000D03*
X206760000Y-171400000D03*
X209300000Y-171400000D03*
X211840000Y-171400000D03*
X214380000Y-171400000D03*
X214380000Y-163780000D03*
X211840000Y-163780000D03*
X209300000Y-163780000D03*
X206760000Y-163780000D03*
X204220000Y-163780000D03*
X201680000Y-163780000D03*
X199140000Y-163780000D03*
X196600000Y-163780000D03*
X194060000Y-163780000D03*
X191520000Y-163780000D03*
%TD*%
%TO.C,U21*%
X185480000Y-171200000D03*
X182940000Y-171200000D03*
X180400000Y-171200000D03*
X177860000Y-171200000D03*
X175320000Y-171200000D03*
X172780000Y-171200000D03*
X170240000Y-171200000D03*
X167700000Y-171200000D03*
X165160000Y-171200000D03*
X162620000Y-171200000D03*
X162620000Y-163580000D03*
X165160000Y-163580000D03*
X167700000Y-163580000D03*
X170240000Y-163580000D03*
X172780000Y-163580000D03*
X175320000Y-163580000D03*
X177860000Y-163580000D03*
X180400000Y-163580000D03*
X182940000Y-163580000D03*
D12*
X185480000Y-163580000D03*
%TD*%
D10*
%TO.C,U18*%
X191580000Y-151600000D03*
X194120000Y-151600000D03*
X196660000Y-151600000D03*
X199200000Y-151600000D03*
X201740000Y-151600000D03*
X204280000Y-151600000D03*
X206820000Y-151600000D03*
X209360000Y-151600000D03*
X211900000Y-151600000D03*
X214440000Y-151600000D03*
X214440000Y-159220000D03*
X211900000Y-159220000D03*
X209360000Y-159220000D03*
X206820000Y-159220000D03*
X204280000Y-159220000D03*
X201740000Y-159220000D03*
X199200000Y-159220000D03*
X196660000Y-159220000D03*
X194120000Y-159220000D03*
D11*
X191580000Y-159220000D03*
%TD*%
D10*
%TO.C,U37*%
X222380000Y-163980000D03*
X224920000Y-163980000D03*
X227460000Y-163980000D03*
X230000000Y-163980000D03*
X232540000Y-163980000D03*
X235080000Y-163980000D03*
X237620000Y-163980000D03*
X237620000Y-171600000D03*
X235080000Y-171600000D03*
X232540000Y-171600000D03*
X230000000Y-171600000D03*
X227460000Y-171600000D03*
X224920000Y-171600000D03*
D11*
X222380000Y-171600000D03*
%TD*%
%TO.C,U6*%
X229710000Y-194210000D03*
D10*
X232250000Y-194210000D03*
X234790000Y-194210000D03*
X237330000Y-194210000D03*
X239870000Y-194210000D03*
X242410000Y-194210000D03*
X244950000Y-194210000D03*
X247490000Y-194210000D03*
X247490000Y-186590000D03*
X244950000Y-186590000D03*
X242410000Y-186590000D03*
X239870000Y-186590000D03*
X237330000Y-186590000D03*
X234790000Y-186590000D03*
X232250000Y-186590000D03*
X229710000Y-186590000D03*
%TD*%
D24*
%TO.C,U26*%
X242220000Y-216200000D03*
D25*
X239680000Y-216200000D03*
X237140000Y-216200000D03*
X234600000Y-216200000D03*
X232060000Y-216200000D03*
X229520000Y-216200000D03*
X226980000Y-216200000D03*
X224440000Y-216200000D03*
X221900000Y-216200000D03*
X219360000Y-216200000D03*
X216820000Y-216200000D03*
X214280000Y-216200000D03*
X211740000Y-216200000D03*
X209200000Y-216200000D03*
X206660000Y-216200000D03*
X204120000Y-216200000D03*
X204120000Y-231440000D03*
X206660000Y-231440000D03*
X209200000Y-231440000D03*
X211740000Y-231440000D03*
X214280000Y-231440000D03*
X216820000Y-231440000D03*
X219360000Y-231440000D03*
X221900000Y-231440000D03*
X224440000Y-231440000D03*
X226980000Y-231440000D03*
X229520000Y-231440000D03*
X232060000Y-231440000D03*
X234600000Y-231440000D03*
X237140000Y-231440000D03*
X239680000Y-231440000D03*
X242220000Y-231440000D03*
%TD*%
D10*
%TO.C,U12*%
X179480000Y-250200000D03*
X176940000Y-250200000D03*
X174400000Y-250200000D03*
X171860000Y-250200000D03*
X169320000Y-250200000D03*
X166780000Y-250200000D03*
X164240000Y-250200000D03*
X161700000Y-250200000D03*
X159160000Y-250200000D03*
X156620000Y-250200000D03*
X154080000Y-250200000D03*
X151540000Y-250200000D03*
X149000000Y-250200000D03*
X146460000Y-250200000D03*
X143920000Y-250200000D03*
X141380000Y-250200000D03*
X141380000Y-234960000D03*
X143920000Y-234960000D03*
X146460000Y-234960000D03*
X149000000Y-234960000D03*
X151540000Y-234960000D03*
X154080000Y-234960000D03*
X156620000Y-234960000D03*
X159160000Y-234960000D03*
X161700000Y-234960000D03*
X164240000Y-234960000D03*
X166780000Y-234960000D03*
X169320000Y-234960000D03*
X171860000Y-234960000D03*
X174400000Y-234960000D03*
X176940000Y-234960000D03*
D12*
X179480000Y-234960000D03*
%TD*%
D26*
%TO.C,Y2*%
X150237500Y-181030000D03*
X150237500Y-176150000D03*
%TD*%
D10*
%TO.C,U9*%
X183030000Y-193000000D03*
X180490000Y-193000000D03*
X177950000Y-193000000D03*
X175410000Y-193000000D03*
X172870000Y-193000000D03*
X170330000Y-193000000D03*
X167790000Y-193000000D03*
X165250000Y-193000000D03*
X162710000Y-193000000D03*
X160170000Y-193000000D03*
X160170000Y-185380000D03*
X162710000Y-185380000D03*
X165250000Y-185380000D03*
X167790000Y-185380000D03*
X170330000Y-185380000D03*
X172870000Y-185380000D03*
X175410000Y-185380000D03*
X177950000Y-185380000D03*
X180490000Y-185380000D03*
D12*
X183030000Y-185380000D03*
%TD*%
%TO.C,U27*%
X70480000Y-169780000D03*
D10*
X67940000Y-169780000D03*
X65400000Y-169780000D03*
X62860000Y-169780000D03*
X60320000Y-169780000D03*
X57780000Y-169780000D03*
X55240000Y-169780000D03*
X52700000Y-169780000D03*
X50160000Y-169780000D03*
X47620000Y-169780000D03*
X47620000Y-177400000D03*
X50160000Y-177400000D03*
X52700000Y-177400000D03*
X55240000Y-177400000D03*
X57780000Y-177400000D03*
X60320000Y-177400000D03*
X62860000Y-177400000D03*
X65400000Y-177400000D03*
X67940000Y-177400000D03*
X70480000Y-177400000D03*
%TD*%
%TO.C,U41*%
X101110000Y-19785000D03*
X103650000Y-19785000D03*
X106190000Y-19785000D03*
X108730000Y-19785000D03*
X111270000Y-19785000D03*
X113810000Y-19785000D03*
X116350000Y-19785000D03*
X118890000Y-19785000D03*
X118890000Y-27405000D03*
X116350000Y-27405000D03*
X113810000Y-27405000D03*
X111270000Y-27405000D03*
X108730000Y-27405000D03*
X106190000Y-27405000D03*
X103650000Y-27405000D03*
D11*
X101110000Y-27405000D03*
%TD*%
D17*
%TO.C,R46*%
X211800000Y-130350000D03*
X211800000Y-127250000D03*
%TD*%
D10*
%TO.C,U23*%
X197220000Y-116980000D03*
X199760000Y-116980000D03*
X202300000Y-116980000D03*
X204840000Y-116980000D03*
X207380000Y-116980000D03*
X209920000Y-116980000D03*
X212460000Y-116980000D03*
X215000000Y-116980000D03*
X217540000Y-116980000D03*
X220080000Y-116980000D03*
X220080000Y-124600000D03*
X217540000Y-124600000D03*
X215000000Y-124600000D03*
X212460000Y-124600000D03*
X209920000Y-124600000D03*
X207380000Y-124600000D03*
X204840000Y-124600000D03*
X202300000Y-124600000D03*
X199760000Y-124600000D03*
D11*
X197220000Y-124600000D03*
%TD*%
D17*
%TO.C,R45*%
X215400000Y-130300000D03*
X215400000Y-127200000D03*
%TD*%
D23*
%TO.C,R44*%
X217200000Y-111500000D03*
X217200000Y-114600000D03*
%TD*%
%TO.C,R47*%
X213400000Y-111500000D03*
X213400000Y-114600000D03*
%TD*%
D10*
%TO.C,U2*%
X247900000Y-101800000D03*
X250440000Y-101800000D03*
X252980000Y-101800000D03*
X255520000Y-101800000D03*
X258060000Y-101800000D03*
X260600000Y-101800000D03*
X263140000Y-101800000D03*
X263140000Y-109420000D03*
X260600000Y-109420000D03*
X258060000Y-109420000D03*
X255520000Y-109420000D03*
X252980000Y-109420000D03*
X250440000Y-109420000D03*
D11*
X247900000Y-109420000D03*
%TD*%
D10*
%TO.C,U10*%
X243180000Y-163980000D03*
X245720000Y-163980000D03*
X248260000Y-163980000D03*
X250800000Y-163980000D03*
X253340000Y-163980000D03*
X255880000Y-163980000D03*
X258420000Y-163980000D03*
X258420000Y-171600000D03*
X255880000Y-171600000D03*
X253340000Y-171600000D03*
X250800000Y-171600000D03*
X248260000Y-171600000D03*
X245720000Y-171600000D03*
D11*
X243180000Y-171600000D03*
%TD*%
D23*
%TO.C,R50*%
X138437500Y-161350000D03*
X138437500Y-158250000D03*
%TD*%
D12*
%TO.C,U13*%
X156277500Y-163800000D03*
D10*
X153737500Y-163800000D03*
X151197500Y-163800000D03*
X148657500Y-163800000D03*
X146117500Y-163800000D03*
X143577500Y-163800000D03*
X141037500Y-163800000D03*
X138497500Y-163800000D03*
X135957500Y-163800000D03*
X135957500Y-171420000D03*
X138497500Y-171420000D03*
X141037500Y-171420000D03*
X143577500Y-171420000D03*
X146117500Y-171420000D03*
X148657500Y-171420000D03*
X151197500Y-171420000D03*
X153737500Y-171420000D03*
X156277500Y-171420000D03*
%TD*%
D16*
%TO.C,R48*%
X153800000Y-161400000D03*
X150700000Y-161400000D03*
%TD*%
D23*
%TO.C,R20*%
X154000000Y-169800000D03*
X154000000Y-166700000D03*
%TD*%
D14*
%TO.C,C19*%
X140637500Y-167800000D03*
X143762500Y-167800000D03*
%TD*%
D23*
%TO.C,R21*%
X150600000Y-169800000D03*
X150600000Y-166700000D03*
%TD*%
D10*
%TO.C,U22*%
X229640000Y-199400000D03*
X232180000Y-199400000D03*
X234720000Y-199400000D03*
X237260000Y-199400000D03*
X239800000Y-199400000D03*
X242340000Y-199400000D03*
X244880000Y-199400000D03*
X244880000Y-207020000D03*
X242340000Y-207020000D03*
X239800000Y-207020000D03*
X237260000Y-207020000D03*
X234720000Y-207020000D03*
X232180000Y-207020000D03*
D11*
X229640000Y-207020000D03*
%TD*%
D16*
%TO.C,R35*%
X242100000Y-203200000D03*
X239000000Y-203200000D03*
%TD*%
D11*
%TO.C,U50*%
X226960000Y-71405000D03*
D10*
X229500000Y-71405000D03*
X232040000Y-71405000D03*
X234580000Y-71405000D03*
X237120000Y-71405000D03*
X239660000Y-71405000D03*
X242200000Y-71405000D03*
X244740000Y-71405000D03*
X247280000Y-71405000D03*
X249820000Y-71405000D03*
X249820000Y-63785000D03*
X247280000Y-63785000D03*
X244740000Y-63785000D03*
X242200000Y-63785000D03*
X239660000Y-63785000D03*
X237120000Y-63785000D03*
X234580000Y-63785000D03*
X232040000Y-63785000D03*
X229500000Y-63785000D03*
X226960000Y-63785000D03*
%TD*%
D11*
%TO.C,U14*%
X143720000Y-146820000D03*
D10*
X146260000Y-146820000D03*
X148800000Y-146820000D03*
X151340000Y-146820000D03*
X153880000Y-146820000D03*
X156420000Y-146820000D03*
X158960000Y-146820000D03*
X161500000Y-146820000D03*
X164040000Y-146820000D03*
X166580000Y-146820000D03*
X169120000Y-146820000D03*
X171660000Y-146820000D03*
X174200000Y-146820000D03*
X176740000Y-146820000D03*
X179280000Y-146820000D03*
X181820000Y-146820000D03*
X184360000Y-146820000D03*
X186900000Y-146820000D03*
X189440000Y-146820000D03*
X191980000Y-146820000D03*
X191980000Y-131580000D03*
X189440000Y-131580000D03*
X186900000Y-131580000D03*
X184360000Y-131580000D03*
X181820000Y-131580000D03*
X179280000Y-131580000D03*
X176740000Y-131580000D03*
X174200000Y-131580000D03*
X171660000Y-131580000D03*
X169120000Y-131580000D03*
X166580000Y-131580000D03*
X164040000Y-131580000D03*
X161500000Y-131580000D03*
X158960000Y-131580000D03*
X156420000Y-131580000D03*
X153880000Y-131580000D03*
X151340000Y-131580000D03*
X148800000Y-131580000D03*
X146260000Y-131580000D03*
X143720000Y-131580000D03*
%TD*%
D27*
%TO.C,J7*%
X30425000Y-20225000D03*
D28*
X27885000Y-20225000D03*
X30425000Y-22765000D03*
X27885000Y-22765000D03*
X30425000Y-25305000D03*
X27885000Y-25305000D03*
X30425000Y-27845000D03*
X27885000Y-27845000D03*
X30425000Y-30385000D03*
X27885000Y-30385000D03*
X30425000Y-32925000D03*
X27885000Y-32925000D03*
X30425000Y-35465000D03*
X27885000Y-35465000D03*
X30425000Y-38005000D03*
X27885000Y-38005000D03*
X30425000Y-40545000D03*
X27885000Y-40545000D03*
X30425000Y-43085000D03*
X27885000Y-43085000D03*
X30425000Y-45625000D03*
X27885000Y-45625000D03*
X30425000Y-48165000D03*
X27885000Y-48165000D03*
X30425000Y-50705000D03*
X27885000Y-50705000D03*
X30425000Y-53245000D03*
X27885000Y-53245000D03*
%TD*%
D27*
%TO.C,J13*%
X240230000Y-20900000D03*
D28*
X237690000Y-20900000D03*
%TD*%
D29*
%TO.C,J5*%
X30600000Y-85260000D03*
X30600000Y-88030000D03*
X30600000Y-90800000D03*
X30600000Y-93570000D03*
X30600000Y-96340000D03*
X27760000Y-86645000D03*
X27760000Y-89415000D03*
X27760000Y-92185000D03*
X27760000Y-94955000D03*
D30*
X29180000Y-78305000D03*
X29180000Y-103295000D03*
%TD*%
D14*
%TO.C,C95*%
X69600000Y-238400000D03*
X72725000Y-238400000D03*
%TD*%
%TO.C,C88*%
X121600000Y-207400000D03*
X124725000Y-207400000D03*
%TD*%
D31*
%TO.C,IC1*%
X221830000Y-47148000D03*
D32*
X224370000Y-47148000D03*
X226910000Y-47148000D03*
X229450000Y-47148000D03*
X231990000Y-47148000D03*
X234530000Y-47148000D03*
X237070000Y-47148000D03*
X239610000Y-47148000D03*
X242150000Y-47148000D03*
X244690000Y-47148000D03*
X247230000Y-47148000D03*
X249770000Y-47148000D03*
X249770000Y-31652000D03*
X247230000Y-31652000D03*
X244690000Y-31652000D03*
X242150000Y-31652000D03*
X239610000Y-31652000D03*
X237070000Y-31652000D03*
X234530000Y-31652000D03*
X231990000Y-31652000D03*
X229450000Y-31652000D03*
X226910000Y-31652000D03*
X224370000Y-31652000D03*
X221830000Y-31652000D03*
%TD*%
D33*
%TO.C,H5*%
X189100000Y-22510000D03*
%TD*%
%TO.C,H2*%
X189100000Y-225710000D03*
%TD*%
D11*
%TO.C,U8*%
X248180000Y-152825000D03*
D10*
X250720000Y-152825000D03*
X253260000Y-152825000D03*
X255800000Y-152825000D03*
X258340000Y-152825000D03*
X260880000Y-152825000D03*
X263420000Y-152825000D03*
X263420000Y-145205000D03*
X260880000Y-145205000D03*
X258340000Y-145205000D03*
X255800000Y-145205000D03*
X253260000Y-145205000D03*
X250720000Y-145205000D03*
X248180000Y-145205000D03*
%TD*%
D23*
%TO.C,R11*%
X249600000Y-87090000D03*
X249600000Y-83990000D03*
%TD*%
D14*
%TO.C,C71*%
X46837500Y-120800000D03*
X49962500Y-120800000D03*
%TD*%
D11*
%TO.C,U17*%
X48200000Y-144200000D03*
D10*
X50740000Y-144200000D03*
X53280000Y-144200000D03*
X55820000Y-144200000D03*
X58360000Y-144200000D03*
X60900000Y-144200000D03*
X63440000Y-144200000D03*
X63440000Y-136580000D03*
X60900000Y-136580000D03*
X58360000Y-136580000D03*
X55820000Y-136580000D03*
X53280000Y-136580000D03*
X50740000Y-136580000D03*
X48200000Y-136580000D03*
%TD*%
D33*
%TO.C,H1*%
X34160000Y-173640000D03*
%TD*%
%TO.C,H8*%
X189100000Y-246030000D03*
%TD*%
%TO.C,H6*%
X57020000Y-22510000D03*
%TD*%
D13*
%TO.C,C85*%
X141800000Y-22400000D03*
X138675000Y-22400000D03*
%TD*%
D34*
%TO.C,Q1*%
X249040000Y-90520000D03*
D35*
X249040000Y-91790000D03*
X249040000Y-93060000D03*
%TD*%
D27*
%TO.C,J12*%
X258800000Y-117075000D03*
D28*
X258800000Y-114535000D03*
%TD*%
D12*
%TO.C,U43*%
X57100000Y-87000000D03*
D10*
X54560000Y-87000000D03*
X52020000Y-87000000D03*
X49480000Y-87000000D03*
X46940000Y-87000000D03*
X44400000Y-87000000D03*
X41860000Y-87000000D03*
X39320000Y-87000000D03*
X39320000Y-94620000D03*
X41860000Y-94620000D03*
X44400000Y-94620000D03*
X46940000Y-94620000D03*
X49480000Y-94620000D03*
X52020000Y-94620000D03*
X54560000Y-94620000D03*
X57100000Y-94620000D03*
%TD*%
D14*
%TO.C,C91*%
X120600000Y-197400000D03*
X123725000Y-197400000D03*
%TD*%
D11*
%TO.C,U20*%
X200620000Y-207000000D03*
D10*
X203160000Y-207000000D03*
X205700000Y-207000000D03*
X208240000Y-207000000D03*
X210780000Y-207000000D03*
X213320000Y-207000000D03*
X215860000Y-207000000D03*
X218400000Y-207000000D03*
X220940000Y-207000000D03*
X223480000Y-207000000D03*
X223480000Y-199380000D03*
X220940000Y-199380000D03*
X218400000Y-199380000D03*
X215860000Y-199380000D03*
X213320000Y-199380000D03*
X210780000Y-199380000D03*
X208240000Y-199380000D03*
X205700000Y-199380000D03*
X203160000Y-199380000D03*
X200620000Y-199380000D03*
%TD*%
D11*
%TO.C,U28*%
X104430000Y-143820000D03*
D10*
X106970000Y-143820000D03*
X109510000Y-143820000D03*
X112050000Y-143820000D03*
X114590000Y-143820000D03*
X117130000Y-143820000D03*
X119670000Y-143820000D03*
X122210000Y-143820000D03*
X124750000Y-143820000D03*
X127290000Y-143820000D03*
X127290000Y-136200000D03*
X124750000Y-136200000D03*
X122210000Y-136200000D03*
X119670000Y-136200000D03*
X117130000Y-136200000D03*
X114590000Y-136200000D03*
X112050000Y-136200000D03*
X109510000Y-136200000D03*
X106970000Y-136200000D03*
X104430000Y-136200000D03*
%TD*%
D14*
%TO.C,C92*%
X70637500Y-248600000D03*
X73762500Y-248600000D03*
%TD*%
%TO.C,C89*%
X69437500Y-217800000D03*
X72562500Y-217800000D03*
%TD*%
D33*
%TO.C,H7*%
X34160000Y-225710000D03*
%TD*%
D11*
%TO.C,U29*%
X227000000Y-139615000D03*
D10*
X229540000Y-139615000D03*
X232080000Y-139615000D03*
X234620000Y-139615000D03*
X237160000Y-139615000D03*
X239700000Y-139615000D03*
X242240000Y-139615000D03*
X242240000Y-131995000D03*
X239700000Y-131995000D03*
X237160000Y-131995000D03*
X234620000Y-131995000D03*
X232080000Y-131995000D03*
X229540000Y-131995000D03*
X227000000Y-131995000D03*
%TD*%
D33*
%TO.C,H4*%
X189100000Y-179990000D03*
%TD*%
D36*
%TO.C,J8*%
X263950000Y-31584250D03*
D37*
X263950000Y-35784250D03*
X263950000Y-39984250D03*
X263950000Y-44184250D03*
X263950000Y-48384250D03*
X263950000Y-52584250D03*
X263950000Y-56784250D03*
X263950000Y-60984250D03*
X263950000Y-65184250D03*
X263950000Y-69384250D03*
X263950000Y-73584250D03*
X263950000Y-77784250D03*
X258450000Y-31584250D03*
X258450000Y-35784250D03*
X258450000Y-39984250D03*
X258450000Y-44184250D03*
X258450000Y-48384250D03*
X258450000Y-52584250D03*
X258450000Y-56784250D03*
X258450000Y-60984250D03*
X258450000Y-65184250D03*
X258450000Y-69384250D03*
X258450000Y-73584250D03*
X258450000Y-77784250D03*
%TD*%
D13*
%TO.C,C81*%
X59400000Y-51200000D03*
X56275000Y-51200000D03*
%TD*%
D11*
%TO.C,U48*%
X104340000Y-177420000D03*
D10*
X106880000Y-177420000D03*
X109420000Y-177420000D03*
X111960000Y-177420000D03*
X114500000Y-177420000D03*
X117040000Y-177420000D03*
X119580000Y-177420000D03*
X122120000Y-177420000D03*
X124660000Y-177420000D03*
X127200000Y-177420000D03*
X127200000Y-169800000D03*
X124660000Y-169800000D03*
X122120000Y-169800000D03*
X119580000Y-169800000D03*
X117040000Y-169800000D03*
X114500000Y-169800000D03*
X111960000Y-169800000D03*
X109420000Y-169800000D03*
X106880000Y-169800000D03*
X104340000Y-169800000D03*
%TD*%
D11*
%TO.C,U35*%
X75960000Y-177400000D03*
D10*
X78500000Y-177400000D03*
X81040000Y-177400000D03*
X83580000Y-177400000D03*
X86120000Y-177400000D03*
X88660000Y-177400000D03*
X91200000Y-177400000D03*
X93740000Y-177400000D03*
X96280000Y-177400000D03*
X98820000Y-177400000D03*
X98820000Y-169780000D03*
X96280000Y-169780000D03*
X93740000Y-169780000D03*
X91200000Y-169780000D03*
X88660000Y-169780000D03*
X86120000Y-169780000D03*
X83580000Y-169780000D03*
X81040000Y-169780000D03*
X78500000Y-169780000D03*
X75960000Y-169780000D03*
%TD*%
D14*
%TO.C,C68*%
X43875000Y-84400000D03*
X47000000Y-84400000D03*
%TD*%
D33*
%TO.C,H9*%
X261490000Y-22510000D03*
%TD*%
D38*
%TO.C,D1*%
X243610000Y-92990000D03*
D10*
X235990000Y-92990000D03*
%TD*%
D13*
%TO.C,C67*%
X49725000Y-89600000D03*
X46600000Y-89600000D03*
%TD*%
D39*
%TO.C,VR1*%
X128200000Y-25800000D03*
D40*
X125700000Y-28800000D03*
D26*
X123200000Y-25800000D03*
%TD*%
D41*
%TO.C,J2*%
X49400000Y-235570000D03*
D42*
X51940000Y-235570000D03*
X54480000Y-235570000D03*
X57020000Y-235570000D03*
X59560000Y-235570000D03*
X62100000Y-235570000D03*
X64640000Y-235570000D03*
X67180000Y-235570000D03*
X69720000Y-235570000D03*
X72260000Y-235570000D03*
X74800000Y-235570000D03*
X77340000Y-235570000D03*
X79880000Y-235570000D03*
X82420000Y-235570000D03*
X84960000Y-235570000D03*
X87500000Y-235570000D03*
X90040000Y-235570000D03*
X92580000Y-235570000D03*
X95120000Y-235570000D03*
X97660000Y-235570000D03*
X100200000Y-235570000D03*
X102740000Y-235570000D03*
X105280000Y-235570000D03*
X107820000Y-235570000D03*
X110360000Y-235570000D03*
X112900000Y-235570000D03*
X115440000Y-235570000D03*
X117980000Y-235570000D03*
X120520000Y-235570000D03*
X123060000Y-235570000D03*
X125600000Y-235570000D03*
X49400000Y-230718000D03*
X51940000Y-230718000D03*
X54480000Y-230718000D03*
X57020000Y-230718000D03*
X59560000Y-230718000D03*
X62100000Y-230718000D03*
X64640000Y-230718000D03*
X67180000Y-230718000D03*
X69720000Y-230718000D03*
X72260000Y-230718000D03*
X74800000Y-230718000D03*
X77340000Y-230718000D03*
X79880000Y-230718000D03*
X82420000Y-230718000D03*
X84960000Y-230718000D03*
X87500000Y-230718000D03*
X90040000Y-230718000D03*
X92580000Y-230718000D03*
X95120000Y-230718000D03*
X97660000Y-230718000D03*
X100200000Y-230718000D03*
X102740000Y-230718000D03*
X105280000Y-230718000D03*
X107820000Y-230718000D03*
X110360000Y-230718000D03*
X112900000Y-230718000D03*
X115440000Y-230718000D03*
X117980000Y-230718000D03*
X120520000Y-230718000D03*
X123060000Y-230718000D03*
X125600000Y-230718000D03*
%TD*%
D43*
%TO.C,S1*%
X249000000Y-25540000D03*
D44*
X249000000Y-23000000D03*
X249000000Y-20460000D03*
%TD*%
D13*
%TO.C,C82*%
X69725000Y-84000000D03*
X66600000Y-84000000D03*
%TD*%
%TO.C,C93*%
X64600000Y-217600000D03*
X61475000Y-217600000D03*
%TD*%
D41*
%TO.C,J4*%
X49400000Y-194330000D03*
D42*
X51940000Y-194330000D03*
X54480000Y-194330000D03*
X57020000Y-194330000D03*
X59560000Y-194330000D03*
X62100000Y-194330000D03*
X64640000Y-194330000D03*
X67180000Y-194330000D03*
X69720000Y-194330000D03*
X72260000Y-194330000D03*
X74800000Y-194330000D03*
X77340000Y-194330000D03*
X79880000Y-194330000D03*
X82420000Y-194330000D03*
X84960000Y-194330000D03*
X87500000Y-194330000D03*
X90040000Y-194330000D03*
X92580000Y-194330000D03*
X95120000Y-194330000D03*
X97660000Y-194330000D03*
X100200000Y-194330000D03*
X102740000Y-194330000D03*
X105280000Y-194330000D03*
X107820000Y-194330000D03*
X110360000Y-194330000D03*
X112900000Y-194330000D03*
X115440000Y-194330000D03*
X117980000Y-194330000D03*
X120520000Y-194330000D03*
X123060000Y-194330000D03*
X125600000Y-194330000D03*
X49400000Y-189478000D03*
X51940000Y-189478000D03*
X54480000Y-189478000D03*
X57020000Y-189478000D03*
X59560000Y-189478000D03*
X62100000Y-189478000D03*
X64640000Y-189478000D03*
X67180000Y-189478000D03*
X69720000Y-189478000D03*
X72260000Y-189478000D03*
X74800000Y-189478000D03*
X77340000Y-189478000D03*
X79880000Y-189478000D03*
X82420000Y-189478000D03*
X84960000Y-189478000D03*
X87500000Y-189478000D03*
X90040000Y-189478000D03*
X92580000Y-189478000D03*
X95120000Y-189478000D03*
X97660000Y-189478000D03*
X100200000Y-189478000D03*
X102740000Y-189478000D03*
X105280000Y-189478000D03*
X107820000Y-189478000D03*
X110360000Y-189478000D03*
X112900000Y-189478000D03*
X115440000Y-189478000D03*
X117980000Y-189478000D03*
X120520000Y-189478000D03*
X123060000Y-189478000D03*
X125600000Y-189478000D03*
%TD*%
D15*
%TO.C,C74*%
X38400000Y-100600000D03*
X38400000Y-103725000D03*
%TD*%
D45*
%TO.C,U34*%
X115000000Y-113900000D03*
D46*
X112460000Y-111360000D03*
X112460000Y-113900000D03*
X109920000Y-111360000D03*
X109920000Y-113900000D03*
X107380000Y-111360000D03*
X104840000Y-113900000D03*
X107380000Y-113900000D03*
X104840000Y-116440000D03*
X107380000Y-116440000D03*
X104840000Y-118980000D03*
X107380000Y-118980000D03*
X104840000Y-121520000D03*
X107380000Y-121520000D03*
X104840000Y-124060000D03*
X107380000Y-124060000D03*
X104840000Y-126600000D03*
X107380000Y-129140000D03*
X107380000Y-126600000D03*
X109920000Y-129140000D03*
X109920000Y-126600000D03*
X112460000Y-129140000D03*
X112460000Y-126600000D03*
X115000000Y-129140000D03*
X115000000Y-126600000D03*
X117540000Y-129140000D03*
X117540000Y-126600000D03*
X120080000Y-129140000D03*
X122620000Y-126600000D03*
X120080000Y-126600000D03*
X122620000Y-124060000D03*
X120080000Y-124060000D03*
X122620000Y-121520000D03*
X120080000Y-121520000D03*
X122620000Y-118980000D03*
X120080000Y-118980000D03*
X122620000Y-116440000D03*
X120080000Y-116440000D03*
X122620000Y-113900000D03*
X120080000Y-111360000D03*
X120080000Y-113900000D03*
X117540000Y-111360000D03*
X117540000Y-113900000D03*
X115000000Y-111360000D03*
%TD*%
D10*
%TO.C,LS1*%
X243590000Y-82800000D03*
X235990000Y-82800000D03*
%TD*%
D15*
%TO.C,C99*%
X261200000Y-36200000D03*
X261200000Y-39325000D03*
%TD*%
D39*
%TO.C,S2*%
X222600000Y-20300000D03*
D26*
X229100000Y-20300000D03*
X222600000Y-24800000D03*
X229100000Y-24800000D03*
%TD*%
D41*
%TO.C,J1*%
X49400000Y-256190000D03*
D42*
X51940000Y-256190000D03*
X54480000Y-256190000D03*
X57020000Y-256190000D03*
X59560000Y-256190000D03*
X62100000Y-256190000D03*
X64640000Y-256190000D03*
X67180000Y-256190000D03*
X69720000Y-256190000D03*
X72260000Y-256190000D03*
X74800000Y-256190000D03*
X77340000Y-256190000D03*
X79880000Y-256190000D03*
X82420000Y-256190000D03*
X84960000Y-256190000D03*
X87500000Y-256190000D03*
X90040000Y-256190000D03*
X92580000Y-256190000D03*
X95120000Y-256190000D03*
X97660000Y-256190000D03*
X100200000Y-256190000D03*
X102740000Y-256190000D03*
X105280000Y-256190000D03*
X107820000Y-256190000D03*
X110360000Y-256190000D03*
X112900000Y-256190000D03*
X115440000Y-256190000D03*
X117980000Y-256190000D03*
X120520000Y-256190000D03*
X123060000Y-256190000D03*
X125600000Y-256190000D03*
X49400000Y-251338000D03*
X51940000Y-251338000D03*
X54480000Y-251338000D03*
X57020000Y-251338000D03*
X59560000Y-251338000D03*
X62100000Y-251338000D03*
X64640000Y-251338000D03*
X67180000Y-251338000D03*
X69720000Y-251338000D03*
X72260000Y-251338000D03*
X74800000Y-251338000D03*
X77340000Y-251338000D03*
X79880000Y-251338000D03*
X82420000Y-251338000D03*
X84960000Y-251338000D03*
X87500000Y-251338000D03*
X90040000Y-251338000D03*
X92580000Y-251338000D03*
X95120000Y-251338000D03*
X97660000Y-251338000D03*
X100200000Y-251338000D03*
X102740000Y-251338000D03*
X105280000Y-251338000D03*
X107820000Y-251338000D03*
X110360000Y-251338000D03*
X112900000Y-251338000D03*
X115440000Y-251338000D03*
X117980000Y-251338000D03*
X120520000Y-251338000D03*
X123060000Y-251338000D03*
X125600000Y-251338000D03*
%TD*%
D11*
%TO.C,U1*%
X227100000Y-109400000D03*
D10*
X229640000Y-109400000D03*
X232180000Y-109400000D03*
X234720000Y-109400000D03*
X237260000Y-109400000D03*
X239800000Y-109400000D03*
X242340000Y-109400000D03*
X242340000Y-101780000D03*
X239800000Y-101780000D03*
X237260000Y-101780000D03*
X234720000Y-101780000D03*
X232180000Y-101780000D03*
X229640000Y-101780000D03*
X227100000Y-101780000D03*
%TD*%
D41*
%TO.C,J3*%
X49400000Y-214950000D03*
D42*
X51940000Y-214950000D03*
X54480000Y-214950000D03*
X57020000Y-214950000D03*
X59560000Y-214950000D03*
X62100000Y-214950000D03*
X64640000Y-214950000D03*
X67180000Y-214950000D03*
X69720000Y-214950000D03*
X72260000Y-214950000D03*
X74800000Y-214950000D03*
X77340000Y-214950000D03*
X79880000Y-214950000D03*
X82420000Y-214950000D03*
X84960000Y-214950000D03*
X87500000Y-214950000D03*
X90040000Y-214950000D03*
X92580000Y-214950000D03*
X95120000Y-214950000D03*
X97660000Y-214950000D03*
X100200000Y-214950000D03*
X102740000Y-214950000D03*
X105280000Y-214950000D03*
X107820000Y-214950000D03*
X110360000Y-214950000D03*
X112900000Y-214950000D03*
X115440000Y-214950000D03*
X117980000Y-214950000D03*
X120520000Y-214950000D03*
X123060000Y-214950000D03*
X125600000Y-214950000D03*
X49400000Y-210098000D03*
X51940000Y-210098000D03*
X54480000Y-210098000D03*
X57020000Y-210098000D03*
X59560000Y-210098000D03*
X62100000Y-210098000D03*
X64640000Y-210098000D03*
X67180000Y-210098000D03*
X69720000Y-210098000D03*
X72260000Y-210098000D03*
X74800000Y-210098000D03*
X77340000Y-210098000D03*
X79880000Y-210098000D03*
X82420000Y-210098000D03*
X84960000Y-210098000D03*
X87500000Y-210098000D03*
X90040000Y-210098000D03*
X92580000Y-210098000D03*
X95120000Y-210098000D03*
X97660000Y-210098000D03*
X100200000Y-210098000D03*
X102740000Y-210098000D03*
X105280000Y-210098000D03*
X107820000Y-210098000D03*
X110360000Y-210098000D03*
X112900000Y-210098000D03*
X115440000Y-210098000D03*
X117980000Y-210098000D03*
X120520000Y-210098000D03*
X123060000Y-210098000D03*
X125600000Y-210098000D03*
%TD*%
D14*
%TO.C,C87*%
X121600000Y-227400000D03*
X124725000Y-227400000D03*
%TD*%
D11*
%TO.C,U42*%
X38960000Y-81020000D03*
D10*
X41500000Y-81020000D03*
X44040000Y-81020000D03*
X46580000Y-81020000D03*
X49120000Y-81020000D03*
X51660000Y-81020000D03*
X54200000Y-81020000D03*
X56740000Y-81020000D03*
X59280000Y-81020000D03*
X61820000Y-81020000D03*
X64360000Y-81020000D03*
X66900000Y-81020000D03*
X69440000Y-81020000D03*
X71980000Y-81020000D03*
X74520000Y-81020000D03*
X77060000Y-81020000D03*
X79600000Y-81020000D03*
X82140000Y-81020000D03*
X84680000Y-81020000D03*
X87220000Y-81020000D03*
X87220000Y-65780000D03*
X84680000Y-65780000D03*
X82140000Y-65780000D03*
X79600000Y-65780000D03*
X77060000Y-65780000D03*
X74520000Y-65780000D03*
X71980000Y-65780000D03*
X69440000Y-65780000D03*
X66900000Y-65780000D03*
X64360000Y-65780000D03*
X61820000Y-65780000D03*
X59280000Y-65780000D03*
X56740000Y-65780000D03*
X54200000Y-65780000D03*
X51660000Y-65780000D03*
X49120000Y-65780000D03*
X46580000Y-65780000D03*
X44040000Y-65780000D03*
X41500000Y-65780000D03*
X38960000Y-65780000D03*
%TD*%
D11*
%TO.C,U4*%
X248180000Y-139620000D03*
D10*
X250720000Y-139620000D03*
X253260000Y-139620000D03*
X255800000Y-139620000D03*
X258340000Y-139620000D03*
X260880000Y-139620000D03*
X263420000Y-139620000D03*
X263420000Y-132000000D03*
X260880000Y-132000000D03*
X258340000Y-132000000D03*
X255800000Y-132000000D03*
X253260000Y-132000000D03*
X250720000Y-132000000D03*
X248180000Y-132000000D03*
%TD*%
D33*
%TO.C,H3*%
X261490000Y-179990000D03*
%TD*%
D14*
%TO.C,C97*%
X69475000Y-197200000D03*
X72600000Y-197200000D03*
%TD*%
D13*
%TO.C,C96*%
X64600000Y-238200000D03*
X61475000Y-238200000D03*
%TD*%
%TO.C,C98*%
X64800000Y-197000000D03*
X61675000Y-197000000D03*
%TD*%
D14*
%TO.C,C94*%
X121600000Y-247600000D03*
X124725000Y-247600000D03*
%TD*%
D47*
%TO.C,D2*%
X260325000Y-86200000D03*
D48*
X262865000Y-86200000D03*
%TD*%
D11*
%TO.C,U46*%
X39120000Y-124220000D03*
D10*
X41660000Y-124220000D03*
X44200000Y-124220000D03*
X46740000Y-124220000D03*
X49280000Y-124220000D03*
X51820000Y-124220000D03*
X54360000Y-124220000D03*
X54360000Y-116600000D03*
X51820000Y-116600000D03*
X49280000Y-116600000D03*
X46740000Y-116600000D03*
X44200000Y-116600000D03*
X41660000Y-116600000D03*
X39120000Y-116600000D03*
%TD*%
D49*
%TO.C,J10*%
X32370000Y-138160000D03*
D50*
X32370000Y-135560000D03*
X32370000Y-140260000D03*
X32370000Y-133460000D03*
X34870000Y-140260000D03*
X34870000Y-133460000D03*
X39370000Y-138160000D03*
X39370000Y-135560000D03*
X39370000Y-140260000D03*
X39370000Y-133460000D03*
X41870000Y-140260000D03*
X41870000Y-133460000D03*
D51*
X28570000Y-136860000D03*
X29370000Y-143610000D03*
X29370000Y-130110000D03*
X39370000Y-143610000D03*
X39370000Y-130110000D03*
%TD*%
D13*
%TO.C,C52*%
X56125000Y-89800000D03*
X53000000Y-89800000D03*
%TD*%
D11*
%TO.C,U47*%
X226980000Y-57800000D03*
D10*
X229520000Y-57800000D03*
X232060000Y-57800000D03*
X234600000Y-57800000D03*
X237140000Y-57800000D03*
X239680000Y-57800000D03*
X242220000Y-57800000D03*
X244760000Y-57800000D03*
X247300000Y-57800000D03*
X249840000Y-57800000D03*
X249840000Y-50180000D03*
X247300000Y-50180000D03*
X244760000Y-50180000D03*
X242220000Y-50180000D03*
X239680000Y-50180000D03*
X237140000Y-50180000D03*
X234600000Y-50180000D03*
X232060000Y-50180000D03*
X229520000Y-50180000D03*
X226980000Y-50180000D03*
%TD*%
D11*
%TO.C,U33*%
X101030000Y-48240000D03*
D10*
X103570000Y-48240000D03*
X106110000Y-48240000D03*
X108650000Y-48240000D03*
X111190000Y-48240000D03*
X113730000Y-48240000D03*
X116270000Y-48240000D03*
X118810000Y-48240000D03*
X121350000Y-48240000D03*
X123890000Y-48240000D03*
X126430000Y-48240000D03*
X128970000Y-48240000D03*
X128970000Y-33000000D03*
X126430000Y-33000000D03*
X123890000Y-33000000D03*
X121350000Y-33000000D03*
X118810000Y-33000000D03*
X116270000Y-33000000D03*
X113730000Y-33000000D03*
X111190000Y-33000000D03*
X108650000Y-33000000D03*
X106110000Y-33000000D03*
X103570000Y-33000000D03*
X101030000Y-33000000D03*
%TD*%
D11*
%TO.C,U32*%
X224420000Y-124600000D03*
D10*
X226960000Y-124600000D03*
X229500000Y-124600000D03*
X232040000Y-124600000D03*
X234580000Y-124600000D03*
X237120000Y-124600000D03*
X239660000Y-124600000D03*
X242200000Y-124600000D03*
X242200000Y-116980000D03*
X239660000Y-116980000D03*
X237120000Y-116980000D03*
X234580000Y-116980000D03*
X232040000Y-116980000D03*
X229500000Y-116980000D03*
X226960000Y-116980000D03*
X224420000Y-116980000D03*
%TD*%
M02*
