%TF.GenerationSoftware,KiCad,Pcbnew,10.0.4*%
%TF.CreationDate,2026-07-10T10:57:12-07:00*%
%TF.ProjectId,retroslop,72657472-6f73-46c6-9f70-2e6b69636164,A*%
%TF.SameCoordinates,Original*%
%TF.FileFunction,Soldermask,Top*%
%TF.FilePolarity,Negative*%
%FSLAX46Y46*%
G04 Gerber Fmt 4.6, Leading zero omitted, Abs format (unit mm)*
G04 Created by KiCad (PCBNEW 10.0.4) date 2026-07-10 10:57:12*
%MOMM*%
%LPD*%
G01*
G04 APERTURE LIST*
G04 Aperture macros list*
%AMRoundRect*
0 Rectangle with rounded corners*
0 $1 Rounding radius*
0 $2 $3 $4 $5 $6 $7 $8 $9 X,Y pos of 4 corners*
0 Add a 4 corners polygon primitive as box body*
4,1,4,$2,$3,$4,$5,$6,$7,$8,$9,$2,$3,0*
0 Add four circle primitives for the rounded corners*
1,1,$1+$1,$2,$3*
1,1,$1+$1,$4,$5*
1,1,$1+$1,$6,$7*
1,1,$1+$1,$8,$9*
0 Add four rect primitives between the rounded corners*
20,1,$1+$1,$2,$3,$4,$5,0*
20,1,$1+$1,$4,$5,$6,$7,0*
20,1,$1+$1,$6,$7,$8,$9,0*
20,1,$1+$1,$8,$9,$2,$3,0*%
G04 Aperture macros list end*
%ADD10RoundRect,0.250000X-0.550000X0.550000X-0.550000X-0.550000X0.550000X-0.550000X0.550000X0.550000X0*%
%ADD11C,1.600000*%
%ADD12RoundRect,0.250000X0.550000X-0.550000X0.550000X0.550000X-0.550000X0.550000X-0.550000X-0.550000X0*%
%ADD13R,1.700000X1.700000*%
%ADD14C,1.700000*%
%ADD15R,1.440000X2.000000*%
%ADD16O,1.440000X2.000000*%
%ADD17R,1.500000X1.500000*%
%ADD18C,1.950000*%
%ADD19C,1.500000*%
%ADD20C,1.550000*%
%ADD21C,5.000000*%
%ADD22C,3.000000*%
%ADD23R,1.800000X2.600000*%
%ADD24O,1.800000X2.600000*%
%ADD25R,1.130000X1.130000*%
%ADD26C,1.130000*%
%ADD27C,4.000000*%
%ADD28R,1.750000X1.750000*%
%ADD29C,1.750000*%
%ADD30RoundRect,0.250000X0.550000X0.550000X-0.550000X0.550000X-0.550000X-0.550000X0.550000X-0.550000X0*%
%ADD31R,1.638000X1.638000*%
%ADD32C,1.638000*%
%ADD33R,1.635000X1.635000*%
%ADD34C,1.635000*%
%ADD35R,1.422400X1.422400*%
%ADD36C,1.422400*%
%ADD37RoundRect,0.250000X-0.550000X-0.550000X0.550000X-0.550000X0.550000X0.550000X-0.550000X0.550000X0*%
%ADD38R,1.800000X1.800000*%
%ADD39C,1.800000*%
%ADD40R,1.650000X1.650000*%
%ADD41C,1.650000*%
%ADD42C,3.450000*%
%ADD43R,1.400000X0.900000*%
G04 APERTURE END LIST*
D10*
%TO.C,U40*%
X90770000Y-36670000D03*
D11*
X88230000Y-36670000D03*
X85690000Y-36670000D03*
X83150000Y-36670000D03*
X80610000Y-36670000D03*
X78070000Y-36670000D03*
X75530000Y-36670000D03*
X72990000Y-36670000D03*
X70450000Y-36670000D03*
X67910000Y-36670000D03*
X65370000Y-36670000D03*
X62830000Y-36670000D03*
X60290000Y-36670000D03*
X57750000Y-36670000D03*
X55210000Y-36670000D03*
X52670000Y-36670000D03*
X50130000Y-36670000D03*
X47590000Y-36670000D03*
X45050000Y-36670000D03*
X42510000Y-36670000D03*
X42510000Y-51910000D03*
X45050000Y-51910000D03*
X47590000Y-51910000D03*
X50130000Y-51910000D03*
X52670000Y-51910000D03*
X55210000Y-51910000D03*
X57750000Y-51910000D03*
X60290000Y-51910000D03*
X62830000Y-51910000D03*
X65370000Y-51910000D03*
X67910000Y-51910000D03*
X70450000Y-51910000D03*
X72990000Y-51910000D03*
X75530000Y-51910000D03*
X78070000Y-51910000D03*
X80610000Y-51910000D03*
X83150000Y-51910000D03*
X85690000Y-51910000D03*
X88230000Y-51910000D03*
X90770000Y-51910000D03*
%TD*%
D12*
%TO.C,U10*%
X239020000Y-175310000D03*
D11*
X241560000Y-175310000D03*
X244100000Y-175310000D03*
X246640000Y-175310000D03*
X249180000Y-175310000D03*
X251720000Y-175310000D03*
X254260000Y-175310000D03*
X254260000Y-167690000D03*
X251720000Y-167690000D03*
X249180000Y-167690000D03*
X246640000Y-167690000D03*
X244100000Y-167690000D03*
X241560000Y-167690000D03*
X239020000Y-167690000D03*
%TD*%
D12*
%TO.C,U50*%
X222800000Y-75115000D03*
D11*
X225340000Y-75115000D03*
X227880000Y-75115000D03*
X230420000Y-75115000D03*
X232960000Y-75115000D03*
X235500000Y-75115000D03*
X238040000Y-75115000D03*
X240580000Y-75115000D03*
X243120000Y-75115000D03*
X245660000Y-75115000D03*
X245660000Y-67495000D03*
X243120000Y-67495000D03*
X240580000Y-67495000D03*
X238040000Y-67495000D03*
X235500000Y-67495000D03*
X232960000Y-67495000D03*
X230420000Y-67495000D03*
X227880000Y-67495000D03*
X225340000Y-67495000D03*
X222800000Y-67495000D03*
%TD*%
D12*
%TO.C,U14*%
X139560000Y-150530000D03*
D11*
X142100000Y-150530000D03*
X144640000Y-150530000D03*
X147180000Y-150530000D03*
X149720000Y-150530000D03*
X152260000Y-150530000D03*
X154800000Y-150530000D03*
X157340000Y-150530000D03*
X159880000Y-150530000D03*
X162420000Y-150530000D03*
X164960000Y-150530000D03*
X167500000Y-150530000D03*
X170040000Y-150530000D03*
X172580000Y-150530000D03*
X175120000Y-150530000D03*
X177660000Y-150530000D03*
X180200000Y-150530000D03*
X182740000Y-150530000D03*
X185280000Y-150530000D03*
X187820000Y-150530000D03*
X187820000Y-135290000D03*
X185280000Y-135290000D03*
X182740000Y-135290000D03*
X180200000Y-135290000D03*
X177660000Y-135290000D03*
X175120000Y-135290000D03*
X172580000Y-135290000D03*
X170040000Y-135290000D03*
X167500000Y-135290000D03*
X164960000Y-135290000D03*
X162420000Y-135290000D03*
X159880000Y-135290000D03*
X157340000Y-135290000D03*
X154800000Y-135290000D03*
X152260000Y-135290000D03*
X149720000Y-135290000D03*
X147180000Y-135290000D03*
X144640000Y-135290000D03*
X142100000Y-135290000D03*
X139560000Y-135290000D03*
%TD*%
D13*
%TO.C,J7*%
X32940000Y-23935000D03*
D14*
X30400000Y-23935000D03*
X32940000Y-26475000D03*
X30400000Y-26475000D03*
X32940000Y-29015000D03*
X30400000Y-29015000D03*
X32940000Y-31555000D03*
X30400000Y-31555000D03*
X32940000Y-34095000D03*
X30400000Y-34095000D03*
X32940000Y-36635000D03*
X30400000Y-36635000D03*
X32940000Y-39175000D03*
X30400000Y-39175000D03*
X32940000Y-41715000D03*
X30400000Y-41715000D03*
X32940000Y-44255000D03*
X30400000Y-44255000D03*
X32940000Y-46795000D03*
X30400000Y-46795000D03*
X32940000Y-49335000D03*
X30400000Y-49335000D03*
X32940000Y-51875000D03*
X30400000Y-51875000D03*
X32940000Y-54415000D03*
X30400000Y-54415000D03*
X32940000Y-56955000D03*
X30400000Y-56955000D03*
%TD*%
D15*
%TO.C,U26*%
X238460000Y-230200000D03*
D16*
X235920000Y-230200000D03*
X233380000Y-230200000D03*
X230840000Y-230200000D03*
X228300000Y-230200000D03*
X225760000Y-230200000D03*
X223220000Y-230200000D03*
X220680000Y-230200000D03*
X218140000Y-230200000D03*
X215600000Y-230200000D03*
X213060000Y-230200000D03*
X210520000Y-230200000D03*
X207980000Y-230200000D03*
X205440000Y-230200000D03*
X202900000Y-230200000D03*
X200360000Y-230200000D03*
X200360000Y-245440000D03*
X202900000Y-245440000D03*
X205440000Y-245440000D03*
X207980000Y-245440000D03*
X210520000Y-245440000D03*
X213060000Y-245440000D03*
X215600000Y-245440000D03*
X218140000Y-245440000D03*
X220680000Y-245440000D03*
X223220000Y-245440000D03*
X225760000Y-245440000D03*
X228300000Y-245440000D03*
X230840000Y-245440000D03*
X233380000Y-245440000D03*
X235920000Y-245440000D03*
X238460000Y-245440000D03*
%TD*%
D12*
%TO.C,U31*%
X99440000Y-163730000D03*
D11*
X101980000Y-163730000D03*
X104520000Y-163730000D03*
X107060000Y-163730000D03*
X109600000Y-163730000D03*
X112140000Y-163730000D03*
X114680000Y-163730000D03*
X117220000Y-163730000D03*
X119760000Y-163730000D03*
X122300000Y-163730000D03*
X122300000Y-156110000D03*
X119760000Y-156110000D03*
X117220000Y-156110000D03*
X114680000Y-156110000D03*
X112140000Y-156110000D03*
X109600000Y-156110000D03*
X107060000Y-156110000D03*
X104520000Y-156110000D03*
X101980000Y-156110000D03*
X99440000Y-156110000D03*
%TD*%
D13*
%TO.C,J13*%
X236070000Y-24610000D03*
D14*
X233530000Y-24610000D03*
%TD*%
D17*
%TO.C,VR2*%
X251600000Y-92000000D03*
D18*
X249100000Y-95000000D03*
D19*
X246600000Y-92000000D03*
%TD*%
D12*
%TO.C,U56*%
X69210000Y-163515000D03*
D11*
X71750000Y-163515000D03*
X74290000Y-163515000D03*
X76830000Y-163515000D03*
X79370000Y-163515000D03*
X81910000Y-163515000D03*
X84450000Y-163515000D03*
X86990000Y-163515000D03*
X89530000Y-163515000D03*
X92070000Y-163515000D03*
X92070000Y-155895000D03*
X89530000Y-155895000D03*
X86990000Y-155895000D03*
X84450000Y-155895000D03*
X81910000Y-155895000D03*
X79370000Y-155895000D03*
X76830000Y-155895000D03*
X74290000Y-155895000D03*
X71750000Y-155895000D03*
X69210000Y-155895000D03*
%TD*%
D12*
%TO.C,U47*%
X222820000Y-61510000D03*
D11*
X225360000Y-61510000D03*
X227900000Y-61510000D03*
X230440000Y-61510000D03*
X232980000Y-61510000D03*
X235520000Y-61510000D03*
X238060000Y-61510000D03*
X240600000Y-61510000D03*
X243140000Y-61510000D03*
X245680000Y-61510000D03*
X245680000Y-53890000D03*
X243140000Y-53890000D03*
X240600000Y-53890000D03*
X238060000Y-53890000D03*
X235520000Y-53890000D03*
X232980000Y-53890000D03*
X230440000Y-53890000D03*
X227900000Y-53890000D03*
X225360000Y-53890000D03*
X222820000Y-53890000D03*
%TD*%
D20*
%TO.C,J5*%
X29490000Y-89180000D03*
X29490000Y-91950000D03*
X29490000Y-94720000D03*
X29490000Y-97490000D03*
X29490000Y-100260000D03*
X26650000Y-90565000D03*
X26650000Y-93335000D03*
X26650000Y-96105000D03*
X26650000Y-98875000D03*
D21*
X28070000Y-82225000D03*
X28070000Y-107215000D03*
%TD*%
D19*
%TO.C,Y2*%
X146000000Y-180960000D03*
X146000000Y-185840000D03*
%TD*%
D12*
%TO.C,U30*%
X46410000Y-163540000D03*
D11*
X48950000Y-163540000D03*
X51490000Y-163540000D03*
X54030000Y-163540000D03*
X56570000Y-163540000D03*
X59110000Y-163540000D03*
X61650000Y-163540000D03*
X64190000Y-163540000D03*
X64190000Y-155920000D03*
X61650000Y-155920000D03*
X59110000Y-155920000D03*
X56570000Y-155920000D03*
X54030000Y-155920000D03*
X51490000Y-155920000D03*
X48950000Y-155920000D03*
X46410000Y-155920000D03*
%TD*%
D22*
%TO.C,DS2*%
X131500900Y-23242500D03*
X131500900Y-54243200D03*
X206499480Y-54243200D03*
X206500000Y-23242500D03*
D23*
X137000000Y-23242500D03*
D24*
X139540000Y-23242500D03*
X142080000Y-23242500D03*
X144620000Y-23242500D03*
X147160000Y-23242500D03*
X149700000Y-23242500D03*
X152240000Y-23242500D03*
X154780000Y-23242500D03*
X157320000Y-23242500D03*
X159860000Y-23242500D03*
X162400000Y-23242500D03*
X164940000Y-23242500D03*
X167480000Y-23242500D03*
X170020000Y-23242500D03*
X172560000Y-23242500D03*
X175100000Y-23242500D03*
%TD*%
D25*
%TO.C,IC1*%
X217630000Y-49788000D03*
D26*
X220170000Y-49788000D03*
X222710000Y-49788000D03*
X225250000Y-49788000D03*
X227790000Y-49788000D03*
X230330000Y-49788000D03*
X232870000Y-49788000D03*
X235410000Y-49788000D03*
X237950000Y-49788000D03*
X240490000Y-49788000D03*
X243030000Y-49788000D03*
X245570000Y-49788000D03*
X245570000Y-34292000D03*
X243030000Y-34292000D03*
X240490000Y-34292000D03*
X237950000Y-34292000D03*
X235410000Y-34292000D03*
X232870000Y-34292000D03*
X230330000Y-34292000D03*
X227790000Y-34292000D03*
X225250000Y-34292000D03*
X222710000Y-34292000D03*
X220170000Y-34292000D03*
X217630000Y-34292000D03*
%TD*%
D27*
%TO.C,H5*%
X185100000Y-26350000D03*
%TD*%
%TO.C,H2*%
X185100000Y-229550000D03*
%TD*%
D12*
%TO.C,U8*%
X244020000Y-156535000D03*
D11*
X246560000Y-156535000D03*
X249100000Y-156535000D03*
X251640000Y-156535000D03*
X254180000Y-156535000D03*
X256720000Y-156535000D03*
X259260000Y-156535000D03*
X259260000Y-148915000D03*
X256720000Y-148915000D03*
X254180000Y-148915000D03*
X251640000Y-148915000D03*
X249100000Y-148915000D03*
X246560000Y-148915000D03*
X244020000Y-148915000D03*
%TD*%
D12*
%TO.C,U17*%
X44040000Y-147910000D03*
D11*
X46580000Y-147910000D03*
X49120000Y-147910000D03*
X51660000Y-147910000D03*
X54200000Y-147910000D03*
X56740000Y-147910000D03*
X59280000Y-147910000D03*
X59280000Y-140290000D03*
X56740000Y-140290000D03*
X54200000Y-140290000D03*
X51660000Y-140290000D03*
X49120000Y-140290000D03*
X46580000Y-140290000D03*
X44040000Y-140290000D03*
%TD*%
D27*
%TO.C,H1*%
X30160000Y-181830000D03*
%TD*%
%TO.C,H8*%
X185100000Y-249870000D03*
%TD*%
D12*
%TO.C,U22*%
X225640000Y-210660000D03*
D11*
X228180000Y-210660000D03*
X230720000Y-210660000D03*
X233260000Y-210660000D03*
X235800000Y-210660000D03*
X238340000Y-210660000D03*
X240880000Y-210660000D03*
X240880000Y-203040000D03*
X238340000Y-203040000D03*
X235800000Y-203040000D03*
X233260000Y-203040000D03*
X230720000Y-203040000D03*
X228180000Y-203040000D03*
X225640000Y-203040000D03*
%TD*%
D12*
%TO.C,U19*%
X187360000Y-175110000D03*
D11*
X189900000Y-175110000D03*
X192440000Y-175110000D03*
X194980000Y-175110000D03*
X197520000Y-175110000D03*
X200060000Y-175110000D03*
X202600000Y-175110000D03*
X205140000Y-175110000D03*
X207680000Y-175110000D03*
X210220000Y-175110000D03*
X210220000Y-167490000D03*
X207680000Y-167490000D03*
X205140000Y-167490000D03*
X202600000Y-167490000D03*
X200060000Y-167490000D03*
X197520000Y-167490000D03*
X194980000Y-167490000D03*
X192440000Y-167490000D03*
X189900000Y-167490000D03*
X187360000Y-167490000D03*
%TD*%
D27*
%TO.C,H6*%
X53020000Y-26350000D03*
%TD*%
D12*
%TO.C,U18*%
X187420000Y-162930000D03*
D11*
X189960000Y-162930000D03*
X192500000Y-162930000D03*
X195040000Y-162930000D03*
X197580000Y-162930000D03*
X200120000Y-162930000D03*
X202660000Y-162930000D03*
X205200000Y-162930000D03*
X207740000Y-162930000D03*
X210280000Y-162930000D03*
X210280000Y-155310000D03*
X207740000Y-155310000D03*
X205200000Y-155310000D03*
X202660000Y-155310000D03*
X200120000Y-155310000D03*
X197580000Y-155310000D03*
X195040000Y-155310000D03*
X192500000Y-155310000D03*
X189960000Y-155310000D03*
X187420000Y-155310000D03*
%TD*%
D12*
%TO.C,U41*%
X96950000Y-31115000D03*
D11*
X99490000Y-31115000D03*
X102030000Y-31115000D03*
X104570000Y-31115000D03*
X107110000Y-31115000D03*
X109650000Y-31115000D03*
X112190000Y-31115000D03*
X114730000Y-31115000D03*
X114730000Y-23495000D03*
X112190000Y-23495000D03*
X109650000Y-23495000D03*
X107110000Y-23495000D03*
X104570000Y-23495000D03*
X102030000Y-23495000D03*
X99490000Y-23495000D03*
X96950000Y-23495000D03*
%TD*%
D12*
%TO.C,U33*%
X96870000Y-51950000D03*
D11*
X99410000Y-51950000D03*
X101950000Y-51950000D03*
X104490000Y-51950000D03*
X107030000Y-51950000D03*
X109570000Y-51950000D03*
X112110000Y-51950000D03*
X114650000Y-51950000D03*
X117190000Y-51950000D03*
X119730000Y-51950000D03*
X122270000Y-51950000D03*
X124810000Y-51950000D03*
X124810000Y-36710000D03*
X122270000Y-36710000D03*
X119730000Y-36710000D03*
X117190000Y-36710000D03*
X114650000Y-36710000D03*
X112110000Y-36710000D03*
X109570000Y-36710000D03*
X107030000Y-36710000D03*
X104490000Y-36710000D03*
X101950000Y-36710000D03*
X99410000Y-36710000D03*
X96870000Y-36710000D03*
%TD*%
D13*
%TO.C,J12*%
X254640000Y-120785000D03*
D14*
X254640000Y-118245000D03*
%TD*%
D10*
%TO.C,U43*%
X52540000Y-89580000D03*
D11*
X50000000Y-89580000D03*
X47460000Y-89580000D03*
X44920000Y-89580000D03*
X42380000Y-89580000D03*
X39840000Y-89580000D03*
X37300000Y-89580000D03*
X34760000Y-89580000D03*
X34760000Y-97200000D03*
X37300000Y-97200000D03*
X39840000Y-97200000D03*
X42380000Y-97200000D03*
X44920000Y-97200000D03*
X47460000Y-97200000D03*
X50000000Y-97200000D03*
X52540000Y-97200000D03*
%TD*%
D12*
%TO.C,U20*%
X196460000Y-210710000D03*
D11*
X199000000Y-210710000D03*
X201540000Y-210710000D03*
X204080000Y-210710000D03*
X206620000Y-210710000D03*
X209160000Y-210710000D03*
X211700000Y-210710000D03*
X214240000Y-210710000D03*
X216780000Y-210710000D03*
X219320000Y-210710000D03*
X219320000Y-203090000D03*
X216780000Y-203090000D03*
X214240000Y-203090000D03*
X211700000Y-203090000D03*
X209160000Y-203090000D03*
X206620000Y-203090000D03*
X204080000Y-203090000D03*
X201540000Y-203090000D03*
X199000000Y-203090000D03*
X196460000Y-203090000D03*
%TD*%
D12*
%TO.C,U35*%
X71770000Y-181155000D03*
D11*
X74310000Y-181155000D03*
X76850000Y-181155000D03*
X79390000Y-181155000D03*
X81930000Y-181155000D03*
X84470000Y-181155000D03*
X87010000Y-181155000D03*
X89550000Y-181155000D03*
X92090000Y-181155000D03*
X94630000Y-181155000D03*
X94630000Y-173535000D03*
X92090000Y-173535000D03*
X89550000Y-173535000D03*
X87010000Y-173535000D03*
X84470000Y-173535000D03*
X81930000Y-173535000D03*
X79390000Y-173535000D03*
X76850000Y-173535000D03*
X74310000Y-173535000D03*
X71770000Y-173535000D03*
%TD*%
D12*
%TO.C,U32*%
X220910000Y-128310000D03*
D11*
X223450000Y-128310000D03*
X225990000Y-128310000D03*
X228530000Y-128310000D03*
X231070000Y-128310000D03*
X233610000Y-128310000D03*
X236150000Y-128310000D03*
X238690000Y-128310000D03*
X238690000Y-120690000D03*
X236150000Y-120690000D03*
X233610000Y-120690000D03*
X231070000Y-120690000D03*
X228530000Y-120690000D03*
X225990000Y-120690000D03*
X223450000Y-120690000D03*
X220910000Y-120690000D03*
%TD*%
D12*
%TO.C,U28*%
X100270000Y-147530000D03*
D11*
X102810000Y-147530000D03*
X105350000Y-147530000D03*
X107890000Y-147530000D03*
X110430000Y-147530000D03*
X112970000Y-147530000D03*
X115510000Y-147530000D03*
X118050000Y-147530000D03*
X120590000Y-147530000D03*
X123130000Y-147530000D03*
X123130000Y-139910000D03*
X120590000Y-139910000D03*
X118050000Y-139910000D03*
X115510000Y-139910000D03*
X112970000Y-139910000D03*
X110430000Y-139910000D03*
X107890000Y-139910000D03*
X105350000Y-139910000D03*
X102810000Y-139910000D03*
X100270000Y-139910000D03*
%TD*%
D27*
%TO.C,H7*%
X30160000Y-229550000D03*
%TD*%
D12*
%TO.C,U29*%
X222840000Y-143325000D03*
D11*
X225380000Y-143325000D03*
X227920000Y-143325000D03*
X230460000Y-143325000D03*
X233000000Y-143325000D03*
X235540000Y-143325000D03*
X238080000Y-143325000D03*
X238080000Y-135705000D03*
X235540000Y-135705000D03*
X233000000Y-135705000D03*
X230460000Y-135705000D03*
X227920000Y-135705000D03*
X225380000Y-135705000D03*
X222840000Y-135705000D03*
%TD*%
D12*
%TO.C,U11*%
X34915000Y-117530000D03*
D11*
X37455000Y-117530000D03*
X39995000Y-117530000D03*
X42535000Y-117530000D03*
X45075000Y-117530000D03*
X47615000Y-117530000D03*
X50155000Y-117530000D03*
X52695000Y-117530000D03*
X55235000Y-117530000D03*
X57775000Y-117530000D03*
X60315000Y-117530000D03*
X62855000Y-117530000D03*
X65395000Y-117530000D03*
X67935000Y-117530000D03*
X70475000Y-117530000D03*
X73015000Y-117530000D03*
X75555000Y-117530000D03*
X78095000Y-117530000D03*
X80635000Y-117530000D03*
X83175000Y-117530000D03*
X83175000Y-102290000D03*
X80635000Y-102290000D03*
X78095000Y-102290000D03*
X75555000Y-102290000D03*
X73015000Y-102290000D03*
X70475000Y-102290000D03*
X67935000Y-102290000D03*
X65395000Y-102290000D03*
X62855000Y-102290000D03*
X60315000Y-102290000D03*
X57775000Y-102290000D03*
X55235000Y-102290000D03*
X52695000Y-102290000D03*
X50155000Y-102290000D03*
X47615000Y-102290000D03*
X45075000Y-102290000D03*
X42535000Y-102290000D03*
X39995000Y-102290000D03*
X37455000Y-102290000D03*
X34915000Y-102290000D03*
%TD*%
D27*
%TO.C,H4*%
X185100000Y-183830000D03*
%TD*%
D12*
%TO.C,U6*%
X225550000Y-197920000D03*
D11*
X228090000Y-197920000D03*
X230630000Y-197920000D03*
X233170000Y-197920000D03*
X235710000Y-197920000D03*
X238250000Y-197920000D03*
X240790000Y-197920000D03*
X243330000Y-197920000D03*
X243330000Y-190300000D03*
X240790000Y-190300000D03*
X238250000Y-190300000D03*
X235710000Y-190300000D03*
X233170000Y-190300000D03*
X230630000Y-190300000D03*
X228090000Y-190300000D03*
X225550000Y-190300000D03*
%TD*%
D28*
%TO.C,J8*%
X254300000Y-81440000D03*
D29*
X254300000Y-77240000D03*
X254300000Y-73040000D03*
X254300000Y-68840000D03*
X254300000Y-64640000D03*
X254300000Y-60440000D03*
X254300000Y-56240000D03*
X254300000Y-52040000D03*
X254300000Y-47840000D03*
X254300000Y-43640000D03*
X254300000Y-39440000D03*
X254300000Y-35240000D03*
X259800000Y-81440000D03*
X259800000Y-77240000D03*
X259800000Y-73040000D03*
X259800000Y-68840000D03*
X259800000Y-64640000D03*
X259800000Y-60440000D03*
X259800000Y-56240000D03*
X259800000Y-52040000D03*
X259800000Y-47840000D03*
X259800000Y-43640000D03*
X259800000Y-39440000D03*
X259800000Y-35240000D03*
%TD*%
D12*
%TO.C,U48*%
X100180000Y-181130000D03*
D11*
X102720000Y-181130000D03*
X105260000Y-181130000D03*
X107800000Y-181130000D03*
X110340000Y-181130000D03*
X112880000Y-181130000D03*
X115420000Y-181130000D03*
X117960000Y-181130000D03*
X120500000Y-181130000D03*
X123040000Y-181130000D03*
X123040000Y-173510000D03*
X120500000Y-173510000D03*
X117960000Y-173510000D03*
X115420000Y-173510000D03*
X112880000Y-173510000D03*
X110340000Y-173510000D03*
X107800000Y-173510000D03*
X105260000Y-173510000D03*
X102720000Y-173510000D03*
X100180000Y-173510000D03*
%TD*%
D10*
%TO.C,U13*%
X152117500Y-167510000D03*
D11*
X149577500Y-167510000D03*
X147037500Y-167510000D03*
X144497500Y-167510000D03*
X141957500Y-167510000D03*
X139417500Y-167510000D03*
X136877500Y-167510000D03*
X134337500Y-167510000D03*
X131797500Y-167510000D03*
X131797500Y-175130000D03*
X134337500Y-175130000D03*
X136877500Y-175130000D03*
X139417500Y-175130000D03*
X141957500Y-175130000D03*
X144497500Y-175130000D03*
X147037500Y-175130000D03*
X149577500Y-175130000D03*
X152117500Y-175130000D03*
%TD*%
D10*
%TO.C,U21*%
X181320000Y-167290000D03*
D11*
X178780000Y-167290000D03*
X176240000Y-167290000D03*
X173700000Y-167290000D03*
X171160000Y-167290000D03*
X168620000Y-167290000D03*
X166080000Y-167290000D03*
X163540000Y-167290000D03*
X161000000Y-167290000D03*
X158460000Y-167290000D03*
X158460000Y-174910000D03*
X161000000Y-174910000D03*
X163540000Y-174910000D03*
X166080000Y-174910000D03*
X168620000Y-174910000D03*
X171160000Y-174910000D03*
X173700000Y-174910000D03*
X176240000Y-174910000D03*
X178780000Y-174910000D03*
X181320000Y-174910000D03*
%TD*%
D27*
%TO.C,H9*%
X257490000Y-26350000D03*
%TD*%
D12*
%TO.C,U24*%
X147440000Y-73510000D03*
D11*
X149980000Y-73510000D03*
X152520000Y-73510000D03*
X155060000Y-73510000D03*
X157600000Y-73510000D03*
X160140000Y-73510000D03*
X162680000Y-73510000D03*
X162680000Y-65890000D03*
X160140000Y-65890000D03*
X157600000Y-65890000D03*
X155060000Y-65890000D03*
X152520000Y-65890000D03*
X149980000Y-65890000D03*
X147440000Y-65890000D03*
%TD*%
D30*
%TO.C,C8*%
X233382379Y-83200000D03*
D11*
X230882379Y-83200000D03*
%TD*%
D17*
%TO.C,VR1*%
X124040000Y-29510000D03*
D18*
X121540000Y-32510000D03*
D19*
X119040000Y-29510000D03*
%TD*%
D31*
%TO.C,J2*%
X45400000Y-239710000D03*
D32*
X47940000Y-239710000D03*
X50480000Y-239710000D03*
X53020000Y-239710000D03*
X55560000Y-239710000D03*
X58100000Y-239710000D03*
X60640000Y-239710000D03*
X63180000Y-239710000D03*
X65720000Y-239710000D03*
X68260000Y-239710000D03*
X70800000Y-239710000D03*
X73340000Y-239710000D03*
X75880000Y-239710000D03*
X78420000Y-239710000D03*
X80960000Y-239710000D03*
X83500000Y-239710000D03*
X86040000Y-239710000D03*
X88580000Y-239710000D03*
X91120000Y-239710000D03*
X93660000Y-239710000D03*
X96200000Y-239710000D03*
X98740000Y-239710000D03*
X101280000Y-239710000D03*
X103820000Y-239710000D03*
X106360000Y-239710000D03*
X108900000Y-239710000D03*
X111440000Y-239710000D03*
X113980000Y-239710000D03*
X116520000Y-239710000D03*
X119060000Y-239710000D03*
X121600000Y-239710000D03*
X45400000Y-234858000D03*
X47940000Y-234858000D03*
X50480000Y-234858000D03*
X53020000Y-234858000D03*
X55560000Y-234858000D03*
X58100000Y-234858000D03*
X60640000Y-234858000D03*
X63180000Y-234858000D03*
X65720000Y-234858000D03*
X68260000Y-234858000D03*
X70800000Y-234858000D03*
X73340000Y-234858000D03*
X75880000Y-234858000D03*
X78420000Y-234858000D03*
X80960000Y-234858000D03*
X83500000Y-234858000D03*
X86040000Y-234858000D03*
X88580000Y-234858000D03*
X91120000Y-234858000D03*
X93660000Y-234858000D03*
X96200000Y-234858000D03*
X98740000Y-234858000D03*
X101280000Y-234858000D03*
X103820000Y-234858000D03*
X106360000Y-234858000D03*
X108900000Y-234858000D03*
X111440000Y-234858000D03*
X113980000Y-234858000D03*
X116520000Y-234858000D03*
X119060000Y-234858000D03*
X121600000Y-234858000D03*
%TD*%
D12*
%TO.C,U37*%
X218220000Y-175310000D03*
D11*
X220760000Y-175310000D03*
X223300000Y-175310000D03*
X225840000Y-175310000D03*
X228380000Y-175310000D03*
X230920000Y-175310000D03*
X233460000Y-175310000D03*
X233460000Y-167690000D03*
X230920000Y-167690000D03*
X228380000Y-167690000D03*
X225840000Y-167690000D03*
X223300000Y-167690000D03*
X220760000Y-167690000D03*
X218220000Y-167690000D03*
%TD*%
D12*
%TO.C,U3*%
X222640000Y-156550000D03*
D11*
X225180000Y-156550000D03*
X227720000Y-156550000D03*
X230260000Y-156550000D03*
X232800000Y-156550000D03*
X235340000Y-156550000D03*
X237880000Y-156550000D03*
X237880000Y-148930000D03*
X235340000Y-148930000D03*
X232800000Y-148930000D03*
X230260000Y-148930000D03*
X227720000Y-148930000D03*
X225180000Y-148930000D03*
X222640000Y-148930000D03*
%TD*%
D33*
%TO.C,S1*%
X244840000Y-29250000D03*
D34*
X244840000Y-26710000D03*
X244840000Y-24170000D03*
%TD*%
D10*
%TO.C,U27*%
X66320000Y-173490000D03*
D11*
X63780000Y-173490000D03*
X61240000Y-173490000D03*
X58700000Y-173490000D03*
X56160000Y-173490000D03*
X53620000Y-173490000D03*
X51080000Y-173490000D03*
X48540000Y-173490000D03*
X46000000Y-173490000D03*
X43460000Y-173490000D03*
X43460000Y-181110000D03*
X46000000Y-181110000D03*
X48540000Y-181110000D03*
X51080000Y-181110000D03*
X53620000Y-181110000D03*
X56160000Y-181110000D03*
X58700000Y-181110000D03*
X61240000Y-181110000D03*
X63780000Y-181110000D03*
X66320000Y-181110000D03*
%TD*%
D10*
%TO.C,U9*%
X178870000Y-189090000D03*
D11*
X176330000Y-189090000D03*
X173790000Y-189090000D03*
X171250000Y-189090000D03*
X168710000Y-189090000D03*
X166170000Y-189090000D03*
X163630000Y-189090000D03*
X161090000Y-189090000D03*
X158550000Y-189090000D03*
X156010000Y-189090000D03*
X156010000Y-196710000D03*
X158550000Y-196710000D03*
X161090000Y-196710000D03*
X163630000Y-196710000D03*
X166170000Y-196710000D03*
X168710000Y-196710000D03*
X171250000Y-196710000D03*
X173790000Y-196710000D03*
X176330000Y-196710000D03*
X178870000Y-196710000D03*
%TD*%
D12*
%TO.C,U5*%
X147460000Y-86310000D03*
D11*
X150000000Y-86310000D03*
X152540000Y-86310000D03*
X155080000Y-86310000D03*
X157620000Y-86310000D03*
X160160000Y-86310000D03*
X162700000Y-86310000D03*
X165240000Y-86310000D03*
X165240000Y-78690000D03*
X162700000Y-78690000D03*
X160160000Y-78690000D03*
X157620000Y-78690000D03*
X155080000Y-78690000D03*
X152540000Y-78690000D03*
X150000000Y-78690000D03*
X147460000Y-78690000D03*
%TD*%
D12*
%TO.C,U23*%
X193060000Y-128310000D03*
D11*
X195600000Y-128310000D03*
X198140000Y-128310000D03*
X200680000Y-128310000D03*
X203220000Y-128310000D03*
X205760000Y-128310000D03*
X208300000Y-128310000D03*
X210840000Y-128310000D03*
X213380000Y-128310000D03*
X215920000Y-128310000D03*
X215920000Y-120690000D03*
X213380000Y-120690000D03*
X210840000Y-120690000D03*
X208300000Y-120690000D03*
X205760000Y-120690000D03*
X203220000Y-120690000D03*
X200680000Y-120690000D03*
X198140000Y-120690000D03*
X195600000Y-120690000D03*
X193060000Y-120690000D03*
%TD*%
D31*
%TO.C,J4*%
X45400000Y-199070000D03*
D32*
X47940000Y-199070000D03*
X50480000Y-199070000D03*
X53020000Y-199070000D03*
X55560000Y-199070000D03*
X58100000Y-199070000D03*
X60640000Y-199070000D03*
X63180000Y-199070000D03*
X65720000Y-199070000D03*
X68260000Y-199070000D03*
X70800000Y-199070000D03*
X73340000Y-199070000D03*
X75880000Y-199070000D03*
X78420000Y-199070000D03*
X80960000Y-199070000D03*
X83500000Y-199070000D03*
X86040000Y-199070000D03*
X88580000Y-199070000D03*
X91120000Y-199070000D03*
X93660000Y-199070000D03*
X96200000Y-199070000D03*
X98740000Y-199070000D03*
X101280000Y-199070000D03*
X103820000Y-199070000D03*
X106360000Y-199070000D03*
X108900000Y-199070000D03*
X111440000Y-199070000D03*
X113980000Y-199070000D03*
X116520000Y-199070000D03*
X119060000Y-199070000D03*
X121600000Y-199070000D03*
X45400000Y-194218000D03*
X47940000Y-194218000D03*
X50480000Y-194218000D03*
X53020000Y-194218000D03*
X55560000Y-194218000D03*
X58100000Y-194218000D03*
X60640000Y-194218000D03*
X63180000Y-194218000D03*
X65720000Y-194218000D03*
X68260000Y-194218000D03*
X70800000Y-194218000D03*
X73340000Y-194218000D03*
X75880000Y-194218000D03*
X78420000Y-194218000D03*
X80960000Y-194218000D03*
X83500000Y-194218000D03*
X86040000Y-194218000D03*
X88580000Y-194218000D03*
X91120000Y-194218000D03*
X93660000Y-194218000D03*
X96200000Y-194218000D03*
X98740000Y-194218000D03*
X101280000Y-194218000D03*
X103820000Y-194218000D03*
X106360000Y-194218000D03*
X108900000Y-194218000D03*
X111440000Y-194218000D03*
X113980000Y-194218000D03*
X116520000Y-194218000D03*
X119060000Y-194218000D03*
X121600000Y-194218000D03*
%TD*%
D35*
%TO.C,U34*%
X110840000Y-117610000D03*
D36*
X108300000Y-115070000D03*
X108300000Y-117610000D03*
X105760000Y-115070000D03*
X105760000Y-117610000D03*
X103220000Y-115070000D03*
X100680000Y-117610000D03*
X103220000Y-117610000D03*
X100680000Y-120150000D03*
X103220000Y-120150000D03*
X100680000Y-122690000D03*
X103220000Y-122690000D03*
X100680000Y-125230000D03*
X103220000Y-125230000D03*
X100680000Y-127770000D03*
X103220000Y-127770000D03*
X100680000Y-130310000D03*
X103220000Y-132850000D03*
X103220000Y-130310000D03*
X105760000Y-132850000D03*
X105760000Y-130310000D03*
X108300000Y-132850000D03*
X108300000Y-130310000D03*
X110840000Y-132850000D03*
X110840000Y-130310000D03*
X113380000Y-132850000D03*
X113380000Y-130310000D03*
X115920000Y-132850000D03*
X118460000Y-130310000D03*
X115920000Y-130310000D03*
X118460000Y-127770000D03*
X115920000Y-127770000D03*
X118460000Y-125230000D03*
X115920000Y-125230000D03*
X118460000Y-122690000D03*
X115920000Y-122690000D03*
X118460000Y-120150000D03*
X115920000Y-120150000D03*
X118460000Y-117610000D03*
X115920000Y-115070000D03*
X115920000Y-117610000D03*
X113380000Y-115070000D03*
X113380000Y-117610000D03*
X110840000Y-115070000D03*
%TD*%
D37*
%TO.C,C7*%
X238300000Y-83200000D03*
D11*
X240800000Y-83200000D03*
%TD*%
D12*
%TO.C,U54*%
X177520000Y-86110000D03*
D11*
X180060000Y-86110000D03*
X182600000Y-86110000D03*
X185140000Y-86110000D03*
X187680000Y-86110000D03*
X190220000Y-86110000D03*
X192760000Y-86110000D03*
X195300000Y-86110000D03*
X197840000Y-86110000D03*
X200380000Y-86110000D03*
X200380000Y-78490000D03*
X197840000Y-78490000D03*
X195300000Y-78490000D03*
X192760000Y-78490000D03*
X190220000Y-78490000D03*
X187680000Y-78490000D03*
X185140000Y-78490000D03*
X182600000Y-78490000D03*
X180060000Y-78490000D03*
X177520000Y-78490000D03*
%TD*%
D30*
%TO.C,C1*%
X222600000Y-89800000D03*
D11*
X219100000Y-89800000D03*
%TD*%
%TO.C,LS1*%
X204326000Y-97400000D03*
X211926000Y-97400000D03*
%TD*%
D12*
%TO.C,U15*%
X139595000Y-127530000D03*
D11*
X142135000Y-127530000D03*
X144675000Y-127530000D03*
X147215000Y-127530000D03*
X149755000Y-127530000D03*
X152295000Y-127530000D03*
X154835000Y-127530000D03*
X157375000Y-127530000D03*
X159915000Y-127530000D03*
X162455000Y-127530000D03*
X164995000Y-127530000D03*
X167535000Y-127530000D03*
X170075000Y-127530000D03*
X172615000Y-127530000D03*
X175155000Y-127530000D03*
X177695000Y-127530000D03*
X180235000Y-127530000D03*
X182775000Y-127530000D03*
X185315000Y-127530000D03*
X187855000Y-127530000D03*
X187855000Y-112290000D03*
X185315000Y-112290000D03*
X182775000Y-112290000D03*
X180235000Y-112290000D03*
X177695000Y-112290000D03*
X175155000Y-112290000D03*
X172615000Y-112290000D03*
X170075000Y-112290000D03*
X167535000Y-112290000D03*
X164995000Y-112290000D03*
X162455000Y-112290000D03*
X159915000Y-112290000D03*
X157375000Y-112290000D03*
X154835000Y-112290000D03*
X152295000Y-112290000D03*
X149755000Y-112290000D03*
X147215000Y-112290000D03*
X144675000Y-112290000D03*
X142135000Y-112290000D03*
X139595000Y-112290000D03*
%TD*%
D10*
%TO.C,U7*%
X175290000Y-218290000D03*
D11*
X172750000Y-218290000D03*
X170210000Y-218290000D03*
X167670000Y-218290000D03*
X165130000Y-218290000D03*
X162590000Y-218290000D03*
X160050000Y-218290000D03*
X157510000Y-218290000D03*
X154970000Y-218290000D03*
X152430000Y-218290000D03*
X149890000Y-218290000D03*
X147350000Y-218290000D03*
X144810000Y-218290000D03*
X142270000Y-218290000D03*
X139730000Y-218290000D03*
X137190000Y-218290000D03*
X137190000Y-233530000D03*
X139730000Y-233530000D03*
X142270000Y-233530000D03*
X144810000Y-233530000D03*
X147350000Y-233530000D03*
X149890000Y-233530000D03*
X152430000Y-233530000D03*
X154970000Y-233530000D03*
X157510000Y-233530000D03*
X160050000Y-233530000D03*
X162590000Y-233530000D03*
X165130000Y-233530000D03*
X167670000Y-233530000D03*
X170210000Y-233530000D03*
X172750000Y-233530000D03*
X175290000Y-233530000D03*
%TD*%
D12*
%TO.C,U55*%
X177410000Y-73710000D03*
D11*
X179950000Y-73710000D03*
X182490000Y-73710000D03*
X185030000Y-73710000D03*
X187570000Y-73710000D03*
X190110000Y-73710000D03*
X192650000Y-73710000D03*
X195190000Y-73710000D03*
X197730000Y-73710000D03*
X200270000Y-73710000D03*
X200270000Y-66090000D03*
X197730000Y-66090000D03*
X195190000Y-66090000D03*
X192650000Y-66090000D03*
X190110000Y-66090000D03*
X187570000Y-66090000D03*
X185030000Y-66090000D03*
X182490000Y-66090000D03*
X179950000Y-66090000D03*
X177410000Y-66090000D03*
%TD*%
D17*
%TO.C,S2*%
X218440000Y-24010000D03*
D19*
X224940000Y-24010000D03*
X218440000Y-28510000D03*
X224940000Y-28510000D03*
%TD*%
D31*
%TO.C,J1*%
X45400000Y-260030000D03*
D32*
X47940000Y-260030000D03*
X50480000Y-260030000D03*
X53020000Y-260030000D03*
X55560000Y-260030000D03*
X58100000Y-260030000D03*
X60640000Y-260030000D03*
X63180000Y-260030000D03*
X65720000Y-260030000D03*
X68260000Y-260030000D03*
X70800000Y-260030000D03*
X73340000Y-260030000D03*
X75880000Y-260030000D03*
X78420000Y-260030000D03*
X80960000Y-260030000D03*
X83500000Y-260030000D03*
X86040000Y-260030000D03*
X88580000Y-260030000D03*
X91120000Y-260030000D03*
X93660000Y-260030000D03*
X96200000Y-260030000D03*
X98740000Y-260030000D03*
X101280000Y-260030000D03*
X103820000Y-260030000D03*
X106360000Y-260030000D03*
X108900000Y-260030000D03*
X111440000Y-260030000D03*
X113980000Y-260030000D03*
X116520000Y-260030000D03*
X119060000Y-260030000D03*
X121600000Y-260030000D03*
X45400000Y-255178000D03*
X47940000Y-255178000D03*
X50480000Y-255178000D03*
X53020000Y-255178000D03*
X55560000Y-255178000D03*
X58100000Y-255178000D03*
X60640000Y-255178000D03*
X63180000Y-255178000D03*
X65720000Y-255178000D03*
X68260000Y-255178000D03*
X70800000Y-255178000D03*
X73340000Y-255178000D03*
X75880000Y-255178000D03*
X78420000Y-255178000D03*
X80960000Y-255178000D03*
X83500000Y-255178000D03*
X86040000Y-255178000D03*
X88580000Y-255178000D03*
X91120000Y-255178000D03*
X93660000Y-255178000D03*
X96200000Y-255178000D03*
X98740000Y-255178000D03*
X101280000Y-255178000D03*
X103820000Y-255178000D03*
X106360000Y-255178000D03*
X108900000Y-255178000D03*
X111440000Y-255178000D03*
X113980000Y-255178000D03*
X116520000Y-255178000D03*
X119060000Y-255178000D03*
X121600000Y-255178000D03*
%TD*%
D12*
%TO.C,U1*%
X222940000Y-113110000D03*
D11*
X225480000Y-113110000D03*
X228020000Y-113110000D03*
X230560000Y-113110000D03*
X233100000Y-113110000D03*
X235640000Y-113110000D03*
X238180000Y-113110000D03*
X238180000Y-105490000D03*
X235640000Y-105490000D03*
X233100000Y-105490000D03*
X230560000Y-105490000D03*
X228020000Y-105490000D03*
X225480000Y-105490000D03*
X222940000Y-105490000D03*
%TD*%
D31*
%TO.C,J3*%
X45400000Y-219390000D03*
D32*
X47940000Y-219390000D03*
X50480000Y-219390000D03*
X53020000Y-219390000D03*
X55560000Y-219390000D03*
X58100000Y-219390000D03*
X60640000Y-219390000D03*
X63180000Y-219390000D03*
X65720000Y-219390000D03*
X68260000Y-219390000D03*
X70800000Y-219390000D03*
X73340000Y-219390000D03*
X75880000Y-219390000D03*
X78420000Y-219390000D03*
X80960000Y-219390000D03*
X83500000Y-219390000D03*
X86040000Y-219390000D03*
X88580000Y-219390000D03*
X91120000Y-219390000D03*
X93660000Y-219390000D03*
X96200000Y-219390000D03*
X98740000Y-219390000D03*
X101280000Y-219390000D03*
X103820000Y-219390000D03*
X106360000Y-219390000D03*
X108900000Y-219390000D03*
X111440000Y-219390000D03*
X113980000Y-219390000D03*
X116520000Y-219390000D03*
X119060000Y-219390000D03*
X121600000Y-219390000D03*
X45400000Y-214538000D03*
X47940000Y-214538000D03*
X50480000Y-214538000D03*
X53020000Y-214538000D03*
X55560000Y-214538000D03*
X58100000Y-214538000D03*
X60640000Y-214538000D03*
X63180000Y-214538000D03*
X65720000Y-214538000D03*
X68260000Y-214538000D03*
X70800000Y-214538000D03*
X73340000Y-214538000D03*
X75880000Y-214538000D03*
X78420000Y-214538000D03*
X80960000Y-214538000D03*
X83500000Y-214538000D03*
X86040000Y-214538000D03*
X88580000Y-214538000D03*
X91120000Y-214538000D03*
X93660000Y-214538000D03*
X96200000Y-214538000D03*
X98740000Y-214538000D03*
X101280000Y-214538000D03*
X103820000Y-214538000D03*
X106360000Y-214538000D03*
X108900000Y-214538000D03*
X111440000Y-214538000D03*
X113980000Y-214538000D03*
X116520000Y-214538000D03*
X119060000Y-214538000D03*
X121600000Y-214538000D03*
%TD*%
D12*
%TO.C,U42*%
X34800000Y-84730000D03*
D11*
X37340000Y-84730000D03*
X39880000Y-84730000D03*
X42420000Y-84730000D03*
X44960000Y-84730000D03*
X47500000Y-84730000D03*
X50040000Y-84730000D03*
X52580000Y-84730000D03*
X55120000Y-84730000D03*
X57660000Y-84730000D03*
X60200000Y-84730000D03*
X62740000Y-84730000D03*
X65280000Y-84730000D03*
X67820000Y-84730000D03*
X70360000Y-84730000D03*
X72900000Y-84730000D03*
X75440000Y-84730000D03*
X77980000Y-84730000D03*
X80520000Y-84730000D03*
X83060000Y-84730000D03*
X83060000Y-69490000D03*
X80520000Y-69490000D03*
X77980000Y-69490000D03*
X75440000Y-69490000D03*
X72900000Y-69490000D03*
X70360000Y-69490000D03*
X67820000Y-69490000D03*
X65280000Y-69490000D03*
X62740000Y-69490000D03*
X60200000Y-69490000D03*
X57660000Y-69490000D03*
X55120000Y-69490000D03*
X52580000Y-69490000D03*
X50040000Y-69490000D03*
X47500000Y-69490000D03*
X44960000Y-69490000D03*
X42420000Y-69490000D03*
X39880000Y-69490000D03*
X37340000Y-69490000D03*
X34800000Y-69490000D03*
%TD*%
D12*
%TO.C,U4*%
X244020000Y-143330000D03*
D11*
X246560000Y-143330000D03*
X249100000Y-143330000D03*
X251640000Y-143330000D03*
X254180000Y-143330000D03*
X256720000Y-143330000D03*
X259260000Y-143330000D03*
X259260000Y-135710000D03*
X256720000Y-135710000D03*
X254180000Y-135710000D03*
X251640000Y-135710000D03*
X249100000Y-135710000D03*
X246560000Y-135710000D03*
X244020000Y-135710000D03*
%TD*%
D27*
%TO.C,H3*%
X257490000Y-185100000D03*
%TD*%
D12*
%TO.C,U25*%
X231990000Y-96010000D03*
D11*
X234530000Y-96010000D03*
X237070000Y-96010000D03*
X239610000Y-96010000D03*
X239610000Y-88390000D03*
X237070000Y-88390000D03*
X234530000Y-88390000D03*
X231990000Y-88390000D03*
%TD*%
D38*
%TO.C,D2*%
X256165000Y-89910000D03*
D39*
X258705000Y-89910000D03*
%TD*%
D12*
%TO.C,U46*%
X34960000Y-129200000D03*
D11*
X37500000Y-129200000D03*
X40040000Y-129200000D03*
X42580000Y-129200000D03*
X45120000Y-129200000D03*
X47660000Y-129200000D03*
X50200000Y-129200000D03*
X50200000Y-121580000D03*
X47660000Y-121580000D03*
X45120000Y-121580000D03*
X42580000Y-121580000D03*
X40040000Y-121580000D03*
X37500000Y-121580000D03*
X34960000Y-121580000D03*
%TD*%
D40*
%TO.C,J10*%
X28500000Y-142900000D03*
D41*
X28500000Y-140300000D03*
X28500000Y-145000000D03*
X28500000Y-138200000D03*
X31000000Y-145000000D03*
X31000000Y-138200000D03*
X35500000Y-142900000D03*
X35500000Y-140300000D03*
X35500000Y-145000000D03*
X35500000Y-138200000D03*
X38000000Y-145000000D03*
X38000000Y-138200000D03*
D42*
X24700000Y-141600000D03*
X25500000Y-148350000D03*
X25500000Y-134850000D03*
X35500000Y-148350000D03*
X35500000Y-134850000D03*
%TD*%
D43*
%TO.C,C14*%
X151877500Y-184750000D03*
X151877500Y-180850000D03*
%TD*%
D10*
%TO.C,U12*%
X175320000Y-238670000D03*
D11*
X172780000Y-238670000D03*
X170240000Y-238670000D03*
X167700000Y-238670000D03*
X165160000Y-238670000D03*
X162620000Y-238670000D03*
X160080000Y-238670000D03*
X157540000Y-238670000D03*
X155000000Y-238670000D03*
X152460000Y-238670000D03*
X149920000Y-238670000D03*
X147380000Y-238670000D03*
X144840000Y-238670000D03*
X142300000Y-238670000D03*
X139760000Y-238670000D03*
X137220000Y-238670000D03*
X137220000Y-253910000D03*
X139760000Y-253910000D03*
X142300000Y-253910000D03*
X144840000Y-253910000D03*
X147380000Y-253910000D03*
X149920000Y-253910000D03*
X152460000Y-253910000D03*
X155000000Y-253910000D03*
X157540000Y-253910000D03*
X160080000Y-253910000D03*
X162620000Y-253910000D03*
X165160000Y-253910000D03*
X167700000Y-253910000D03*
X170240000Y-253910000D03*
X172780000Y-253910000D03*
X175320000Y-253910000D03*
%TD*%
D12*
%TO.C,U16*%
X152410000Y-106710000D03*
D11*
X154950000Y-106710000D03*
X157490000Y-106710000D03*
X160030000Y-106710000D03*
X162570000Y-106710000D03*
X165110000Y-106710000D03*
X167650000Y-106710000D03*
X170190000Y-106710000D03*
X172730000Y-106710000D03*
X175270000Y-106710000D03*
X177810000Y-106710000D03*
X180350000Y-106710000D03*
X182890000Y-106710000D03*
X185430000Y-106710000D03*
X185430000Y-91470000D03*
X182890000Y-91470000D03*
X180350000Y-91470000D03*
X177810000Y-91470000D03*
X175270000Y-91470000D03*
X172730000Y-91470000D03*
X170190000Y-91470000D03*
X167650000Y-91470000D03*
X165110000Y-91470000D03*
X162570000Y-91470000D03*
X160030000Y-91470000D03*
X157490000Y-91470000D03*
X154950000Y-91470000D03*
X152410000Y-91470000D03*
%TD*%
D12*
%TO.C,U2*%
X243740000Y-113130000D03*
D11*
X246280000Y-113130000D03*
X248820000Y-113130000D03*
X251360000Y-113130000D03*
X253900000Y-113130000D03*
X256440000Y-113130000D03*
X258980000Y-113130000D03*
X258980000Y-105510000D03*
X256440000Y-105510000D03*
X253900000Y-105510000D03*
X251360000Y-105510000D03*
X248820000Y-105510000D03*
X246280000Y-105510000D03*
X243740000Y-105510000D03*
%TD*%
M02*
