%TF.GenerationSoftware,KiCad,Pcbnew,10.0.4*%
%TF.CreationDate,2026-07-04T05:53:55-07:00*%
%TF.ProjectId,retroslop,72657472-6f73-46c6-9f70-2e6b69636164,rev?*%
%TF.SameCoordinates,Original*%
%TF.FileFunction,Paste,Bot*%
%TF.FilePolarity,Positive*%
%FSLAX46Y46*%
G04 Gerber Fmt 4.6, Leading zero omitted, Abs format (unit mm)*
G04 Created by KiCad (PCBNEW 10.0.4) date 2026-07-04 05:53:55*
%MOMM*%
%LPD*%
G01*
G04 APERTURE LIST*
G04 Aperture macros list*
%AMRoundRect*
0 Rectangle with rounded corners*
0 $1 Rounding radius*
0 $2 $3 $4 $5 $6 $7 $8 $9 X,Y pos of 4 corners*
0 Add a 4 corners polygon primitive as box body*
4,1,4,$2,$3,$4,$5,$6,$7,$8,$9,$2,$3,0*
0 Add four circle primitives for the rounded corners*
1,1,$1+$1,$2,$3*
1,1,$1+$1,$4,$5*
1,1,$1+$1,$6,$7*
1,1,$1+$1,$8,$9*
0 Add four rect primitives between the rounded corners*
20,1,$1+$1,$2,$3,$4,$5,0*
20,1,$1+$1,$4,$5,$6,$7,0*
20,1,$1+$1,$6,$7,$8,$9,0*
20,1,$1+$1,$8,$9,$2,$3,0*%
G04 Aperture macros list end*
%ADD10RoundRect,0.250000X0.412500X1.100000X-0.412500X1.100000X-0.412500X-1.100000X0.412500X-1.100000X0*%
%ADD11RoundRect,0.250000X-0.412500X-1.100000X0.412500X-1.100000X0.412500X1.100000X-0.412500X1.100000X0*%
%ADD12RoundRect,0.250000X-1.100000X0.412500X-1.100000X-0.412500X1.100000X-0.412500X1.100000X0.412500X0*%
%ADD13RoundRect,0.250000X0.400000X0.625000X-0.400000X0.625000X-0.400000X-0.625000X0.400000X-0.625000X0*%
%ADD14RoundRect,0.250000X-0.625000X0.400000X-0.625000X-0.400000X0.625000X-0.400000X0.625000X0.400000X0*%
%ADD15RoundRect,0.250000X-0.400000X-0.625000X0.400000X-0.625000X0.400000X0.625000X-0.400000X0.625000X0*%
%ADD16RoundRect,0.250000X1.100000X-0.412500X1.100000X0.412500X-1.100000X0.412500X-1.100000X-0.412500X0*%
%ADD17RoundRect,0.250000X0.625000X-0.400000X0.625000X0.400000X-0.625000X0.400000X-0.625000X-0.400000X0*%
G04 APERTURE END LIST*
D10*
%TO.C,C34*%
X222000000Y-49800000D03*
X225125000Y-49800000D03*
%TD*%
D11*
%TO.C,C29*%
X107600000Y-133800000D03*
X104475000Y-133800000D03*
%TD*%
D10*
%TO.C,C30*%
X176200000Y-61800000D03*
X179325000Y-61800000D03*
%TD*%
D12*
%TO.C,C33*%
X247800000Y-107125000D03*
X247800000Y-104000000D03*
%TD*%
D13*
%TO.C,R37*%
X107200000Y-140200000D03*
X104100000Y-140200000D03*
%TD*%
D14*
%TO.C,R31*%
X256000000Y-134300000D03*
X256000000Y-137400000D03*
%TD*%
D15*
%TO.C,R29*%
X183050000Y-91400000D03*
X186150000Y-91400000D03*
%TD*%
%TO.C,R25*%
X214200000Y-108200000D03*
X217300000Y-108200000D03*
%TD*%
D12*
%TO.C,C80*%
X261200000Y-52037500D03*
X261200000Y-55162500D03*
%TD*%
%TO.C,C79*%
X261200000Y-44400000D03*
X261200000Y-47525000D03*
%TD*%
D11*
%TO.C,C78*%
X200475000Y-203000000D03*
X203600000Y-203000000D03*
%TD*%
D10*
%TO.C,C77*%
X100200000Y-30400000D03*
X97075000Y-30400000D03*
%TD*%
%TO.C,C76*%
X179125000Y-75600000D03*
X176000000Y-75600000D03*
%TD*%
D16*
%TO.C,C73*%
X179600000Y-248362500D03*
X179600000Y-245237500D03*
%TD*%
D12*
%TO.C,C72*%
X229800000Y-201675000D03*
X229800000Y-204800000D03*
%TD*%
%TO.C,C66*%
X197200000Y-119275000D03*
X197200000Y-122400000D03*
%TD*%
D10*
%TO.C,C65*%
X114962500Y-120200000D03*
X111837500Y-120200000D03*
%TD*%
%TO.C,C64*%
X186600000Y-160800000D03*
X183475000Y-160800000D03*
%TD*%
D12*
%TO.C,C63*%
X159200000Y-171475000D03*
X159200000Y-174600000D03*
%TD*%
D11*
%TO.C,C62*%
X222075000Y-168000000D03*
X225200000Y-168000000D03*
%TD*%
%TO.C,C61*%
X243237500Y-161400000D03*
X246362500Y-161400000D03*
%TD*%
D12*
%TO.C,C58*%
X229600000Y-189075000D03*
X229600000Y-192200000D03*
%TD*%
%TO.C,C57*%
X227000000Y-134275000D03*
X227000000Y-137400000D03*
%TD*%
%TO.C,C56*%
X248200000Y-134237500D03*
X248200000Y-137362500D03*
%TD*%
D11*
%TO.C,C55*%
X103837500Y-167600000D03*
X106962500Y-167600000D03*
%TD*%
D12*
%TO.C,C54*%
X101200000Y-22037500D03*
X101200000Y-25162500D03*
%TD*%
%TO.C,C53*%
X48200000Y-138875000D03*
X48200000Y-142000000D03*
%TD*%
D10*
%TO.C,C51*%
X179962500Y-226800000D03*
X176837500Y-226800000D03*
%TD*%
D16*
%TO.C,C46*%
X59200000Y-93325000D03*
X59200000Y-90200000D03*
%TD*%
D11*
%TO.C,C45*%
X75675000Y-167400000D03*
X78800000Y-167400000D03*
%TD*%
D12*
%TO.C,C44*%
X188400000Y-151875000D03*
X188400000Y-155000000D03*
%TD*%
D10*
%TO.C,C43*%
X183725000Y-189200000D03*
X180600000Y-189200000D03*
%TD*%
%TO.C,C42*%
X226762500Y-99200000D03*
X223637500Y-99200000D03*
%TD*%
D16*
%TO.C,C41*%
X224400000Y-114600000D03*
X224400000Y-111475000D03*
%TD*%
D12*
%TO.C,C40*%
X157600000Y-88075000D03*
X157600000Y-91200000D03*
%TD*%
%TO.C,C39*%
X70600000Y-179400000D03*
X70600000Y-182525000D03*
%TD*%
D16*
%TO.C,C38*%
X73200000Y-150325000D03*
X73200000Y-147200000D03*
%TD*%
%TO.C,C37*%
X100400000Y-152525000D03*
X100400000Y-149400000D03*
%TD*%
D12*
%TO.C,C36*%
X218600000Y-31675000D03*
X218600000Y-34800000D03*
%TD*%
D10*
%TO.C,C35*%
X226925000Y-61000000D03*
X223800000Y-61000000D03*
%TD*%
%TO.C,C32*%
X149525000Y-74800000D03*
X146400000Y-74800000D03*
%TD*%
%TO.C,C31*%
X149162500Y-62800000D03*
X146037500Y-62800000D03*
%TD*%
%TO.C,C23*%
X66000000Y-247800000D03*
X62875000Y-247800000D03*
%TD*%
D12*
%TO.C,C22*%
X50000000Y-154275000D03*
X50000000Y-157400000D03*
%TD*%
D16*
%TO.C,C21*%
X214000000Y-176325000D03*
X214000000Y-173200000D03*
%TD*%
D12*
%TO.C,C20*%
X249200000Y-147637500D03*
X249200000Y-150762500D03*
%TD*%
D16*
%TO.C,C18*%
X241000000Y-228400000D03*
X241000000Y-225275000D03*
%TD*%
D12*
%TO.C,C17*%
X226800000Y-147475000D03*
X226800000Y-150600000D03*
%TD*%
%TO.C,C16*%
X261400000Y-65675000D03*
X261400000Y-68800000D03*
%TD*%
%TO.C,C15*%
X261200000Y-74237500D03*
X261200000Y-77362500D03*
%TD*%
D16*
%TO.C,C11*%
X261200000Y-61125000D03*
X261200000Y-58000000D03*
%TD*%
D12*
%TO.C,C6*%
X143400000Y-114875000D03*
X143400000Y-118000000D03*
%TD*%
%TO.C,C5*%
X143600000Y-138637500D03*
X143600000Y-141762500D03*
%TD*%
D15*
%TO.C,R43*%
X163300000Y-112000000D03*
X166400000Y-112000000D03*
%TD*%
D17*
%TO.C,R41*%
X174400000Y-22850000D03*
X174400000Y-25950000D03*
%TD*%
D10*
%TO.C,C69*%
X51675000Y-84200000D03*
X54800000Y-84200000D03*
%TD*%
%TO.C,C83*%
X38675000Y-121000000D03*
X41800000Y-121000000D03*
%TD*%
D14*
%TO.C,R46*%
X211800000Y-130350000D03*
X211800000Y-127250000D03*
%TD*%
%TO.C,R45*%
X215400000Y-130300000D03*
X215400000Y-127200000D03*
%TD*%
D17*
%TO.C,R44*%
X217200000Y-111500000D03*
X217200000Y-114600000D03*
%TD*%
%TO.C,R47*%
X213400000Y-111500000D03*
X213400000Y-114600000D03*
%TD*%
%TO.C,R50*%
X138437500Y-161350000D03*
X138437500Y-158250000D03*
%TD*%
D13*
%TO.C,R48*%
X153800000Y-161400000D03*
X150700000Y-161400000D03*
%TD*%
D17*
%TO.C,R20*%
X154000000Y-169800000D03*
X154000000Y-166700000D03*
%TD*%
D11*
%TO.C,C19*%
X140637500Y-167800000D03*
X143762500Y-167800000D03*
%TD*%
D17*
%TO.C,R21*%
X150600000Y-169800000D03*
X150600000Y-166700000D03*
%TD*%
D13*
%TO.C,R35*%
X242100000Y-203200000D03*
X239000000Y-203200000D03*
%TD*%
D11*
%TO.C,C95*%
X69600000Y-238400000D03*
X72725000Y-238400000D03*
%TD*%
%TO.C,C88*%
X121600000Y-207400000D03*
X124725000Y-207400000D03*
%TD*%
D17*
%TO.C,R11*%
X249600000Y-87090000D03*
X249600000Y-83990000D03*
%TD*%
D11*
%TO.C,C71*%
X46837500Y-120800000D03*
X49962500Y-120800000D03*
%TD*%
D10*
%TO.C,C85*%
X141800000Y-22400000D03*
X138675000Y-22400000D03*
%TD*%
D11*
%TO.C,C91*%
X120600000Y-197400000D03*
X123725000Y-197400000D03*
%TD*%
%TO.C,C92*%
X70637500Y-248600000D03*
X73762500Y-248600000D03*
%TD*%
%TO.C,C89*%
X69437500Y-217800000D03*
X72562500Y-217800000D03*
%TD*%
D10*
%TO.C,C81*%
X59400000Y-51200000D03*
X56275000Y-51200000D03*
%TD*%
D11*
%TO.C,C68*%
X43875000Y-84400000D03*
X47000000Y-84400000D03*
%TD*%
D10*
%TO.C,C67*%
X49725000Y-89600000D03*
X46600000Y-89600000D03*
%TD*%
%TO.C,C82*%
X69725000Y-84000000D03*
X66600000Y-84000000D03*
%TD*%
%TO.C,C93*%
X64600000Y-217600000D03*
X61475000Y-217600000D03*
%TD*%
D12*
%TO.C,C74*%
X38400000Y-100600000D03*
X38400000Y-103725000D03*
%TD*%
%TO.C,C99*%
X261200000Y-36200000D03*
X261200000Y-39325000D03*
%TD*%
D11*
%TO.C,C87*%
X121600000Y-227400000D03*
X124725000Y-227400000D03*
%TD*%
%TO.C,C97*%
X69475000Y-197200000D03*
X72600000Y-197200000D03*
%TD*%
D10*
%TO.C,C96*%
X64600000Y-238200000D03*
X61475000Y-238200000D03*
%TD*%
%TO.C,C98*%
X64800000Y-197000000D03*
X61675000Y-197000000D03*
%TD*%
D11*
%TO.C,C94*%
X121600000Y-247600000D03*
X124725000Y-247600000D03*
%TD*%
D10*
%TO.C,C52*%
X56125000Y-89800000D03*
X53000000Y-89800000D03*
%TD*%
M02*
