M48
; DRILL file KiCad 10.0.4 date 2026-07-04T05:54:00
; FORMAT={-:-/ absolute / metric / decimal}
; #@! TF.CreationDate,2026-07-04T05:54:00-07:00
; #@! TF.GenerationSoftware,Kicad,Pcbnew,10.0.4
; #@! TF.FileFunction,Plated,1,6,PTH
FMAT,2
METRIC
; #@! TA.AperFunction,Plated,PTH,ViaDrill
T1C0.300
; #@! TA.AperFunction,Plated,PTH,ComponentDrill
T2C0.730
; #@! TA.AperFunction,Plated,PTH,ComponentDrill
T3C0.750
; #@! TA.AperFunction,Plated,PTH,ComponentDrill
T4C0.800
; #@! TA.AperFunction,Plated,PTH,ComponentDrill
T5C0.900
; #@! TA.AperFunction,Plated,PTH,ComponentDrill
T6C1.000
; #@! TA.AperFunction,Plated,PTH,ComponentDrill
T7C1.050
; #@! TA.AperFunction,Plated,PTH,ComponentDrill
T8C1.090
; #@! TA.AperFunction,Plated,PTH,ComponentDrill
T9C1.092
; #@! TA.AperFunction,Plated,PTH,ComponentDrill
T10C1.100
; #@! TA.AperFunction,Plated,PTH,ComponentDrill
T11C1.200
; #@! TA.AperFunction,Plated,PTH,ComponentDrill
T12C1.300
; #@! TA.AperFunction,Plated,PTH,ComponentDrill
T13C1.400
; #@! TA.AperFunction,Plated,PTH,ComponentDrill
T14C2.300
; #@! TA.AperFunction,Plated,PTH,ComponentDrill
T15C2.500
; #@! TA.AperFunction,Plated,PTH,ComponentDrill
T16C3.100
%
G90
G05
T1
X35.2Y-196.8
X37.2Y-206.0
X38.4Y-100.6
X38.4Y-103.725
X38.675Y-121.0
X40.6Y-102.0
X41.0Y-145.8
X41.8Y-146.6
X42.8Y-147.6
X43.8Y-148.2
X44.0Y-217.8
X45.0Y-217.0
X45.4Y-106.0
X46.0Y-212.4
X46.99Y-105.2
X47.0Y-84.4
X47.0Y-211.6
X48.2Y-138.875
X48.2Y-142.0
X48.8Y-171.6
X49.962Y-120.8
X50.0Y-154.275
X50.0Y-157.4
X50.4Y-100.8
X50.6Y-163.0
X50.8Y-131.6
X50.8Y-149.0
X51.6Y-166.6
X51.6Y-172.4
X51.675Y-84.2
X51.9Y-203.6
X52.0Y-164.8
X53.0Y-100.8
X53.0Y-122.8
X53.2Y-187.2
X54.0Y-165.6
X54.2Y-173.2
X54.48Y-202.8
X55.8Y-139.4
X55.8Y-157.4
X56.275Y-51.2
X56.6Y-163.8
X56.99Y-202.0
X57.8Y-174.0
X57.8Y-191.8
X58.0Y-121.725
X58.19Y-156.6
X58.2Y-205.2
X58.799Y-201.2
X59.2Y-90.2
X59.2Y-93.325
X59.4Y-51.2
X59.4Y-158.2
X59.6Y-192.8
X59.898Y-94.487
X60.4Y-174.8
X60.79Y-200.4
X61.475Y-217.6
X61.475Y-238.2
X61.675Y-197.0
X61.8Y-91.8
X61.8Y-163.0
X62.0Y-59.8
X62.0Y-142.4
X62.2Y-95.2
X62.8Y-175.6
X62.875Y-247.8
X63.0Y-84.2
X63.37Y-199.6
X63.4Y-168.2
X64.4Y-153.8
X64.5Y-58.9
X65.4Y-179.0
X65.6Y-54.2
X65.6Y-70.4
X65.85Y-198.8
X66.0Y-167.2
X66.6Y-84.0
X67.0Y-58.2
X67.2Y-122.6
X67.2Y-162.2
X67.6Y-181.8
X68.0Y-55.0
X68.0Y-71.2
X68.0Y-198.0
X68.4Y-155.8
X68.4Y-161.4
X69.555Y-120.4
X69.66Y-57.4
X69.725Y-84.0
X70.4Y-164.8
X70.6Y-55.8
X70.6Y-72.0
X70.6Y-179.4
X70.6Y-182.525
X71.0Y-163.0
X71.8Y-158.2
X72.2Y-123.4
X72.2Y-168.2
X72.25Y-197.0
X72.4Y-184.0
X73.0Y-167.2
X73.2Y-56.6
X73.2Y-72.8
X73.2Y-130.0
X73.2Y-147.2
X73.2Y-150.325
X73.2Y-183.0
X73.37Y-161.4
X73.763Y-248.6
X74.0Y-164.8
X74.6Y-55.8
X74.6Y-124.8
X74.6Y-163.8
X74.76Y-220.2
X74.8Y-185.2
X75.8Y-167.4
X75.96Y-57.4
X76.0Y-73.6
X76.0Y-134.2
X77.2Y-55.0
X77.2Y-128.4
X77.2Y-165.6
X77.2Y-182.2
X77.3Y-191.0
X77.34Y-219.4
X77.4Y-184.0
X78.2Y-130.8
X78.4Y-58.2
X78.4Y-74.4
X78.4Y-180.6
X78.45Y-157.4
X78.6Y-217.0
X78.8Y-167.4
X79.6Y-54.2
X79.8Y-132.4
X79.8Y-179.8
X79.8Y-183.0
X80.35Y-212.35
X80.4Y-166.4
X80.7Y-142.3
X80.8Y-143.8
X81.0Y-75.2
X81.0Y-155.0
X81.04Y-59.0
X81.04Y-179.0
X82.2Y-60.8
X82.2Y-126.2
X82.4Y-155.8
X82.4Y-204.4
X83.3Y-76.0
X83.355Y-59.8
X83.4Y-52.6
X83.6Y-175.6
X83.64Y-211.64
X84.0Y-156.6
X84.8Y-131.6
X85.0Y-162.2
X85.0Y-232.2
X86.0Y-67.8
X86.0Y-139.6
X87.4Y-129.2
X87.4Y-162.8
X87.46Y-229.2
X87.498Y-182.237
X88.6Y-72.0
X88.6Y-117.8
X88.6Y-155.8
X89.8Y-79.6
X90.04Y-244.6
X90.8Y-78.8
X90.8Y-143.8
X91.2Y-166.6
X91.2Y-172.4
X91.2Y-174.8
X91.6Y-142.2
X91.8Y-78.0
X92.4Y-80.4
X92.4Y-164.8
X92.6Y-243.2
X93.2Y-28.2
X93.2Y-66.0
X93.2Y-103.6
X93.2Y-115.2
X93.2Y-138.6
X93.414Y-29.2
X93.8Y-165.6
X93.8Y-173.2
X93.8Y-174.0
X94.6Y-136.6
X94.71Y-97.0
X95.0Y-167.0
X95.12Y-228.2
X95.2Y-127.6
X95.4Y-121.2
X96.2Y-140.2
X96.2Y-143.3
X96.331Y-240.808
X96.6Y-34.6
X96.6Y-82.8
X96.6Y-102.8
X96.6Y-112.6
X96.6Y-137.8
X97.075Y-30.4
X97.4Y-60.8
X97.4Y-124.2
X97.4Y-174.0
X98.2Y-105.2
X98.4Y-133.4
X98.906Y-240.042
X99.0Y-77.2
X99.0Y-165.8
X100.2Y-30.4
X100.2Y-175.719
X100.4Y-149.4
X100.4Y-152.525
X100.8Y-108.4
X101.0Y-59.8
X101.2Y-22.037
X101.2Y-25.162
X101.4Y-206.0
X101.6Y-81.2
X101.868Y-241.628
X102.2Y-65.8
X102.2Y-171.4
X102.2Y-185.2
X102.8Y-121.2
X103.0Y-85.4
X103.0Y-130.0
X103.0Y-134.2
X103.4Y-59.0
X103.4Y-179.0
X103.6Y-163.8
X103.837Y-167.6
X104.0Y-191.0
X104.4Y-138.6
X104.475Y-133.8
X104.682Y-149.718
X104.8Y-129.2
X105.3Y-242.4
X106.2Y-58.2
X106.2Y-157.4
X106.6Y-185.4
X106.8Y-180.6
X106.962Y-167.6
X107.2Y-140.2
X107.4Y-104.4
X107.4Y-154.0
X107.6Y-133.8
X107.8Y-196.8
X107.8Y-223.4
X108.6Y-57.4
X108.8Y-158.2
X109.4Y-165.8
X110.154Y-60.774
X110.4Y-147.4
X110.4Y-222.6
X110.6Y-162.8
X111.2Y-56.6
X111.2Y-156.6
X111.8Y-179.0
X111.8Y-186.4
X111.837Y-120.2
X112.2Y-139.8
X112.4Y-221.8
X113.2Y-164.8
X113.8Y-55.8
X113.8Y-155.0
X114.0Y-148.2
X114.2Y-221.0
X114.6Y-139.2
X114.89Y-149.0
X114.962Y-120.2
X115.6Y-162.8
X115.6Y-167.0
X116.0Y-212.4
X116.2Y-55.0
X116.2Y-155.8
X116.6Y-220.2
X117.77Y-161.2
X117.8Y-155.8
X118.8Y-54.2
X118.81Y-40.6
X118.9Y-164.8
X119.2Y-219.4
X120.2Y-150.6
X120.2Y-161.8
X120.6Y-197.4
X121.2Y-73.6
X121.4Y-39.0
X121.6Y-207.4
X121.7Y-227.4
X121.7Y-247.6
X121.781Y-218.512
X122.2Y-181.4
X122.6Y-71.2
X122.7Y-167.6
X122.8Y-157.4
X123.725Y-197.4
X123.95Y-155.8
X124.0Y-53.4
X124.4Y-217.8
X124.6Y-187.2
X124.629Y-72.797
X124.725Y-207.4
X124.725Y-227.4
X124.725Y-247.6
X125.39Y-155.0
X126.2Y-114.0
X126.2Y-150.6
X126.6Y-156.6
X127.8Y-158.2
X128.4Y-112.8
X129.4Y-94.0
X129.4Y-185.4
X130.4Y-129.45
X130.4Y-132.6
X130.4Y-135.0
X130.4Y-183.4
X131.2Y-91.97
X131.2Y-186.4
X132.0Y-90.8
X132.0Y-205.2
X132.8Y-134.0
X132.8Y-224.6
X133.8Y-120.8
X134.857Y-135.0
X135.6Y-76.4
X135.8Y-149.0
X138.4Y-158.4
X139.6Y-134.2
X139.8Y-207.6
X140.28Y-233.0
X140.637Y-167.8
X141.778Y-176.7
X142.6Y-208.4
X142.8Y-236.0
X143.4Y-114.8
X143.4Y-118.0
X143.6Y-138.4
X143.6Y-141.762
X143.762Y-167.8
X144.0Y-206.8
X145.0Y-157.0
X145.066Y-209.2
X145.414Y-236.76
X146.037Y-62.8
X146.38Y-142.2
X146.4Y-37.8
X146.4Y-74.8
X146.4Y-206.0
X147.6Y-156.2
X147.8Y-210.0
X147.9Y-237.6
X148.92Y-143.0
X149.0Y-37.0
X149.0Y-205.2
X149.162Y-62.8
X149.525Y-74.8
X150.0Y-154.6
X150.0Y-210.8
X150.369Y-238.469
X150.4Y-166.7
X151.4Y-143.8
X151.5Y-35.5
X151.6Y-217.888
X151.6Y-67.0
X151.62Y-79.6
X152.6Y-153.8
X152.8Y-211.6
X153.0Y-85.4
X154.0Y-78.8
X154.0Y-166.7
X154.14Y-63.8
X154.156Y-218.545
X155.2Y-153.0
X155.6Y-239.2
X156.5Y-161.1
X156.6Y-219.4
X156.745Y-65.123
X156.8Y-78.0
X157.6Y-88.075
X157.6Y-91.2
X158.0Y-165.4
X158.0Y-183.4
X158.0Y-240.0
X158.14Y-76.4
X158.956Y-167.404
X159.2Y-171.475
X159.2Y-174.6
X159.2Y-220.2
X160.17Y-210.8
X160.174Y-60.774
X160.4Y-73.6
X160.6Y-240.8
X161.2Y-81.2
X161.4Y-203.6
X161.6Y-144.6
X161.8Y-221.0
X162.2Y-77.2
X162.71Y-210.0
X163.0Y-87.4
X163.2Y-241.6
X163.3Y-112.0
X163.8Y-202.8
X164.0Y-46.2
X164.2Y-96.2
X165.0Y-221.8
X165.25Y-209.2
X165.4Y-77.2
X165.6Y-84.2
X166.514Y-176.755
X166.6Y-44.8
X166.6Y-202.0
X166.6Y-242.4
X166.8Y-89.2
X167.2Y-46.0
X167.79Y-208.4
X167.975Y-222.6
X169.0Y-43.2
X169.0Y-52.6
X169.0Y-110.4
X169.0Y-201.2
X169.14Y-176.0
X169.2Y-94.0
X169.2Y-243.2
X170.33Y-207.6
X170.6Y-95.2
X170.6Y-223.4
X171.4Y-173.6
X171.5Y-136.1
X171.6Y-200.6
X171.6Y-204.4
X171.8Y-41.8
X171.8Y-93.0
X171.8Y-224.6
X172.87Y-206.8
X173.2Y-228.2
X174.0Y-169.0
X174.0Y-199.6
X174.195Y-113.8
X174.4Y-26.0
X174.41Y-91.97
X175.2Y-244.6
X175.35Y-254.0
X175.41Y-206.0
X175.6Y-126.2
X176.0Y-75.6
X176.2Y-61.8
X176.5Y-198.7
X176.6Y-172.8
X176.8Y-231.4
X176.838Y-226.8
X176.89Y-90.89
X177.8Y-232.2
X177.95Y-205.2
X179.0Y-114.8
X179.125Y-75.6
X179.2Y-198.0
X179.266Y-174.4
X179.325Y-61.8
X179.4Y-90.0
X179.6Y-245.237
X179.6Y-248.362
X179.963Y-226.8
X180.4Y-200.8
X180.616Y-189.164
X181.57Y-67.8
X181.6Y-175.2
X181.8Y-105.2
X183.0Y-53.5
X183.0Y-91.4
X183.475Y-160.8
X183.725Y-189.2
X184.1Y-63.8
X184.2Y-177.6
X185.6Y-129.8
X186.1Y-91.4
X186.6Y-54.2
X186.628Y-160.717
X188.0Y-59.8
X188.4Y-151.875
X188.4Y-155.0
X189.2Y-169.6
X189.4Y-136.8
X190.8Y-135.8
X191.6Y-182.6
X191.8Y-55.0
X192.8Y-230.0
X193.0Y-59.0
X193.6Y-242.4
X193.8Y-65.0
X194.2Y-95.4
X194.4Y-229.2
X195.2Y-194.2
X195.2Y-204.4
X195.4Y-157.0
X195.6Y-40.6
X195.8Y-86.8
X195.8Y-135.8
X196.2Y-248.4
X196.6Y-156.2
X197.0Y-55.8
X197.0Y-241.6
X197.2Y-119.275
X197.2Y-122.4
X197.8Y-144.6
X197.8Y-192.6
X197.8Y-214.6
X198.1Y-108.8
X198.2Y-58.2
X198.6Y-149.0
X198.6Y-239.2
X199.2Y-154.6
X199.2Y-167.4
X199.4Y-243.2
X199.6Y-39.0
X200.3Y-142.2
X200.475Y-203.0
X200.6Y-57.4
X200.6Y-191.8
X201.2Y-147.4
X201.8Y-162.2
X201.8Y-228.4
X202.0Y-56.6
X202.0Y-96.2
X202.4Y-148.2
X203.0Y-217.8
X203.44Y-85.4
X203.6Y-136.8
X203.6Y-180.8
X203.6Y-203.0
X204.4Y-180.0
X205.2Y-180.8
X205.6Y-143.0
X205.6Y-209.6
X205.6Y-223.4
X206.0Y-179.8
X206.8Y-97.0
X206.8Y-109.6
X206.8Y-153.8
X206.8Y-166.8
X206.8Y-180.8
X207.2Y-139.0
X207.8Y-179.8
X208.0Y-222.6
X208.6Y-112.6
X208.8Y-180.8
X209.2Y-165.8
X209.2Y-209.107
X209.4Y-153.0
X209.92Y-87.48
X210.0Y-122.6
X210.0Y-179.8
X210.6Y-135.8
X210.6Y-218.6
X211.2Y-141.4
X211.8Y-88.2
X212.0Y-133.8
X212.0Y-205.2
X213.0Y-143.8
X213.1Y-142.0
X213.2Y-219.4
X213.4Y-112.6
X213.6Y-121.8
X214.0Y-176.325
X214.2Y-108.2
X215.3Y-133.8
X215.8Y-221.8
X216.2Y-140.6
X217.2Y-139.8
X218.2Y-191.0
X218.2Y-221.0
X218.6Y-31.675
X218.6Y-34.8
X218.8Y-133.4
X219.6Y-89.2
X219.8Y-182.4
X220.0Y-135.8
X222.0Y-49.8
X222.075Y-168.0
X222.4Y-111.4
X223.4Y-120.8
X223.4Y-197.2
X223.637Y-99.2
X223.8Y-61.0
X224.4Y-111.475
X224.4Y-114.6
X224.8Y-196.4
X225.024Y-190.976
X225.125Y-49.8
X225.2Y-168.0
X225.8Y-105.0
X226.762Y-99.2
X226.8Y-67.0
X226.8Y-147.4
X226.8Y-149.0
X226.8Y-150.6
X226.925Y-61.0
X227.0Y-106.0
X227.0Y-134.2
X227.0Y-137.4
X227.2Y-205.0
X227.2Y-256.0
X228.2Y-76.4
X228.2Y-128.764
X228.4Y-135.8
X229.2Y-114.6
X229.34Y-148.14
X229.6Y-60.6
X229.6Y-135.0
X229.6Y-189.075
X229.6Y-192.2
X229.8Y-201.675
X229.8Y-204.8
X230.2Y-208.4
X230.6Y-118.4
X231.6Y-198.0
X231.8Y-142.6
X232.0Y-73.6
X232.0Y-147.2
X232.04Y-120.2
X232.06Y-51.6
X232.2Y-134.2
X234.6Y-52.4
X234.6Y-72.8
X235.6Y-143.4
X235.8Y-78.8
X235.9Y-135.8
X236.0Y-183.4
X237.2Y-53.2
X237.2Y-62.2
X237.2Y-197.2
X237.6Y-143.6
X239.6Y-54.0
X239.68Y-61.4
X239.692Y-113.892
X240.8Y-156.0
X241.0Y-225.275
X241.0Y-228.4
X242.0Y-54.8
X242.0Y-143.0
X242.2Y-156.8
X242.2Y-203.2
X242.34Y-212.4
X242.4Y-196.4
X243.237Y-161.4
X243.4Y-79.6
X243.6Y-211.6
X243.8Y-114.6
X244.2Y-205.4
X244.6Y-62.2
X244.6Y-127.6
X244.6Y-157.8
X244.8Y-55.6
X244.8Y-96.2
X245.72Y-142.2
X245.72Y-150.8
X245.8Y-205.4
X246.0Y-80.4
X246.0Y-95.4
X246.362Y-161.4
X246.8Y-147.2
X247.4Y-56.2
X247.4Y-60.6
X247.4Y-61.6
X247.8Y-104.0
X247.8Y-107.125
X248.0Y-128.2
X248.2Y-134.237
X248.2Y-137.362
X248.6Y-59.8
X249.0Y-121.8
X249.2Y-147.637
X249.2Y-150.762
X249.4Y-194.2
X249.6Y-87.09
X250.6Y-135.8
X251.2Y-184.8
X251.554Y-113.892
X252.0Y-77.2
X252.2Y-188.2
X252.2Y-229.6
X252.6Y-46.0
X253.2Y-159.8
X253.4Y-143.0
X253.6Y-129.8
X254.0Y-97.8
X254.2Y-174.4
X254.4Y-160.8
X254.44Y-115.4
X255.0Y-98.6
X255.4Y-192.0
X255.8Y-158.4
X255.8Y-159.8
X256.0Y-134.3
X257.2Y-149.4
X257.8Y-184.8
X259.6Y-143.0
X260.4Y-158.4
X260.8Y-105.4
X260.8Y-135.8
X261.2Y-39.325
X261.2Y-44.4
X261.2Y-47.525
X261.2Y-52.037
X261.2Y-55.162
X261.2Y-58.0
X261.2Y-77.362
X261.4Y-68.8
X261.8Y-208.4
X262.4Y-117.55
X262.8Y-197.2
X263.0Y-94.2
X263.8Y-135.0
X264.2Y-134.2
X264.6Y-168.2
T2
X221.83Y-31.652
X221.83Y-47.148
X224.37Y-31.652
X224.37Y-47.148
X226.91Y-31.652
X226.91Y-47.148
X229.45Y-31.652
X229.45Y-47.148
X231.99Y-31.652
X231.99Y-47.148
X234.53Y-31.652
X234.53Y-47.148
X237.07Y-31.652
X237.07Y-47.148
X239.61Y-31.652
X239.61Y-47.148
X242.15Y-31.652
X242.15Y-47.148
X244.69Y-31.652
X244.69Y-47.148
X247.23Y-31.652
X247.23Y-47.148
X249.77Y-31.652
X249.77Y-47.148
T3
X249.04Y-90.52
X249.04Y-91.79
X249.04Y-93.06
T4
X38.96Y-65.78
X38.96Y-81.02
X39.075Y-98.58
X39.075Y-113.82
X39.12Y-116.6
X39.12Y-124.22
X39.32Y-87.0
X39.32Y-94.62
X41.5Y-65.78
X41.5Y-81.02
X41.615Y-98.58
X41.615Y-113.82
X41.66Y-116.6
X41.66Y-124.22
X41.86Y-87.0
X41.86Y-94.62
X44.04Y-65.78
X44.04Y-81.02
X44.155Y-98.58
X44.155Y-113.82
X44.2Y-116.6
X44.2Y-124.22
X44.4Y-87.0
X44.4Y-94.62
X46.58Y-65.78
X46.58Y-81.02
X46.67Y-32.96
X46.67Y-48.2
X46.695Y-98.58
X46.695Y-113.82
X46.74Y-116.6
X46.74Y-124.22
X46.94Y-87.0
X46.94Y-94.62
X47.62Y-169.78
X47.62Y-177.4
X48.2Y-136.58
X48.2Y-144.2
X49.12Y-65.78
X49.12Y-81.02
X49.21Y-32.96
X49.21Y-48.2
X49.235Y-98.58
X49.235Y-113.82
X49.28Y-116.6
X49.28Y-124.22
X49.48Y-87.0
X49.48Y-94.62
X50.16Y-169.78
X50.16Y-177.4
X50.57Y-152.21
X50.57Y-159.83
X50.74Y-136.58
X50.74Y-144.2
X51.66Y-65.78
X51.66Y-81.02
X51.75Y-32.96
X51.75Y-48.2
X51.775Y-98.58
X51.775Y-113.82
X51.82Y-116.6
X51.82Y-124.22
X52.02Y-87.0
X52.02Y-94.62
X52.7Y-169.78
X52.7Y-177.4
X53.11Y-152.21
X53.11Y-159.83
X53.28Y-136.58
X53.28Y-144.2
X54.2Y-65.78
X54.2Y-81.02
X54.29Y-32.96
X54.29Y-48.2
X54.315Y-98.58
X54.315Y-113.82
X54.36Y-116.6
X54.36Y-124.22
X54.56Y-87.0
X54.56Y-94.62
X55.24Y-169.78
X55.24Y-177.4
X55.65Y-152.21
X55.65Y-159.83
X55.82Y-136.58
X55.82Y-144.2
X56.74Y-65.78
X56.74Y-81.02
X56.83Y-32.96
X56.83Y-48.2
X56.855Y-98.58
X56.855Y-113.82
X57.1Y-87.0
X57.1Y-94.62
X57.78Y-169.78
X57.78Y-177.4
X58.19Y-152.21
X58.19Y-159.83
X58.36Y-136.58
X58.36Y-144.2
X59.28Y-65.78
X59.28Y-81.02
X59.37Y-32.96
X59.37Y-48.2
X59.395Y-98.58
X59.395Y-113.82
X60.32Y-169.78
X60.32Y-177.4
X60.73Y-152.21
X60.73Y-159.83
X60.9Y-136.58
X60.9Y-144.2
X61.82Y-65.78
X61.82Y-81.02
X61.91Y-32.96
X61.91Y-48.2
X61.935Y-98.58
X61.935Y-113.82
X62.86Y-169.78
X62.86Y-177.4
X63.27Y-152.21
X63.27Y-159.83
X63.44Y-136.58
X63.44Y-144.2
X64.36Y-65.78
X64.36Y-81.02
X64.45Y-32.96
X64.45Y-48.2
X64.475Y-98.58
X64.475Y-113.82
X65.4Y-169.78
X65.4Y-177.4
X65.81Y-152.21
X65.81Y-159.83
X66.9Y-65.78
X66.9Y-81.02
X66.99Y-32.96
X66.99Y-48.2
X67.015Y-98.58
X67.015Y-113.82
X67.94Y-169.78
X67.94Y-177.4
X68.35Y-152.21
X68.35Y-159.83
X69.44Y-65.78
X69.44Y-81.02
X69.53Y-32.96
X69.53Y-48.2
X69.555Y-98.58
X69.555Y-113.82
X70.48Y-169.78
X70.48Y-177.4
X71.98Y-65.78
X71.98Y-81.02
X72.07Y-32.96
X72.07Y-48.2
X72.095Y-98.58
X72.095Y-113.82
X73.37Y-152.185
X73.37Y-159.805
X74.52Y-65.78
X74.52Y-81.02
X74.61Y-32.96
X74.61Y-48.2
X74.635Y-98.58
X74.635Y-113.82
X75.91Y-152.185
X75.91Y-159.805
X75.96Y-169.78
X75.96Y-177.4
X77.06Y-65.78
X77.06Y-81.02
X77.15Y-32.96
X77.15Y-48.2
X77.175Y-98.58
X77.175Y-113.82
X78.45Y-152.185
X78.45Y-159.805
X78.5Y-169.78
X78.5Y-177.4
X79.6Y-65.78
X79.6Y-81.02
X79.69Y-32.96
X79.69Y-48.2
X79.715Y-98.58
X79.715Y-113.82
X80.99Y-152.185
X80.99Y-159.805
X81.04Y-169.78
X81.04Y-177.4
X82.14Y-65.78
X82.14Y-81.02
X82.23Y-32.96
X82.23Y-48.2
X82.255Y-98.58
X82.255Y-113.82
X83.53Y-152.185
X83.53Y-159.805
X83.58Y-169.78
X83.58Y-177.4
X84.68Y-65.78
X84.68Y-81.02
X84.77Y-32.96
X84.77Y-48.2
X84.795Y-98.58
X84.795Y-113.82
X86.07Y-152.185
X86.07Y-159.805
X86.12Y-169.78
X86.12Y-177.4
X87.22Y-65.78
X87.22Y-81.02
X87.31Y-32.96
X87.31Y-48.2
X87.335Y-98.58
X87.335Y-113.82
X88.61Y-152.185
X88.61Y-159.805
X88.66Y-169.78
X88.66Y-177.4
X89.85Y-32.96
X89.85Y-48.2
X91.15Y-152.185
X91.15Y-159.805
X91.2Y-169.78
X91.2Y-177.4
X92.39Y-32.96
X92.39Y-48.2
X93.69Y-152.185
X93.69Y-159.805
X93.74Y-169.78
X93.74Y-177.4
X94.93Y-32.96
X94.93Y-48.2
X96.23Y-152.185
X96.23Y-159.805
X96.28Y-169.78
X96.28Y-177.4
X98.82Y-169.78
X98.82Y-177.4
X101.03Y-33.0
X101.03Y-48.24
X101.11Y-19.785
X101.11Y-27.405
X103.57Y-33.0
X103.57Y-48.24
X103.63Y-152.385
X103.63Y-160.005
X103.65Y-19.785
X103.65Y-27.405
X104.34Y-169.8
X104.34Y-177.42
X104.43Y-136.2
X104.43Y-143.82
X104.84Y-113.9
X104.84Y-116.44
X104.84Y-118.98
X104.84Y-121.52
X104.84Y-124.06
X104.84Y-126.6
X106.11Y-33.0
X106.11Y-48.24
X106.17Y-152.385
X106.17Y-160.005
X106.19Y-19.785
X106.19Y-27.405
X106.88Y-169.8
X106.88Y-177.42
X106.97Y-136.2
X106.97Y-143.82
X107.38Y-111.36
X107.38Y-113.9
X107.38Y-116.44
X107.38Y-118.98
X107.38Y-121.52
X107.38Y-124.06
X107.38Y-126.6
X107.38Y-129.14
X108.65Y-33.0
X108.65Y-48.24
X108.71Y-152.385
X108.71Y-160.005
X108.73Y-19.785
X108.73Y-27.405
X109.42Y-169.8
X109.42Y-177.42
X109.51Y-136.2
X109.51Y-143.82
X109.92Y-111.36
X109.92Y-113.9
X109.92Y-126.6
X109.92Y-129.14
X111.19Y-33.0
X111.19Y-48.24
X111.25Y-152.385
X111.25Y-160.005
X111.27Y-19.785
X111.27Y-27.405
X111.96Y-169.8
X111.96Y-177.42
X112.05Y-136.2
X112.05Y-143.82
X112.46Y-111.36
X112.46Y-113.9
X112.46Y-126.6
X112.46Y-129.14
X113.73Y-33.0
X113.73Y-48.24
X113.79Y-152.385
X113.79Y-160.005
X113.81Y-19.785
X113.81Y-27.405
X114.5Y-169.8
X114.5Y-177.42
X114.59Y-136.2
X114.59Y-143.82
X115.0Y-111.36
X115.0Y-113.9
X115.0Y-126.6
X115.0Y-129.14
X116.27Y-33.0
X116.27Y-48.24
X116.33Y-152.385
X116.33Y-160.005
X116.35Y-19.785
X116.35Y-27.405
X117.04Y-169.8
X117.04Y-177.42
X117.13Y-136.2
X117.13Y-143.82
X117.54Y-111.36
X117.54Y-113.9
X117.54Y-126.6
X117.54Y-129.14
X118.81Y-33.0
X118.81Y-48.24
X118.87Y-152.385
X118.87Y-160.005
X118.89Y-19.785
X118.89Y-27.405
X119.58Y-169.8
X119.58Y-177.42
X119.67Y-136.2
X119.67Y-143.82
X120.08Y-111.36
X120.08Y-113.9
X120.08Y-116.44
X120.08Y-118.98
X120.08Y-121.52
X120.08Y-124.06
X120.08Y-126.6
X120.08Y-129.14
X121.35Y-33.0
X121.35Y-48.24
X121.41Y-152.385
X121.41Y-160.005
X122.12Y-169.8
X122.12Y-177.42
X122.21Y-136.2
X122.21Y-143.82
X122.62Y-113.9
X122.62Y-116.44
X122.62Y-118.98
X122.62Y-121.52
X122.62Y-124.06
X122.62Y-126.6
X123.89Y-33.0
X123.89Y-48.24
X123.95Y-152.385
X123.95Y-160.005
X124.66Y-169.8
X124.66Y-177.42
X124.75Y-136.2
X124.75Y-143.82
X126.43Y-33.0
X126.43Y-48.24
X126.49Y-152.385
X126.49Y-160.005
X127.2Y-169.8
X127.2Y-177.42
X127.29Y-136.2
X127.29Y-143.82
X128.97Y-33.0
X128.97Y-48.24
X135.957Y-163.8
X135.957Y-171.42
X138.498Y-163.8
X138.498Y-171.42
X141.037Y-163.8
X141.037Y-171.42
X141.35Y-214.58
X141.35Y-229.82
X141.38Y-234.96
X141.38Y-250.2
X143.577Y-163.8
X143.577Y-171.42
X143.72Y-131.58
X143.72Y-146.82
X143.755Y-108.58
X143.755Y-123.82
X143.89Y-214.58
X143.89Y-229.82
X143.92Y-234.96
X143.92Y-250.2
X146.118Y-163.8
X146.118Y-171.42
X146.26Y-131.58
X146.26Y-146.82
X146.295Y-108.58
X146.295Y-123.82
X146.43Y-214.58
X146.43Y-229.82
X146.46Y-234.96
X146.46Y-250.2
X148.657Y-163.8
X148.657Y-171.42
X148.8Y-131.58
X148.8Y-146.82
X148.835Y-108.58
X148.835Y-123.82
X148.97Y-214.58
X148.97Y-229.82
X149.0Y-234.96
X149.0Y-250.2
X150.237Y-176.15
X150.237Y-181.03
X151.197Y-163.8
X151.197Y-171.42
X151.34Y-131.58
X151.34Y-146.82
X151.375Y-108.58
X151.375Y-123.82
X151.51Y-214.58
X151.51Y-229.82
X151.54Y-234.96
X151.54Y-250.2
X151.6Y-62.18
X151.6Y-69.8
X151.62Y-74.98
X151.62Y-82.6
X153.737Y-163.8
X153.737Y-171.42
X153.88Y-131.58
X153.88Y-146.82
X153.915Y-108.58
X153.915Y-123.82
X154.05Y-214.58
X154.05Y-229.82
X154.08Y-234.96
X154.08Y-250.2
X154.14Y-62.18
X154.14Y-69.8
X154.16Y-74.98
X154.16Y-82.6
X156.278Y-163.8
X156.278Y-171.42
X156.42Y-131.58
X156.42Y-146.82
X156.455Y-108.58
X156.455Y-123.82
X156.57Y-85.76
X156.57Y-101.0
X156.59Y-214.58
X156.59Y-229.82
X156.62Y-234.96
X156.62Y-250.2
X156.68Y-62.18
X156.68Y-69.8
X156.7Y-74.98
X156.7Y-82.6
X158.96Y-131.58
X158.96Y-146.82
X158.995Y-108.58
X158.995Y-123.82
X159.11Y-85.76
X159.11Y-101.0
X159.13Y-214.58
X159.13Y-229.82
X159.16Y-234.96
X159.16Y-250.2
X159.22Y-62.18
X159.22Y-69.8
X159.24Y-74.98
X159.24Y-82.6
X160.17Y-185.38
X160.17Y-193.0
X161.5Y-131.58
X161.5Y-146.82
X161.535Y-108.58
X161.535Y-123.82
X161.65Y-85.76
X161.65Y-101.0
X161.67Y-214.58
X161.67Y-229.82
X161.7Y-234.96
X161.7Y-250.2
X161.76Y-62.18
X161.76Y-69.8
X161.78Y-74.98
X161.78Y-82.6
X162.62Y-163.58
X162.62Y-171.2
X162.71Y-185.38
X162.71Y-193.0
X164.04Y-131.58
X164.04Y-146.82
X164.075Y-108.58
X164.075Y-123.82
X164.19Y-85.76
X164.19Y-101.0
X164.21Y-214.58
X164.21Y-229.82
X164.24Y-234.96
X164.24Y-250.2
X164.3Y-62.18
X164.3Y-69.8
X164.32Y-74.98
X164.32Y-82.6
X165.16Y-163.58
X165.16Y-171.2
X165.25Y-185.38
X165.25Y-193.0
X166.58Y-131.58
X166.58Y-146.82
X166.615Y-108.58
X166.615Y-123.82
X166.73Y-85.76
X166.73Y-101.0
X166.75Y-214.58
X166.75Y-229.82
X166.78Y-234.96
X166.78Y-250.2
X166.84Y-62.18
X166.84Y-69.8
X166.86Y-74.98
X166.86Y-82.6
X167.7Y-163.58
X167.7Y-171.2
X167.79Y-185.38
X167.79Y-193.0
X169.12Y-131.58
X169.12Y-146.82
X169.155Y-108.58
X169.155Y-123.82
X169.27Y-85.76
X169.27Y-101.0
X169.29Y-214.58
X169.29Y-229.82
X169.32Y-234.96
X169.32Y-250.2
X169.4Y-74.98
X169.4Y-82.6
X170.24Y-163.58
X170.24Y-171.2
X170.33Y-185.38
X170.33Y-193.0
X171.66Y-131.58
X171.66Y-146.82
X171.695Y-108.58
X171.695Y-123.82
X171.81Y-85.76
X171.81Y-101.0
X171.83Y-214.58
X171.83Y-229.82
X171.86Y-234.96
X171.86Y-250.2
X172.78Y-163.58
X172.78Y-171.2
X172.87Y-185.38
X172.87Y-193.0
X174.2Y-131.58
X174.2Y-146.82
X174.235Y-108.58
X174.235Y-123.82
X174.35Y-85.76
X174.35Y-101.0
X174.37Y-214.58
X174.37Y-229.82
X174.4Y-234.96
X174.4Y-250.2
X175.32Y-163.58
X175.32Y-171.2
X175.41Y-185.38
X175.41Y-193.0
X176.74Y-131.58
X176.74Y-146.82
X176.775Y-108.58
X176.775Y-123.82
X176.89Y-85.76
X176.89Y-101.0
X176.91Y-214.58
X176.91Y-229.82
X176.94Y-234.96
X176.94Y-250.2
X177.86Y-163.58
X177.86Y-171.2
X177.95Y-185.38
X177.95Y-193.0
X179.28Y-131.58
X179.28Y-146.82
X179.315Y-108.58
X179.315Y-123.82
X179.43Y-85.76
X179.43Y-101.0
X179.45Y-214.58
X179.45Y-229.82
X179.48Y-234.96
X179.48Y-250.2
X180.4Y-163.58
X180.4Y-171.2
X180.49Y-185.38
X180.49Y-193.0
X181.57Y-62.38
X181.57Y-70.0
X181.68Y-74.78
X181.68Y-82.4
X181.82Y-131.58
X181.82Y-146.82
X181.855Y-108.58
X181.855Y-123.82
X181.97Y-85.76
X181.97Y-101.0
X182.94Y-163.58
X182.94Y-171.2
X183.03Y-185.38
X183.03Y-193.0
X184.11Y-62.38
X184.11Y-70.0
X184.22Y-74.78
X184.22Y-82.4
X184.36Y-131.58
X184.36Y-146.82
X184.395Y-108.58
X184.395Y-123.82
X184.51Y-85.76
X184.51Y-101.0
X185.48Y-163.58
X185.48Y-171.2
X186.65Y-62.38
X186.65Y-70.0
X186.76Y-74.78
X186.76Y-82.4
X186.9Y-131.58
X186.9Y-146.82
X186.935Y-108.58
X186.935Y-123.82
X187.05Y-85.76
X187.05Y-101.0
X189.19Y-62.38
X189.19Y-70.0
X189.3Y-74.78
X189.3Y-82.4
X189.44Y-131.58
X189.44Y-146.82
X189.475Y-108.58
X189.475Y-123.82
X189.59Y-85.76
X189.59Y-101.0
X191.52Y-163.78
X191.52Y-171.4
X191.58Y-151.6
X191.58Y-159.22
X191.73Y-62.38
X191.73Y-70.0
X191.84Y-74.78
X191.84Y-82.4
X191.98Y-131.58
X191.98Y-146.82
X192.015Y-108.58
X192.015Y-123.82
X194.06Y-163.78
X194.06Y-171.4
X194.12Y-151.6
X194.12Y-159.22
X194.27Y-62.38
X194.27Y-70.0
X194.38Y-74.78
X194.38Y-82.4
X196.6Y-163.78
X196.6Y-171.4
X196.66Y-151.6
X196.66Y-159.22
X196.81Y-62.38
X196.81Y-70.0
X196.92Y-74.78
X196.92Y-82.4
X197.22Y-116.98
X197.22Y-124.6
X199.14Y-163.78
X199.14Y-171.4
X199.2Y-151.6
X199.2Y-159.22
X199.35Y-62.38
X199.35Y-70.0
X199.46Y-74.78
X199.46Y-82.4
X199.76Y-116.98
X199.76Y-124.6
X200.62Y-199.38
X200.62Y-207.0
X201.68Y-163.78
X201.68Y-171.4
X201.74Y-151.6
X201.74Y-159.22
X201.89Y-62.38
X201.89Y-70.0
X202.0Y-74.78
X202.0Y-82.4
X202.3Y-116.98
X202.3Y-124.6
X203.16Y-199.38
X203.16Y-207.0
X204.22Y-163.78
X204.22Y-171.4
X204.28Y-151.6
X204.28Y-159.22
X204.43Y-62.38
X204.43Y-70.0
X204.54Y-74.78
X204.54Y-82.4
X204.84Y-116.98
X204.84Y-124.6
X205.7Y-199.38
X205.7Y-207.0
X206.76Y-163.78
X206.76Y-171.4
X206.82Y-151.6
X206.82Y-159.22
X207.38Y-116.98
X207.38Y-124.6
X208.24Y-199.38
X208.24Y-207.0
X209.3Y-163.78
X209.3Y-171.4
X209.36Y-151.6
X209.36Y-159.22
X209.92Y-116.98
X209.92Y-124.6
X210.78Y-199.38
X210.78Y-207.0
X211.84Y-163.78
X211.84Y-171.4
X211.9Y-151.6
X211.9Y-159.22
X212.46Y-116.98
X212.46Y-124.6
X213.32Y-199.38
X213.32Y-207.0
X214.38Y-163.78
X214.38Y-171.4
X214.44Y-151.6
X214.44Y-159.22
X215.0Y-116.98
X215.0Y-124.6
X215.86Y-199.38
X215.86Y-207.0
X217.54Y-116.98
X217.54Y-124.6
X218.4Y-199.38
X218.4Y-207.0
X220.08Y-116.98
X220.08Y-124.6
X220.94Y-199.38
X220.94Y-207.0
X222.38Y-163.98
X222.38Y-171.6
X223.48Y-199.38
X223.48Y-207.0
X224.42Y-116.98
X224.42Y-124.6
X224.92Y-163.98
X224.92Y-171.6
X226.8Y-145.22
X226.8Y-152.84
X226.96Y-63.785
X226.96Y-71.405
X226.96Y-116.98
X226.96Y-124.6
X226.98Y-50.18
X226.98Y-57.8
X227.0Y-131.995
X227.0Y-139.615
X227.1Y-101.78
X227.1Y-109.4
X227.46Y-163.98
X227.46Y-171.6
X229.34Y-145.22
X229.34Y-152.84
X229.5Y-63.785
X229.5Y-71.405
X229.5Y-116.98
X229.5Y-124.6
X229.52Y-50.18
X229.52Y-57.8
X229.54Y-131.995
X229.54Y-139.615
X229.64Y-101.78
X229.64Y-109.4
X229.64Y-199.4
X229.64Y-207.02
X229.71Y-186.59
X229.71Y-194.21
X230.0Y-163.98
X230.0Y-171.6
X231.88Y-145.22
X231.88Y-152.84
X232.04Y-63.785
X232.04Y-71.405
X232.04Y-116.98
X232.04Y-124.6
X232.06Y-50.18
X232.06Y-57.8
X232.08Y-131.995
X232.08Y-139.615
X232.18Y-101.78
X232.18Y-109.4
X232.18Y-199.4
X232.18Y-207.02
X232.25Y-186.59
X232.25Y-194.21
X232.54Y-163.98
X232.54Y-171.6
X234.42Y-145.22
X234.42Y-152.84
X234.58Y-63.785
X234.58Y-71.405
X234.58Y-116.98
X234.58Y-124.6
X234.6Y-50.18
X234.6Y-57.8
X234.62Y-131.995
X234.62Y-139.615
X234.72Y-101.78
X234.72Y-109.4
X234.72Y-199.4
X234.72Y-207.02
X234.79Y-186.59
X234.79Y-194.21
X235.08Y-163.98
X235.08Y-171.6
X235.99Y-92.99
X236.96Y-145.22
X236.96Y-152.84
X237.12Y-63.785
X237.12Y-71.405
X237.12Y-116.98
X237.12Y-124.6
X237.14Y-50.18
X237.14Y-57.8
X237.16Y-131.995
X237.16Y-139.615
X237.26Y-101.78
X237.26Y-109.4
X237.26Y-199.4
X237.26Y-207.02
X237.33Y-186.59
X237.33Y-194.21
X237.62Y-163.98
X237.62Y-171.6
X239.5Y-145.22
X239.5Y-152.84
X239.66Y-63.785
X239.66Y-71.405
X239.66Y-116.98
X239.66Y-124.6
X239.68Y-50.18
X239.68Y-57.8
X239.7Y-131.995
X239.7Y-139.615
X239.8Y-101.78
X239.8Y-109.4
X239.8Y-199.4
X239.8Y-207.02
X239.87Y-186.59
X239.87Y-194.21
X242.04Y-145.22
X242.04Y-152.84
X242.2Y-63.785
X242.2Y-71.405
X242.2Y-116.98
X242.2Y-124.6
X242.22Y-50.18
X242.22Y-57.8
X242.24Y-131.995
X242.24Y-139.615
X242.34Y-101.78
X242.34Y-109.4
X242.34Y-199.4
X242.34Y-207.02
X242.41Y-186.59
X242.41Y-194.21
X243.18Y-163.98
X243.18Y-171.6
X243.61Y-92.99
X244.74Y-63.785
X244.74Y-71.405
X244.76Y-50.18
X244.76Y-57.8
X244.88Y-199.4
X244.88Y-207.02
X244.95Y-186.59
X244.95Y-194.21
X245.72Y-163.98
X245.72Y-171.6
X247.28Y-63.785
X247.28Y-71.405
X247.3Y-50.18
X247.3Y-57.8
X247.49Y-186.59
X247.49Y-194.21
X247.9Y-101.8
X247.9Y-109.42
X248.18Y-132.0
X248.18Y-139.62
X248.18Y-145.205
X248.18Y-152.825
X248.26Y-163.98
X248.26Y-171.6
X249.82Y-63.785
X249.82Y-71.405
X249.84Y-50.18
X249.84Y-57.8
X250.44Y-101.8
X250.44Y-109.42
X250.72Y-132.0
X250.72Y-139.62
X250.72Y-145.205
X250.72Y-152.825
X250.8Y-163.98
X250.8Y-171.6
X252.98Y-101.8
X252.98Y-109.42
X253.26Y-132.0
X253.26Y-139.62
X253.26Y-145.205
X253.26Y-152.825
X253.34Y-163.98
X253.34Y-171.6
X255.52Y-101.8
X255.52Y-109.42
X255.8Y-132.0
X255.8Y-139.62
X255.8Y-145.205
X255.8Y-152.825
X255.88Y-163.98
X255.88Y-171.6
X258.06Y-101.8
X258.06Y-109.42
X258.34Y-132.0
X258.34Y-139.62
X258.34Y-145.205
X258.34Y-152.825
X258.42Y-163.98
X258.42Y-171.6
X260.6Y-101.8
X260.6Y-109.42
X260.88Y-132.0
X260.88Y-139.62
X260.88Y-145.205
X260.88Y-152.825
X263.14Y-101.8
X263.14Y-109.42
X263.42Y-132.0
X263.42Y-139.62
X263.42Y-145.205
X263.42Y-152.825
T5
X260.325Y-86.2
X262.865Y-86.2
T6
X27.885Y-20.225
X27.885Y-22.765
X27.885Y-25.305
X27.885Y-27.845
X27.885Y-30.385
X27.885Y-32.925
X27.885Y-35.465
X27.885Y-38.005
X27.885Y-40.545
X27.885Y-43.085
X27.885Y-45.625
X27.885Y-48.165
X27.885Y-50.705
X27.885Y-53.245
X30.425Y-20.225
X30.425Y-22.765
X30.425Y-25.305
X30.425Y-27.845
X30.425Y-30.385
X30.425Y-32.925
X30.425Y-35.465
X30.425Y-38.005
X30.425Y-40.545
X30.425Y-43.085
X30.425Y-45.625
X30.425Y-48.165
X30.425Y-50.705
X30.425Y-53.245
X123.2Y-25.8
X128.2Y-25.8
X204.12Y-216.2
X204.12Y-231.44
X206.66Y-216.2
X206.66Y-231.44
X209.2Y-216.2
X209.2Y-231.44
X211.74Y-216.2
X211.74Y-231.44
X214.28Y-216.2
X214.28Y-231.44
X216.82Y-216.2
X216.82Y-231.44
X219.36Y-216.2
X219.36Y-231.44
X221.9Y-216.2
X221.9Y-231.44
X222.6Y-20.3
X222.6Y-24.8
X224.44Y-216.2
X224.44Y-231.44
X226.98Y-216.2
X226.98Y-231.44
X229.1Y-20.3
X229.1Y-24.8
X229.52Y-216.2
X229.52Y-231.44
X232.06Y-216.2
X232.06Y-231.44
X234.6Y-216.2
X234.6Y-231.44
X237.14Y-216.2
X237.14Y-231.44
X237.69Y-20.9
X239.68Y-216.2
X239.68Y-231.44
X240.23Y-20.9
X242.22Y-216.2
X242.22Y-231.44
X258.8Y-114.535
X258.8Y-117.075
T7
X27.76Y-86.645
X27.76Y-89.415
X27.76Y-92.185
X27.76Y-94.955
X30.6Y-85.26
X30.6Y-88.03
X30.6Y-90.8
X30.6Y-93.57
X30.6Y-96.34
X235.99Y-82.8
X243.59Y-82.8
T8
X249.0Y-20.46
X249.0Y-23.0
X249.0Y-25.54
T9
X49.4Y-189.478
X49.4Y-194.33
X49.4Y-210.098
X49.4Y-214.95
X49.4Y-230.718
X49.4Y-235.57
X49.4Y-251.338
X49.4Y-256.19
X51.94Y-189.478
X51.94Y-194.33
X51.94Y-210.098
X51.94Y-214.95
X51.94Y-230.718
X51.94Y-235.57
X51.94Y-251.338
X51.94Y-256.19
X54.48Y-189.478
X54.48Y-194.33
X54.48Y-210.098
X54.48Y-214.95
X54.48Y-230.718
X54.48Y-235.57
X54.48Y-251.338
X54.48Y-256.19
X57.02Y-189.478
X57.02Y-194.33
X57.02Y-210.098
X57.02Y-214.95
X57.02Y-230.718
X57.02Y-235.57
X57.02Y-251.338
X57.02Y-256.19
X59.56Y-189.478
X59.56Y-194.33
X59.56Y-210.098
X59.56Y-214.95
X59.56Y-230.718
X59.56Y-235.57
X59.56Y-251.338
X59.56Y-256.19
X62.1Y-189.478
X62.1Y-194.33
X62.1Y-210.098
X62.1Y-214.95
X62.1Y-230.718
X62.1Y-235.57
X62.1Y-251.338
X62.1Y-256.19
X64.64Y-189.478
X64.64Y-194.33
X64.64Y-210.098
X64.64Y-214.95
X64.64Y-230.718
X64.64Y-235.57
X64.64Y-251.338
X64.64Y-256.19
X67.18Y-189.478
X67.18Y-194.33
X67.18Y-210.098
X67.18Y-214.95
X67.18Y-230.718
X67.18Y-235.57
X67.18Y-251.338
X67.18Y-256.19
X69.72Y-189.478
X69.72Y-194.33
X69.72Y-210.098
X69.72Y-214.95
X69.72Y-230.718
X69.72Y-235.57
X69.72Y-251.338
X69.72Y-256.19
X72.26Y-189.478
X72.26Y-194.33
X72.26Y-210.098
X72.26Y-214.95
X72.26Y-230.718
X72.26Y-235.57
X72.26Y-251.338
X72.26Y-256.19
X74.8Y-189.478
X74.8Y-194.33
X74.8Y-210.098
X74.8Y-214.95
X74.8Y-230.718
X74.8Y-235.57
X74.8Y-251.338
X74.8Y-256.19
X77.34Y-189.478
X77.34Y-194.33
X77.34Y-210.098
X77.34Y-214.95
X77.34Y-230.718
X77.34Y-235.57
X77.34Y-251.338
X77.34Y-256.19
X79.88Y-189.478
X79.88Y-194.33
X79.88Y-210.098
X79.88Y-214.95
X79.88Y-230.718
X79.88Y-235.57
X79.88Y-251.338
X79.88Y-256.19
X82.42Y-189.478
X82.42Y-194.33
X82.42Y-210.098
X82.42Y-214.95
X82.42Y-230.718
X82.42Y-235.57
X82.42Y-251.338
X82.42Y-256.19
X84.96Y-189.478
X84.96Y-194.33
X84.96Y-210.098
X84.96Y-214.95
X84.96Y-230.718
X84.96Y-235.57
X84.96Y-251.338
X84.96Y-256.19
X87.5Y-189.478
X87.5Y-194.33
X87.5Y-210.098
X87.5Y-214.95
X87.5Y-230.718
X87.5Y-235.57
X87.5Y-251.338
X87.5Y-256.19
X90.04Y-189.478
X90.04Y-194.33
X90.04Y-210.098
X90.04Y-214.95
X90.04Y-230.718
X90.04Y-235.57
X90.04Y-251.338
X90.04Y-256.19
X92.58Y-189.478
X92.58Y-194.33
X92.58Y-210.098
X92.58Y-214.95
X92.58Y-230.718
X92.58Y-235.57
X92.58Y-251.338
X92.58Y-256.19
X95.12Y-189.478
X95.12Y-194.33
X95.12Y-210.098
X95.12Y-214.95
X95.12Y-230.718
X95.12Y-235.57
X95.12Y-251.338
X95.12Y-256.19
X97.66Y-189.478
X97.66Y-194.33
X97.66Y-210.098
X97.66Y-214.95
X97.66Y-230.718
X97.66Y-235.57
X97.66Y-251.338
X97.66Y-256.19
X100.2Y-189.478
X100.2Y-194.33
X100.2Y-210.098
X100.2Y-214.95
X100.2Y-230.718
X100.2Y-235.57
X100.2Y-251.338
X100.2Y-256.19
X102.74Y-189.478
X102.74Y-194.33
X102.74Y-210.098
X102.74Y-214.95
X102.74Y-230.718
X102.74Y-235.57
X102.74Y-251.338
X102.74Y-256.19
X105.28Y-189.478
X105.28Y-194.33
X105.28Y-210.098
X105.28Y-214.95
X105.28Y-230.718
X105.28Y-235.57
X105.28Y-251.338
X105.28Y-256.19
X107.82Y-189.478
X107.82Y-194.33
X107.82Y-210.098
X107.82Y-214.95
X107.82Y-230.718
X107.82Y-235.57
X107.82Y-251.338
X107.82Y-256.19
X110.36Y-189.478
X110.36Y-194.33
X110.36Y-210.098
X110.36Y-214.95
X110.36Y-230.718
X110.36Y-235.57
X110.36Y-251.338
X110.36Y-256.19
X112.9Y-189.478
X112.9Y-194.33
X112.9Y-210.098
X112.9Y-214.95
X112.9Y-230.718
X112.9Y-235.57
X112.9Y-251.338
X112.9Y-256.19
X115.44Y-189.478
X115.44Y-194.33
X115.44Y-210.098
X115.44Y-214.95
X115.44Y-230.718
X115.44Y-235.57
X115.44Y-251.338
X115.44Y-256.19
X117.98Y-189.478
X117.98Y-194.33
X117.98Y-210.098
X117.98Y-214.95
X117.98Y-230.718
X117.98Y-235.57
X117.98Y-251.338
X117.98Y-256.19
X120.52Y-189.478
X120.52Y-194.33
X120.52Y-210.098
X120.52Y-214.95
X120.52Y-230.718
X120.52Y-235.57
X120.52Y-251.338
X120.52Y-256.19
X123.06Y-189.478
X123.06Y-194.33
X123.06Y-210.098
X123.06Y-214.95
X123.06Y-230.718
X123.06Y-235.57
X123.06Y-251.338
X123.06Y-256.19
X125.6Y-189.478
X125.6Y-194.33
X125.6Y-210.098
X125.6Y-214.95
X125.6Y-230.718
X125.6Y-235.57
X125.6Y-251.338
X125.6Y-256.19
T10
X32.37Y-133.46
X32.37Y-135.56
X32.37Y-138.16
X32.37Y-140.26
X34.87Y-133.46
X34.87Y-140.26
X39.37Y-133.46
X39.37Y-135.56
X39.37Y-138.16
X39.37Y-140.26
X41.87Y-133.46
X41.87Y-140.26
T11
X138.8Y-19.442
X141.34Y-19.442
X143.88Y-19.442
X146.42Y-19.442
X148.96Y-19.442
X151.5Y-19.442
X154.04Y-19.442
X156.58Y-19.442
X159.12Y-19.442
X161.66Y-19.442
X164.2Y-19.442
X166.74Y-19.442
X169.28Y-19.442
X171.82Y-19.442
X174.36Y-19.442
X176.9Y-19.442
T12
X125.7Y-28.8
T13
X258.45Y-31.584
X258.45Y-35.784
X258.45Y-39.984
X258.45Y-44.184
X258.45Y-48.384
X258.45Y-52.584
X258.45Y-56.784
X258.45Y-60.984
X258.45Y-65.184
X258.45Y-69.384
X258.45Y-73.584
X258.45Y-77.784
X263.95Y-31.584
X263.95Y-35.784
X263.95Y-39.984
X263.95Y-44.184
X263.95Y-48.384
X263.95Y-52.584
X263.95Y-56.784
X263.95Y-60.984
X263.95Y-65.184
X263.95Y-69.384
X263.95Y-73.584
X263.95Y-77.784
T14
X28.57Y-136.86
X29.37Y-130.11
X29.37Y-143.61
X39.37Y-130.11
X39.37Y-143.61
T15
X133.301Y-19.442
X133.301Y-50.443
X208.299Y-50.443
X208.3Y-19.442
T16
X29.18Y-78.305
X29.18Y-103.295
M30
