%TF.GenerationSoftware,KiCad,Pcbnew,10.0.4*%
%TF.CreationDate,2026-07-08T10:12:00-07:00*%
%TF.ProjectId,retroslop,72657472-6f73-46c6-9f70-2e6b69636164,A*%
%TF.SameCoordinates,Original*%
%TF.FileFunction,Drillmap*%
%TF.FilePolarity,Positive*%
%FSLAX45Y45*%
G04 Gerber Fmt 4.5, Leading zero omitted, Abs format (unit mm)*
G04 Created by KiCad (PCBNEW 10.0.4) date 2026-07-08 10:12:00*
%MOMM*%
%LPD*%
G01*
G04 APERTURE LIST*
%ADD10C,0.050000*%
%ADD11C,0.200000*%
%ADD12C,0.400000*%
G04 APERTURE END LIST*
D10*
X2000000Y-2000000D02*
X26400000Y-2000000D01*
X26400000Y-26400000D01*
X2000000Y-26400000D01*
X2000000Y-2000000D01*
D11*
D12*
X2816000Y-17983000D02*
X3216000Y-18383000D01*
X3216000Y-17983000D02*
X2816000Y-18383000D01*
X2816000Y-22755000D02*
X3216000Y-23155000D01*
X3216000Y-22755000D02*
X2816000Y-23155000D01*
X5102000Y-2435000D02*
X5502000Y-2835000D01*
X5502000Y-2435000D02*
X5102000Y-2835000D01*
X18310000Y-2435000D02*
X18710000Y-2835000D01*
X18710000Y-2435000D02*
X18310000Y-2835000D01*
X18310000Y-18183000D02*
X18710000Y-18583000D01*
X18710000Y-18183000D02*
X18310000Y-18583000D01*
X18310000Y-22755000D02*
X18710000Y-23155000D01*
X18710000Y-22755000D02*
X18310000Y-23155000D01*
X18310000Y-24787000D02*
X18710000Y-25187000D01*
X18710000Y-24787000D02*
X18310000Y-25187000D01*
X25549000Y-2435000D02*
X25949000Y-2835000D01*
X25949000Y-2435000D02*
X25549000Y-2835000D01*
X25549000Y-18310000D02*
X25949000Y-18710000D01*
X25949000Y-18310000D02*
X25549000Y-18710000D01*
D11*
X2258277Y-26713984D02*
X2258277Y-26513984D01*
X2258277Y-26513984D02*
X2305896Y-26513984D01*
X2305896Y-26513984D02*
X2334467Y-26523508D01*
X2334467Y-26523508D02*
X2353515Y-26542555D01*
X2353515Y-26542555D02*
X2363039Y-26561603D01*
X2363039Y-26561603D02*
X2372563Y-26599698D01*
X2372563Y-26599698D02*
X2372563Y-26628269D01*
X2372563Y-26628269D02*
X2363039Y-26666365D01*
X2363039Y-26666365D02*
X2353515Y-26685412D01*
X2353515Y-26685412D02*
X2334467Y-26704460D01*
X2334467Y-26704460D02*
X2305896Y-26713984D01*
X2305896Y-26713984D02*
X2258277Y-26713984D01*
X2458277Y-26713984D02*
X2458277Y-26580650D01*
X2458277Y-26618746D02*
X2467801Y-26599698D01*
X2467801Y-26599698D02*
X2477324Y-26590174D01*
X2477324Y-26590174D02*
X2496372Y-26580650D01*
X2496372Y-26580650D02*
X2515420Y-26580650D01*
X2582086Y-26713984D02*
X2582086Y-26580650D01*
X2582086Y-26513984D02*
X2572563Y-26523508D01*
X2572563Y-26523508D02*
X2582086Y-26533031D01*
X2582086Y-26533031D02*
X2591610Y-26523508D01*
X2591610Y-26523508D02*
X2582086Y-26513984D01*
X2582086Y-26513984D02*
X2582086Y-26533031D01*
X2705896Y-26713984D02*
X2686848Y-26704460D01*
X2686848Y-26704460D02*
X2677324Y-26685412D01*
X2677324Y-26685412D02*
X2677324Y-26513984D01*
X2810658Y-26713984D02*
X2791610Y-26704460D01*
X2791610Y-26704460D02*
X2782086Y-26685412D01*
X2782086Y-26685412D02*
X2782086Y-26513984D01*
X3039229Y-26713984D02*
X3039229Y-26513984D01*
X3039229Y-26513984D02*
X3105896Y-26656841D01*
X3105896Y-26656841D02*
X3172562Y-26513984D01*
X3172562Y-26513984D02*
X3172562Y-26713984D01*
X3353515Y-26713984D02*
X3353515Y-26609222D01*
X3353515Y-26609222D02*
X3343991Y-26590174D01*
X3343991Y-26590174D02*
X3324943Y-26580650D01*
X3324943Y-26580650D02*
X3286848Y-26580650D01*
X3286848Y-26580650D02*
X3267801Y-26590174D01*
X3353515Y-26704460D02*
X3334467Y-26713984D01*
X3334467Y-26713984D02*
X3286848Y-26713984D01*
X3286848Y-26713984D02*
X3267801Y-26704460D01*
X3267801Y-26704460D02*
X3258277Y-26685412D01*
X3258277Y-26685412D02*
X3258277Y-26666365D01*
X3258277Y-26666365D02*
X3267801Y-26647317D01*
X3267801Y-26647317D02*
X3286848Y-26637793D01*
X3286848Y-26637793D02*
X3334467Y-26637793D01*
X3334467Y-26637793D02*
X3353515Y-26628269D01*
X3448753Y-26580650D02*
X3448753Y-26780650D01*
X3448753Y-26590174D02*
X3467801Y-26580650D01*
X3467801Y-26580650D02*
X3505896Y-26580650D01*
X3505896Y-26580650D02*
X3524943Y-26590174D01*
X3524943Y-26590174D02*
X3534467Y-26599698D01*
X3534467Y-26599698D02*
X3543991Y-26618746D01*
X3543991Y-26618746D02*
X3543991Y-26675888D01*
X3543991Y-26675888D02*
X3534467Y-26694936D01*
X3534467Y-26694936D02*
X3524943Y-26704460D01*
X3524943Y-26704460D02*
X3505896Y-26713984D01*
X3505896Y-26713984D02*
X3467801Y-26713984D01*
X3467801Y-26713984D02*
X3448753Y-26704460D01*
X3629705Y-26694936D02*
X3639229Y-26704460D01*
X3639229Y-26704460D02*
X3629705Y-26713984D01*
X3629705Y-26713984D02*
X3620182Y-26704460D01*
X3620182Y-26704460D02*
X3629705Y-26694936D01*
X3629705Y-26694936D02*
X3629705Y-26713984D01*
X3629705Y-26590174D02*
X3639229Y-26599698D01*
X3639229Y-26599698D02*
X3629705Y-26609222D01*
X3629705Y-26609222D02*
X3620182Y-26599698D01*
X3620182Y-26599698D02*
X3629705Y-26590174D01*
X3629705Y-26590174D02*
X3629705Y-26609222D01*
X1797500Y-26942500D02*
X1997500Y-27142500D01*
X1997500Y-26942500D02*
X1797500Y-27142500D01*
X2343991Y-27000650D02*
X2343991Y-27133984D01*
X2296372Y-26924460D02*
X2248753Y-27067317D01*
X2248753Y-27067317D02*
X2372563Y-27067317D01*
X2448753Y-27114936D02*
X2458277Y-27124460D01*
X2458277Y-27124460D02*
X2448753Y-27133984D01*
X2448753Y-27133984D02*
X2439229Y-27124460D01*
X2439229Y-27124460D02*
X2448753Y-27114936D01*
X2448753Y-27114936D02*
X2448753Y-27133984D01*
X2582086Y-26933984D02*
X2601134Y-26933984D01*
X2601134Y-26933984D02*
X2620182Y-26943508D01*
X2620182Y-26943508D02*
X2629705Y-26953031D01*
X2629705Y-26953031D02*
X2639229Y-26972079D01*
X2639229Y-26972079D02*
X2648753Y-27010174D01*
X2648753Y-27010174D02*
X2648753Y-27057793D01*
X2648753Y-27057793D02*
X2639229Y-27095888D01*
X2639229Y-27095888D02*
X2629705Y-27114936D01*
X2629705Y-27114936D02*
X2620182Y-27124460D01*
X2620182Y-27124460D02*
X2601134Y-27133984D01*
X2601134Y-27133984D02*
X2582086Y-27133984D01*
X2582086Y-27133984D02*
X2563039Y-27124460D01*
X2563039Y-27124460D02*
X2553515Y-27114936D01*
X2553515Y-27114936D02*
X2543991Y-27095888D01*
X2543991Y-27095888D02*
X2534467Y-27057793D01*
X2534467Y-27057793D02*
X2534467Y-27010174D01*
X2534467Y-27010174D02*
X2543991Y-26972079D01*
X2543991Y-26972079D02*
X2553515Y-26953031D01*
X2553515Y-26953031D02*
X2563039Y-26943508D01*
X2563039Y-26943508D02*
X2582086Y-26933984D01*
X2772563Y-26933984D02*
X2791610Y-26933984D01*
X2791610Y-26933984D02*
X2810658Y-26943508D01*
X2810658Y-26943508D02*
X2820182Y-26953031D01*
X2820182Y-26953031D02*
X2829705Y-26972079D01*
X2829705Y-26972079D02*
X2839229Y-27010174D01*
X2839229Y-27010174D02*
X2839229Y-27057793D01*
X2839229Y-27057793D02*
X2829705Y-27095888D01*
X2829705Y-27095888D02*
X2820182Y-27114936D01*
X2820182Y-27114936D02*
X2810658Y-27124460D01*
X2810658Y-27124460D02*
X2791610Y-27133984D01*
X2791610Y-27133984D02*
X2772563Y-27133984D01*
X2772563Y-27133984D02*
X2753515Y-27124460D01*
X2753515Y-27124460D02*
X2743991Y-27114936D01*
X2743991Y-27114936D02*
X2734467Y-27095888D01*
X2734467Y-27095888D02*
X2724944Y-27057793D01*
X2724944Y-27057793D02*
X2724944Y-27010174D01*
X2724944Y-27010174D02*
X2734467Y-26972079D01*
X2734467Y-26972079D02*
X2743991Y-26953031D01*
X2743991Y-26953031D02*
X2753515Y-26943508D01*
X2753515Y-26943508D02*
X2772563Y-26933984D01*
X2963039Y-26933984D02*
X2982086Y-26933984D01*
X2982086Y-26933984D02*
X3001134Y-26943508D01*
X3001134Y-26943508D02*
X3010658Y-26953031D01*
X3010658Y-26953031D02*
X3020182Y-26972079D01*
X3020182Y-26972079D02*
X3029705Y-27010174D01*
X3029705Y-27010174D02*
X3029705Y-27057793D01*
X3029705Y-27057793D02*
X3020182Y-27095888D01*
X3020182Y-27095888D02*
X3010658Y-27114936D01*
X3010658Y-27114936D02*
X3001134Y-27124460D01*
X3001134Y-27124460D02*
X2982086Y-27133984D01*
X2982086Y-27133984D02*
X2963039Y-27133984D01*
X2963039Y-27133984D02*
X2943991Y-27124460D01*
X2943991Y-27124460D02*
X2934467Y-27114936D01*
X2934467Y-27114936D02*
X2924943Y-27095888D01*
X2924943Y-27095888D02*
X2915420Y-27057793D01*
X2915420Y-27057793D02*
X2915420Y-27010174D01*
X2915420Y-27010174D02*
X2924943Y-26972079D01*
X2924943Y-26972079D02*
X2934467Y-26953031D01*
X2934467Y-26953031D02*
X2943991Y-26943508D01*
X2943991Y-26943508D02*
X2963039Y-26933984D01*
X3115420Y-27133984D02*
X3115420Y-27000650D01*
X3115420Y-27019698D02*
X3124943Y-27010174D01*
X3124943Y-27010174D02*
X3143991Y-27000650D01*
X3143991Y-27000650D02*
X3172563Y-27000650D01*
X3172563Y-27000650D02*
X3191610Y-27010174D01*
X3191610Y-27010174D02*
X3201134Y-27029222D01*
X3201134Y-27029222D02*
X3201134Y-27133984D01*
X3201134Y-27029222D02*
X3210658Y-27010174D01*
X3210658Y-27010174D02*
X3229705Y-27000650D01*
X3229705Y-27000650D02*
X3258277Y-27000650D01*
X3258277Y-27000650D02*
X3277324Y-27010174D01*
X3277324Y-27010174D02*
X3286848Y-27029222D01*
X3286848Y-27029222D02*
X3286848Y-27133984D01*
X3382086Y-27133984D02*
X3382086Y-27000650D01*
X3382086Y-27019698D02*
X3391610Y-27010174D01*
X3391610Y-27010174D02*
X3410658Y-27000650D01*
X3410658Y-27000650D02*
X3439229Y-27000650D01*
X3439229Y-27000650D02*
X3458277Y-27010174D01*
X3458277Y-27010174D02*
X3467801Y-27029222D01*
X3467801Y-27029222D02*
X3467801Y-27133984D01*
X3467801Y-27029222D02*
X3477324Y-27010174D01*
X3477324Y-27010174D02*
X3496372Y-27000650D01*
X3496372Y-27000650D02*
X3524943Y-27000650D01*
X3524943Y-27000650D02*
X3543991Y-27010174D01*
X3543991Y-27010174D02*
X3553515Y-27029222D01*
X3553515Y-27029222D02*
X3553515Y-27133984D01*
X3943991Y-26924460D02*
X3772563Y-27181603D01*
X4201134Y-26933984D02*
X4220182Y-26933984D01*
X4220182Y-26933984D02*
X4239229Y-26943508D01*
X4239229Y-26943508D02*
X4248753Y-26953031D01*
X4248753Y-26953031D02*
X4258277Y-26972079D01*
X4258277Y-26972079D02*
X4267801Y-27010174D01*
X4267801Y-27010174D02*
X4267801Y-27057793D01*
X4267801Y-27057793D02*
X4258277Y-27095888D01*
X4258277Y-27095888D02*
X4248753Y-27114936D01*
X4248753Y-27114936D02*
X4239229Y-27124460D01*
X4239229Y-27124460D02*
X4220182Y-27133984D01*
X4220182Y-27133984D02*
X4201134Y-27133984D01*
X4201134Y-27133984D02*
X4182086Y-27124460D01*
X4182086Y-27124460D02*
X4172563Y-27114936D01*
X4172563Y-27114936D02*
X4163039Y-27095888D01*
X4163039Y-27095888D02*
X4153515Y-27057793D01*
X4153515Y-27057793D02*
X4153515Y-27010174D01*
X4153515Y-27010174D02*
X4163039Y-26972079D01*
X4163039Y-26972079D02*
X4172563Y-26953031D01*
X4172563Y-26953031D02*
X4182086Y-26943508D01*
X4182086Y-26943508D02*
X4201134Y-26933984D01*
X4353515Y-27114936D02*
X4363039Y-27124460D01*
X4363039Y-27124460D02*
X4353515Y-27133984D01*
X4353515Y-27133984D02*
X4343991Y-27124460D01*
X4343991Y-27124460D02*
X4353515Y-27114936D01*
X4353515Y-27114936D02*
X4353515Y-27133984D01*
X4553515Y-27133984D02*
X4439229Y-27133984D01*
X4496372Y-27133984D02*
X4496372Y-26933984D01*
X4496372Y-26933984D02*
X4477325Y-26962555D01*
X4477325Y-26962555D02*
X4458277Y-26981603D01*
X4458277Y-26981603D02*
X4439229Y-26991127D01*
X4734468Y-26933984D02*
X4639229Y-26933984D01*
X4639229Y-26933984D02*
X4629706Y-27029222D01*
X4629706Y-27029222D02*
X4639229Y-27019698D01*
X4639229Y-27019698D02*
X4658277Y-27010174D01*
X4658277Y-27010174D02*
X4705896Y-27010174D01*
X4705896Y-27010174D02*
X4724944Y-27019698D01*
X4724944Y-27019698D02*
X4734468Y-27029222D01*
X4734468Y-27029222D02*
X4743991Y-27048269D01*
X4743991Y-27048269D02*
X4743991Y-27095888D01*
X4743991Y-27095888D02*
X4734468Y-27114936D01*
X4734468Y-27114936D02*
X4724944Y-27124460D01*
X4724944Y-27124460D02*
X4705896Y-27133984D01*
X4705896Y-27133984D02*
X4658277Y-27133984D01*
X4658277Y-27133984D02*
X4639229Y-27124460D01*
X4639229Y-27124460D02*
X4629706Y-27114936D01*
X4810658Y-26933984D02*
X4943991Y-26933984D01*
X4943991Y-26933984D02*
X4858277Y-27133984D01*
X5115420Y-26933984D02*
X5020182Y-26933984D01*
X5020182Y-26933984D02*
X5010658Y-27029222D01*
X5010658Y-27029222D02*
X5020182Y-27019698D01*
X5020182Y-27019698D02*
X5039229Y-27010174D01*
X5039229Y-27010174D02*
X5086849Y-27010174D01*
X5086849Y-27010174D02*
X5105896Y-27019698D01*
X5105896Y-27019698D02*
X5115420Y-27029222D01*
X5115420Y-27029222D02*
X5124944Y-27048269D01*
X5124944Y-27048269D02*
X5124944Y-27095888D01*
X5124944Y-27095888D02*
X5115420Y-27114936D01*
X5115420Y-27114936D02*
X5105896Y-27124460D01*
X5105896Y-27124460D02*
X5086849Y-27133984D01*
X5086849Y-27133984D02*
X5039229Y-27133984D01*
X5039229Y-27133984D02*
X5020182Y-27124460D01*
X5020182Y-27124460D02*
X5010658Y-27114936D01*
X5201134Y-26933984D02*
X5201134Y-26972079D01*
X5277325Y-26933984D02*
X5277325Y-26972079D01*
X5572563Y-27210174D02*
X5563039Y-27200650D01*
X5563039Y-27200650D02*
X5543991Y-27172079D01*
X5543991Y-27172079D02*
X5534468Y-27153031D01*
X5534468Y-27153031D02*
X5524944Y-27124460D01*
X5524944Y-27124460D02*
X5515420Y-27076841D01*
X5515420Y-27076841D02*
X5515420Y-27038746D01*
X5515420Y-27038746D02*
X5524944Y-26991127D01*
X5524944Y-26991127D02*
X5534468Y-26962555D01*
X5534468Y-26962555D02*
X5543991Y-26943508D01*
X5543991Y-26943508D02*
X5563039Y-26914936D01*
X5563039Y-26914936D02*
X5572563Y-26905412D01*
X5658277Y-27133984D02*
X5696372Y-27133984D01*
X5696372Y-27133984D02*
X5715420Y-27124460D01*
X5715420Y-27124460D02*
X5724944Y-27114936D01*
X5724944Y-27114936D02*
X5743991Y-27086365D01*
X5743991Y-27086365D02*
X5753515Y-27048269D01*
X5753515Y-27048269D02*
X5753515Y-26972079D01*
X5753515Y-26972079D02*
X5743991Y-26953031D01*
X5743991Y-26953031D02*
X5734468Y-26943508D01*
X5734468Y-26943508D02*
X5715420Y-26933984D01*
X5715420Y-26933984D02*
X5677325Y-26933984D01*
X5677325Y-26933984D02*
X5658277Y-26943508D01*
X5658277Y-26943508D02*
X5648753Y-26953031D01*
X5648753Y-26953031D02*
X5639229Y-26972079D01*
X5639229Y-26972079D02*
X5639229Y-27019698D01*
X5639229Y-27019698D02*
X5648753Y-27038746D01*
X5648753Y-27038746D02*
X5658277Y-27048269D01*
X5658277Y-27048269D02*
X5677325Y-27057793D01*
X5677325Y-27057793D02*
X5715420Y-27057793D01*
X5715420Y-27057793D02*
X5734468Y-27048269D01*
X5734468Y-27048269D02*
X5743991Y-27038746D01*
X5743991Y-27038746D02*
X5753515Y-27019698D01*
X5991610Y-27133984D02*
X5991610Y-26933984D01*
X6077325Y-27133984D02*
X6077325Y-27029222D01*
X6077325Y-27029222D02*
X6067801Y-27010174D01*
X6067801Y-27010174D02*
X6048753Y-27000650D01*
X6048753Y-27000650D02*
X6020182Y-27000650D01*
X6020182Y-27000650D02*
X6001134Y-27010174D01*
X6001134Y-27010174D02*
X5991610Y-27019698D01*
X6201134Y-27133984D02*
X6182087Y-27124460D01*
X6182087Y-27124460D02*
X6172563Y-27114936D01*
X6172563Y-27114936D02*
X6163039Y-27095888D01*
X6163039Y-27095888D02*
X6163039Y-27038746D01*
X6163039Y-27038746D02*
X6172563Y-27019698D01*
X6172563Y-27019698D02*
X6182087Y-27010174D01*
X6182087Y-27010174D02*
X6201134Y-27000650D01*
X6201134Y-27000650D02*
X6229706Y-27000650D01*
X6229706Y-27000650D02*
X6248753Y-27010174D01*
X6248753Y-27010174D02*
X6258277Y-27019698D01*
X6258277Y-27019698D02*
X6267801Y-27038746D01*
X6267801Y-27038746D02*
X6267801Y-27095888D01*
X6267801Y-27095888D02*
X6258277Y-27114936D01*
X6258277Y-27114936D02*
X6248753Y-27124460D01*
X6248753Y-27124460D02*
X6229706Y-27133984D01*
X6229706Y-27133984D02*
X6201134Y-27133984D01*
X6382087Y-27133984D02*
X6363039Y-27124460D01*
X6363039Y-27124460D02*
X6353515Y-27105412D01*
X6353515Y-27105412D02*
X6353515Y-26933984D01*
X6534468Y-27124460D02*
X6515420Y-27133984D01*
X6515420Y-27133984D02*
X6477325Y-27133984D01*
X6477325Y-27133984D02*
X6458277Y-27124460D01*
X6458277Y-27124460D02*
X6448753Y-27105412D01*
X6448753Y-27105412D02*
X6448753Y-27029222D01*
X6448753Y-27029222D02*
X6458277Y-27010174D01*
X6458277Y-27010174D02*
X6477325Y-27000650D01*
X6477325Y-27000650D02*
X6515420Y-27000650D01*
X6515420Y-27000650D02*
X6534468Y-27010174D01*
X6534468Y-27010174D02*
X6543991Y-27029222D01*
X6543991Y-27029222D02*
X6543991Y-27048269D01*
X6543991Y-27048269D02*
X6448753Y-27067317D01*
X6620182Y-27124460D02*
X6639230Y-27133984D01*
X6639230Y-27133984D02*
X6677325Y-27133984D01*
X6677325Y-27133984D02*
X6696372Y-27124460D01*
X6696372Y-27124460D02*
X6705896Y-27105412D01*
X6705896Y-27105412D02*
X6705896Y-27095888D01*
X6705896Y-27095888D02*
X6696372Y-27076841D01*
X6696372Y-27076841D02*
X6677325Y-27067317D01*
X6677325Y-27067317D02*
X6648753Y-27067317D01*
X6648753Y-27067317D02*
X6629706Y-27057793D01*
X6629706Y-27057793D02*
X6620182Y-27038746D01*
X6620182Y-27038746D02*
X6620182Y-27029222D01*
X6620182Y-27029222D02*
X6629706Y-27010174D01*
X6629706Y-27010174D02*
X6648753Y-27000650D01*
X6648753Y-27000650D02*
X6677325Y-27000650D01*
X6677325Y-27000650D02*
X6696372Y-27010174D01*
X6772563Y-27210174D02*
X6782087Y-27200650D01*
X6782087Y-27200650D02*
X6801134Y-27172079D01*
X6801134Y-27172079D02*
X6810658Y-27153031D01*
X6810658Y-27153031D02*
X6820182Y-27124460D01*
X6820182Y-27124460D02*
X6829706Y-27076841D01*
X6829706Y-27076841D02*
X6829706Y-27038746D01*
X6829706Y-27038746D02*
X6820182Y-26991127D01*
X6820182Y-26991127D02*
X6810658Y-26962555D01*
X6810658Y-26962555D02*
X6801134Y-26943508D01*
X6801134Y-26943508D02*
X6782087Y-26914936D01*
X6782087Y-26914936D02*
X6772563Y-26905412D01*
X7134468Y-27210174D02*
X7124944Y-27200650D01*
X7124944Y-27200650D02*
X7105896Y-27172079D01*
X7105896Y-27172079D02*
X7096372Y-27153031D01*
X7096372Y-27153031D02*
X7086849Y-27124460D01*
X7086849Y-27124460D02*
X7077325Y-27076841D01*
X7077325Y-27076841D02*
X7077325Y-27038746D01*
X7077325Y-27038746D02*
X7086849Y-26991127D01*
X7086849Y-26991127D02*
X7096372Y-26962555D01*
X7096372Y-26962555D02*
X7105896Y-26943508D01*
X7105896Y-26943508D02*
X7124944Y-26914936D01*
X7124944Y-26914936D02*
X7134468Y-26905412D01*
X7210658Y-27000650D02*
X7210658Y-27133984D01*
X7210658Y-27019698D02*
X7220182Y-27010174D01*
X7220182Y-27010174D02*
X7239230Y-27000650D01*
X7239230Y-27000650D02*
X7267801Y-27000650D01*
X7267801Y-27000650D02*
X7286849Y-27010174D01*
X7286849Y-27010174D02*
X7296372Y-27029222D01*
X7296372Y-27029222D02*
X7296372Y-27133984D01*
X7420182Y-27133984D02*
X7401134Y-27124460D01*
X7401134Y-27124460D02*
X7391611Y-27114936D01*
X7391611Y-27114936D02*
X7382087Y-27095888D01*
X7382087Y-27095888D02*
X7382087Y-27038746D01*
X7382087Y-27038746D02*
X7391611Y-27019698D01*
X7391611Y-27019698D02*
X7401134Y-27010174D01*
X7401134Y-27010174D02*
X7420182Y-27000650D01*
X7420182Y-27000650D02*
X7448753Y-27000650D01*
X7448753Y-27000650D02*
X7467801Y-27010174D01*
X7467801Y-27010174D02*
X7477325Y-27019698D01*
X7477325Y-27019698D02*
X7486849Y-27038746D01*
X7486849Y-27038746D02*
X7486849Y-27095888D01*
X7486849Y-27095888D02*
X7477325Y-27114936D01*
X7477325Y-27114936D02*
X7467801Y-27124460D01*
X7467801Y-27124460D02*
X7448753Y-27133984D01*
X7448753Y-27133984D02*
X7420182Y-27133984D01*
X7543992Y-27000650D02*
X7620182Y-27000650D01*
X7572563Y-26933984D02*
X7572563Y-27105412D01*
X7572563Y-27105412D02*
X7582087Y-27124460D01*
X7582087Y-27124460D02*
X7601134Y-27133984D01*
X7601134Y-27133984D02*
X7620182Y-27133984D01*
X7839230Y-27000650D02*
X7839230Y-27200650D01*
X7839230Y-27010174D02*
X7858277Y-27000650D01*
X7858277Y-27000650D02*
X7896373Y-27000650D01*
X7896373Y-27000650D02*
X7915420Y-27010174D01*
X7915420Y-27010174D02*
X7924944Y-27019698D01*
X7924944Y-27019698D02*
X7934468Y-27038746D01*
X7934468Y-27038746D02*
X7934468Y-27095888D01*
X7934468Y-27095888D02*
X7924944Y-27114936D01*
X7924944Y-27114936D02*
X7915420Y-27124460D01*
X7915420Y-27124460D02*
X7896373Y-27133984D01*
X7896373Y-27133984D02*
X7858277Y-27133984D01*
X7858277Y-27133984D02*
X7839230Y-27124460D01*
X8048753Y-27133984D02*
X8029706Y-27124460D01*
X8029706Y-27124460D02*
X8020182Y-27105412D01*
X8020182Y-27105412D02*
X8020182Y-26933984D01*
X8210658Y-27133984D02*
X8210658Y-27029222D01*
X8210658Y-27029222D02*
X8201134Y-27010174D01*
X8201134Y-27010174D02*
X8182087Y-27000650D01*
X8182087Y-27000650D02*
X8143992Y-27000650D01*
X8143992Y-27000650D02*
X8124944Y-27010174D01*
X8210658Y-27124460D02*
X8191611Y-27133984D01*
X8191611Y-27133984D02*
X8143992Y-27133984D01*
X8143992Y-27133984D02*
X8124944Y-27124460D01*
X8124944Y-27124460D02*
X8115420Y-27105412D01*
X8115420Y-27105412D02*
X8115420Y-27086365D01*
X8115420Y-27086365D02*
X8124944Y-27067317D01*
X8124944Y-27067317D02*
X8143992Y-27057793D01*
X8143992Y-27057793D02*
X8191611Y-27057793D01*
X8191611Y-27057793D02*
X8210658Y-27048269D01*
X8277325Y-27000650D02*
X8353515Y-27000650D01*
X8305896Y-26933984D02*
X8305896Y-27105412D01*
X8305896Y-27105412D02*
X8315420Y-27124460D01*
X8315420Y-27124460D02*
X8334468Y-27133984D01*
X8334468Y-27133984D02*
X8353515Y-27133984D01*
X8496373Y-27124460D02*
X8477325Y-27133984D01*
X8477325Y-27133984D02*
X8439230Y-27133984D01*
X8439230Y-27133984D02*
X8420182Y-27124460D01*
X8420182Y-27124460D02*
X8410658Y-27105412D01*
X8410658Y-27105412D02*
X8410658Y-27029222D01*
X8410658Y-27029222D02*
X8420182Y-27010174D01*
X8420182Y-27010174D02*
X8439230Y-27000650D01*
X8439230Y-27000650D02*
X8477325Y-27000650D01*
X8477325Y-27000650D02*
X8496373Y-27010174D01*
X8496373Y-27010174D02*
X8505896Y-27029222D01*
X8505896Y-27029222D02*
X8505896Y-27048269D01*
X8505896Y-27048269D02*
X8410658Y-27067317D01*
X8677325Y-27133984D02*
X8677325Y-26933984D01*
X8677325Y-27124460D02*
X8658277Y-27133984D01*
X8658277Y-27133984D02*
X8620182Y-27133984D01*
X8620182Y-27133984D02*
X8601135Y-27124460D01*
X8601135Y-27124460D02*
X8591611Y-27114936D01*
X8591611Y-27114936D02*
X8582087Y-27095888D01*
X8582087Y-27095888D02*
X8582087Y-27038746D01*
X8582087Y-27038746D02*
X8591611Y-27019698D01*
X8591611Y-27019698D02*
X8601135Y-27010174D01*
X8601135Y-27010174D02*
X8620182Y-27000650D01*
X8620182Y-27000650D02*
X8658277Y-27000650D01*
X8658277Y-27000650D02*
X8677325Y-27010174D01*
X8753516Y-27210174D02*
X8763039Y-27200650D01*
X8763039Y-27200650D02*
X8782087Y-27172079D01*
X8782087Y-27172079D02*
X8791611Y-27153031D01*
X8791611Y-27153031D02*
X8801135Y-27124460D01*
X8801135Y-27124460D02*
X8810658Y-27076841D01*
X8810658Y-27076841D02*
X8810658Y-27038746D01*
X8810658Y-27038746D02*
X8801135Y-26991127D01*
X8801135Y-26991127D02*
X8791611Y-26962555D01*
X8791611Y-26962555D02*
X8782087Y-26943508D01*
X8782087Y-26943508D02*
X8763039Y-26914936D01*
X8763039Y-26914936D02*
X8753516Y-26905412D01*
M02*
